<?xml version="1.0" encoding="UTF-8" standalone="no"?>
<!-- Created with Inkscape (http://www.inkscape.org/) -->

<svg
   width="93.111542mm"
   height="28.828999mm"
   viewBox="0 0 93.111542 28.828999"
   version="1.1"
   id="svg818"
   inkscape:version="1.2.2 (b0a8486541, 2022-12-01)"
   sodipodi:docname="metals_electron_motion_decomposition.svg"
   inkscape:export-filename="metals_electron_motion_decomposition.pdf"
   inkscape:export-xdpi="96"
   inkscape:export-ydpi="96"
   xmlns:inkscape="http://www.inkscape.org/namespaces/inkscape"
   xmlns:sodipodi="http://sodipodi.sourceforge.net/DTD/sodipodi-0.dtd"
   xmlns="http://www.w3.org/2000/svg"
   xmlns:svg="http://www.w3.org/2000/svg">
  <sodipodi:namedview
     id="namedview820"
     pagecolor="#505050"
     bordercolor="#eeeeee"
     borderopacity="1"
     inkscape:showpageshadow="0"
     inkscape:pageopacity="0"
     inkscape:pagecheckerboard="0"
     inkscape:deskcolor="#505050"
     inkscape:document-units="mm"
     showgrid="false"
     inkscape:zoom="1"
     inkscape:cx="127"
     inkscape:cy="55"
     inkscape:window-width="1470"
     inkscape:window-height="795"
     inkscape:window-x="0"
     inkscape:window-y="0"
     inkscape:window-maximized="1"
     inkscape:current-layer="layer1" />
  <defs
     id="defs815">
    <clipPath
       clipPathUnits="userSpaceOnUse"
       id="clipPath66">
      <path
         d="M -1.5259e-5,6.1035e-5 H 408.23998 V 340.08006 H -1.5259e-5 Z"
         clip-rule="evenodd"
         id="path64" />
    </clipPath>
    <clipPath
       clipPathUnits="userSpaceOnUse"
       id="clipPath366">
      <path
         d="M -1.5259e-5,6.1035e-5 H 408.23998 V 340.08006 H -1.5259e-5 Z"
         clip-rule="evenodd"
         id="path364" />
    </clipPath>
    <clipPath
       clipPathUnits="userSpaceOnUse"
       id="clipPath396">
      <path
         d="M 0,1.2207e-4 H 408.24 V 340.08012 H 0 Z"
         clip-rule="evenodd"
         id="path394" />
    </clipPath>
    <clipPath
       clipPathUnits="userSpaceOnUse"
       id="clipPath406">
      <path
         d="M 0,1.2207e-4 H 408.24 V 340.08012 H 0 Z"
         clip-rule="evenodd"
         id="path404" />
    </clipPath>
    <clipPath
       clipPathUnits="userSpaceOnUse"
       id="clipPath416">
      <path
         d="M 6.083e-6,-3.0518e-5 H 408.24001 V 340.07997 H 6.083e-6 Z"
         clip-rule="evenodd"
         id="path414" />
    </clipPath>
    <clipPath
       clipPathUnits="userSpaceOnUse"
       id="clipPath428">
      <path
         d="M 6.083e-6,-3.0518e-5 H 408.24001 V 340.07997 H 6.083e-6 Z"
         clip-rule="evenodd"
         id="path426" />
    </clipPath>
    <clipPath
       clipPathUnits="userSpaceOnUse"
       id="clipPath440">
      <path
         d="M 0,2.1362e-4 H 408.24 V 340.08021 H 0 Z"
         clip-rule="evenodd"
         id="path438" />
    </clipPath>
    <clipPath
       clipPathUnits="userSpaceOnUse"
       id="clipPath450">
      <path
         d="M 0,6.1035e-5 H 408.24 V 340.08006 H 0 Z"
         clip-rule="evenodd"
         id="path448" />
    </clipPath>
    <clipPath
       clipPathUnits="userSpaceOnUse"
       id="clipPath460">
      <path
         d="M 0,9.1553e-5 H 408.24 V 340.08009 H 0 Z"
         clip-rule="evenodd"
         id="path458" />
    </clipPath>
    <clipPath
       clipPathUnits="userSpaceOnUse"
       id="clipPath470">
      <path
         d="M 0,9.1553e-5 H 408.24 V 340.08009 H 0 Z"
         clip-rule="evenodd"
         id="path468" />
    </clipPath>
    <clipPath
       clipPathUnits="userSpaceOnUse"
       id="clipPath480">
      <path
         d="M -3.0518e-5,1.5259e-4 H 408.23997 V 340.08015 H -3.0518e-5 Z"
         clip-rule="evenodd"
         id="path478" />
    </clipPath>
    <clipPath
       clipPathUnits="userSpaceOnUse"
       id="clipPath620">
      <path
         d="M 6.083e-6,-3.0518e-5 H 408.24001 V 340.07997 H 6.083e-6 Z"
         clip-rule="evenodd"
         id="path618" />
    </clipPath>
    <clipPath
       clipPathUnits="userSpaceOnUse"
       id="clipPath632">
      <path
         d="M 6.083e-6,-3.0518e-5 H 408.24001 V 340.07997 H 6.083e-6 Z"
         clip-rule="evenodd"
         id="path630" />
    </clipPath>
  </defs>
  <g
     inkscape:label="Layer 1"
     inkscape:groupmode="layer"
     id="layer1"
     transform="translate(-58.328846,-134.0855)">
    <rect
       style="opacity:1;fill:#ffffff;stroke:#ffffff;stroke-width:0.619125;stop-color:#000000"
       id="rect1549"
       width="99.380875"
       height="29.380875"
       x="58.935108"
       y="133.07367" />
    <g
       id="g1495"
       transform="translate(8.8680254,-0.73589112)">
      <g
         id="g60"
         transform="matrix(0.35277777,0,0,-0.35277777,23.109494,253.45844)">
        <g
           id="g62"
           clip-path="url(#clipPath66)">
          <path
             d="m 182.75,298.4 c 0,3.7 2.99,6.69 6.69,6.69 3.69,0 6.69,-2.99 6.69,-6.69 0,-3.69 -3,-6.69 -6.69,-6.69 -3.7,0 -6.69,3 -6.69,6.69 z"
             style="fill:none;stroke:#ff0000;stroke-width:4.5;stroke-linecap:butt;stroke-linejoin:miter;stroke-miterlimit:10;stroke-dasharray:none;stroke-opacity:1"
             id="path68" />
        </g>
      </g>
      <g
         id="g390"
         transform="matrix(0.35277777,0,0,-0.35277777,23.109494,253.45844)">
        <g
           id="g392"
           clip-path="url(#clipPath396)">
          <path
             d="m 114.49,298.36 c 0,3.69 3,6.69 6.7,6.69 3.69,0 6.69,-3 6.69,-6.69 0,-3.7 -3,-6.69 -6.69,-6.69 -3.7,0 -6.7,2.99 -6.7,6.69 z"
             style="fill:#ff0000;fill-opacity:1;fill-rule:evenodd;stroke:none"
             id="path398" />
        </g>
      </g>
      <g
         id="g400"
         transform="matrix(0.35277777,0,0,-0.35277777,23.109494,253.45844)">
        <g
           id="g402"
           clip-path="url(#clipPath406)">
          <path
             d="m 114.49,298.36 c 0,3.69 3,6.69 6.7,6.69 3.69,0 6.69,-3 6.69,-6.69 0,-3.7 -3,-6.69 -6.69,-6.69 -3.7,0 -6.7,2.99 -6.7,6.69 z"
             style="fill:none;stroke:#ff0000;stroke-width:4.5;stroke-linecap:butt;stroke-linejoin:miter;stroke-miterlimit:10;stroke-dasharray:none;stroke-opacity:1"
             id="path408" />
        </g>
      </g>
      <g
         id="g410"
         transform="matrix(0.35277777,0,0,-0.35277777,23.109494,253.45844)">
        <g
           id="g412"
           clip-path="url(#clipPath416)">
          <text
             xml:space="preserve"
             transform="matrix(1,0,0,-1,155.45,292.68)"
             style="font-variant:normal;font-weight:bold;font-size:15.96px;font-family:Calibri;-inkscape-font-specification:Calibri-Bold;writing-mode:lr-tb;fill:#000000;fill-opacity:1;fill-rule:nonzero;stroke:none"
             id="text420"><tspan
               x="0"
               y="0"
               id="tspan418">=</tspan></text>
        </g>
      </g>
      <g
         id="g422"
         transform="matrix(0.35277777,0,0,-0.35277777,23.109494,253.45844)">
        <g
           id="g424"
           clip-path="url(#clipPath428)">
          <text
             xml:space="preserve"
             transform="matrix(1,0,0,-1,222.94,293.45)"
             style="font-variant:normal;font-weight:bold;font-size:15.96px;font-family:Calibri;-inkscape-font-specification:Calibri-Bold;writing-mode:lr-tb;fill:#000000;fill-opacity:1;fill-rule:nonzero;stroke:none"
             id="text432"><tspan
               x="0"
               y="0"
               id="tspan430">+</tspan></text>
        </g>
      </g>
      <g
         id="g434"
         transform="matrix(0.35277777,0,0,-0.35277777,23.109494,253.45844)">
        <g
           id="g436"
           clip-path="url(#clipPath440)">
          <path
             d="m 308.93,327.9 -56.75,-56.75 0.71,-0.71 56.74,56.75 z m 1.76,-3.18 2.13,6.36 -6.37,-2.12 z m -59.57,-51.1 -2.12,-6.36 6.36,2.12 z"
             style="fill:#000000;fill-opacity:1;fill-rule:nonzero;stroke:none"
             id="path442" />
        </g>
      </g>
      <g
         id="g444"
         transform="matrix(0.35277777,0,0,-0.35277777,23.109494,253.45844)">
        <g
           id="g446"
           clip-path="url(#clipPath450)">
          <path
             d="m 283.75,333.38 v -71.72 h -1 v 71.72 z m -3.5,-1 3,6 3,-6 z m 6,-69.72 -3,-6 -3,6 z"
             style="fill:#000000;fill-opacity:1;fill-rule:nonzero;stroke:none"
             id="path452" />
        </g>
      </g>
      <g
         id="g454"
         transform="matrix(0.35277777,0,0,-0.35277777,23.109494,253.45844)">
        <g
           id="g456"
           clip-path="url(#clipPath460)">
          <path
             d="m 249.86,301.4 67.44,-0.67 -0.01,-1 -67.44,0.67 z m 0.97,-3.51 -5.97,3.06 6.03,2.94 z m 65.5,5.35 5.97,-3.06 -6.03,-2.94 z"
             style="fill:#000000;fill-opacity:1;fill-rule:nonzero;stroke:none"
             id="path462" />
        </g>
      </g>
      <g
         id="g464"
         transform="matrix(0.35277777,0,0,-0.35277777,23.109494,253.45844)">
        <g
           id="g466"
           clip-path="url(#clipPath470)">
          <path
             d="m 271.11,297.27 3.71,4.77 -1.32,5.95 h 5.95 l 3.71,4.77 3.71,-4.77 h 5.95 l -1.32,-5.95 3.71,-4.77 -5.36,-2.65 -1.33,-5.95 -5.36,2.65 -5.36,-2.65 -1.32,5.95 z"
             style="fill:#ff0000;fill-opacity:1;fill-rule:evenodd;stroke:none"
             id="path472" />
        </g>
      </g>
      <g
         id="g474"
         transform="matrix(0.35277777,0,0,-0.35277777,23.109494,253.45844)">
        <g
           id="g476"
           clip-path="url(#clipPath480)">
          <path
             d="m 274.46,300.72 c 0,4.8 3.9,8.7 8.7,8.7 4.81,0 8.7,-3.9 8.7,-8.7 0,-4.81 -3.89,-8.7 -8.7,-8.7 -4.8,0 -8.7,3.89 -8.7,8.7 z"
             style="fill:#ffffff;fill-opacity:1;fill-rule:evenodd;stroke:none"
             id="path482" />
        </g>
      </g>
      <g
         id="g614"
         transform="matrix(0.35277777,0,0,-0.35277777,23.109494,253.45844)">
        <g
           id="g616"
           clip-path="url(#clipPath620)">
          <text
             xml:space="preserve"
             transform="matrix(1,0,0,-1,158.83,318.1)"
             style="font-variant:normal;font-weight:normal;font-size:18.024px;font-family:Calibri;-inkscape-font-specification:Calibri;writing-mode:lr-tb;fill:#000000;fill-opacity:1;fill-rule:nonzero;stroke:none"
             id="text624"><tspan
               x="0 10.075416 18.11412 27.090073 33.001945 41.635441 50.034622"
               y="0"
               sodipodi:role="line"
               id="tspan622">Average</tspan></text>
        </g>
      </g>
      <g
         id="g626"
         transform="matrix(0.35277777,0,0,-0.35277777,23.109494,253.45844)">
        <g
           id="g628"
           clip-path="url(#clipPath632)">
          <text
             xml:space="preserve"
             transform="matrix(1,0,0,-1,250.61,317.69)"
             style="font-variant:normal;font-weight:normal;font-size:18px;font-family:Calibri;-inkscape-font-specification:Calibri;writing-mode:lr-tb;fill:#000000;fill-opacity:1;fill-rule:nonzero;stroke:none"
             id="text636"><tspan
               x="0 9.7740002 18.396 27.846001 37.296001 46.782001"
               y="0"
               sodipodi:role="line"
               id="tspan634">Random</tspan></text>
        </g>
      </g>
    </g>
  </g>
</svg>
