<?xml version="1.0" encoding="UTF-8" standalone="no"?>
<!-- Created with Inkscape (http://www.inkscape.org/) -->

<svg
   width="57.269066mm"
   height="83.710983mm"
   viewBox="0 0 57.269066 83.710983"
   version="1.1"
   id="svg1"
   inkscape:version="1.4.2 (f4327f4, 2025-05-13)"
   sodipodi:docname="oe_led_gaasp_bandgap.svg"
   inkscape:export-filename="oe_led_gaasp_bandgap.pdf"
   inkscape:export-xdpi="96"
   inkscape:export-ydpi="96"
   xmlns:inkscape="http://www.inkscape.org/namespaces/inkscape"
   xmlns:sodipodi="http://sodipodi.sourceforge.net/DTD/sodipodi-0.dtd"
   xmlns="http://www.w3.org/2000/svg"
   xmlns:svg="http://www.w3.org/2000/svg">
  <sodipodi:namedview
     id="namedview1"
     pagecolor="#ffffff"
     bordercolor="#000000"
     borderopacity="0.25"
     inkscape:showpageshadow="2"
     inkscape:pageopacity="0.0"
     inkscape:pagecheckerboard="0"
     inkscape:deskcolor="#d1d1d1"
     inkscape:document-units="mm"
     inkscape:zoom="1.7496352"
     inkscape:cx="56.297449"
     inkscape:cy="358.07464"
     inkscape:window-width="1366"
     inkscape:window-height="705"
     inkscape:window-x="-8"
     inkscape:window-y="-8"
     inkscape:window-maximized="1"
     inkscape:current-layer="layer1" />
  <defs
     id="defs1" />
  <g
     inkscape:label="Layer 1"
     inkscape:groupmode="layer"
     id="layer1"
     transform="translate(-88.859334,-77.832828)">
    <path
       d="m 101.79048,153.985 c -0.2056,-0.16166 -0.31225,-0.52667 -0.30362,-1.03912 0.008,-0.36063 0.0497,-0.49149 0.22378,-0.6733 0.27678,-0.28893 0.67445,-0.26457 0.90378,0.0553 0.22283,0.31086 0.20923,1.20866 -0.0218,1.51044 -0.18962,0.2465 -0.58259,0.31846 -0.80105,0.14665 z m 0.51802,-0.13561 c 0.15777,-0.0961 0.17387,-1.18064 0.021,-1.43453 -0.2769,-0.46072 -0.53214,-0.0595 -0.48709,0.76528 0.036,0.66123 0.1681,0.8509 0.4658,0.66925 z m 6.43265,0.13018 c -0.28516,-0.0821 -0.41405,-1.00053 -0.21605,-1.53944 0.17715,-0.48209 0.90507,-0.49215 1.08156,-0.0151 0.085,0.23028 0.12106,0.6375 0.0915,1.03837 -0.0324,0.43883 -0.44752,0.6627 -0.95705,0.51602 z m 0.50668,-0.20594 c 0.14159,-0.21859 0.15719,-1.22568 0.0218,-1.39488 -0.15298,-0.19088 -0.40052,-0.14068 -0.46363,0.0942 -0.0863,0.32111 -0.017,1.19144 0.10667,1.3462 0.14393,0.17962 0.19401,0.17285 0.33536,-0.0454 z m 0.70632,0.0913 c 0.0202,-0.0578 0.10682,-0.10402 0.19212,-0.10259 0.0853,6.4e-4 0.17014,0.0504 0.18854,0.10903 0.0211,0.0674 -0.0491,0.10498 -0.19211,0.10258 -0.14288,-0.003 -0.21201,-0.0424 -0.18855,-0.10902 z m 0.82874,-0.18853 c 0.16546,-0.17133 0.34615,-0.36024 0.40153,-0.4198 0.0555,-0.0597 0.12815,-0.22407 0.16172,-0.36558 0.10458,-0.44045 -0.2288,-0.66348 -0.55928,-0.37422 -0.21726,0.19016 -0.29312,0.0752 -0.11925,-0.18094 0.27844,-0.40996 0.92859,-0.34442 1.03311,0.10425 0.0587,0.25237 -0.095,0.59249 -0.46879,1.03655 l -0.23947,0.2845 0.40687,-0.039 c 0.34514,-0.0328 0.40252,-0.018 0.37821,0.0988 -0.023,0.11002 -0.15624,0.14071 -0.66207,0.15238 l -0.63342,0.0145 z m 6.16674,0.19385 c -0.17523,-0.19304 -0.20003,-0.30223 -0.19095,-0.84072 0.0122,-0.75708 0.16107,-0.97322 0.66203,-0.96477 0.3894,0.008 0.55055,0.21159 0.6197,0.78848 0.11455,0.95578 -0.56834,1.5925 -1.09078,1.01701 z m 0.73207,-0.36348 c 0.10026,-0.53811 -0.005,-1.16669 -0.20703,-1.23454 -0.23695,-0.0797 -0.31982,0.0326 -0.38622,0.52254 -0.0787,0.58008 0.0684,1.04344 0.33256,1.0479 0.16464,0.003 0.208,-0.053 0.26069,-0.3359 z m 0.62842,0.35088 c 0.003,-0.12749 0.047,-0.17244 0.15061,-0.15067 0.081,0.017 0.14662,0.087 0.14546,0.15566 -7.2e-4,0.0686 -0.069,0.13635 -0.15062,0.15066 -0.10422,0.0184 -0.1476,-0.0281 -0.14545,-0.15565 z m 1.25481,-0.0373 c -0.0211,-0.21576 -0.0552,-0.23929 -0.36141,-0.24944 -0.44334,-0.0147 -0.46295,-0.15804 -0.0996,-0.72833 0.59656,-0.93636 0.71889,-0.95871 0.78533,-0.14359 0.0354,0.43282 0.0813,0.59402 0.17012,0.59553 0.067,7.1e-4 0.1208,0.0591 0.11962,0.12899 -7.1e-4,0.0698 -0.0566,0.12604 -0.1234,0.12492 -0.0693,-7.1e-4 -0.13442,0.097 -0.15195,0.22953 -0.0432,0.32529 -0.30786,0.35841 -0.3387,0.0425 z m -0.0138,-0.83072 c 0.004,-0.31737 -0.0962,-0.30601 -0.32084,0.0362 l -0.17435,0.2655 0.24574,-0.024 c 0.21046,-0.0204 0.24627,-0.0605 0.24946,-0.27778 z m 5.45204,0.78036 c -0.30396,-0.51117 -0.1828,-1.40283 0.22801,-1.67813 0.135,-0.0903 0.55607,-0.0684 0.55442,0.0291 -7.7e-4,0.0466 0.0538,0.0854 0.12151,0.0866 0.26822,0.004 0.37685,1.10035 0.15071,1.52041 -0.14219,0.26409 -0.28819,0.33982 -0.64341,0.33386 -0.18121,-0.004 -0.2819,-0.0746 -0.41123,-0.29208 z m 0.66931,0.0437 c 0.18692,-0.11452 0.18179,-1.31408 -0.006,-1.50889 -0.12418,-0.1285 -0.14612,-0.12896 -0.27369,-0.005 -0.25945,0.25097 -0.18239,1.59454 0.0914,1.59329 0.0333,-2.3e-4 0.11818,-0.0356 0.18872,-0.0788 z m 0.81614,0.21172 c -0.12234,-0.12661 -0.0526,-0.3821 0.0959,-0.35091 0.081,0.017 0.14634,0.10351 0.14483,0.1921 -0.003,0.16839 -0.14239,0.26049 -0.24064,0.15881 z m 0.82326,-0.0522 c -0.0937,-0.0681 -0.21976,-0.28228 -0.28009,-0.47605 -0.0941,-0.3026 -0.0911,-0.40056 0.0216,-0.69468 0.16873,-0.43988 0.75371,-0.87953 0.98811,-0.74263 0.14887,0.0868 0.14829,0.0927 -0.0151,0.1483 -0.18683,0.0634 -0.55611,0.36143 -0.5576,0.44998 -5.2e-4,0.0307 0.11919,0.0578 0.26601,0.0602 0.38621,0.008 0.60471,0.3131 0.53791,0.75475 -0.0825,0.54542 -0.55785,0.79279 -0.96093,0.50005 z m 0.61752,-0.34965 c 0.0613,-0.22774 -0.0868,-0.62367 -0.2538,-0.67927 -0.2795,-0.0931 -0.4458,0.4951 -0.21977,0.77713 0.16271,0.20303 0.4062,0.15272 0.47357,-0.0979 z m 5.40658,0.24074 c -0.22734,-0.26002 -0.20894,-1.27925 0.0291,-1.58793 0.59646,-0.77496 1.40388,0.28279 1.01785,1.33342 -0.0538,0.14672 -0.16827,0.30287 -0.25413,0.34701 -0.25224,0.12965 -0.63745,0.0846 -0.79236,-0.0923 z m 0.61275,-0.0986 c 0.12708,-0.12295 0.15408,-1.11376 0.0365,-1.34263 -0.10256,-0.19976 -0.29459,-0.21858 -0.36814,-0.0361 -0.0967,0.24012 -0.0765,1.26633 0.027,1.37354 0.055,0.0567 0.12264,0.10365 0.15055,0.10413 0.0279,4.7e-4 0.0973,-0.0441 0.15398,-0.0991 z m 0.74931,0.23002 c -0.13067,-0.13522 -0.0437,-0.28586 0.16316,-0.28237 0.16124,0.003 0.2097,0.0418 0.18688,0.15031 -0.0323,0.15359 -0.2499,0.23568 -0.35004,0.13206 z m 0.75912,-0.0885 c -0.16703,-0.19105 -0.17223,-0.5216 -0.0111,-0.73387 0.1023,-0.13516 0.0983,-0.19182 -0.0286,-0.40871 -0.2423,-0.41422 -0.0111,-0.73538 0.52307,-0.72638 0.49051,0.008 0.65637,0.34642 0.36614,0.74649 -0.12187,0.16797 -0.11885,0.19755 0.0363,0.35809 0.35914,0.37162 0.0762,0.93541 -0.46506,0.92628 -0.16669,-0.003 -0.33941,-0.0692 -0.42035,-0.16191 z m 0.69286,-0.26771 c 0.0338,-0.16259 -0.20686,-0.43729 -0.34502,-0.39384 -0.11687,0.0367 -0.17535,0.27383 -0.11107,0.45025 0.0614,0.16837 0.41853,0.12417 0.45609,-0.0565 z m -0.0623,-1.15552 c 0.0363,-0.22593 -0.17889,-0.34245 -0.36153,-0.19594 -0.0948,0.0762 -0.10475,0.14182 -0.0399,0.26791 0.11118,0.21661 0.36265,0.17152 0.40155,-0.0719 z m 5.72477,1.49443 c -0.0845,-0.0621 -0.0844,-0.0865 5e-4,-0.11909 0.0727,-0.0281 0.1101,-0.25684 0.11795,-0.72303 0.008,-0.55156 -0.0163,-0.70318 -0.1347,-0.79318 -0.13418,-0.10217 -0.12636,-0.11851 0.0949,-0.19884 0.13268,-0.048 0.27577,-0.0652 0.31795,-0.0385 0.0422,0.0272 0.0703,0.42784 0.0626,0.89062 -0.008,0.50449 0.0196,0.84195 0.0703,0.8428 0.0465,7.9e-4 0.0839,0.0354 0.0834,0.0765 -5.5e-4,0.10658 -0.48505,0.15594 -0.61255,0.0625 z m 1.16061,-0.0463 c -0.032,-0.0536 -0.0175,-0.13686 0.0319,-0.18473 0.11559,-0.11181 0.37897,-0.008 0.33038,0.13008 -0.0495,0.14068 -0.28954,0.17691 -0.36224,0.0548 z m 0.88291,-0.006 c -0.22587,-0.17967 -0.32337,-0.46105 -0.31576,-0.91139 0.008,-0.53599 0.19888,-0.90845 0.4987,-0.97838 0.72183,-0.16839 1.13475,1.10827 0.57923,1.79088 -0.19198,0.23593 -0.53405,0.2803 -0.76217,0.0989 z m 0.58948,-0.32937 c 0.15372,-0.52254 -0.0374,-1.40709 -0.3064,-1.41864 -0.11238,-0.003 -0.25392,0.45221 -0.26045,0.84094 -0.0122,0.77377 0.38873,1.18321 0.56685,0.5777 z m -42.42877,-3.8503 c -0.0145,-0.75362 -0.0237,-2.8179 -0.0203,-4.58729 0.003,-1.76938 0.003,-4.01719 -9.8e-4,-4.99511 -0.004,-0.97792 -2.6e-4,-4.36859 0.008,-7.53482 0.008,-3.16625 0.009,-6.55697 0.002,-7.53495 -0.007,-0.97797 -0.007,-3.51149 0.001,-5.63004 0.018,-4.75295 0.0181,-7.15217 -9e-5,-9.77853 -0.008,-1.11769 -0.006,-4.71794 0.004,-8.00054 0.0264,-8.712192 0.0307,-11.556899 0.0241,-16.466481 -0.008,-5.48976 0.002,-6.730831 0.051,-6.778596 0.0215,-0.02078 2.20569,-0.0372 4.85381,-0.03646 6.41024,0.0017 9.83422,0.0014 12.64181,-0.0012 3.66286,-0.0034 7.59211,0.0059 11.71887,0.02766 2.09405,0.01101 4.13124,0.0078 4.52708,-0.0072 0.39583,-0.01497 2.22807,-0.02579 4.07163,-0.02401 l 3.35194,0.0032 0.0456,0.200505 c 0.0249,0.110278 0.0352,2.276683 0.0222,4.814236 -0.0127,2.537554 -0.0127,4.691216 -2e-4,4.785923 0.0124,0.0947 0.0105,2.266273 -0.004,4.825698 -0.0148,2.559429 -0.027,6.882249 -0.0264,9.606285 5e-5,2.72401 -0.002,6.1909 -0.006,7.70419 -0.009,4.60488 -0.009,8.30999 0.004,12.6148 0.007,2.25847 0.006,6.77312 -7.5e-4,10.03251 -0.007,3.25939 -0.007,6.53583 3.9e-4,7.28098 0.007,0.74516 0.004,3.47863 -0.007,6.07442 l -0.02,4.71962 -2.10649,-0.0327 c -1.15858,-0.0178 -2.69684,-0.0238 -3.41833,-0.0147 -1.6388,0.022 -13.29292,0.0454 -17.77,0.0359 -1.83821,-0.004 -4.97966,4.3e-4 -6.981,0.01 -2.00132,0.009 -5.23796,0.013 -7.19251,0.009 -1.95455,-0.004 -3.59761,0.004 -3.65125,0.0193 -0.0692,0.0201 -0.1052,-0.36984 -0.12397,-1.34185 z m 3.88651,0.99536 c 0.059,-0.0415 0.10892,-0.18777 0.11124,-0.32558 0.004,-0.34092 0.2077,-0.26147 0.23661,0.0931 l 0.0222,0.27064 1.83478,0.008 1.83478,0.008 0.0515,-0.54282 c 0.0723,-0.76342 0.26735,-0.80179 0.25469,-0.05 l -0.008,0.5588 1.92487,0.009 1.92484,0.0101 0.0471,-0.27768 c 0.0602,-0.35598 0.20511,-0.35573 0.25385,-7e-5 0.0311,0.22767 0.0742,0.27497 0.24924,0.2736 0.11638,-0.003 1.00153,0.006 1.96704,0.0163 l 1.75552,0.0164 0.0115,-0.60283 c 0.008,-0.51751 0.0274,-0.5881 0.13132,-0.49873 0.0729,0.0628 0.12793,0.29459 0.13822,0.58418 0.0164,0.46261 0.0256,0.48001 0.2498,0.47869 0.12799,8e-5 0.93706,0.004 1.79794,0.01 l 1.56521,0.0116 0.005,-0.23274 c 0.004,-0.128 0.0436,-0.28924 0.0906,-0.35829 0.076,-0.1116 0.0946,-0.1113 0.16659,0.003 0.0446,0.0706 0.0799,0.23797 0.0782,0.37192 l -0.003,0.24354 1.79857,-0.0282 c 0.9892,-0.0153 1.8655,-0.0462 1.94732,-0.0683 0.12183,-0.0329 0.15042,-0.1386 0.15793,-0.58451 0.004,-0.29945 0.0432,-0.54385 0.0848,-0.54316 0.11971,0.001 0.17432,0.23571 0.1663,0.71146 l -0.008,0.44065 0.65515,0.0359 c 0.36035,0.0196 1.21711,0.0182 1.90392,-0.003 l 1.24875,-0.0387 0.004,-0.29246 c 0.008,-0.37366 0.20603,-0.33192 0.2372,0.0496 l 0.0221,0.26901 0.86172,0.0142 c 0.47393,0.008 1.34747,-0.002 1.94118,-0.0225 l 1.07947,-0.0369 0.008,-0.5371 c 0.008,-0.42098 0.0366,-0.53663 0.13595,-0.53494 0.0698,7e-4 0.13102,0.0403 0.13602,0.0871 0.006,0.0466 0.0181,0.12306 0.0289,0.16982 0.0108,0.0464 0.0215,0.25647 0.0237,0.46604 l 0.003,0.38104 1.24775,0.0208 c 0.68624,0.0119 1.56018,0.002 1.94207,-0.0217 l 0.69435,-0.0424 0.03,-0.26245 c 0.0415,-0.36352 0.27662,-0.34893 0.30578,0.019 l 0.0218,0.27716 1.83477,0.008 1.83478,0.008 0.0319,-1.97185 c 0.0337,-2.11807 0.0321,-2.12893 -0.40676,-2.13932 -0.11221,-5.3e-4 -0.18943,-0.0566 -0.18817,-0.13146 6.3e-4,-0.0887 0.0913,-0.12545 0.29819,-0.12197 l 0.2961,0.004 0.0283,-1.69278 0.0283,-1.69277 -0.33841,-0.004 c -0.18609,-0.004 -0.33773,-0.0437 -0.33693,-0.0903 6.3e-4,-0.0882 0.10954,-0.11293 0.36172,-0.083 0.0866,0.009 0.17997,-0.0632 0.22378,-0.17579 0.0732,-0.18798 0.0916,-3.214 0.0205,-3.44292 -0.0247,-0.0796 -0.16975,-0.11094 -0.47928,-0.10334 -0.6072,0.0147 -0.67489,0.002 -0.63272,-0.1192 0.0222,-0.0633 0.25322,-0.11841 0.58053,-0.13838 0.66376,-0.0404 0.62399,0.11389 0.58072,-2.25493 l -0.0314,-1.71495 -0.19524,-0.004 c -0.50241,-0.008 -0.62269,-0.24071 -0.1411,-0.27243 l 0.31766,-0.0211 0.0505,-1.52307 c 0.0277,-0.83769 0.0297,-1.64724 0.006,-1.799 -0.041,-0.24837 -0.0742,-0.27641 -0.33744,-0.28085 -0.20336,-0.004 -0.29159,-0.0434 -0.2901,-0.13186 6.7e-4,-0.0779 0.0811,-0.12563 0.2067,-0.12351 0.44501,0.008 0.43287,0.0683 0.41072,-2.06094 -0.0116,-1.09003 -0.0455,-2.02364 -0.0759,-2.07468 -0.0304,-0.0509 -0.14809,-0.0943 -0.26167,-0.0963 -0.12716,-0.003 -0.20566,-0.0524 -0.20434,-0.13042 6.4e-4,-0.0846 0.0866,-0.12554 0.25591,-0.1227 l 0.25378,0.004 0.0277,-1.64534 0.0277,-1.64533 -0.31025,-0.0315 c -0.4524,-0.0459 -0.46947,-0.24584 -0.0204,-0.23827 l 0.35578,0.007 -0.0297,-1.75685 c -0.0162,-0.96628 -0.0424,-1.77013 -0.0583,-1.78633 -0.0155,-0.0163 -0.25953,-0.0544 -0.54192,-0.0848 -0.34403,-0.0374 -0.51284,-0.0922 -0.51157,-0.1665 6.8e-4,-0.0773 0.1633,-0.11613 0.531,-0.12746 l 0.52911,-0.0164 0.0506,-1.43842 c 0.0276,-0.79111 0.0306,-1.71281 0.007,-2.04823 l -0.0437,-0.60983 -0.29062,-0.0307 c -0.38042,-0.0403 -0.37198,-0.19406 0.0118,-0.22138 l 0.29995,-0.0212 0.007,-1.79374 0.007,-1.79374 -0.28863,-0.0471 c -0.36325,-0.0593 -0.44899,-0.25761 -0.11505,-0.26594 0.13187,-0.001 0.2683,-8.8e-4 0.30311,0.004 0.0349,0.005 0.0695,-0.35204 0.077,-0.79587 l 0.0124,-0.807 -0.52894,0.35382 c -0.29089,0.19458 -0.59215,0.41239 -0.66948,0.48398 -0.0773,0.0717 -0.37838,0.26931 -0.66907,0.43934 -0.29068,0.17003 -0.52899,0.33804 -0.52959,0.37336 -6e-4,0.0353 -0.10664,0.11456 -0.23567,0.1761 -0.12901,0.0617 -0.36944,0.20678 -0.53428,0.32279 -0.56609,0.39833 -1.86963,1.23181 -2.12384,1.35794 -0.13991,0.0694 -0.30677,0.1769 -0.37076,0.23881 -0.0641,0.0618 -0.21407,0.16504 -0.33349,0.22916 -0.3349,0.17986 -0.74765,0.42352 -1.13675,0.67105 -0.19479,0.12393 -0.41671,0.22495 -0.49319,0.22451 -0.0765,-4.9e-4 -0.1592,0.0464 -0.18391,0.10429 -0.0246,0.0578 -0.26941,0.21557 -0.54382,0.35064 -0.27439,0.13506 -0.51835,0.2701 -0.54211,0.30007 -0.0738,0.093 -1.69459,0.97448 -1.78885,0.97292 -0.049,-7.9e-4 -0.09,0.0365 -0.0906,0.083 -7.9e-4,0.0466 -0.0436,0.0839 -0.0951,0.0831 -0.0514,-7.8e-4 -0.40105,0.16468 -0.77688,0.36788 -0.37583,0.20321 -0.73315,0.36862 -0.79404,0.36759 -0.0609,-7.5e-4 -0.12398,0.0312 -0.14017,0.0714 -0.0163,0.0402 -0.183,0.14782 -0.37068,0.23888 -2.14362,1.04001 -3.47464,1.65442 -3.58011,1.65264 -0.0707,-7e-4 -0.12914,0.0346 -0.12988,0.0791 -7.6e-4,0.0447 -0.15441,0.12431 -0.34145,0.17698 -0.18703,0.0526 -0.34061,0.12778 -0.34129,0.16696 -6.5e-4,0.0392 -0.0588,0.0704 -0.12923,0.0692 -0.0704,-7.1e-4 -0.19476,0.0331 -0.27628,0.0758 -0.0816,0.0431 -0.2824,0.13108 -0.44639,0.19585 -0.58633,0.23163 -1.3246,0.55007 -1.5474,0.66742 -0.12463,0.0657 -0.26553,0.11871 -0.31312,0.11791 -0.0476,-8e-4 -0.37719,0.12696 -0.73248,0.28397 -0.35525,0.15697 -0.66693,0.28507 -0.69254,0.28464 -0.11962,-0.004 -0.80453,0.33739 -0.80558,0.39922 -0.003,0.13726 0.17793,0.65705 0.41099,1.18535 0.13029,0.29532 0.23662,0.55389 0.23628,0.57461 -3.5e-4,0.0207 0.16068,0.29904 0.35783,0.61852 0.44146,0.71537 1.03169,1.4724 1.46077,1.87361 0.3692,0.3452 1.23081,0.93939 1.48722,1.0256 0.24846,0.0836 0.30944,0.30774 0.0826,0.3039 -0.49292,-0.008 -1.81647,-1.0814 -2.66599,-2.16149 -0.60351,-0.76728 -1.15866,-1.79834 -1.4237,-2.64413 -0.0737,-0.23538 -0.16724,-0.44926 -0.20773,-0.47525 -0.0405,-0.0261 -0.14371,0.0575 -0.22936,0.18559 -0.15216,0.22753 -0.25289,0.35055 -0.63474,0.77516 -0.10312,0.11467 -0.4449,0.528 -0.75947,0.9185 -0.3146,0.39049 -0.80569,0.98034 -1.09134,1.31077 -0.57492,0.66508 -1.47185,1.76489 -2.19993,2.69755 -0.18233,0.23357 -0.4049,0.48589 -0.80949,0.91766 -0.15036,0.16044 -0.50353,0.59262 -0.78486,0.96039 -0.28134,0.36777 -0.71819,0.871 -0.97079,1.1183 -0.25259,0.2473 -0.4598,0.48077 -0.46044,0.51885 -6.9e-4,0.0751 -0.98645,1.26487 -1.36451,1.64798 -0.28631,0.29009 -0.54073,0.58132 -0.70957,0.81211 -0.19664,0.26878 -0.78894,0.95646 -1.07694,1.25031 -0.40233,0.41048 -0.74353,0.80785 -0.89034,1.0369 -0.0739,0.11517 -0.17593,0.24678 -0.22689,0.29249 -0.051,0.0458 -0.34456,0.36363 -0.65245,0.70648 -0.30788,0.34286 -0.71484,0.78657 -0.90435,0.98604 -0.18953,0.19948 -0.3602,0.40424 -0.37928,0.45506 -0.019,0.0507 -0.16197,0.21552 -0.31753,0.36599 -0.15552,0.15048 -0.31498,0.3288 -0.35429,0.39629 -0.0394,0.0673 -0.33288,0.40289 -0.65237,0.74537 -0.31948,0.34249 -0.76361,0.84262 -0.98696,1.1114 -0.22336,0.26877 -0.70885,0.81243 -1.07885,1.20811 -0.53078,0.56758 -0.67367,0.77406 -0.67713,0.97828 -0.004,0.23693 0.0219,0.26148 0.3059,0.29033 0.42575,0.0433 0.46183,0.22753 0.0497,0.25451 -0.40193,0.0263 -0.40385,0.0366 -0.35416,1.90437 l 0.0366,1.37638 0.28708,0.004 c 0.19877,0.004 0.2864,0.0439 0.28492,0.13179 -6.4e-4,0.0841 -0.086,0.12553 -0.25092,0.12278 -0.13683,-0.003 -0.27286,0.0333 -0.30231,0.0792 -0.0295,0.046 -0.0415,0.98273 -0.0276,2.08184 l 0.0266,1.99838 1.74267,0.003 c 0.95846,0.002 1.79083,-0.0308 1.84971,-0.0719 z m -1.46165,-7.3987 c -1.08162,-0.41386 -1.93103,-0.8987 -1.92763,-1.10029 0.003,-0.13421 0.13148,-0.0913 0.65737,0.21782 0.6236,0.36669 1.33095,0.65088 1.98602,0.79794 0.27547,0.062 0.51502,0.15741 0.53231,0.21238 0.0538,0.17066 -0.65857,0.0977 -1.24807,-0.12785 z m -1.88215,-2.21703 c 0.10518,-0.10298 0.59546,-0.65667 1.08948,-1.23039 0.49404,-0.57375 0.9204,-1.06183 0.9475,-1.08465 0.14212,-0.11971 1.32903,-1.45834 1.77509,-2.00199 0.28262,-0.34449 0.59552,-0.70612 0.69529,-0.80366 0.0997,-0.0976 0.33357,-0.36024 0.51951,-0.58377 0.18594,-0.22352 0.37685,-0.44846 0.42427,-0.49984 0.0473,-0.0514 0.26071,-0.29548 0.47405,-0.54243 0.36789,-0.42592 1.19264,-1.31815 1.3008,-1.40724 0.0277,-0.0229 0.27907,-0.34241 0.55861,-0.71021 0.27958,-0.3678 0.66677,-0.83751 0.86047,-1.04379 0.1937,-0.20627 0.61948,-0.69439 0.94617,-1.08466 0.3267,-0.39029 0.72264,-0.83311 0.87986,-0.98403 0.15721,-0.15093 0.28617,-0.29387 0.28657,-0.31762 7.3e-4,-0.0435 0.51924,-0.7077 0.61278,-0.78492 0.0276,-0.0229 0.086,-0.10353 0.12996,-0.17934 0.0438,-0.0757 0.3081,-0.38725 0.5873,-0.69208 0.27918,-0.30477 0.62867,-0.70881 0.77667,-0.89781 0.34262,-0.43754 0.61341,-0.77341 1.04672,-1.29828 0.19003,-0.23018 0.42349,-0.52582 0.51876,-0.65694 0.0954,-0.13112 0.40744,-0.50209 0.69368,-0.82434 0.28624,-0.32227 0.61381,-0.71771 0.72793,-0.87876 0.11414,-0.16105 0.42178,-0.53231 0.68369,-0.825 0.50362,-0.56284 0.49048,-0.58015 -0.22757,-0.30013 -0.42242,0.16475 -0.59439,0.13803 -0.65009,-0.10095 -0.0639,-0.27533 0.003,-0.36093 0.33182,-0.42662 0.15124,-0.0303 0.29442,-0.0785 0.31816,-0.10701 0.0237,-0.0287 0.17724,-0.0983 0.34106,-0.15469 0.26937,-0.0929 0.31106,-0.086 0.43547,0.0707 0.16173,0.20388 0.23653,0.22113 0.23933,0.0551 7.3e-4,-0.066 0.031,-0.13211 0.0659,-0.14706 0.0353,-0.0147 0.1995,-0.19628 0.36524,-0.40303 0.16573,-0.20675 0.34836,-0.43225 0.40584,-0.50113 0.0575,-0.069 0.17933,-0.21729 0.2708,-0.32982 0.16172,-0.19895 0.17232,-0.20047 0.38623,-0.0551 0.12097,0.0822 0.21901,0.20501 0.21787,0.27276 -0.003,0.1325 0.075,0.11305 0.80727,-0.20331 1.18387,-0.51149 1.50895,-0.64674 1.5526,-0.64601 0.027,4.6e-4 0.24479,-0.0872 0.48393,-0.1946 0.8781,-0.39469 1.55145,-0.68856 1.88384,-0.82222 0.18744,-0.0753 0.41021,-0.17247 0.49508,-0.21575 0.0849,-0.0432 0.39196,-0.19057 0.68245,-0.32726 0.94198,-0.44329 2.13434,-1.02853 2.78936,-1.36908 0.35212,-0.18306 0.76138,-0.38617 0.90949,-0.45133 0.14808,-0.0653 0.48514,-0.25162 0.74901,-0.41431 0.26387,-0.16266 0.52361,-0.29503 0.57719,-0.29414 0.0536,7.8e-4 0.15841,-0.0497 0.23297,-0.11273 0.0747,-0.063 0.40436,-0.25139 0.73295,-0.41885 0.32858,-0.16748 0.63418,-0.33842 0.67909,-0.37988 0.045,-0.0414 0.1461,-0.0744 0.22487,-0.0731 0.0788,6.6e-4 0.16275,-0.046 0.18661,-0.10525 0.0239,-0.0592 0.19178,-0.17978 0.37318,-0.26796 0.1814,-0.088 0.40698,-0.22084 0.50132,-0.29481 0.0943,-0.0739 0.63296,-0.40383 1.19696,-0.73305 0.56404,-0.32922 1.04491,-0.62161 1.06866,-0.6498 0.0237,-0.0282 0.17762,-0.12102 0.34195,-0.20633 0.16432,-0.0853 0.39532,-0.23563 0.51333,-0.33405 0.118,-0.0984 0.31947,-0.22904 0.44768,-0.29032 0.12825,-0.0614 0.30953,-0.18021 0.40285,-0.26433 0.0935,-0.0841 0.20219,-0.15237 0.24188,-0.1517 0.0397,6.7e-4 0.14712,-0.0661 0.23874,-0.14826 0.14242,-0.12784 0.48073,-0.36474 1.44042,-1.00872 0.52897,-0.35497 1.21251,-0.86626 1.23829,-0.92627 0.0163,-0.0374 0.0833,-0.0673 0.14921,-0.0664 0.22695,0.004 0.12292,-0.23817 -0.27142,-0.6313 -0.43406,-0.43273 -0.76486,-0.62475 -1.34551,-0.78106 -0.43003,-0.11575 -0.57746,-0.31787 -0.22755,-0.31197 0.2806,0.004 1.17482,0.33325 1.21026,0.44464 0.0147,0.0465 0.0763,0.0849 0.13679,0.0861 0.0605,7.5e-4 0.24499,0.15654 0.40997,0.34557 0.165,0.18904 0.31913,0.34403 0.34251,0.34444 0.0605,7.4e-4 0.0708,-1.05861 0.0111,-1.22051 -0.0319,-0.0878 -0.1561,-0.13747 -0.35722,-0.14261 -0.28926,-0.007 -0.29794,-0.0156 -0.14183,-0.12941 0.0915,-0.0668 0.25422,-0.12001 0.3616,-0.1182 0.18174,0.004 0.19593,-0.0312 0.20366,-0.49116 0.004,-0.27194 -0.008,-1.01736 -0.0277,-1.65648 l -0.0361,-1.16203 -0.30431,0.021 c -0.2257,0.0159 -0.30375,-0.0116 -0.30216,-0.10581 6.4e-4,-0.0856 0.10561,-0.13378 0.31979,-0.14788 l 0.31768,-0.0211 0.0123,-0.7857 c 0.008,-0.43208 -0.004,-1.24909 -0.0248,-1.81553 l -0.0381,-1.029882 -0.54391,-0.0092 c -0.39733,-0.0068 -0.534,-0.03751 -0.50719,-0.114377 0.0228,-0.06515 0.23563,-0.111454 0.55911,-0.121607 l 0.52241,-0.01638 0.0314,-1.847429 c 0.0166,-1.016093 0.009,-1.966853 -0.0169,-2.112817 -0.0425,-0.233209 -0.0825,-0.265961 -0.32891,-0.270115 -0.1543,-0.0025 -0.3034,-0.04322 -0.33138,-0.09024 -0.0287,-0.04821 0.0408,-0.08397 0.15872,-0.08198 0.48913,0.0084 0.47636,0.05481 0.50854,-1.854172 l 0.0292,-1.75947 -0.35893,-0.04144 c -0.38888,-0.0449 -0.46034,0.0049 -0.70755,0.49249 -0.0759,0.150056 -0.17706,0.272172 -0.22448,0.271371 -0.0722,-0.0012 -0.39401,-0.150117 -0.47691,-0.22068 -0.031,-0.02632 0.272,-0.657221 0.3423,-0.712877 0.0288,-0.0228 0.11782,-0.164167 0.19786,-0.314152 0.1658,-0.310738 0.29361,-0.336636 0.54551,-0.110514 0.14005,0.125751 0.15488,0.180942 0.072,0.267661 -0.0842,0.0879 -0.074,0.09905 0.0515,0.05708 0.0856,-0.02869 0.24794,-0.05062 0.36045,-0.04869 0.1921,0.0032 0.20504,-0.02556 0.21258,-0.472426 0.008,-0.398993 -0.0119,-0.460264 -0.11242,-0.379232 -0.17918,0.143734 -0.55836,0.01523 -0.55495,-0.188057 6.2e-4,-0.09186 0.13989,-0.392223 0.30739,-0.667477 0.29551,-0.485522 0.30506,-0.526851 0.31951,-1.384629 l 0.0154,-0.884164 -0.29608,-0.0048 c -0.20678,-0.0035 -0.29543,-0.04327 -0.29392,-0.131949 6.3e-4,-0.08867 0.0913,-0.125451 0.2982,-0.121965 l 0.29609,0.0048 0.012,-0.706263 c 0.008,-0.388434 -0.006,-1.112522 -0.028,-1.60906 l -0.04,-0.902804 -0.2409,-0.004 c -0.31767,-0.0052 -0.32092,-0.238485 -0.004,-0.269591 l 0.23309,-0.02286 0.0539,-1.777008 c 0.0296,-0.977352 0.0335,-1.865931 0.009,-1.974616 l -0.0451,-0.197603 -1.32989,0.02318 c -0.73144,0.01277 -1.56785,0.02057 -1.85864,0.01731 l -0.52876,-0.0058 -0.004,0.296242 c -0.008,0.392781 -0.23892,0.40709 -0.26992,0.0166 l -0.0217,-0.275521 -1.73413,-0.02921 c -2.39085,-0.0403 -2.1985,-0.08947 -2.20953,0.565007 -0.004,0.297304 -0.0432,0.539971 -0.0848,0.539269 -0.1188,-0.002 -0.17431,-0.234758 -0.16651,-0.698045 l 0.008,-0.427279 -1.96759,0.01607 c -1.08218,0.0087 -1.97473,0.0178 -1.98344,0.01991 -0.009,0.0024 -0.0297,0.127427 -0.0471,0.27847 -0.0404,0.356283 -0.19394,0.352587 -0.22229,-0.0052 l -0.0218,-0.277128 -1.87707,-0.0088 -1.87709,-0.0088 -0.034,0.528568 c -0.0256,0.394178 -0.0652,0.52804 -0.15696,0.526495 -0.0922,-0.0016 -0.12094,-0.115715 -0.1152,-0.45722 0.004,-0.264154 -0.036,-0.490153 -0.0967,-0.538568 -0.0634,-0.05062 -0.82828,-0.08015 -1.94491,-0.07512 l -1.84054,0.0083 -0.004,0.280869 c -0.003,0.154476 -0.0357,0.299129 -0.0731,0.321454 -0.10979,0.06536 -0.2966,-0.09355 -0.23072,-0.196255 0.033,-0.05162 0.0356,-0.175711 0.005,-0.275745 -0.0537,-0.179953 -0.0712,-0.18159 -1.67403,-0.155502 -0.8908,0.0145 -1.70533,0.0254 -1.81001,0.02421 -0.17776,-0.0018 -0.19098,0.03422 -0.19962,0.547992 -0.008,0.42456 -0.0372,0.549682 -0.13213,0.548082 -0.0916,-0.0016 -0.12699,-0.136673 -0.13911,-0.531487 l -0.0164,-0.529416 -1.92433,-0.04014 -1.92435,-0.04013 -0.005,0.219295 c -0.006,0.277121 -0.12847,0.468138 -0.24966,0.390345 -0.0513,-0.03287 -0.0913,-0.171757 -0.0889,-0.308664 l 0.004,-0.248921 -1.90333,-0.03205 c -1.46313,-0.02469 -1.90509,-0.0076 -1.91095,0.07362 -0.003,0.05816 -0.0179,0.311753 -0.0307,0.563595 -0.0138,0.279083 -0.0646,0.471088 -0.12937,0.491685 -0.0778,0.02472 -0.10387,-0.113128 -0.0971,-0.513542 0.008,-0.477462 -0.0125,-0.553392 -0.16043,-0.594791 -0.17658,-0.0494 -3.48518,-0.03545 -3.54308,0.01499 -0.0183,0.01577 -0.0448,0.122816 -0.0595,0.237848 -0.0607,0.479769 -0.30084,0.477867 -0.29274,-0.0023 l 0.004,-0.291244 -0.57869,-0.0096 c -0.31829,-0.0052 -1.16128,0.0057 -1.87332,0.02446 l -1.29462,0.03422 0.014,1.897335 c 0.007,1.043536 0.0372,1.921902 0.0663,1.951922 0.0291,0.03002 0.15598,0.05809 0.28214,0.06235 0.34026,0.01146 0.29692,0.255966 -0.0503,0.283559 l -0.27536,0.02189 -0.0273,1.602765 -0.0274,1.60277 0.29607,0.0048 c 0.20678,0.0035 0.29541,0.04327 0.29392,0.131948 -6.2e-4,0.0897 -0.0928,0.125429 -0.31141,0.121746 l -0.30929,-0.0052 0.0339,1.283969 c 0.0185,0.706185 0.0287,1.599246 0.0219,1.984578 l -0.0119,0.700606 0.26796,0.03105 c 0.295,0.03418 0.43933,0.245593 0.1645,0.240961 -0.40458,-0.0068 -0.43798,0.05501 -0.45112,0.834789 -0.008,0.406666 0.005,1.200866 0.0255,1.764872 l 0.0379,1.02547 0.2552,0.02988 c 0.35775,0.04189 0.38456,0.22578 0.0368,0.253272 l -0.28054,0.02219 -0.0559,1.903968 c -0.0307,1.047179 -0.0366,1.990013 -0.0128,2.095183 0.0396,0.173817 0.0934,0.192065 0.59168,0.200466 0.43094,0.0072 0.54777,0.03641 0.54609,0.136197 -5.8e-4,0.09967 -0.11885,0.124991 -0.54493,0.117809 -0.29854,-0.0052 -0.55615,0.02835 -0.57241,0.07417 -0.0163,0.04582 -0.0316,0.862478 -0.0346,1.814751 l -0.004,1.73144 0.30694,0.0313 c 0.45177,0.046 0.46378,0.24558 0.0143,0.23799 l -0.35852,-0.008 0.0358,1.15692 c 0.0197,0.63632 0.0322,1.37522 0.0278,1.64197 l -0.008,0.48504 0.29514,0.0605 c 0.36237,0.0742 0.38704,0.22375 0.036,0.21784 -0.15208,-0.003 -0.2775,0.0479 -0.30825,0.12428 -0.0285,0.0708 -0.033,0.97549 -0.009,2.01058 0.0392,1.76392 0.0517,1.88043 0.19897,1.85772 0.0865,-0.0132 0.21428,-0.001 0.28408,0.027 0.18767,0.0757 -0.0306,0.3005 -0.28746,0.29617 -0.19941,-0.004 -0.20123,0.004 -0.21658,0.91448 -0.008,0.50482 0.002,1.32412 0.0243,1.82064 l 0.04,0.9028 0.2832,0.004 c 0.19536,0.004 0.28256,0.0442 0.28108,0.13173 -6.3e-4,0.0888 -0.0915,0.12545 -0.29971,0.12194 l -0.29759,-0.004 -0.0126,2.05284 -0.0126,2.05289 0.52827,0.034 c 0.39396,0.0256 0.52774,0.0653 0.52621,0.15704 -6.3e-4,0.087 -0.10105,0.12125 -0.34045,0.1172 -0.76166,-0.0122 -0.72087,-0.11865 -0.72651,1.8842 l -0.004,1.74398 0.28774,0.004 c 0.27808,0.004 0.45519,0.13022 0.34041,0.24127 -0.0306,0.0298 -0.17771,0.0534 -0.32668,0.0523 l -0.27082,-8.6e-4 0.006,1.4817 c 0.004,0.81493 0.0164,1.49353 0.0287,1.50799 0.0121,0.0144 0.26108,-0.0314 0.55303,-0.10183 0.56564,-0.13652 0.65794,-0.10631 0.68962,0.22567 0.0183,0.19144 -0.037,0.22833 -0.61802,0.41354 l -0.63804,0.20335 -0.04,1.09749 c -0.022,0.60362 -0.0188,1.51505 0.008,2.02543 l 0.0483,0.92792 0.2739,0.008 c 0.35834,0.012 0.35884,0.16751 8e-5,0.21581 l -0.27897,0.0375 -0.0389,0.67664 c -0.0216,0.37216 -0.022,1.18173 -4.4e-4,1.79908 l 0.0387,1.12242 0.28741,0.004 c 0.19907,0.004 0.28675,0.0438 0.28527,0.13181 -6.3e-4,0.0887 -0.0913,0.12545 -0.29822,0.12196 l -0.29607,-0.004 -0.0348,2.03134 -0.0348,2.03131 0.59213,0.009 c 0.32568,0.004 0.59161,0.0431 0.59093,0.0836 -6.7e-4,0.0783 -0.48413,0.16976 -0.87011,0.16481 l -0.23265,-0.003 -0.0171,1.05798 c -0.008,0.5819 0.003,1.05834 0.0282,1.05875 0.0254,4.4e-4 0.1322,-0.0833 0.2374,-0.18647 z m 1.58148,-15.24089 c -0.10097,-0.27982 -0.0539,-0.34794 0.28566,-0.41465 0.15121,-0.0298 0.3135,-0.0821 0.36061,-0.11639 0.047,-0.0343 0.22679,-0.0853 0.39927,-0.11346 0.25953,-0.0422 0.32849,-0.022 0.39995,0.11712 0.16539,0.32214 0.0952,0.39724 -0.53786,0.57592 -0.78015,0.22017 -0.81126,0.21852 -0.90763,-0.0484 z m 2.04017,-0.55829 c -0.0465,-0.12841 -0.0538,-0.25914 -0.0168,-0.29049 0.037,-0.0313 0.34717,-0.1397 0.68892,-0.24075 0.65727,-0.19436 0.75951,-0.17097 0.79357,0.18164 0.0174,0.18186 -0.0346,0.22467 -0.41702,0.34218 -0.86974,0.26722 -0.95483,0.26783 -1.0488,0.007 z m 2.05466,-0.55891 c -0.0816,-0.18769 -0.0794,-0.25173 0.009,-0.33092 0.14486,-0.12717 1.25101,-0.45977 1.33973,-0.40285 0.12341,0.0791 0.14426,0.46764 0.0298,0.55932 -0.0615,0.0492 -0.31477,0.1431 -0.56282,0.20838 -0.24805,0.0653 -0.51069,0.1367 -0.5836,0.15872 -0.0855,0.0258 -0.16853,-0.0425 -0.23389,-0.19265 z m 2.02562,-0.59939 c -0.0501,-0.0976 -0.0708,-0.22734 -0.0465,-0.28828 0.0528,-0.13093 0.73973,-0.35749 1.16133,-0.383 0.27802,-0.0167 0.29619,-0.003 0.29219,0.23598 -0.004,0.22807 -0.0431,0.26452 -0.38682,0.35832 -0.2104,0.0574 -0.44923,0.13913 -0.53077,0.18155 -0.23318,0.12134 -0.39076,0.0878 -0.48947,-0.1046 z m 1.99703,-0.67454 c -0.0265,-0.11421 -0.0248,-0.24461 0.004,-0.28976 0.0556,-0.0866 0.66958,-0.28909 1.13132,-0.37329 0.24382,-0.0446 0.27825,-0.0258 0.32508,0.17506 0.0655,0.28139 0.0207,0.32016 -0.61448,0.52992 -0.66231,0.21873 -0.78688,0.21256 -0.84618,-0.0421 z m 2.01838,-0.65444 c -0.12356,-0.28393 -0.092,-0.32262 0.39488,-0.48746 0.22385,-0.0759 0.4737,-0.17243 0.55524,-0.21485 0.24548,-0.12773 0.40291,-0.0842 0.49962,0.13795 0.12364,0.28412 -0.003,0.41816 -0.51162,0.54611 -0.22112,0.0556 -0.43873,0.13278 -0.4836,0.17172 -0.15488,0.13444 -0.35927,0.0655 -0.45452,-0.15347 z m 1.94385,-0.72837 c -0.0434,-0.12017 -0.0785,-0.23172 -0.0785,-0.24789 7.8e-4,-0.0532 1.15014,-0.44816 1.29673,-0.4457 0.1358,0.003 0.31447,0.23926 0.31153,0.41319 -6.5e-4,0.0846 -1.11375,0.50457 -1.32693,0.50099 -0.0683,-7.1e-4 -0.15963,-0.10049 -0.20298,-0.22059 z m 5.51987,-3.16567 c -0.1946,-0.20306 -0.13181,-0.34197 0.43473,-0.96148 l 0.38116,-0.41681 0.18415,0.19058 c 0.16037,0.16595 0.17004,0.21586 0.075,0.38678 -0.13982,0.2512 -0.7837,0.98146 -0.85839,0.97358 -0.0313,-0.003 -0.12865,-0.0808 -0.21651,-0.17265 z m 1.38812,-1.65066 c -0.0754,-0.0863 -0.13699,-0.18157 -0.13649,-0.21147 6e-4,-0.0957 0.55136,-0.81198 0.62227,-0.8108 0.0376,6.4e-4 0.0691,-0.0559 0.0703,-0.12578 0.003,-0.17551 0.28549,-0.15465 0.44971,0.0332 0.12602,0.14414 0.12029,0.17639 -0.0824,0.46426 -0.1198,0.17015 -0.2545,0.30874 -0.29934,0.30798 -0.0449,-7.6e-4 -0.0824,0.0497 -0.0836,0.11246 -5.6e-4,0.10686 -0.26394,0.38966 -0.35972,0.38804 -0.024,-4e-4 -0.10548,-0.0713 -0.18104,-0.15789 z m 1.29079,-1.67894 c -0.1616,-0.18482 -0.11856,-0.30817 0.29611,-0.84868 0.40206,-0.52405 0.41927,-0.534 0.65116,-0.37634 0.11382,0.0775 0.20487,0.18743 0.20234,0.24451 -0.007,0.12704 -0.83948,1.14802 -0.93624,1.14639 -0.0382,-6.4e-4 -0.13416,-0.0754 -0.21337,-0.16588 z m 1.34264,-1.64652 c -0.16892,-0.12268 -0.24251,-0.37342 -0.10923,-0.37208 0.0349,3.6e-4 0.20023,-0.20622 0.36737,-0.45901 0.31198,-0.47188 0.40788,-0.52289 0.68868,-0.36639 0.22873,0.12749 0.2064,0.20855 -0.20874,0.75826 -0.42936,0.56853 -0.50119,0.61127 -0.73808,0.43922 z m 1.24907,-1.75551 c -0.1666,-0.17243 -0.17057,-0.163 0.32982,-0.78332 0.36547,-0.45307 0.43144,-0.50012 0.58293,-0.41566 0.29217,0.16282 0.26684,0.30565 -0.14755,0.83218 -0.42147,0.5355 -0.54498,0.59471 -0.7652,0.3668 z m 1.35475,-1.58072 c -0.22391,-0.16263 -0.232,-0.29397 -0.0316,-0.50892 0.083,-0.0888 0.25877,-0.32167 0.39071,-0.51734 0.21893,-0.32471 0.49333,-0.47422 0.48983,-0.26691 -7.9e-4,0.0466 0.0555,0.0855 0.12547,0.0867 0.2279,0.004 0.13026,0.25022 -0.31739,0.80077 -0.24197,0.2976 -0.44702,0.54096 -0.45568,0.54081 -0.009,-1.5e-4 -0.0992,-0.0609 -0.20153,-0.13519 z m 1.24458,-1.75325 c -0.13825,-0.10838 -0.14573,-0.15598 -0.0545,-0.34746 0.12593,-0.26459 0.69717,-0.95271 0.78962,-0.95115 0.0358,6.1e-4 0.15007,0.0723 0.25402,0.15957 l 0.18897,0.15845 -0.37509,0.49454 c -0.50697,0.66845 -0.54269,0.69006 -0.80293,0.48605 z m 1.24497,-1.69928 -0.19446,-0.16307 0.41023,-0.55517 c 0.418,-0.56567 0.62305,-0.67013 0.82378,-0.41968 0.0868,0.10804 0.0517,0.21212 -0.20393,0.6091 -0.41046,0.63737 -0.57899,0.74401 -0.83562,0.52882 z m 1.25692,-1.71994 c -0.13858,-0.10503 -0.14512,-0.14746 -0.0492,-0.3183 0.19205,-0.3416 0.70691,-0.99137 0.78448,-0.99009 0.0409,7.2e-4 0.16067,0.0737 0.26614,0.16204 l 0.19172,0.16076 -0.41024,0.55519 c -0.42866,0.58013 -0.51955,0.63008 -0.78304,0.4304 z m 1.25122,-1.71184 -0.1925,-0.16141 0.41951,-0.59263 0.41952,-0.59262 0.23954,0.12911 c 0.22419,0.12083 0.31604,0.33039 0.17166,0.3917 -0.0353,0.0149 -0.21076,0.24374 -0.39021,0.50846 -0.17948,0.26472 -0.35975,0.48074 -0.40065,0.48006 -0.0409,-7e-4 -0.16099,-0.074 -0.26687,-0.16267 z m 1.21965,-1.75292 -0.18711,-0.15691 0.36664,-0.5597 c 0.20163,-0.30785 0.42302,-0.55877 0.49197,-0.55761 0.24742,0.004 0.49244,0.4445 0.29327,0.52703 -0.0361,0.0147 -0.19582,0.22495 -0.35514,0.46673 -0.15935,0.24177 -0.31958,0.43908 -0.35612,0.43847 -0.0365,-6.3e-4 -0.15061,-0.0716 -0.25351,-0.15801 z m 1.19382,-1.69551 c -0.21752,-0.13173 -0.18005,-0.2762 0.21621,-0.833539 0.37779,-0.53139 0.4184,-0.556064 0.67765,-0.411573 0.23063,0.128546 0.20489,0.229346 -0.20906,0.81849 -0.37999,0.540792 -0.4373,0.576502 -0.6848,0.426622 z m 1.21469,-1.783849 c -0.21034,-0.165423 -0.1851,-0.261491 0.22382,-0.851747 l 0.36649,-0.528971 0.23944,0.129049 c 0.27903,0.150388 0.2685,0.198824 -0.19405,0.892686 -0.33828,0.507448 -0.40151,0.543151 -0.6357,0.358983 z m 1.12964,-1.758874 c -0.0802,-0.06321 -0.14566,-0.142163 -0.1451,-0.175446 0.003,-0.156605 0.73072,-1.220759 0.83406,-1.219016 0.0645,0.0011 0.11659,0.04005 0.11579,0.08661 -7.7e-4,0.04656 0.0555,0.0856 0.12548,0.08677 0.21148,0.0036 0.14051,0.245772 -0.23695,0.808729 -0.37407,0.55786 -0.45046,0.603295 -0.69328,0.412341 z m 1.08042,-1.862484 c -0.0952,-0.111656 -0.0814,-0.187316 0.0929,-0.503187 0.11285,-0.204474 0.23382,-0.371288 0.26879,-0.3707 0.035,5.89e-4 0.0644,-0.05015 0.0656,-0.112766 7.4e-4,-0.06262 0.0716,-0.174944 0.15706,-0.249626 0.14021,-0.122731 0.17277,-0.122985 0.33852,-0.0027 0.25008,0.18163 0.23282,0.271956 -0.16563,0.866528 -0.35463,0.529214 -0.54377,0.622228 -0.75719,0.372369 z m 1.17019,-1.78013 c -0.13944,-0.159492 -0.13649,-0.184088 0.0694,-0.574243 0.11832,-0.224187 0.29239,-0.499826 0.38678,-0.612526 0.15251,-0.182085 0.19609,-0.193251 0.39135,-0.100235 0.12085,0.05757 0.21889,0.153268 0.21789,0.212661 -0.004,0.190381 -0.65356,1.194316 -0.78904,1.218066 -0.072,0.01261 -0.19631,-0.05208 -0.27643,-0.14372 z M 97.94394,139.97391 c -0.02608,-0.0437 -0.0084,-0.10289 0.03952,-0.13132 0.121647,-0.0725 0.135869,-1.45451 0.01575,-1.5316 -0.06126,-0.0394 -0.02306,-0.098 0.107486,-0.16509 0.111382,-0.0571 0.231235,-0.0855 0.266343,-0.0632 0.03513,0.0225 0.05745,0.41736 0.04973,0.87738 -0.008,0.47525 0.0226,0.85996 0.07099,0.89102 0.144884,0.093 -0.0028,0.21074 -0.258704,0.20643 -0.134084,-0.003 -0.265096,-0.0399 -0.291132,-0.0836 z m 1.175898,0.006 c -0.08696,-0.14625 0.199196,-0.38491 0.31625,-0.26378 0.05209,0.0539 0.07096,0.15743 0.04172,0.22988 -0.06106,0.15168 -0.275817,0.17199 -0.357941,0.0339 z m 0.701115,0.0119 c -0.240548,-0.1456 -0.07137,-0.26467 0.282437,-0.19873 0.26917,0.05 0.33787,0.0322 0.41623,-0.10844 0.0516,-0.0927 0.095,-0.22667 0.0962,-0.29775 0.004,-0.18941 -0.3319,-0.4801 -0.55781,-0.48391 -0.235028,-0.004 -0.256073,-0.22694 -0.0565,-0.5978 0.118,-0.21918 0.17745,-0.24679 0.5188,-0.24105 0.45699,0.008 0.47819,0.19492 0.0287,0.25449 -0.33066,0.0438 -0.42911,0.20764 -0.17596,0.29278 0.55008,0.18495 0.67867,0.90004 0.22782,1.26681 -0.2778,0.226 -0.53286,0.26313 -0.779911,0.1136 z m -2.044398,-20.32042 c 0.08658,-0.12888 0.219565,-0.29042 0.295452,-0.35899 0.172368,-0.15574 0.352639,-0.54108 0.356357,-0.76175 0.0031,-0.18036 -0.421589,-0.44569 -0.476182,-0.29756 -0.07064,0.19175 -0.187474,0.31076 -0.274616,0.27984 -0.05984,-0.0213 -0.0318,-0.13031 0.07876,-0.30532 0.139092,-0.22023 0.226197,-0.27133 0.456123,-0.26746 0.690359,0.0119 0.739059,0.70886 0.09732,1.39338 -0.234998,0.25065 -0.184814,0.31849 0.193196,0.26112 0.308463,-0.0468 0.343613,-0.0355 0.314698,0.10368 -0.02731,0.13116 -0.126606,0.15889 -0.615565,0.17187 l -0.582991,0.0153 z m 1.322779,0.10974 c 0.03902,-0.18569 0.369454,-0.20542 0.36636,-0.0219 -0.0012,0.0698 -0.09144,0.13806 -0.200474,0.15166 -0.153797,0.0192 -0.191031,-0.0108 -0.165886,-0.1298 z m 0.753956,-0.11089 c -0.169607,-0.2378 -0.185241,-0.33563 -0.138377,-0.86538 0.04288,-0.48503 0.08875,-0.62539 0.244092,-0.74694 0.584085,-0.45713 1.202045,0.22559 1.046505,1.15619 -0.12416,0.74282 -0.76643,0.99708 -1.15222,0.45613 z m 0.6712,0.0238 c 0.0972,-0.0592 0.12646,-0.22228 0.12087,-0.67248 -0.0107,-0.88011 -0.22958,-1.17703 -0.50348,-0.68363 -0.13894,0.25029 -0.11302,1.10919 0.0391,1.29912 0.12579,0.15697 0.16789,0.16396 0.34341,0.0569 z M 97.709874,99.822068 c -0.06878,-0.04417 -0.02776,-0.132403 0.134078,-0.288998 0.524189,-0.507091 0.75974,-1.130524 0.493334,-1.305724 -0.166794,-0.109698 -0.297471,-0.09803 -0.439353,0.03923 -0.183305,0.177321 -0.241089,0.05543 -0.08364,-0.176407 0.168249,-0.247703 0.616119,-0.265912 0.819479,-0.03331 0.227066,0.259712 0.163243,0.637871 -0.173442,1.027526 -0.166123,0.192267 -0.302624,0.384065 -0.303336,0.426212 -0.0019,0.112291 0.45522,0.101267 0.574217,-0.01384 0.148349,-0.143517 0.217261,-0.02447 0.103802,0.179345 -0.05868,0.105476 -0.188652,0.177728 -0.327235,0.181981 -0.126401,0.003 -0.335384,0.01168 -0.464385,0.01719 -0.128987,0.005 -0.27909,-0.01835 -0.333529,-0.05332 z m 1.414174,-0.05183 c -0.03189,-0.05375 -0.01758,-0.136856 0.03182,-0.184714 0.115602,-0.111831 0.378982,-0.0081 0.330386,0.130064 -0.04948,0.140702 -0.289522,0.176923 -0.362232,0.05461 z m 0.607391,0.04118 c -0.149532,-0.154743 -0.02336,-0.216935 0.329491,-0.162468 0.34922,0.0539 0.39075,0.04099 0.48148,-0.1497 0.14464,-0.303918 -0.0157,-0.623261 -0.34904,-0.695862 -0.331937,-0.07226 -0.387698,-0.229915 -0.208623,-0.589882 0.134883,-0.271165 0.165393,-0.285836 0.579823,-0.278853 0.43642,0.0072 0.43705,0.0078 0.27666,0.179201 -0.0956,0.102345 -0.22496,0.15386 -0.31957,0.127398 -0.19841,-0.05551 -0.41204,0.01683 -0.35132,0.118942 0.025,0.04211 0.11278,0.0777 0.19498,0.07907 0.25025,0.0044 0.52639,0.385562 0.53037,0.732411 0.004,0.414316 -0.32776,0.710266 -0.78926,0.70248 -0.175757,-0.0024 -0.344499,-0.03115 -0.37499,-0.06275 z M 97.879778,79.541991 c -0.08104,-0.02147 -0.146449,-0.09676 -0.145259,-0.167263 0.0017,-0.102255 0.06916,-0.115704 0.333206,-0.06648 0.281166,0.05241 0.345641,0.03549 0.427954,-0.112336 0.128642,-0.231067 -0.0068,-0.494642 -0.293954,-0.571914 l -0.216519,-0.05826 0.235856,-0.181743 c 0.192529,-0.148365 0.225914,-0.224354 0.18178,-0.413773 -0.04476,-0.19226 -0.08637,-0.222539 -0.242569,-0.176652 -0.103678,0.03043 -0.215672,0.09629 -0.248891,0.146321 -0.03324,0.05001 -0.08373,0.0668 -0.112263,0.03728 -0.09084,-0.09397 0.161856,-0.393644 0.373499,-0.443019 0.213307,-0.04974 0.605721,0.153949 0.603039,0.313041 -7.96e-4,0.04855 -0.04253,0.161916 -0.09265,0.251951 -0.06828,0.122695 -0.05916,0.210997 0.03638,0.352534 0.358964,0.531617 -0.201502,1.259439 -0.839614,1.090322 z m 1.264256,-0.123668 c -0.06166,-0.169274 0.180726,-0.356073 0.300798,-0.23181 0.114845,0.118839 0.02325,0.358076 -0.136028,0.355391 -0.0663,-0.0011 -0.140413,-0.05672 -0.16477,-0.123581 z m 0.840157,-0.07738 c -0.224335,-0.250524 -0.33345,-0.930602 -0.202088,-1.259497 0.227697,-0.570081 0.721547,-0.712922 1.080167,-0.312433 0.1946,0.217286 0.20831,0.286675 0.16977,0.858673 -0.0355,0.528817 -0.0719,0.645834 -0.24222,0.779049 -0.27522,0.21542 -0.57582,0.190875 -0.805629,-0.0658 z m 0.632699,-0.16348 c 0.13106,-0.328185 0.12084,-1.162463 -0.0166,-1.354354 -0.0952,-0.13298 -0.15016,-0.148114 -0.27373,-0.07546 -0.11847,0.06966 -0.16247,0.218649 -0.18846,0.63816 -0.0378,0.610764 0.0639,1.001821 0.26158,1.005154 0.0721,0.0012 0.16987,-0.09488 0.21724,-0.213507 z"
       style="fill:#000000;stroke-width:0.264583"
       id="path1"
       sodipodi:nodetypes="ccccccccccccccccccccccccccccccscsccsccccccscccsccccccccccssccccccssccccccccccsccccccccccsccccccccscsccccsccccccccccccsccscssccccssccccccccccccccccccccscccccsccsccssssccsccccsccccccccccccccccccccscccccscccccccccccccccccccccccccccccccsccccccccccccccccccccccccccccccccccccccccccccccccccccccccccccccccccccccccccccccccccscsscccccsccsccccscccccccccccscccssscccccccsccscssccsccccsccccccccscccccsccccccccccccscccsccccsscscccssccccccccccccscssccsccccsccccccccccccssccsccccsccccsccccccccccccccccccccccscccscccsccccccccccccccccscccccccccccccccscccccccccccccccccccscccccccccccccccccccccccccsccccccccccccsccccsccccccccccccccscccsccccccccccccccccccccccccccccscccccccccccccccccccccccccccccccccccccccccccccccccccccccccscccccccccccccccccsccccccccccssscsccccccscsscsssssccscccscssccccscccccscsccscccccsccccccsccccccccccccscscssccsssccccccccccsccccccccssccccccccccsccccscccsccccccccssscscccccccccccccccccccscccsccccccccscscccccccccccccccccccccccccccccccccccccccccccccccccccccccccccc" />
    <text
       xml:space="preserve"
       style="font-weight:bold;font-size:2.11667px;line-height:normal;font-family:'Segoe Script';-inkscape-font-specification:'Segoe Script Bold';text-align:center;text-decoration-color:#000000;writing-mode:lr-tb;direction:ltr;text-anchor:middle;fill:#000000;stroke:none;stroke-width:0.529"
       x="123.89752"
       y="159.38547"
       id="text16"><tspan
         sodipodi:role="line"
         id="tspan16"
         style="stroke-width:0.529"
         x="123.89752"
         y="159.38547">Mole fraction GaP, x</tspan></text>
    <text
       xml:space="preserve"
       style="font-weight:bold;font-size:2.11667px;line-height:normal;font-family:'Segoe Script';-inkscape-font-specification:'Segoe Script Bold';text-align:center;text-decoration-color:#000000;writing-mode:lr-tb;direction:ltr;text-anchor:middle;fill:#000000;stroke:none;stroke-width:0.529"
       x="143.16238"
       y="157.41867"
       id="text17-7"><tspan
         sodipodi:role="line"
         id="tspan17-1"
         style="stroke-width:0.529"
         x="143.16238"
         y="157.41867">GaP</tspan></text>
    <text
       xml:space="preserve"
       style="font-weight:bold;font-size:2.11667px;line-height:normal;font-family:'Segoe Script';-inkscape-font-specification:'Segoe Script Bold';text-align:center;text-decoration-color:#000000;writing-mode:lr-tb;direction:ltr;text-anchor:middle;fill:#000000;stroke:none;stroke-width:0.529"
       x="143.16238"
       y="157.41867"
       id="text17-7-3"><tspan
         sodipodi:role="line"
         id="tspan17-1-8"
         style="stroke-width:0.529"
         x="143.16238"
         y="157.41867">GaP</tspan></text>
    <text
       xml:space="preserve"
       style="font-weight:bold;font-size:2.11667px;line-height:normal;font-family:'Segoe Script';-inkscape-font-specification:'Segoe Script Bold';text-align:center;text-decoration-color:#000000;writing-mode:lr-tb;direction:ltr;text-anchor:middle;fill:#000000;stroke:none;stroke-width:0.529"
       x="102.94572"
       y="157.41867"
       id="text17-7-3-6"><tspan
         sodipodi:role="line"
         id="tspan17-1-8-0"
         style="stroke-width:0.529"
         x="102.94572"
         y="157.41867">GaAs</tspan></text>
    <text
       xml:space="preserve"
       style="font-weight:bold;font-size:2.11667px;line-height:normal;font-family:'Segoe Script';-inkscape-font-specification:'Segoe Script Bold';text-align:center;text-decoration-color:#000000;writing-mode:lr-tb;direction:ltr;text-anchor:middle;fill:#000000;stroke:none;stroke-width:0.529"
       x="137.71927"
       y="106.21365"
       id="text8"><tspan
         sodipodi:role="line"
         id="tspan8"
         style="stroke-width:0.529"
         x="137.71927"
         y="106.21365">2.261 eV</tspan></text>
    <text
       xml:space="preserve"
       style="font-weight:bold;font-size:2.11667px;line-height:normal;font-family:'Segoe Script';-inkscape-font-specification:'Segoe Script Bold';text-align:center;text-decoration-color:#000000;writing-mode:lr-tb;direction:ltr;text-anchor:middle;fill:#000000;stroke:none;stroke-width:0.529"
       x="114.08796"
       y="144.3792"
       id="text6"><tspan
         sodipodi:role="line"
         id="tspan6"
         style="stroke-width:0.529"
         x="114.08796"
         y="144.3792">E<tspan
   style="font-size:65%;baseline-shift:sub"
   id="tspan11">g</tspan> = 1.424 eV</tspan></text>
    <text
       xml:space="preserve"
       style="font-weight:bold;font-size:4.23333px;line-height:normal;font-family:'Segoe Script';-inkscape-font-specification:'Segoe Script Bold';text-align:start;text-decoration-color:#000000;writing-mode:lr-tb;direction:ltr;text-anchor:start;fill:#000000;stroke:none;stroke-width:0.529"
       x="-133.65575"
       y="95.312683"
       id="text2"
       transform="rotate(-90)"><tspan
         sodipodi:role="line"
         id="tspan2"
         style="fill:#000000;stroke:none;stroke-width:0.529"
         x="-133.65575"
         y="95.312683">Bandgap Eg (eV)</tspan></text>
    <text
       xml:space="preserve"
       style="font-weight:bold;font-size:2.11667px;line-height:normal;font-family:'Segoe Script';-inkscape-font-specification:'Segoe Script Bold';text-align:center;text-decoration-color:#000000;writing-mode:lr-tb;direction:ltr;text-anchor:middle;fill:#000000;stroke-width:0.529"
       x="128.37"
       y="128.25037"
       id="text1"><tspan
         sodipodi:role="line"
         id="tspan1"
         style="stroke-width:0.529"
         x="128.37"
         y="128.25037">x=0.45</tspan><tspan
         sodipodi:role="line"
         style="stroke-width:0.529"
         x="128.37"
         y="130.89621"
         id="tspan3">Eg=1.977 eV</tspan></text>
    <text
       xml:space="preserve"
       style="font-weight:bold;font-size:2.11667px;line-height:normal;font-family:'Segoe Script';-inkscape-font-specification:'Segoe Script Bold';text-align:center;text-decoration-color:#000000;writing-mode:lr-tb;direction:ltr;text-anchor:middle;fill:#000000;stroke:none;stroke-width:0.529"
       x="66.806557"
       y="164.40118"
       id="text3"
       transform="rotate(-26.668301)"><tspan
         sodipodi:role="line"
         style="font-size:2.11667px;text-align:center;text-anchor:middle;stroke-width:0.529"
         x="66.806557"
         y="164.40118"
         id="tspan4">Indirect band</tspan></text>
    <text
       xml:space="preserve"
       style="font-weight:bold;font-size:2.11667px;line-height:normal;font-family:'Segoe Script';-inkscape-font-specification:'Segoe Script Bold';text-align:center;text-decoration-color:#000000;writing-mode:lr-tb;direction:ltr;text-anchor:middle;fill:#000000;stroke:none;stroke-width:0.529"
       x="-25.043045"
       y="173.06252"
       id="text5"
       transform="rotate(-48.092031)"><tspan
         sodipodi:role="line"
         id="tspan5"
         style="stroke-width:0.529"
         x="-25.043045"
         y="173.06252">Direct band</tspan></text>
    <text
       xml:space="preserve"
       style="font-weight:bold;font-size:2.11667px;line-height:normal;font-family:'Segoe Script';-inkscape-font-specification:'Segoe Script Bold';text-align:center;text-decoration-color:#000000;writing-mode:lr-tb;direction:ltr;text-anchor:middle;fill:#000000;stroke:none;stroke-width:0.529"
       x="110.82655"
       y="83.589493"
       id="text12"><tspan
         sodipodi:role="line"
         id="tspan12"
         style="stroke-width:0.529"
         x="110.82655"
         y="83.589493">GaAs<tspan
   style="font-size:65%;baseline-shift:sub"
   id="tspan7">1-x</tspan>P<tspan
   style="font-size:65%;baseline-shift:sub"
   id="tspan9">x</tspan></tspan><tspan
         sodipodi:role="line"
         style="stroke-width:0.529"
         x="110.82655"
         y="86.235329"
         id="tspan13">T=300K</tspan></text>
  </g>
</svg>
