<?xml version="1.0" encoding="UTF-8" standalone="no"?>
<!-- Created with Inkscape (http://www.inkscape.org/) -->

<svg
   width="99.999985mm"
   height="165.24619mm"
   viewBox="0 0 99.999985 165.24618"
   version="1.1"
   id="svg1"
   inkscape:version="1.4.2 (f4327f4, 2025-05-13)"
   sodipodi:docname="oe_led_gaasp_bandgap_problem.svg"
   inkscape:export-filename="oe_led_gaasp_bandgap_problem.png"
   inkscape:export-xdpi="96"
   inkscape:export-ydpi="96"
   xmlns:inkscape="http://www.inkscape.org/namespaces/inkscape"
   xmlns:sodipodi="http://sodipodi.sourceforge.net/DTD/sodipodi-0.dtd"
   xmlns="http://www.w3.org/2000/svg"
   xmlns:svg="http://www.w3.org/2000/svg">
  <sodipodi:namedview
     id="namedview1"
     pagecolor="#ffffff"
     bordercolor="#000000"
     borderopacity="0.25"
     inkscape:showpageshadow="2"
     inkscape:pageopacity="0.0"
     inkscape:pagecheckerboard="0"
     inkscape:deskcolor="#d1d1d1"
     inkscape:document-units="mm"
     inkscape:zoom="0.61858946"
     inkscape:cx="-63.854952"
     inkscape:cy="345.14006"
     inkscape:window-width="1366"
     inkscape:window-height="705"
     inkscape:window-x="-8"
     inkscape:window-y="-8"
     inkscape:window-maximized="1"
     inkscape:current-layer="layer1" />
  <defs
     id="defs1" />
  <g
     inkscape:label="Layer 1"
     inkscape:groupmode="layer"
     id="layer1"
     transform="translate(-92.03434,-77.526502)">
    <path
       d="m 110.2904,220.59848 c -0.38473,-0.3025 -0.58429,-0.98552 -0.56815,-1.94444 0.015,-0.67482 0.093,-0.91969 0.41875,-1.2599 0.51792,-0.54066 1.26206,-0.49507 1.69119,0.10348 0.41696,0.58169 0.39152,2.26169 -0.0408,2.82639 -0.35482,0.46126 -1.09016,0.59591 -1.49895,0.27442 z m 0.96934,-0.25376 c 0.29522,-0.17982 0.32535,-2.20925 0.0393,-2.68434 -0.51814,-0.86212 -0.99576,-0.11134 -0.91146,1.43202 0.0674,1.23732 0.31456,1.59223 0.87163,1.25232 z m 12.03701,0.2436 c -0.5336,-0.15363 -0.77478,-1.87223 -0.40428,-2.88066 0.33149,-0.9021 1.6936,-0.92093 2.02386,-0.0283 0.15905,0.43091 0.22653,1.19291 0.17122,1.94304 -0.0606,0.82115 -0.83742,1.24006 -1.79087,0.96559 z m 0.94812,-0.38536 c 0.26495,-0.40903 0.29414,-2.29354 0.0408,-2.61015 -0.28626,-0.35718 -0.74946,-0.26325 -0.86756,0.17627 -0.16149,0.60087 -0.0318,2.22947 0.19961,2.51906 0.26932,0.33611 0.36304,0.32344 0.62754,-0.085 z m 1.32169,0.17084 c 0.0378,-0.10815 0.19989,-0.19464 0.35951,-0.19197 0.15961,0.001 0.31837,0.0943 0.3528,0.20402 0.0395,0.12613 -0.0919,0.19645 -0.35948,0.19196 -0.26737,-0.006 -0.39673,-0.0793 -0.35283,-0.20401 z m 1.55077,-0.35278 c 0.30962,-0.3206 0.64773,-0.6741 0.75136,-0.78555 0.10385,-0.11171 0.2398,-0.41928 0.30262,-0.68408 0.19569,-0.82419 -0.42814,-1.24153 -1.04655,-0.70026 -0.40654,0.35584 -0.5485,0.14072 -0.22314,-0.33858 0.52102,-0.76713 1.73761,-0.64449 1.93319,0.19508 0.10984,0.47224 -0.17777,1.10869 -0.87722,1.93963 l -0.4481,0.53237 0.76135,-0.073 c 0.64584,-0.0614 0.75321,-0.0337 0.70772,0.18488 -0.043,0.20587 -0.29236,0.2633 -1.23889,0.28513 l -1.18528,0.0271 z m 11.53944,0.36274 c -0.3279,-0.36123 -0.37431,-0.56555 -0.35732,-1.57319 0.0228,-1.41667 0.3014,-1.82112 1.23882,-1.80531 0.72866,0.015 1.03021,0.39593 1.15961,1.47543 0.21435,1.78849 -1.0635,2.97995 -2.04111,1.90307 z m 1.36987,-0.68016 c 0.18761,-1.00693 -0.009,-2.18315 -0.3874,-2.31012 -0.44339,-0.14913 -0.59846,0.061 -0.72271,0.9778 -0.14726,1.08547 0.128,1.95252 0.6223,1.96087 0.30808,0.006 0.38922,-0.0992 0.48781,-0.62855 z m 1.17593,0.65658 c 0.006,-0.23856 0.0879,-0.32268 0.28182,-0.28194 0.15157,0.0318 0.27436,0.1628 0.27219,0.29128 -0.001,0.12837 -0.12911,0.25514 -0.28184,0.28192 -0.19502,0.0344 -0.2762,-0.0526 -0.27217,-0.29126 z m 2.34804,-0.0698 c -0.0395,-0.40373 -0.10329,-0.44776 -0.67628,-0.46676 -0.82959,-0.0275 -0.86629,-0.29573 -0.18637,-1.36288 1.1163,-1.75215 1.34521,-1.79397 1.46953,-0.26869 0.0662,0.80991 0.15214,1.11156 0.31834,1.11438 0.12537,0.001 0.22604,0.11059 0.22384,0.24137 -0.001,0.13061 -0.10592,0.23585 -0.23091,0.23376 -0.12968,-0.001 -0.25154,0.18151 -0.28434,0.4295 -0.0808,0.6087 -0.57608,0.67067 -0.63379,0.0795 z m -0.0258,-1.55447 c 0.007,-0.59388 -0.18001,-0.57262 -0.60037,0.0677 l -0.32625,0.49681 0.45984,-0.0449 c 0.39382,-0.0382 0.46083,-0.11321 0.4668,-0.51979 z m 10.20206,1.46024 c -0.56878,-0.95652 -0.34206,-2.62503 0.42666,-3.14018 0.25262,-0.16897 1.04054,-0.12799 1.03745,0.0545 -0.001,0.0872 0.10068,0.15981 0.22738,0.16205 0.5019,0.007 0.70517,2.05902 0.28201,2.84505 -0.26607,0.49417 -0.53927,0.63588 -1.20397,0.62473 -0.33909,-0.007 -0.5275,-0.13959 -0.76951,-0.54655 z m 1.25244,0.0818 c 0.34977,-0.21429 0.34017,-2.45895 -0.0112,-2.82349 -0.23237,-0.24045 -0.27342,-0.24131 -0.51214,-0.009 -0.48549,0.46963 -0.34129,2.98377 0.17103,2.98143 0.0623,-4.3e-4 0.22115,-0.0666 0.35314,-0.14746 z m 1.52719,0.39618 c -0.22893,-0.23692 -0.0984,-0.715 0.17945,-0.65664 0.15157,0.0318 0.27384,0.1937 0.27101,0.35947 -0.006,0.3151 -0.26644,0.48744 -0.45029,0.29717 z m 1.54052,-0.0977 c -0.17534,-0.12743 -0.41123,-0.52821 -0.52412,-0.8908 -0.17608,-0.56624 -0.17047,-0.74954 0.0404,-1.29991 0.31573,-0.82312 1.41037,-1.64581 1.84899,-1.38964 0.27857,0.16242 0.27748,0.17346 -0.0283,0.2775 -0.3496,0.11864 -1.04061,0.67633 -1.0434,0.84202 -9.7e-4,0.0574 0.22303,0.10816 0.49777,0.11265 0.72269,0.015 1.13155,0.58589 1.00656,1.41232 -0.15438,1.02061 -1.04387,1.4835 -1.79813,0.93571 z m 1.15552,-0.65428 c 0.11471,-0.42615 -0.16242,-1.16703 -0.47492,-1.27107 -0.52301,-0.17421 -0.83419,0.92645 -0.41124,1.45419 0.30447,0.37992 0.7601,0.28578 0.88616,-0.18319 z m 10.117,0.45048 c -0.42541,-0.48655 -0.39098,-2.39378 0.0545,-2.97139 1.11612,-1.45013 2.62699,0.52917 1.90464,2.49515 -0.10067,0.27454 -0.31487,0.56674 -0.47554,0.64933 -0.472,0.24261 -1.19282,0.15831 -1.48269,-0.17271 z m 1.1466,-0.1845 c 0.2378,-0.23007 0.28832,-2.08411 0.0683,-2.51238 -0.19192,-0.3738 -0.55125,-0.40901 -0.68888,-0.0675 -0.18095,0.44932 -0.14315,2.3696 0.0505,2.57022 0.10292,0.1061 0.22949,0.19395 0.28172,0.19485 0.0522,8.8e-4 0.18207,-0.0825 0.28813,-0.18544 z m 1.40214,0.43042 c -0.24452,-0.25303 -0.0818,-0.53491 0.30531,-0.52838 0.30171,0.006 0.39239,0.0782 0.34969,0.28127 -0.0604,0.2874 -0.46762,0.44101 -0.655,0.24711 z m 1.42049,-0.1656 c -0.31255,-0.3575 -0.32228,-0.97604 -0.0208,-1.37325 0.19143,-0.25291 0.18394,-0.35894 -0.0535,-0.76479 -0.4534,-0.7751 -0.0208,-1.37607 0.97879,-1.35923 0.91786,0.015 1.22822,0.64823 0.68513,1.39686 -0.22804,0.31431 -0.22239,0.36966 0.0679,0.67007 0.67204,0.69539 0.14259,1.75038 -0.87024,1.73329 -0.31191,-0.006 -0.63511,-0.12949 -0.78657,-0.30297 z m 1.2965,-0.50095 c 0.0633,-0.30425 -0.38708,-0.81827 -0.64561,-0.73697 -0.21869,0.0687 -0.32812,0.5124 -0.20784,0.84253 0.1149,0.31506 0.78317,0.23235 0.85345,-0.10573 z m -0.11657,-2.16225 c 0.0679,-0.42277 -0.33475,-0.64081 -0.67651,-0.36665 -0.1774,0.14258 -0.19601,0.26538 -0.0747,0.50132 0.20804,0.40533 0.6786,0.32095 0.75139,-0.13454 z m 10.7124,2.79643 c -0.15812,-0.1162 -0.15793,-0.16186 9.4e-4,-0.22285 0.13603,-0.0526 0.20602,-0.4806 0.22071,-1.35296 0.015,-1.0321 -0.0305,-1.31581 -0.25206,-1.48422 -0.25108,-0.19119 -0.23645,-0.22176 0.17758,-0.37208 0.24828,-0.0898 0.51603,-0.12201 0.59496,-0.072 0.079,0.0509 0.13155,0.80059 0.11714,1.66656 -0.015,0.94402 0.0367,1.57549 0.13155,1.57708 0.087,0.001 0.157,0.0662 0.15606,0.14315 -0.001,0.19943 -0.90764,0.2918 -1.14623,0.11695 z m 2.17178,-0.0866 c -0.0599,-0.1003 -0.0327,-0.2561 0.0597,-0.34567 0.2163,-0.20922 0.70914,-0.015 0.61822,0.24341 -0.0926,0.26324 -0.5418,0.33104 -0.67784,0.10254 z m 1.65213,-0.0112 c -0.42266,-0.3362 -0.6051,-0.86273 -0.59086,-1.70542 0.015,-1.00297 0.37215,-1.69993 0.93318,-1.83078 1.35072,-0.3151 2.12339,2.07383 1.08388,3.35116 -0.35924,0.44148 -0.99933,0.52451 -1.4262,0.18506 z m 1.10306,-0.61633 c 0.28764,-0.97779 -0.07,-2.63299 -0.57335,-2.65461 -0.21029,-0.006 -0.47514,0.8462 -0.48736,1.5736 -0.0228,1.44791 0.7274,2.21407 1.06071,1.08101 z m -79.3943,-7.20482 c -0.0271,-1.4102 -0.0444,-5.27296 -0.038,-8.58391 0.006,-3.31093 0.006,-7.51711 -0.002,-9.34704 -0.007,-1.82992 -4.9e-4,-8.17466 0.015,-14.09943 0.015,-5.92481 0.0168,-12.26965 0.004,-14.09968 -0.0131,-1.83002 -0.0131,-6.57083 0.002,-10.53514 0.0337,-8.8939 0.0339,-13.38341 -1.7e-4,-18.29795 -0.015,-2.09147 -0.0112,-8.82839 0.007,-14.97091 0.0494,-16.30258 0.0575,-21.6257 0.0451,-30.812697 -0.015,-10.272644 0.004,-12.594982 0.0954,-12.684362 0.0402,-0.03888 4.12737,-0.06961 9.08263,-0.06822 11.99508,0.0032 18.40216,0.0026 23.65583,-0.0022 6.85408,-0.0064 14.20664,0.01104 21.92878,0.05176 3.91847,0.0206 7.73053,0.01459 8.47124,-0.01347 0.7407,-0.02801 4.16925,-0.04826 7.61899,-0.04493 l 6.27228,0.006 0.0853,0.375193 c 0.0466,0.206356 0.0659,4.260214 0.0416,9.008578 -0.0238,4.748366 -0.0238,8.778379 -3.8e-4,8.955598 0.0232,0.177206 0.0196,4.24074 -0.007,9.03003 -0.0277,4.7893 -0.0505,12.87832 -0.0494,17.97564 9e-5,5.09727 -0.004,11.58464 -0.0112,14.41637 -0.0168,8.61682 -0.0168,15.54996 0.007,23.60528 0.0131,4.22614 0.0112,12.67412 -0.001,18.77321 -0.0131,6.09909 -0.0131,12.23009 7.3e-4,13.62444 0.0131,1.39437 0.007,6.50934 -0.0131,11.36668 l -0.0374,8.83153 -3.94175,-0.0612 c -2.16797,-0.0333 -5.04642,-0.0445 -6.3965,-0.0275 -3.06659,0.0412 -24.87421,0.0849 -33.25189,0.0672 -3.43973,-0.007 -9.31813,8.1e-4 -13.06311,0.0187 -3.74494,0.0168 -9.80147,0.0243 -13.45889,0.0168 -3.65743,-0.007 -6.73198,0.007 -6.83236,0.0361 -0.12949,0.0376 -0.19685,-0.69206 -0.23197,-2.51092 z m 7.27258,1.86255 c 0.1104,-0.0776 0.20382,-0.35136 0.20816,-0.60923 0.007,-0.63795 0.38865,-0.48928 0.44275,0.17421 l 0.0415,0.50643 3.43331,0.015 3.43331,0.015 0.0964,-1.01574 c 0.13529,-1.42854 0.50027,-1.50034 0.47658,-0.0936 l -0.015,1.04565 3.60189,0.0168 3.60184,0.0189 0.0881,-0.5196 c 0.11265,-0.66613 0.38381,-0.66566 0.47501,-1.3e-4 0.0582,0.42602 0.13885,0.51453 0.46639,0.51197 0.21778,-0.006 1.8741,0.0112 3.6808,0.0305 l 3.285,0.0307 0.0215,-1.12804 c 0.015,-0.96839 0.0513,-1.10048 0.24574,-0.93324 0.13641,0.11751 0.23938,0.55124 0.25864,1.09313 0.0307,0.86566 0.0479,0.89822 0.46743,0.89575 0.2395,1.5e-4 1.75346,0.007 3.36438,0.0187 l 2.92887,0.0217 0.009,-0.43552 c 0.007,-0.23951 0.0816,-0.54123 0.16953,-0.67044 0.14222,-0.20883 0.17702,-0.20827 0.31173,0.006 0.0835,0.13211 0.14952,0.4453 0.14634,0.69595 l -0.006,0.45572 3.36555,-0.0528 c 1.85103,-0.0286 3.4908,-0.0865 3.6439,-0.12781 0.22797,-0.0616 0.28147,-0.25935 0.29553,-1.09376 0.007,-0.56034 0.0808,-1.01767 0.15868,-1.01638 0.224,0.002 0.32619,0.44107 0.31118,1.33131 l -0.015,0.82456 1.22594,0.0672 c 0.6743,0.0367 2.27751,0.0341 3.56269,-0.006 l 2.33671,-0.0724 0.007,-0.54726 c 0.015,-0.69921 0.38553,-0.6211 0.44386,0.0928 l 0.0413,0.50338 1.61249,0.0266 c 0.88683,0.015 2.52143,-0.004 3.63241,-0.0421 l 2.01994,-0.0691 0.015,-1.00504 c 0.015,-0.78775 0.0685,-1.00416 0.2544,-1.001 0.13061,0.001 0.24516,0.0754 0.25452,0.16299 0.0112,0.0872 0.0339,0.23027 0.0541,0.31777 0.0202,0.0868 0.0402,0.47992 0.0444,0.87207 l 0.006,0.71302 2.33484,0.0389 c 1.28412,0.0223 2.91947,0.004 3.63407,-0.0406 l 1.2993,-0.0793 0.0561,-0.4911 c 0.0777,-0.68024 0.51762,-0.65293 0.57219,0.0356 l 0.0408,0.51863 3.43329,0.015 3.43331,0.015 0.0597,-3.6898 c 0.0631,-3.96341 0.0601,-3.98373 -0.76114,-4.00317 -0.20997,-9.9e-4 -0.35447,-0.10591 -0.35211,-0.246 0.001,-0.16597 0.17084,-0.23474 0.55798,-0.22823 l 0.55408,0.007 0.0529,-3.16759 0.053,-3.16757 -0.63325,-0.007 c -0.34822,-0.007 -0.63197,-0.0818 -0.63047,-0.16897 0.001,-0.16504 0.20497,-0.21132 0.67686,-0.15531 0.16205,0.0168 0.33677,-0.11827 0.41875,-0.32895 0.13697,-0.35175 0.1714,-6.01416 0.0384,-6.44252 -0.0462,-0.14895 -0.31765,-0.20759 -0.89685,-0.19337 -1.13621,0.0275 -1.26288,0.004 -1.18397,-0.22305 0.0415,-0.11845 0.47384,-0.22158 1.08631,-0.25895 1.24205,-0.0756 1.16763,0.21312 1.08667,-4.21951 l -0.0588,-3.20907 -0.36534,-0.007 c -0.94013,-0.015 -1.1652,-0.45042 -0.26403,-0.50978 l 0.59441,-0.0395 0.0945,-2.85003 c 0.0518,-1.56752 0.0556,-3.08238 0.0112,-3.36635 -0.0767,-0.46476 -0.13885,-0.51723 -0.63143,-0.52554 -0.38054,-0.007 -0.54564,-0.0812 -0.54285,-0.24674 0.001,-0.14577 0.15176,-0.23509 0.38679,-0.23112 0.83272,0.015 0.81,0.12781 0.76855,-3.85651 -0.0217,-2.0397 -0.0851,-3.78671 -0.14203,-3.88222 -0.0569,-0.0952 -0.27711,-0.17645 -0.48964,-0.1802 -0.23795,-0.006 -0.38484,-0.0981 -0.38237,-0.24404 0.001,-0.15831 0.16205,-0.23492 0.47887,-0.2296 l 0.47488,0.007 0.0518,-3.07882 0.0518,-3.0788 -0.58055,-0.059 c -0.84655,-0.0859 -0.87849,-0.46002 -0.0382,-0.44586 l 0.66575,0.0131 -0.0556,-3.28748 c -0.0303,-1.80814 -0.0793,-3.31233 -0.1091,-3.34265 -0.029,-0.0305 -0.48564,-0.10179 -1.01406,-0.15868 -0.64376,-0.07 -0.95964,-0.17253 -0.95727,-0.31156 0.001,-0.14465 0.30558,-0.21731 0.99363,-0.23851 l 0.99009,-0.0307 0.0947,-2.69162 c 0.0516,-1.48036 0.0573,-3.20508 0.0131,-3.83273 l -0.0818,-1.14113 -0.54382,-0.0575 c -0.71185,-0.0754 -0.69606,-0.36313 0.0221,-0.41426 l 0.56128,-0.0397 0.0131,-3.35651 0.0131,-3.35651 -0.5401,-0.0881 c -0.67973,-0.11096 -0.84017,-0.48205 -0.21528,-0.49763 0.24676,-0.002 0.50205,-0.002 0.56719,0.007 0.0653,0.009 0.13005,-0.65875 0.14408,-1.48926 l 0.0232,-1.51009 -0.98978,0.66208 c -0.54432,0.36411 -1.10805,0.77168 -1.25275,0.90564 -0.14465,0.13417 -0.70804,0.50395 -1.25199,0.82211 -0.54393,0.31817 -0.98987,0.63256 -0.99099,0.69865 -0.001,0.066 -0.19955,0.21437 -0.441,0.32952 -0.2414,0.11546 -0.6913,0.38694 -0.99976,0.60402 -1.05929,0.74537 -3.49852,2.30501 -3.97421,2.54103 -0.2618,0.12986 -0.57404,0.33102 -0.69378,0.44687 -0.11994,0.11564 -0.40057,0.30883 -0.62404,0.42881 -0.62667,0.33656 -1.39903,0.79251 -2.12713,1.25569 -0.36449,0.23191 -0.77976,0.42094 -0.92287,0.42012 -0.14315,-9.2e-4 -0.2979,0.0868 -0.34414,0.19515 -0.046,0.10815 -0.50413,0.40338 -1.01762,0.65613 -0.51345,0.25273 -0.96995,0.50542 -1.01441,0.5615 -0.1381,0.17403 -3.17098,1.82348 -3.34737,1.82056 -0.0917,-10e-4 -0.16841,0.0683 -0.16953,0.15532 -0.001,0.0872 -0.0816,0.15699 -0.17796,0.1555 -0.0962,-0.001 -0.75046,0.30815 -1.45372,0.68839 -0.70327,0.38025 -1.3719,0.68977 -1.48584,0.68785 -0.11396,-0.001 -0.232,0.0584 -0.26229,0.1336 -0.0305,0.0752 -0.34244,0.27661 -0.69363,0.447 -4.01122,1.94611 -6.50188,3.09582 -6.69924,3.09249 -0.13229,-0.001 -0.24165,0.0647 -0.24303,0.14801 -0.001,0.0836 -0.28894,0.23261 -0.63894,0.33117 -0.34997,0.0984 -0.63736,0.23911 -0.63863,0.31242 -0.001,0.0734 -0.11003,0.13174 -0.24182,0.12949 -0.13174,-10e-4 -0.36444,0.0619 -0.51699,0.14184 -0.15269,0.0806 -0.52843,0.24528 -0.8353,0.36648 -1.09716,0.43344 -2.47864,1.02932 -2.89555,1.24891 -0.23321,0.12294 -0.49687,0.22213 -0.58592,0.22063 -0.0891,-0.001 -0.70582,0.23758 -1.37065,0.53138 -0.66475,0.29373 -1.24798,0.53343 -1.2959,0.53263 -0.22384,-0.007 -1.50547,0.63133 -1.50744,0.74703 -0.006,0.25685 0.33295,1.2295 0.76906,2.21807 0.24381,0.55262 0.44278,1.03646 0.44214,1.07524 -6.5e-4,0.0387 0.30067,0.55957 0.66959,1.15739 0.82607,1.33863 1.93053,2.75521 2.73344,3.50597 0.69086,0.64595 2.30314,1.75782 2.78294,1.91914 0.46493,0.15644 0.57904,0.57586 0.15457,0.56867 -0.92237,-0.015 -3.39905,-2.02355 -4.9887,-4.04466 -1.12931,-1.43576 -2.16813,-3.36512 -2.66408,-4.94779 -0.13791,-0.44045 -0.31295,-0.84068 -0.38871,-0.88931 -0.0758,-0.0488 -0.26892,0.1076 -0.42919,0.34728 -0.28473,0.42577 -0.47322,0.65597 -1.18775,1.45051 -0.19296,0.21458 -0.83251,0.98802 -1.42115,1.71873 -0.58869,0.7307 -1.50764,1.83445 -2.04216,2.45277 -1.07581,1.24452 -2.75418,3.30252 -4.11659,5.04775 -0.34118,0.43707 -0.75766,0.90922 -1.51474,1.71716 -0.28136,0.30022 -0.94223,1.10893 -1.46866,1.79712 -0.52646,0.68818 -1.34391,1.62985 -1.81658,2.0926 -0.47266,0.46276 -0.8604,0.89964 -0.8616,0.9709 -0.001,0.14053 -1.84588,2.36687 -2.55332,3.08376 -0.53575,0.54282 -1.01183,1.08779 -1.32777,1.51965 -0.36796,0.50295 -1.4763,1.78976 -2.01521,2.33963 -0.75286,0.7681 -1.39132,1.51167 -1.66604,1.94028 -0.13828,0.21551 -0.32921,0.46178 -0.42456,0.54732 -0.0954,0.0857 -0.64476,0.68044 -1.22089,1.32199 -0.57612,0.64157 -1.33764,1.47186 -1.69226,1.84512 -0.35465,0.37327 -0.67402,0.75642 -0.70972,0.85152 -0.0356,0.0949 -0.30308,0.40329 -0.59417,0.68486 -0.29102,0.28158 -0.58941,0.61526 -0.66296,0.74155 -0.0737,0.12593 -0.6229,0.7539 -1.22074,1.39476 -0.59783,0.64088 -1.4289,1.57674 -1.84684,2.0797 -0.41796,0.50293 -1.32643,1.52024 -2.01878,2.26066 -0.99322,1.06207 -1.2606,1.44845 -1.26707,1.83059 -0.007,0.44335 0.041,0.48929 0.57241,0.54328 0.79668,0.081 0.86419,0.42576 0.093,0.47624 -0.75211,0.0492 -0.7557,0.0685 -0.66272,3.56353 l 0.0685,2.57554 0.53719,0.007 c 0.37195,0.007 0.53592,0.0822 0.53315,0.24661 -10e-4,0.15737 -0.16092,0.2349 -0.46953,0.22975 -0.25604,-0.006 -0.51058,0.0623 -0.56569,0.1482 -0.0552,0.0861 -0.0777,1.83893 -0.0516,3.89562 l 0.0498,3.73944 3.26095,0.006 c 1.7935,0.004 3.35107,-0.0576 3.46124,-0.13454 z m -2.73509,-13.84472 c -2.02397,-0.77443 -3.61342,-1.68168 -3.60706,-2.0589 0.006,-0.25114 0.24603,-0.17085 1.2301,0.40759 1.1669,0.68616 2.49052,1.21795 3.71631,1.49314 0.51547,0.11601 0.96373,0.29455 0.99608,0.39741 0.10067,0.31934 -1.23234,0.18282 -2.33543,-0.23924 z m -3.52195,-4.14859 c 0.19681,-0.1927 1.11424,-1.22878 2.03867,-2.30235 0.92447,-1.07362 1.72229,-1.98694 1.773,-2.02964 0.26594,-0.224 2.48693,-2.7289 3.32162,-3.7462 0.52884,-0.64462 1.11435,-1.32131 1.30105,-1.50383 0.18656,-0.18264 0.62419,-0.6741 0.97212,-1.09238 0.34794,-0.41826 0.70518,-0.83917 0.79391,-0.93532 0.0885,-0.0962 0.48785,-0.55291 0.88706,-1.01501 0.68841,-0.797 2.23172,-2.46657 2.43411,-2.63328 0.0518,-0.0428 0.52221,-0.64073 1.04529,-1.32897 0.52316,-0.68824 1.24769,-1.56718 1.61015,-1.95318 0.36245,-0.38598 1.15919,-1.29937 1.7705,-2.02966 0.61134,-0.73032 1.35224,-1.55894 1.64643,-1.84135 0.29418,-0.28243 0.53549,-0.5499 0.53624,-0.59434 10e-4,-0.0814 0.97162,-1.32428 1.14666,-1.46878 0.0516,-0.0428 0.16092,-0.19373 0.24318,-0.33558 0.082,-0.14166 0.57653,-0.72464 1.09898,-1.29505 0.52241,-0.5703 1.17639,-1.32635 1.45334,-1.68002 0.64112,-0.81874 1.14783,-1.44723 1.95866,-2.42939 0.35559,-0.43072 0.79245,-0.98393 0.97072,-1.22929 0.17852,-0.24535 0.76242,-0.93953 1.29804,-1.54253 0.53562,-0.60305 1.14858,-1.34301 1.36213,-1.64437 0.21358,-0.30136 0.78925,-0.99608 1.27935,-1.54377 0.94239,-1.05321 0.9178,-1.0856 -0.42584,-0.56162 -0.79045,0.30829 -1.11225,0.25829 -1.21647,-0.1889 -0.11958,-0.5152 0.006,-0.67538 0.62091,-0.7983 0.28301,-0.0567 0.55093,-0.1469 0.59535,-0.20025 0.0444,-0.0537 0.33166,-0.18394 0.63821,-0.28946 0.50405,-0.17384 0.58206,-0.16092 0.81487,0.1323 0.30263,0.38151 0.4426,0.41379 0.44784,0.1031 0.001,-0.1235 0.058,-0.2472 0.12331,-0.27518 0.0661,-0.0275 0.37331,-0.36729 0.68345,-0.75416 0.31012,-0.38688 0.65187,-0.80885 0.75943,-0.93774 0.10759,-0.12911 0.33557,-0.4066 0.50673,-0.61717 0.30261,-0.37228 0.32245,-0.37513 0.72273,-0.1031 0.22636,0.15381 0.40982,0.38362 0.40768,0.51039 -0.006,0.24794 0.14035,0.21155 1.5106,-0.38044 2.2153,-0.95712 2.8236,-1.2102 2.90528,-1.20883 0.0505,8.6e-4 0.45806,-0.16318 0.90555,-0.36415 1.64313,-0.73856 2.90313,-1.28846 3.52511,-1.53857 0.35074,-0.1409 0.7676,-0.32273 0.92641,-0.40372 0.15887,-0.0808 0.73345,-0.3566 1.27703,-0.61238 1.76267,-0.8295 3.99385,-1.92462 5.21955,-2.56187 0.6589,-0.34255 1.42472,-0.72262 1.70187,-0.84455 0.2771,-0.12219 0.90782,-0.47084 1.40158,-0.77527 0.49376,-0.30437 0.9798,-0.55207 1.08006,-0.5504 0.1003,0.001 0.29642,-0.093 0.43594,-0.21095 0.13978,-0.11789 0.75665,-0.47041 1.37152,-0.78377 0.61485,-0.31339 1.18671,-0.63326 1.27074,-0.71084 0.0842,-0.0775 0.27339,-0.13922 0.42079,-0.13679 0.14745,10e-4 0.30454,-0.0861 0.34919,-0.19695 0.0447,-0.11077 0.35887,-0.33641 0.69831,-0.50141 0.33944,-0.16467 0.76155,-0.41325 0.93809,-0.55166 0.17645,-0.13829 1.18441,-0.75567 2.23979,-1.37171 1.05546,-0.61605 1.95528,-1.16318 1.99972,-1.21593 0.0443,-0.0528 0.33237,-0.22646 0.63987,-0.3861 0.30748,-0.15961 0.73974,-0.44092 0.96056,-0.62508 0.22081,-0.18413 0.59781,-0.42859 0.83772,-0.54326 0.23998,-0.1149 0.5792,-0.33722 0.75382,-0.49463 0.17497,-0.15737 0.37835,-0.28512 0.45262,-0.28386 0.0743,10e-4 0.2753,-0.12369 0.44674,-0.27743 0.2665,-0.23922 0.89956,-0.68252 2.69537,-1.88756 0.98982,-0.66423 2.26889,-1.62097 2.31713,-1.73327 0.0305,-0.07 0.15587,-0.12593 0.27921,-0.12425 0.42468,0.007 0.23001,-0.44567 -0.50789,-1.18131 -0.81223,-0.80974 -1.43124,-1.16906 -2.51777,-1.46155 -0.80469,-0.21659 -1.08057,-0.59481 -0.4258,-0.58377 0.52507,0.007 2.19837,0.62359 2.26468,0.83203 0.0275,0.087 0.14278,0.15887 0.25597,0.16111 0.11321,0.001 0.45843,0.29293 0.76715,0.64665 0.30875,0.35373 0.59717,0.64376 0.64092,0.64452 0.11321,0.001 0.13248,-1.98091 0.0208,-2.28386 -0.0597,-0.16429 -0.2921,-0.25724 -0.66845,-0.26686 -0.54127,-0.0131 -0.55751,-0.0292 -0.26539,-0.24215 0.17122,-0.125 0.4757,-0.22457 0.67664,-0.22118 0.34007,0.007 0.36663,-0.0584 0.38109,-0.91908 0.007,-0.50886 -0.015,-1.90372 -0.0518,-3.09967 l -0.0676,-2.17443 -0.56944,0.0393 c -0.42234,0.0298 -0.56839,-0.0217 -0.56541,-0.19799 0.001,-0.16018 0.19762,-0.25034 0.5984,-0.27672 l 0.59446,-0.0395 0.023,-1.47023 c 0.015,-0.80853 -0.007,-2.33735 -0.0464,-3.39729 l -0.0713,-1.92716 -1.01778,-0.0172 c -0.7435,-0.0127 -0.99924,-0.0702 -0.94908,-0.21403 0.0427,-0.12191 0.44092,-0.20855 1.04623,-0.22755 l 0.97755,-0.0306 0.0588,-3.45698 c 0.0311,-1.90135 0.0168,-3.68045 -0.0316,-3.95358 -0.0795,-0.43639 -0.15438,-0.49768 -0.61547,-0.50545 -0.28873,-0.005 -0.56773,-0.0809 -0.62009,-0.16886 -0.0537,-0.0902 0.0763,-0.15713 0.297,-0.15341 0.91528,0.0157 0.89138,0.10256 0.9516,-3.46959 l 0.0546,-3.29239 -0.67164,-0.0775 c -0.72769,-0.084 -0.86141,0.009 -1.324,0.92156 -0.14202,0.28079 -0.33132,0.5093 -0.42005,0.5078 -0.13511,-0.002 -0.73729,-0.2809 -0.89241,-0.41294 -0.058,-0.0493 0.50897,-1.22982 0.64052,-1.33397 0.0539,-0.0427 0.22047,-0.30719 0.37024,-0.58785 0.31025,-0.58146 0.54942,-0.62992 1.02078,-0.2068 0.26207,0.23531 0.28982,0.33859 0.13473,0.50086 -0.15756,0.16448 -0.13847,0.18535 0.0964,0.10681 0.16018,-0.0537 0.46395,-0.0947 0.67449,-0.0911 0.35946,0.006 0.38368,-0.0478 0.39778,-0.88402 0.015,-0.746611 -0.0223,-0.861263 -0.21036,-0.709633 -0.33529,0.268963 -1.04482,0.0285 -1.03844,-0.3519 0.001,-0.171891 0.26176,-0.733942 0.5752,-1.249007 0.55297,-0.908527 0.57084,-0.985864 0.59788,-2.59097 l 0.0288,-1.654481 -0.55403,-0.009 c -0.38694,-0.0065 -0.55282,-0.08097 -0.55,-0.246907 0.001,-0.165923 0.17085,-0.234749 0.55801,-0.228226 l 0.55405,0.009 0.0225,-1.321586 c 0.015,-0.726852 -0.0112,-2.081792 -0.0524,-3.010933 l -0.0749,-1.68936 -0.45078,-0.0075 c -0.59444,-0.0097 -0.60052,-0.446262 -0.007,-0.504469 l 0.43616,-0.04278 0.10086,-3.325203 c 0.0554,-1.828858 0.0627,-3.4916 0.0168,-3.694976 l -0.0844,-0.369762 -2.48854,0.04338 c -1.3687,0.02389 -2.93382,0.03849 -3.47796,0.03239 l -0.98943,-0.01085 -0.007,0.554339 c -0.015,0.734986 -0.44707,0.761762 -0.50508,0.03106 l -0.0406,-0.515565 -3.24497,-0.05466 c -4.47384,-0.07541 -4.11391,-0.167419 -4.13455,1.057262 -0.007,0.556327 -0.0808,1.010414 -0.15868,1.009101 -0.22231,-0.0037 -0.32618,-0.439288 -0.31158,-1.306208 l 0.015,-0.799541 -3.68183,0.03007 c -2.02502,0.01628 -3.69519,0.03331 -3.71149,0.03726 -0.0168,0.0045 -0.0556,0.238447 -0.0881,0.521084 -0.0756,0.66669 -0.36291,0.659774 -0.41596,-0.0097 l -0.0408,-0.518572 -3.51245,-0.01647 -3.51248,-0.01647 -0.0636,0.989077 c -0.0479,0.7376 -0.122,0.988088 -0.29371,0.985197 -0.17253,-0.003 -0.22631,-0.21653 -0.21556,-0.855567 0.007,-0.494295 -0.0674,-0.917193 -0.18095,-1.007789 -0.11864,-0.09472 -1.54991,-0.14998 -3.63939,-0.140567 l -3.44409,0.01553 -0.007,0.525573 c -0.006,0.289061 -0.0668,0.559741 -0.13679,0.601516 -0.20544,0.122304 -0.55501,-0.175054 -0.43173,-0.367239 0.0618,-0.09659 0.0666,-0.328797 0.009,-0.515985 -0.10048,-0.336735 -0.13323,-0.339798 -3.1325,-0.290981 -1.6669,0.02713 -3.19108,0.04753 -3.38696,0.0453 -0.33263,-0.0034 -0.35737,0.06403 -0.37354,1.025423 -0.015,0.794452 -0.0696,1.028585 -0.24725,1.025591 -0.1714,-0.003 -0.23762,-0.255747 -0.2603,-0.994538 l -0.0307,-0.990663 -3.60088,-0.07511 -3.60092,-0.07509 -0.009,0.410353 c -0.0112,0.518559 -0.2404,0.875997 -0.46718,0.730428 -0.096,-0.06151 -0.17084,-0.321398 -0.16635,-0.577584 l 0.007,-0.46579 -3.56159,-0.05997 c -2.73786,-0.0462 -3.56487,-0.01422 -3.57584,0.13776 -0.006,0.108832 -0.0335,0.583364 -0.0574,1.05462 -0.0258,0.522231 -0.12089,0.881518 -0.24209,0.92006 -0.14558,0.04626 -0.19436,-0.21169 -0.18169,-0.960959 0.015,-0.893445 -0.0234,-1.035528 -0.30021,-1.112995 -0.33042,-0.09244 -6.52159,-0.06634 -6.62994,0.02805 -0.0342,0.02951 -0.0838,0.229818 -0.11134,0.445071 -0.11358,0.897761 -0.56294,0.894202 -0.54778,-0.0043 l 0.007,-0.544987 -1.08286,-0.01796 c -0.5956,-0.0097 -2.17304,0.01067 -3.50543,0.04577 l -2.42254,0.06403 0.0262,3.550365 c 0.0131,1.952703 0.0696,3.596334 0.12407,3.652509 0.0545,0.05617 0.29187,0.1087 0.52795,0.116672 0.63671,0.02144 0.55561,0.478973 -0.0941,0.530606 l -0.51527,0.04096 -0.0511,2.999154 -0.0513,2.999163 0.55401,0.009 c 0.38694,0.0065 0.55278,0.08097 0.55,0.246906 -0.001,0.16785 -0.17365,0.234707 -0.58273,0.227816 l -0.57875,-0.0097 0.0634,2.402611 c 0.0346,1.32144 0.0537,2.992569 0.041,3.713616 l -0.0223,1.311 0.50141,0.0581 c 0.55202,0.064 0.82209,0.45957 0.30782,0.4509 -0.75706,-0.0127 -0.81956,0.10294 -0.84415,1.56209 -0.015,0.76097 0.009,2.2471 0.0477,3.30249 l 0.0709,1.9189 0.47754,0.0559 c 0.66943,0.0784 0.7196,0.42249 0.0689,0.47393 l -0.52496,0.0415 -0.1046,3.56277 c -0.0575,1.95952 -0.0685,3.72379 -0.0239,3.92059 0.0741,0.32525 0.17477,0.3594 1.10717,0.37512 0.80639,0.0135 1.02501,0.0681 1.02186,0.25485 -0.001,0.18651 -0.22239,0.23389 -1.01969,0.22045 -0.55864,-0.01 -1.04069,0.053 -1.07111,0.13879 -0.0305,0.0857 -0.0591,1.6139 -0.0648,3.39583 l -0.007,3.23994 0.57435,0.0586 c 0.84537,0.0861 0.86785,0.45954 0.0268,0.44533 l -0.67087,-0.015 0.067,2.16487 c 0.0369,1.19071 0.0602,2.57337 0.052,3.07252 l -0.015,0.90763 0.55227,0.1132 c 0.67808,0.13885 0.72425,0.41869 0.0674,0.40764 -0.28458,-0.006 -0.51927,0.0896 -0.57681,0.23255 -0.0533,0.13249 -0.0618,1.82538 -0.0168,3.76227 0.0733,3.30072 0.0967,3.51874 0.37232,3.47624 0.16186,-0.0247 0.40097,-0.002 0.53158,0.0505 0.35117,0.14166 -0.0573,0.56231 -0.53791,0.55421 -0.37314,-0.007 -0.37655,0.007 -0.40527,1.71121 -0.015,0.94463 0.004,2.47774 0.0455,3.40685 l 0.0748,1.68935 0.52994,0.007 c 0.36556,0.007 0.52873,0.0827 0.52596,0.2465 -0.001,0.16617 -0.17121,0.23475 -0.56083,0.22818 l -0.55686,-0.007 -0.0236,3.84135 -0.0236,3.84144 0.98852,0.0636 c 0.73719,0.0479 0.98752,0.1222 0.98466,0.29386 -0.001,0.1628 -0.18909,0.22689 -0.63706,0.21931 -1.42525,-0.0228 -1.34892,-0.22202 -1.35947,3.52579 l -0.007,3.2634 0.53843,0.007 c 0.52035,0.007 0.85177,0.24368 0.63699,0.45148 -0.0573,0.0558 -0.33254,0.0999 -0.6113,0.0979 l -0.50677,-0.002 0.0112,2.77262 c 0.007,1.52492 0.0307,2.79474 0.0537,2.8218 0.0226,0.0269 0.48854,-0.0588 1.03485,-0.19055 1.05844,-0.25546 1.23116,-0.19893 1.29044,0.42229 0.0342,0.35823 -0.0692,0.42726 -1.15646,0.77383 l -1.19393,0.38051 -0.0748,2.05367 c -0.0412,1.12951 -0.0352,2.83502 0.015,3.79006 l 0.0904,1.73636 0.51254,0.015 c 0.67053,0.0225 0.67147,0.31345 1.5e-4,0.40383 l -0.52202,0.0702 -0.0728,1.26615 c -0.0404,0.6964 -0.0412,2.2113 -8.2e-4,3.36651 l 0.0724,2.10031 0.53781,0.007 c 0.37251,0.007 0.53658,0.082 0.53381,0.24665 -0.001,0.16598 -0.17085,0.23474 -0.55804,0.22821 l -0.55402,-0.007 -0.0651,3.80112 -0.0651,3.80106 1.10802,0.0168 c 0.60942,0.007 1.10704,0.0807 1.10577,0.15644 -0.001,0.14651 -0.90592,0.31766 -1.62818,0.3084 l -0.43535,-0.006 -0.032,1.97973 c -0.015,1.08888 0.006,1.98041 0.0528,1.98118 0.0475,8.2e-4 0.24738,-0.15588 0.44424,-0.34893 z m 2.95932,-28.51932 c -0.18894,-0.52361 -0.10086,-0.65108 0.53454,-0.77591 0.28295,-0.0558 0.58663,-0.15363 0.67479,-0.21779 0.0879,-0.0642 0.42437,-0.15962 0.74713,-0.21231 0.48564,-0.079 0.61468,-0.0412 0.7484,0.21916 0.30948,0.6028 0.17814,0.74333 -1.00647,1.07768 -1.45984,0.41199 -1.51806,0.4089 -1.69839,-0.0906 z m 3.81764,-1.04469 c -0.087,-0.24029 -0.10067,-0.48492 -0.0314,-0.54358 0.0692,-0.0586 0.64964,-0.26141 1.28913,-0.4505 1.22991,-0.36369 1.42122,-0.31993 1.48496,0.33989 0.0326,0.3403 -0.0647,0.42041 -0.78035,0.6403 -1.62749,0.50003 -1.78671,0.50117 -1.96255,0.0131 z m 3.84476,-1.04586 c -0.15269,-0.35121 -0.14858,-0.47104 0.0168,-0.61923 0.27107,-0.23796 2.34094,-0.86034 2.50695,-0.75383 0.23093,0.14802 0.26995,0.87507 0.0558,1.04663 -0.11508,0.0921 -0.58901,0.26777 -1.05317,0.38992 -0.46416,0.1222 -0.95562,0.2558 -1.09206,0.29701 -0.15999,0.0483 -0.31536,-0.0795 -0.43766,-0.3605 z m 3.79042,-1.1216 c -0.0937,-0.18263 -0.13249,-0.42541 -0.087,-0.53944 0.0988,-0.245 1.38421,-0.66895 2.17313,-0.71668 0.52024,-0.0312 0.55424,-0.006 0.54676,0.44157 -0.007,0.42677 -0.0807,0.49498 -0.72384,0.6705 -0.39371,0.10741 -0.84061,0.26035 -0.99319,0.33973 -0.43634,0.22705 -0.73121,0.16429 -0.91592,-0.19573 z m 3.73691,-1.26222 c -0.0496,-0.21372 -0.0464,-0.45773 0.007,-0.54221 0.10404,-0.16205 1.25294,-0.54096 2.11697,-0.69852 0.45624,-0.0834 0.52067,-0.0483 0.6083,0.32758 0.12256,0.52655 0.0387,0.5991 -1.14984,0.99161 -1.23934,0.40929 -1.47244,0.39775 -1.5834,-0.0788 z m 3.77687,-1.22462 c -0.23121,-0.5313 -0.17215,-0.60369 0.73892,-0.91215 0.41887,-0.14203 0.8864,-0.32266 1.03898,-0.40203 0.45935,-0.23902 0.75394,-0.15756 0.93491,0.25813 0.23136,0.53166 -0.006,0.78248 -0.95736,1.0219 -0.41377,0.10405 -0.82097,0.24847 -0.90493,0.32133 -0.28982,0.25157 -0.67228,0.12257 -0.85052,-0.28718 z m 3.63741,-1.36295 c -0.0812,-0.22487 -0.1469,-0.4336 -0.1469,-0.46386 0.001,-0.0995 2.15219,-0.83861 2.42649,-0.83401 0.25412,0.006 0.58845,0.44771 0.58295,0.77318 -0.001,0.1583 -2.08409,0.94417 -2.483,0.93747 -0.12781,-0.001 -0.29871,-0.18804 -0.37982,-0.41278 z m 10.32898,-5.92372 c -0.36414,-0.37997 -0.24664,-0.63991 0.81349,-1.79916 l 0.71324,-0.77995 0.34459,0.35662 c 0.30009,0.31054 0.31818,0.40393 0.14034,0.72376 -0.26164,0.47006 -1.46649,1.83655 -1.60625,1.8218 -0.0586,-0.006 -0.24074,-0.1512 -0.40514,-0.32307 z m 2.59751,-3.08878 c -0.1411,-0.16148 -0.25635,-0.33976 -0.25541,-0.39571 0.001,-0.17907 1.03173,-1.5194 1.16442,-1.5172 0.0703,0.001 0.1293,-0.1046 0.13154,-0.23536 0.006,-0.32842 0.53422,-0.28939 0.84152,0.0621 0.23581,0.26972 0.22509,0.33006 -0.15419,0.86874 -0.22418,0.31839 -0.47623,0.57772 -0.56014,0.5763 -0.084,-0.001 -0.15419,0.093 -0.15643,0.21044 -10e-4,0.19996 -0.4939,0.72915 -0.67313,0.72611 -0.0449,-7.4e-4 -0.19737,-0.13341 -0.33876,-0.29545 z m 2.41537,-3.14169 c -0.30239,-0.34584 -0.22185,-0.57666 0.55409,-1.58808 0.75235,-0.98062 0.78456,-0.99924 1.21848,-0.70422 0.21298,0.14502 0.38336,0.35072 0.37862,0.45753 -0.0131,0.23772 -1.57086,2.14822 -1.75192,2.14517 -0.0715,-0.001 -0.25105,-0.14109 -0.39927,-0.3104 z m 2.5124,-3.08103 c -0.31609,-0.22956 -0.4538,-0.69876 -0.2044,-0.69625 0.0653,6.7e-4 0.37468,-0.38589 0.68744,-0.85892 0.58379,-0.883 0.76324,-0.97845 1.28868,-0.6856 0.42801,0.23856 0.38623,0.39025 -0.3906,1.41888 -0.80343,1.06386 -0.93784,1.14384 -1.38112,0.82189 z m 2.3373,-3.28498 c -0.31174,-0.32265 -0.31917,-0.30501 0.61718,-1.46577 0.68388,-0.84781 0.80732,-0.93585 1.0908,-0.7778 0.54672,0.30467 0.49932,0.57194 -0.2761,1.5572 -0.78868,1.00205 -1.01979,1.11285 -1.43188,0.68637 z m 2.53506,-2.9579 c -0.41899,-0.30432 -0.43412,-0.55009 -0.0591,-0.95231 0.15531,-0.16616 0.48422,-0.60192 0.73111,-0.96806 0.40967,-0.60761 0.92314,-0.88738 0.91659,-0.49946 -10e-4,0.0872 0.10386,0.15999 0.23479,0.16224 0.42645,0.007 0.24374,0.46822 -0.59392,1.49843 -0.45278,0.55688 -0.83648,1.01227 -0.85268,1.01198 -0.0168,-2.8e-4 -0.18563,-0.11395 -0.37711,-0.25297 z m 2.32891,-3.28075 c -0.2587,-0.2028 -0.2727,-0.29187 -0.10198,-0.65018 0.23564,-0.49511 1.30457,-1.78274 1.47756,-1.77982 0.067,0.001 0.28082,0.13529 0.47533,0.29859 l 0.35361,0.2965 -0.70188,0.9254 c -0.94866,1.25083 -1.0155,1.29127 -1.50247,0.90951 z m 2.32963,-3.17975 -0.36388,-0.30514 0.76764,-1.03886 c 0.78218,-1.0585 1.16587,-1.25397 1.54149,-0.78532 0.16242,0.20217 0.0967,0.39693 -0.3816,1.13977 -0.76807,1.19267 -1.08343,1.39222 -1.56365,0.98955 z m 2.352,-3.21842 c -0.25932,-0.19653 -0.27156,-0.27593 -0.0921,-0.59561 0.35937,-0.63922 1.3228,-1.85509 1.46795,-1.8527 0.0765,0.001 0.30065,0.13791 0.49801,0.30322 l 0.35876,0.30082 -0.76766,1.03889 c -0.80212,1.08556 -0.9722,1.17903 -1.46525,0.80538 z m 2.34133,-3.20326 -0.36022,-0.30203 0.78501,-1.10895 0.78502,-1.10894 0.44823,0.2416 c 0.41952,0.2261 0.59139,0.61824 0.32122,0.73296 -0.066,0.0279 -0.39438,0.4561 -0.73017,0.95145 -0.33585,0.49536 -0.67318,0.89958 -0.74972,0.89831 -0.0765,-0.001 -0.30125,-0.13847 -0.49937,-0.3044 z m 2.28225,-3.28013 -0.35013,-0.29361 0.68608,-1.04733 c 0.37729,-0.57606 0.79157,-1.04559 0.92059,-1.04342 0.46298,0.007 0.92147,0.83176 0.54878,0.98619 -0.0676,0.0275 -0.36643,0.42094 -0.66456,0.87337 -0.29818,0.45241 -0.59801,0.82162 -0.66638,0.82048 -0.0683,-10e-4 -0.28183,-0.13398 -0.47438,-0.29568 z m 2.23392,-3.1727 c -0.40703,-0.2465 -0.33691,-0.51683 0.40458,-1.55975 0.70694,-0.99435 0.78293,-1.04052 1.26805,-0.77015 0.43156,0.24054 0.38339,0.42916 -0.3912,1.53159 -0.71106,1.01195 -0.8183,1.07877 -1.28143,0.79831 z m 2.27298,-3.338 c -0.3936,-0.30955 -0.34637,-0.48931 0.41882,-1.59382 l 0.68579,-0.98983 0.44805,0.24148 c 0.52213,0.28141 0.50242,0.37204 -0.36312,1.67043 -0.633,0.94955 -0.75132,1.01636 -1.18954,0.67174 z m 2.11382,-3.29127 c -0.15007,-0.11828 -0.27256,-0.26602 -0.27152,-0.3283 0.006,-0.29305 1.36735,-2.28433 1.56073,-2.28107 0.12069,0.002 0.21817,0.0749 0.21667,0.16207 -0.001,0.0871 0.10385,0.16017 0.2348,0.16236 0.39573,0.007 0.26293,0.4599 -0.44339,1.51333 -0.69997,1.04389 -0.84292,1.1289 -1.29729,0.77158 z m 2.02172,-3.48515 c -0.17814,-0.20894 -0.15232,-0.35052 0.17384,-0.94159 0.21117,-0.38261 0.43753,-0.69476 0.50297,-0.69366 0.0655,10e-4 0.12051,-0.0938 0.12275,-0.21101 0.001,-0.11718 0.13398,-0.32737 0.2939,-0.46711 0.26237,-0.22966 0.32329,-0.23014 0.63345,-0.005 0.46796,0.33988 0.43566,0.5089 -0.30993,1.62148 -0.6636,0.99029 -1.01752,1.16434 -1.41688,0.69679 z m 2.18971,-3.33105 c -0.26093,-0.29845 -0.25541,-0.34447 0.12986,-1.07454 0.2214,-0.41951 0.54713,-0.9353 0.72376,-1.14618 0.28538,-0.34073 0.36693,-0.36162 0.73231,-0.18757 0.22613,0.10773 0.40959,0.2868 0.40772,0.39794 -0.007,0.35625 -1.22297,2.23485 -1.47648,2.27929 -0.13473,0.0236 -0.36734,-0.0975 -0.51727,-0.26893 z m -79.3929,87.68386 c -0.0488,-0.0818 -0.0157,-0.19253 0.074,-0.24573 0.22763,-0.13567 0.25424,-2.72174 0.0295,-2.86599 -0.11463,-0.0737 -0.0431,-0.18338 0.20114,-0.30892 0.20842,-0.10685 0.43269,-0.15999 0.49839,-0.11826 0.0657,0.0421 0.1075,0.78097 0.093,1.64178 -0.015,0.88931 0.0423,1.60919 0.13284,1.66731 0.27111,0.17403 -0.005,0.39435 -0.48409,0.38628 -0.25091,-0.006 -0.49606,-0.0747 -0.54478,-0.15643 z m 2.20038,0.0112 c -0.16272,-0.27367 0.37275,-0.72026 0.59178,-0.4936 0.0975,0.10086 0.13279,0.29459 0.0781,0.43016 -0.11426,0.28383 -0.51612,0.32183 -0.66979,0.0634 z m 1.31196,0.0223 c -0.45013,-0.27245 -0.13355,-0.49526 0.5285,-0.37187 0.50368,0.0936 0.63224,0.0603 0.77887,-0.20291 0.0966,-0.17347 0.17777,-0.42416 0.18001,-0.55717 0.007,-0.35443 -0.62106,-0.89838 -1.04379,-0.90551 -0.4398,-0.007 -0.47918,-0.42465 -0.10573,-1.11862 0.22081,-0.41014 0.33205,-0.4618 0.9708,-0.45106 0.85514,0.015 0.89481,0.36474 0.0537,0.47621 -0.61874,0.082 -0.80296,0.38854 -0.32926,0.54786 1.02933,0.34608 1.26995,1.68419 0.42631,2.3705 -0.51983,0.4229 -0.99711,0.49238 -1.4594,0.21257 z m -3.82556,-38.02433 c 0.16202,-0.24116 0.41086,-0.54344 0.55286,-0.67175 0.32255,-0.29143 0.65988,-1.01249 0.66683,-1.42542 0.006,-0.33749 -0.78889,-0.83399 -0.89105,-0.5568 -0.13218,0.35881 -0.35081,0.5815 -0.51387,0.52365 -0.11197,-0.0399 -0.0595,-0.24385 0.14738,-0.57133 0.26027,-0.4121 0.42327,-0.50772 0.85351,-0.50048 1.29183,0.0223 1.38296,1.32644 0.18211,2.60734 -0.43973,0.46903 -0.34583,0.59597 0.36152,0.48862 0.57721,-0.0876 0.64298,-0.0664 0.58887,0.19401 -0.0511,0.24543 -0.23691,0.29732 -1.15186,0.32161 l -1.09092,0.0286 z m 2.47524,0.20535 c 0.073,-0.34747 0.69133,-0.38439 0.68554,-0.041 -0.002,0.13062 -0.1711,0.25835 -0.37513,0.2838 -0.28779,0.0359 -0.35747,-0.0202 -0.31041,-0.24289 z m 1.41083,-0.2075 c -0.31738,-0.44498 -0.34663,-0.62804 -0.25894,-1.61933 0.0802,-0.90761 0.16607,-1.17025 0.45676,-1.3977 1.09296,-0.8554 2.24931,0.42213 1.95825,2.1635 -0.23233,1.39 -1.43417,1.86578 -2.15607,0.85353 z m 1.25597,0.0445 c 0.18189,-0.11078 0.23664,-0.41594 0.22618,-1.25837 -0.02,-1.6469 -0.4296,-2.2025 -0.94213,-1.27924 -0.25999,0.46836 -0.21149,2.07556 0.0732,2.43097 0.23539,0.29372 0.31417,0.3068 0.6426,0.10647 z m -5.26681,-37.18518 c -0.12871,-0.0827 -0.0519,-0.24776 0.25089,-0.54078 0.98088,-0.94889 1.42165,-2.11548 0.92314,-2.44332 -0.31211,-0.20527 -0.55663,-0.18344 -0.82213,0.0734 -0.34301,0.33181 -0.45113,0.10372 -0.15651,-0.3301 0.31483,-0.46351 1.1529,-0.49759 1.53344,-0.0623 0.42489,0.48598 0.30547,1.1936 -0.32455,1.92274 -0.31086,0.35978 -0.56628,0.71868 -0.56762,0.79755 -0.004,0.21012 0.85183,0.18949 1.0745,-0.0259 0.2776,-0.26856 0.40655,-0.0458 0.19424,0.33559 -0.1098,0.19737 -0.35301,0.33258 -0.61233,0.34053 -0.23653,0.006 -0.62759,0.0219 -0.86898,0.0322 -0.24136,0.009 -0.52224,-0.0343 -0.62411,-0.0998 z m 2.64625,-0.097 c -0.0597,-0.10058 -0.0329,-0.25609 0.0596,-0.34565 0.21631,-0.20926 0.70916,-0.0152 0.61823,0.24338 -0.0926,0.26329 -0.54177,0.33107 -0.67783,0.10219 z m 1.13658,0.077 c -0.27981,-0.28956 -0.0437,-0.40593 0.61655,-0.30401 0.65347,0.10086 0.73119,0.0767 0.90096,-0.28013 0.27066,-0.5687 -0.0294,-1.16627 -0.65313,-1.30212 -0.62114,-0.13522 -0.72548,-0.43023 -0.39039,-1.10381 0.2524,-0.50741 0.30949,-0.53487 1.08499,-0.5218 0.81665,0.0135 0.81783,0.0146 0.5177,0.33533 -0.17889,0.19151 -0.42096,0.28791 -0.59799,0.23839 -0.37128,-0.10387 -0.77103,0.0315 -0.65741,0.22257 0.0468,0.0788 0.21104,0.14539 0.36486,0.14796 0.46827,0.008 0.985,0.72147 0.99245,1.37051 0.007,0.77529 -0.61332,1.32908 -1.4769,1.31451 -0.32888,-0.004 -0.64464,-0.0583 -0.70169,-0.11742 z m -3.4649,-37.928906 c -0.15165,-0.04018 -0.27404,-0.181061 -0.27182,-0.312989 0.003,-0.191343 0.12942,-0.21651 0.62351,-0.1244 0.52613,0.09807 0.64678,0.06641 0.8008,-0.210207 0.24072,-0.432381 -0.0127,-0.925593 -0.55005,-1.070187 l -0.40516,-0.109018 0.44134,-0.340085 c 0.36027,-0.277626 0.42274,-0.419819 0.34015,-0.774267 -0.0837,-0.359764 -0.16161,-0.416423 -0.4539,-0.330558 -0.19401,0.05694 -0.40357,0.180182 -0.46573,0.273801 -0.0622,0.09358 -0.15668,0.124999 -0.21007,0.06976 -0.16999,-0.17584 0.30287,-0.736601 0.6989,-0.828994 0.39915,-0.09307 1.13345,0.288076 1.12843,0.585774 -0.001,0.09085 -0.0796,0.302984 -0.17337,0.471461 -0.12777,0.229591 -0.1107,0.394825 0.0681,0.659674 0.6717,0.994782 -0.37706,2.35671 -1.57112,2.040252 z m 2.36572,-0.231412 c -0.11538,-0.316752 0.33818,-0.666297 0.56287,-0.433772 0.2149,0.222376 0.0435,0.670045 -0.25455,0.665021 -0.12406,-0.0021 -0.26274,-0.106137 -0.30832,-0.231249 z m 1.57213,-0.144797 c -0.41978,-0.46879 -0.62396,-1.741377 -0.37815,-2.356818 0.42607,-1.066756 1.35019,-1.334046 2.02125,-0.584636 0.36414,0.406594 0.3898,0.536437 0.31768,1.606781 -0.0664,0.989542 -0.13454,1.208509 -0.45325,1.457786 -0.515,0.403102 -1.0775,0.357172 -1.50753,-0.123128 z m 1.18393,-0.30591 c 0.24525,-0.614112 0.22612,-2.175244 -0.0311,-2.534317 -0.17814,-0.248838 -0.28098,-0.277157 -0.51221,-0.141204 -0.22169,0.13035 -0.30402,0.409144 -0.35266,1.194149 -0.0707,1.142884 0.11958,1.874645 0.48948,1.880882 0.13492,0.0022 0.31787,-0.177543 0.40651,-0.399523 z"
       style="fill:#000000;stroke-width:0.495098"
       id="path1"
       sodipodi:nodetypes="ccccccccccccccccccccccccccccccscsccsccccccscccsccccccccccssccccccssccccccccccsccccccccccsccccccccscsccccsccccccccccccsccscssccccssccccccccccccccccccccscccccsccsccssssccsccccsccccccccccccccccccccscccccscccccccccccccccccccccccccccccccsccccccccccccccccccccccccccccccccccccccccccccccccccccccccccccccccccccccccccccccccccscsscccccsccsccccscccccccccccscccssscccccccsccscssccsccccsccccccccscccccsccccccccccccscccsccccsscscccssccccccccccccscssccsccccsccccccccccccssccsccccsccccsccccccccccccccccccccccscccscccsccccccccccccccccscccccccccccccccscccccccccccccccccccscccccccccccccccccccccccccsccccccccccccsccccsccccccccccccccscccsccccccccccccccccccccccccccccscccccccccccccccccccccccccccccccccccccccccccccccccccccccccscccccccccccccccccsccccccccccssscsccccccscsscsssssccscccscssccccscccccscsccscccccsccccccsccccccccccccscscssccsssccccccccccsccccccccssccccccccccsccccscccsccccccccssscscccccccccccccccccccscccsccccccccscscccccccccccccccccccccccccccccccccccccccccccccccccccccccccccc" />
    <text
       xml:space="preserve"
       style="font-weight:bold;font-size:3.96079px;line-height:normal;font-family:'Segoe Script';-inkscape-font-specification:'Segoe Script Bold';text-align:center;text-decoration-color:#000000;writing-mode:lr-tb;direction:ltr;text-anchor:middle;fill:#000000;stroke:none;stroke-width:0.989885"
       x="151.65793"
       y="230.70404"
       id="text16"><tspan
         sodipodi:role="line"
         id="tspan16"
         style="stroke-width:0.989885"
         x="151.65793"
         y="230.70404">Mole fraction GaP, x</tspan></text>
    <text
       xml:space="preserve"
       style="font-weight:bold;font-size:3.96079px;line-height:normal;font-family:'Segoe Script';-inkscape-font-specification:'Segoe Script Bold';text-align:center;text-decoration-color:#000000;writing-mode:lr-tb;direction:ltr;text-anchor:middle;fill:#000000;stroke:none;stroke-width:0.989885"
       x="187.70705"
       y="227.0237"
       id="text17-7"><tspan
         sodipodi:role="line"
         id="tspan17-1"
         style="stroke-width:0.989885"
         x="187.70705"
         y="227.0237">GaP</tspan></text>
    <text
       xml:space="preserve"
       style="font-weight:bold;font-size:3.96079px;line-height:normal;font-family:'Segoe Script';-inkscape-font-specification:'Segoe Script Bold';text-align:center;text-decoration-color:#000000;writing-mode:lr-tb;direction:ltr;text-anchor:middle;fill:#000000;stroke:none;stroke-width:0.989885"
       x="187.70705"
       y="227.0237"
       id="text17-7-3"><tspan
         sodipodi:role="line"
         id="tspan17-1-8"
         style="stroke-width:0.989885"
         x="187.70705"
         y="227.0237">GaP</tspan></text>
    <text
       xml:space="preserve"
       style="font-weight:bold;font-size:3.96079px;line-height:normal;font-family:'Segoe Script';-inkscape-font-specification:'Segoe Script Bold';text-align:center;text-decoration-color:#000000;writing-mode:lr-tb;direction:ltr;text-anchor:middle;fill:#000000;stroke:none;stroke-width:0.989885"
       x="112.45213"
       y="227.0237"
       id="text17-7-3-6"><tspan
         sodipodi:role="line"
         id="tspan17-1-8-0"
         style="stroke-width:0.989885"
         x="112.45213"
         y="227.0237">GaAs</tspan></text>
    <text
       xml:space="preserve"
       style="font-weight:bold;font-size:3.96079px;line-height:normal;font-family:'Segoe Script';-inkscape-font-specification:'Segoe Script Bold';text-align:center;text-decoration-color:#000000;writing-mode:lr-tb;direction:ltr;text-anchor:middle;fill:#000000;stroke:none;stroke-width:0.989885"
       x="177.5217"
       y="131.20695"
       id="text8"><tspan
         sodipodi:role="line"
         id="tspan8"
         style="stroke-width:0.989885"
         x="177.5217"
         y="131.20695">2.261 eV</tspan></text>
    <text
       xml:space="preserve"
       style="font-weight:bold;font-size:3.96079px;line-height:normal;font-family:'Segoe Script';-inkscape-font-specification:'Segoe Script Bold';text-align:center;text-decoration-color:#000000;writing-mode:lr-tb;direction:ltr;text-anchor:middle;fill:#000000;stroke:none;stroke-width:0.989885"
       x="133.3019"
       y="202.62375"
       id="text6"><tspan
         sodipodi:role="line"
         id="tspan6"
         style="stroke-width:0.989885"
         x="133.3019"
         y="202.62375">E<tspan
   style="font-size:2.57451px;baseline-shift:sub;stroke-width:0.989885"
   id="tspan11">g</tspan> = 1.424 eV</tspan></text>
    <text
       xml:space="preserve"
       style="font-weight:bold;font-size:7.92156px;line-height:normal;font-family:'Segoe Script';-inkscape-font-specification:'Segoe Script Bold';text-align:start;text-decoration-color:#000000;writing-mode:lr-tb;direction:ltr;text-anchor:start;fill:#000000;stroke:none;stroke-width:0.989885"
       x="-182.55762"
       y="98.168907"
       id="text2"
       transform="rotate(-90)"><tspan
         sodipodi:role="line"
         id="tspan2"
         style="fill:#000000;stroke:none;stroke-width:0.989885"
         x="-182.55762"
         y="98.168907">Bandgap Eg (eV)</tspan></text>
    <text
       xml:space="preserve"
       style="font-weight:bold;font-size:3.96079px;line-height:normal;font-family:'Segoe Script';-inkscape-font-specification:'Segoe Script Bold';text-align:center;text-decoration-color:#000000;writing-mode:lr-tb;direction:ltr;text-anchor:middle;fill:#000000;stroke-width:0.989885"
       x="160.02698"
       y="172.44287"
       id="text1"><tspan
         sodipodi:role="line"
         id="tspan1"
         style="stroke-width:0.989885"
         x="160.02698"
         y="172.44287">x=0.45</tspan><tspan
         sodipodi:role="line"
         style="stroke-width:0.989885"
         x="160.02698"
         y="177.39386"
         id="tspan3">Eg=1.977 eV</tspan></text>
    <text
       xml:space="preserve"
       style="font-weight:bold;font-size:3.96079px;line-height:normal;font-family:'Segoe Script';-inkscape-font-specification:'Segoe Script Bold';text-align:center;text-decoration-color:#000000;writing-mode:lr-tb;direction:ltr;text-anchor:middle;fill:#000000;stroke:none;stroke-width:0.989885"
       x="83.672546"
       y="211.28653"
       id="text3"
       transform="rotate(-26.668301)"><tspan
         sodipodi:role="line"
         style="font-size:3.96079px;text-align:center;text-anchor:middle;stroke-width:0.989885"
         x="83.672546"
         y="211.28653"
         id="tspan4">Indirect band</tspan></text>
    <text
       xml:space="preserve"
       style="font-weight:bold;font-size:3.96079px;line-height:normal;font-family:'Segoe Script';-inkscape-font-specification:'Segoe Script Bold';text-align:center;text-decoration-color:#000000;writing-mode:lr-tb;direction:ltr;text-anchor:middle;fill:#000000;stroke:none;stroke-width:0.989885"
       x="-50.151592"
       y="219.05173"
       id="text5"
       transform="rotate(-48.092031)"><tspan
         sodipodi:role="line"
         id="tspan5"
         style="stroke-width:0.989885"
         x="-50.151592"
         y="219.05173">Direct band</tspan></text>
    <text
       xml:space="preserve"
       style="font-weight:bold;font-size:3.96079px;line-height:normal;font-family:'Segoe Script';-inkscape-font-specification:'Segoe Script Bold';text-align:center;text-decoration-color:#000000;writing-mode:lr-tb;direction:ltr;text-anchor:middle;fill:#000000;stroke:none;stroke-width:0.989885"
       x="127.19904"
       y="88.87178"
       id="text12"><tspan
         sodipodi:role="line"
         id="tspan12"
         style="stroke-width:0.989885"
         x="127.19904"
         y="88.87178">GaAs<tspan
   style="font-size:2.57451px;baseline-shift:sub;stroke-width:0.989885"
   id="tspan7">1-x</tspan>P<tspan
   style="font-size:2.57451px;baseline-shift:sub;stroke-width:0.989885"
   id="tspan9">x</tspan></tspan><tspan
         sodipodi:role="line"
         style="stroke-width:0.989885"
         x="127.19904"
         y="93.822769"
         id="tspan13">T=300K</tspan></text>
    <text
       xml:space="preserve"
       style="font-weight:bold;font-size:6.60131px;line-height:normal;font-family:'Segoe Script';-inkscape-font-specification:'Segoe Script Bold';text-align:center;text-decoration-color:#000000;writing-mode:lr-tb;direction:ltr;text-anchor:middle;fill:#000000;stroke-width:0.495098;stroke-dasharray:1.98039, 0.990197"
       x="141.8087"
       y="240.85805"
       id="text10"><tspan
         sodipodi:role="line"
         id="tspan10"
         style="font-size:6.60131px;stroke-width:0.495098"
         x="141.8087"
         y="240.85805">Figure 1. Energy band gap</tspan></text>
  </g>
</svg>
