<?xml version="1.0" encoding="UTF-8" standalone="no"?>
<!-- Created with Inkscape (http://www.inkscape.org/) -->

<svg
   width="134.11873mm"
   height="191.65019mm"
   viewBox="0 0 134.11873 191.6502"
   version="1.1"
   id="svg1"
   inkscape:version="1.4.2 (f4327f4, 2025-05-13)"
   sodipodi:docname="oe_led_gaas_bandstructure.svg"
   inkscape:export-filename="oe_led_gaas_bandstructure.pdf"
   inkscape:export-xdpi="96"
   inkscape:export-ydpi="96"
   xmlns:inkscape="http://www.inkscape.org/namespaces/inkscape"
   xmlns:sodipodi="http://sodipodi.sourceforge.net/DTD/sodipodi-0.dtd"
   xmlns="http://www.w3.org/2000/svg"
   xmlns:svg="http://www.w3.org/2000/svg">
  <sodipodi:namedview
     id="namedview1"
     pagecolor="#ffffff"
     bordercolor="#000000"
     borderopacity="0.25"
     inkscape:showpageshadow="2"
     inkscape:pageopacity="0.0"
     inkscape:pagecheckerboard="0"
     inkscape:deskcolor="#d1d1d1"
     inkscape:document-units="mm"
     inkscape:zoom="1.7496352"
     inkscape:cx="234.62033"
     inkscape:cy="323.78177"
     inkscape:window-width="1366"
     inkscape:window-height="705"
     inkscape:window-x="-8"
     inkscape:window-y="-8"
     inkscape:window-maximized="1"
     inkscape:current-layer="layer1" />
  <defs
     id="defs1" />
  <g
     inkscape:label="Layer 1"
     inkscape:groupmode="layer"
     id="layer1"
     transform="translate(-37.97293,-58.204317)">
    <path
       d="m 110.06401,239.16797 c -0.962,-1.11101 -0.70847,-3.99722 0.40217,-4.57855 0.77661,-0.40647 1.67615,-0.0947 2.03127,0.70427 0.4333,0.97459 0.35704,3.07927 -0.13659,3.7704 -0.50876,0.71233 -1.72247,0.76721 -2.29685,0.10392 z m 1.59744,-0.10406 c 0.36621,-0.35954 0.45738,-3.32974 0.11893,-3.87478 -0.36554,-0.58872 -1.16422,-0.24326 -1.40672,0.60841 -0.20468,0.71876 -0.0771,2.88602 0.19837,3.37542 0.16952,0.30099 0.72879,0.24501 1.08942,-0.10909 z m -56.860491,-6.07943 c 1.296535,-1.30586 1.7531,-2.26532 1.391853,-2.92501 -0.318003,-0.5807 -0.967307,-0.58112 -1.624079,-9.8e-4 -0.496757,0.43875 -0.514432,0.43618 -0.415288,-0.0611 0.165276,-0.82867 1.36649,-1.36161 2.196104,-0.97436 1.054759,0.49235 0.926571,1.78927 -0.317898,3.21635 l -0.984819,1.12937 1.11577,-0.0962 c 0.893975,-0.0771 1.09974,-0.016 1.035104,0.30788 -0.0605,0.30287 -0.510395,0.41985 -1.79848,0.46759 l -1.717791,0.0637 z m -6.521103,-1.33015 c -0.267765,-0.17656 0.455361,-0.24355 2.250963,-0.20854 1.780606,0.0348 2.385382,0.11523 1.849902,0.24625 -1.166902,0.28551 -3.645208,0.26274 -4.100866,-0.0377 z m 12.105807,-2.69125 c 0.314589,-5.38676 0.942587,-48.99303 1.56369,-108.57735 l 0.619137,-59.395775 10.112382,-0.08486 c 16.325572,-0.137104 39.716648,-0.394591 43.719508,-0.481288 2.03779,-0.04415 6.68209,-0.116308 10.32067,-0.160363 15.05093,-0.182265 31.87809,-0.430112 37.70982,-0.55542 4.24466,-0.09121 6.31503,-0.04426 6.52103,0.147936 0.22392,0.208882 0.2411,11.448921 0.0666,43.54062 -0.12935,23.79246 -0.21331,46.77171 -0.18691,51.06501 0.0265,4.29329 -0.062,23.46235 -0.19745,42.5979 l -0.24603,34.79193 -11.37706,-0.0525 c -20.35871,-0.0933 -78.325026,-0.11396 -88.68884,-0.0317 l -10.105288,0.08 z m 30.829848,2.12603 19.778239,0.0197 0.22221,-24.15856 c -0.0479,-11.1221 0.85282,-18.68645 0.36838,-24.6188 -0.0567,-1.1226 1.37911,-7.33037 -2.52804,-6.23881 -1.38537,0.51219 -3.54955,1.66434 -4.8565,2.5855 -3.08857,2.17684 -10.484901,8.53724 -16.669002,14.33431 -3.31108,3.10386 -9.118455,8.04514 -12.071282,10.271 -4.483586,3.37975 -8.922154,5.87809 -12.102708,6.8123 l -1.834435,0.53882 -0.232935,6.37793 c -0.128069,3.50788 -0.249229,8.15079 -0.269159,10.31759 l -0.03623,3.93962 5.226661,-0.10004 c 2.874657,-0.0551 14.126876,-0.0914 25.004917,-0.0804 z m 50.125729,-0.0116 c 0.0281,-0.0205 -0.4266,-0.87168 -1.01092,-1.89188 -1.13591,-1.98323 -4.33437,-8.44612 -6.48342,-13.10047 -1.22952,-2.66295 -2.57947,-5.75266 -5.12875,-11.73887 -0.59108,-1.38797 -1.23496,-2.88221 -1.43087,-3.32059 -0.19588,-0.43841 -0.90233,-2.11184 -1.56983,-3.71878 -3.61374,-8.69928 -6.03589,-13.73353 -8.18748,-17.01709 -0.77177,-1.56243 -2.87612,-3.4759 -2.87612,-3.4759 0,0 -1.66291,-1.18852 -2.21047,-1.19356 -0.33544,-0.003 -0.41348,0.37366 -0.42911,2.0718 1.18719,8.95576 -0.1775,19.41864 -0.26951,29.30009 l -0.22212,24.15027 14.88357,-0.014 c 8.18595,-0.008 14.90672,-0.0307 14.93503,-0.0507 z m 28.49625,-2.40699 c -0.0155,-1.45541 0.0714,-14.04601 0.19126,-27.9791 l 0.21782,-25.33294 -11.04591,-0.10134 c -6.07521,-0.0559 -18.64577,-0.0922 -27.9345,-0.081 l -16.88867,0.0205 1.15889,1.00915 c 2.71313,2.36266 6.36256,9.20897 11.39513,21.37728 0.60317,1.45838 6.13169,14.32151 6.8504,15.9387 3.43439,7.7278 6.84017,14.51875 8.49993,16.94847 l 0.50186,0.73465 13.54021,0.0558 13.54021,0.0558 z M 65.887394,207.99249 c 5.404889,-2.54611 10.70181,-6.52733 20.680463,-15.54358 7.717263,-6.97298 11.137456,-9.99764 12.846952,-11.36125 2.105961,-1.67987 5.590971,-4.21253 5.793971,-4.21067 0.0737,1.9e-4 0.83695,-0.42023 1.6961,-0.93538 l 1.56211,-0.93662 -23.151728,-0.0329 c -12.733451,-0.0182 -23.165917,-0.0136 -23.183261,0.0102 -0.01729,0.0238 -0.152917,6.26325 -0.30116,13.86568 l -0.269607,13.82256 1.562604,0.0137 c 2.009142,0.0182 2.03866,0.49649 0.03596,0.58247 l -1.522028,0.0655 -0.102903,3.01175 -0.102904,3.0118 1.061424,-0.13244 c 0.583771,-0.073 2.111034,-0.62688 3.393907,-1.23123 z m 45.613176,-31.9837 c 1.6e-4,-0.23201 -0.23714,-0.39907 -0.57604,-0.40219 -0.56654,-0.006 -0.56813,0.002 -0.0698,0.38784 0.63961,0.49306 0.6414,0.49311 0.64578,0.014 z m 0.0801,-18.32243 c -0.0102,-9.27745 -0.006,-18.20747 0.008,-19.84451 l 0.0264,-2.97646 -14.022327,-0.129 c -15.916569,-0.14647 -14.421046,-0.39617 -13.515074,2.25705 0.607873,1.78019 0.614839,1.88069 0.116805,1.68428 -0.280625,-0.11062 -0.401517,0.025 -0.416318,0.46754 -0.01116,0.34289 -0.06025,2.40912 -0.108337,4.59158 -0.05165,2.34251 -0.194613,3.99387 -0.34892,4.03099 -0.165904,0.0398 -0.223329,-1.58865 -0.157202,-4.45813 0.10067,-4.36691 0.08563,-4.526 -0.43885,-4.66834 -0.377405,-0.10237 -0.487218,-0.27747 -0.360046,-0.57395 0.348557,-0.81254 0.934584,-2.75438 0.937832,-3.10764 0.003,-0.28516 -1.06143,-0.36459 -5.420467,-0.40468 -3.439442,-0.0316 -5.422839,-0.1467 -5.421297,-0.31446 0.0019,-0.17348 6.495114,-0.22167 18.853646,-0.14018 10.368185,0.0686 19.089455,0.11275 19.380635,0.0982 0.73682,-0.0367 0.67654,-0.41873 -0.18229,-1.15498 -1.10096,-0.94384 -2.3488,-3.88424 -3.9628,-9.33797 -2.70422,-9.13746 -3.6719,-11.76413 -5.41259,-14.69164 -1.626175,-2.73494 -3.500404,-4.24501 -5.704785,-4.59636 -1.956413,-0.31178 -3.620545,0.65365 -7.946438,4.61003 l -3.71172,3.3947 -0.03619,3.93585 c -0.03171,3.44623 0.02014,3.96802 0.416237,4.19453 0.425989,0.24358 0.425734,0.33965 -0.0045,1.64327 -0.251265,0.76155 -0.393997,1.4884 -0.317183,1.61529 0.07683,0.12687 2.184507,0.23029 4.683736,0.22978 5.551696,-6.7e-4 5.807082,0.0144 5.599273,0.34399 -0.107626,0.17059 -5.694484,0.21221 -15.89538,0.11842 l -15.729784,-0.14468 -0.02876,10.64965 -0.02875,10.64969 1.32211,0.0942 c 1.989901,0.14173 2.131452,0.59908 0.179864,0.58109 l -1.640342,-0.015 -0.127763,13.89004 -0.127763,13.89005 24.779654,0.22793 24.779664,0.22792 z m -10.07816,14.98918 c -0.18551,-0.69295 -0.39553,-1.46882 -0.46676,-1.72415 -0.0862,-0.30951 0.0167,-0.4629 0.30957,-0.46021 0.39829,0.003 0.44131,-0.61138 0.46356,-6.62956 0.0134,-3.64845 0.0961,-6.70375 0.1834,-6.78952 0.2072,-0.20343 0.23095,0.55104 0.23097,7.33188 -5.5e-4,4.66037 0.0688,5.72366 0.38548,5.92728 0.33813,0.21763 0.33411,0.45451 -0.0328,1.92762 -0.23003,0.92373 -0.48978,1.67888 -0.57721,1.67807 -0.0874,-5e-5 -0.31077,-0.56843 -0.49628,-1.26141 z m 0.24548,-29.47797 c 0.0362,-3.92513 -0.009,-4.45411 -0.38676,-4.4576 -0.31128,-0.003 -0.38567,-0.16554 -0.27325,-0.59782 0.63716,-2.45002 0.84491,-3.10121 0.98886,-3.09991 0.1393,-2e-5 1.04063,3.09635 1.03639,3.55887 -8e-5,0.0853 -0.18494,0.15331 -0.40922,0.15123 -0.35278,-0.003 -0.40874,0.60587 -0.41482,4.51479 -0.0112,6.96064 -0.60357,6.76942 -0.5412,-0.0696 z m 63.18153,31.41364 5.39271,-0.10655 -0.0874,-7.97448 c -0.0482,-4.38595 -0.01,-16.67796 0.0852,-27.31559 l 0.1729,-19.34115 -3.10704,-0.21194 c -6.95221,-0.47428 -11.38737,-1.52142 -15.77524,-3.72449 -5.70291,-2.86335 -9.20416,-7.15787 -12.51334,-15.34852 -0.35411,-0.876406 -1.0601,-2.583397 -1.56887,-3.793299 -0.50881,-1.209898 -1.8076,-4.793872 -2.88619,-7.964382 -2.24572,-6.601096 -3.2463,-8.752383 -4.18465,-8.99709 -0.70983,-0.18511 -1.14388,0.224103 -1.84545,1.739827 -1.25556,2.712579 -3.26168,9.873477 -4.86978,17.382601 -4.18616,19.547753 -7.22825,30.490883 -9.34985,33.633653 -0.38483,0.57 -1.04062,1.13215 -1.50356,1.28875 l -0.82103,0.27777 0.086,9.41972 c 0.0469,5.18084 0.0415,14.26974 -0.012,20.19752 l -0.0972,10.77781 23.7466,0.0834 c 13.06062,0.0461 26.17333,0.0351 29.13933,-0.0233 z m -50.45633,-44.15148 c 1.16925,-2.53533 2.64577,-7.23178 3.91925,-12.46607 1.35046,-5.55079 1.42377,-5.87234 3.9724,-17.42671 0.20822,-0.943998 0.64194,-2.90462 0.96383,-4.356931 1.00952,-4.554919 2.97811,-11.612337 3.85981,-13.83749 1.49318,-3.768258 2.90706,-4.641415 4.57341,-2.824337 0.97892,1.067403 1.62944,2.522338 3.17959,7.110946 2.06169,6.10286 3.25335,9.280542 4.9551,13.213248 0.90195,2.084314 1.63943,3.836864 1.6389,3.894594 -3.6e-4,0.0577 0.48839,0.98317 1.08649,2.05653 3.62057,6.49764 8.7083,10.03268 17.11568,11.89236 2.11342,0.46747 8.34389,1.08699 9.71062,0.96552 l 0.87495,-0.0778 0.13594,-20.637121 c 0.0748,-11.350418 0.0983,-22.602086 0.0517,-25.003707 -0.0462,-2.401619 -0.0648,-6.259566 -0.0415,-8.573208 l 0.0426,-4.206628 -5.75609,0.127523 c -7.41275,0.16424 -48.32275,0.771658 -50.70937,0.752921 l -1.81848,-0.01419 -0.0779,26.789478 c -0.0428,14.734202 -0.0207,28.308132 0.0492,30.164242 l 0.12708,3.37473 -0.0909,3.46393 0.18874,3.52217 c 0,0 -0.2231,0.21164 -0.22702,0.63981 0.15148,0.46781 0.22127,4.20349 0.22127,4.20349 0,0 0.85437,-0.34775 1.1718,-1.03609 z m -3.61338,0.14958 c 4e-5,-0.28242 0.1833,-0.51188 0.40158,-0.50988 3.13905,0.0309 -0.0695,-0.0849 -0.0695,-0.0849 0,0 -0.3422,1.69681 -0.33208,0.59441 z m 0.68541,2.47232 0.0986,-18.33947 c -0.0334,-6.32278 -0.0761,-20.723832 -0.0936,-32.002335 -0.0177,-11.278501 -0.0374,-20.774274 -0.0442,-21.101711 -0.009,-0.580388 -0.0706,-0.592765 -2.32547,-0.492964 -2.04396,0.09047 -30.401928,0.341116 -41.74019,0.368942 l -4.233605,0.0104 -0.194313,13.677704 -0.194315,13.677705 1.522937,0.09342 c 1.89227,0.116091 1.88778,0.614231 -0.0054,0.603596 l -1.386776,-0.0077 -0.127763,13.890053 -0.127763,13.89004 1.527873,0.0937 c 1.924807,0.11797 1.737156,0.59791 -0.226712,0.57983 l -1.439543,-0.0123 -0.02452,2.66474 -0.02452,2.66477 1.522931,-0.16382 c 1.947397,-0.20948 5.600468,-1.38562 7.553423,-2.43178 2.430008,-1.30181 5.557058,-3.60246 8.717401,-6.4136 l 2.937187,-2.61265 0.02829,-2.31493 c 0.01653,-1.36214 0.13735,-2.31393 0.293032,-2.31251 0.151174,4.5e-4 0.257269,0.79613 0.247534,1.85443 -0.0093,1.0186 0.05817,1.8527 0.150077,1.85352 0.09189,1e-5 1.397376,-1.16177 2.901048,-2.58364 5.306013,-5.01734 7.534369,-5.82876 11.040361,-4.02 3.376776,1.74208 5.781016,6.22141 8.697836,16.20501 1.88004,8.26987 4.95016,12.68155 4.95016,12.68155 z m -28.402347,-9.5943 c 0.0022,-0.25267 -0.169699,-0.96723 -0.38228,-1.58789 -0.472141,-1.37845 -0.472615,-1.32731 0.01217,-1.32285 0.333153,0.003 0.402128,-0.56961 0.429706,-3.56808 0.01807,-1.96444 -0.03586,-3.57236 -0.119939,-3.57312 -0.08399,-8e-5 -1.37381,1.06564 -2.866189,2.36983 -4.079464,3.56503 -8.423962,6.33135 -11.420267,7.27169 -2.227112,0.69895 -1.277126,0.82235 6.514386,0.84601 7.237241,0.0216 7.828502,-0.0103 7.832406,-0.43559 z m -27.36165,81.57291 c 0.08394,-0.25636 0.214641,-1.21345 0.290394,-2.1269 0.125395,-1.51217 0.08726,-1.67999 -0.42581,-1.87519 -0.525003,-0.1997 -0.505818,-0.2339 0.280792,-0.50001 0.464375,-0.15713 0.847403,-0.26206 0.851162,-0.23321 0.0039,0.0288 0.02263,1.21363 0.04188,2.63283 0.03459,2.53875 0.02501,2.58027 -0.578024,2.57446 -0.465661,-0.001 -0.576399,-0.11795 -0.460448,-0.47198 z m -6.706978,-2.24014 c 0.527634,-0.33415 4.159071,-0.30076 4.365445,0.0402 0.103039,0.17019 -0.726281,0.25644 -2.30179,0.23937 -1.687862,-0.0184 -2.337252,-0.1063 -2.063655,-0.27954 z m 6.418317,-26.5627 c -0.281076,-0.43771 -0.434759,-1.18595 -0.414541,-2.01826 0.06033,-2.48282 2.153654,-3.44359 3.161038,-1.45082 0.52065,1.02991 0.348567,2.92533 -0.332679,3.66431 -0.691509,0.75013 -1.867841,0.65498 -2.413818,-0.19523 z m 2.043332,-0.51124 c 0.355361,-1.04439 0.228399,-2.90385 -0.230176,-3.37095 -0.208722,-0.2126 -0.418537,-0.21646 -0.748383,-0.0141 -0.485577,0.29842 -0.786437,2.53343 -0.500555,3.71852 0.236695,0.9812 1.097789,0.78683 1.479113,-0.33384 z m -1.138869,-27.43183 c 0.441474,-0.52808 0.5538,-3.8779 0.138811,-4.13967 -0.277292,-0.17495 -0.258139,-0.25474 0.09254,-0.38564 0.851751,-0.31788 0.927952,-0.14364 0.907543,2.07513 -0.01698,1.85015 0.05881,2.283 0.439954,2.50967 0.364045,0.21655 0.218164,0.27338 -0.696384,0.27134 -0.894443,-0.004 -1.094648,-0.0771 -0.882523,-0.33083 z m -0.476461,-28.18854 c 0.0011,-0.11181 0.489423,-0.78237 1.085332,-1.49012 0.764128,-0.90758 1.061912,-1.48829 1.010353,-1.97033 -0.09189,-0.85917 -1.131478,-1.10232 -1.66322,-0.38897 -0.401056,0.53801 -0.760503,0.37273 -0.519356,-0.23882 0.43312,-1.09838 2.245197,-1.18858 2.794499,-0.1391 0.391505,0.74797 0.101603,1.63332 -0.902278,2.75572 l -0.855301,0.95625 1.121626,-0.0967 c 0.86643,-0.0747 1.089464,-0.015 0.980219,0.26207 -0.07782,0.19725 -0.141872,0.40841 -0.142432,0.46927 -7.53e-4,0.0609 -0.655842,0.1046 -1.456166,0.0973 -0.800335,-0.007 -1.454305,-0.10495 -1.453277,-0.21666 z m 0.262433,-28.531105 c 0.0022,-0.272914 0.145496,-0.36635 0.399296,-0.260924 0.217457,0.09035 0.551123,0.229411 0.741481,0.309055 0.190364,0.07962 0.558571,-0.08567 0.818252,-0.367352 0.377622,-0.409631 0.414107,-0.62305 0.182254,-1.066035 -0.159446,-0.304625 -0.464303,-0.55547 -0.677454,-0.557431 -0.537828,-0.0049 -0.480921,-0.33346 0.149545,-0.86331 0.293322,-0.24651 0.534459,-0.57216 0.535851,-0.723665 0.0041,-0.458485 -0.82452,-0.63551 -1.381074,-0.29501 -0.775719,0.474578 -0.964653,0.04922 -0.235738,-0.530709 1.211979,-0.964227 2.177555,-0.451407 2.129625,1.13106 -0.01492,0.492534 0.05035,1.287896 0.144942,1.767468 0.236744,1.199731 -0.431029,1.903909 -1.793605,1.891373 -0.757978,-0.0068 -1.016288,-0.117732 -1.013375,-0.43452 z m 2.113347,-28.395744 c 0.0038,-0.426624 -0.171512,-0.530764 -0.905514,-0.537516 -0.500721,-0.0048 -0.988852,-0.137972 -1.084739,-0.296368 -0.21645,-0.357544 2.035414,-3.663807 2.492527,-3.659602 0.228037,0.0022 0.328493,0.472843 0.319089,1.495185 -0.0102,1.114786 0.102567,1.579428 0.446138,1.837367 0.437977,0.328805 0.437747,0.35359 -0.0049,0.520475 -0.255556,0.0964 -0.466723,0.400607 -0.469257,0.676068 -0.0027,0.275462 -0.183191,0.499195 -0.401461,0.497185 -0.220481,-0.0019 -0.394701,-0.238825 -0.391996,-0.532794 z m 0.01332,-2.315079 c 6.84e-4,-0.946811 -0.01814,-0.968176 -0.411984,-0.46683 -0.930504,1.184596 -0.977234,1.446281 -0.259464,1.452885 0.600195,0.0055 0.670812,-0.0982 0.671448,-0.986055 z"
       style="fill:#000000"
       id="path1"
       sodipodi:nodetypes="sscssscssccccsscsscscsccscssscsccscssscccccccccccscsssccscccccscsccccccccccccccccccssscccccsscsccccccccccccccccccccccsccccccccccccscsccccccccccccccccccccccccccccccccccsccccccccccsscccssccccccccccccscccscccsccccccscccsccccscccccccccccsccccccccccccccscscccccscsccccscsscsscscccccccsscssscssscccsccccccccccccssscccscccccccccccscscsccccccccccccccccccc" />
    <text
       xml:space="preserve"
       style="font-weight:bold;font-size:8.46667px;line-height:normal;font-family:'Segoe Script';-inkscape-font-specification:'Segoe Script Bold';text-align:center;text-decoration-color:#000000;writing-mode:lr-tb;direction:ltr;text-anchor:middle;fill:#000000;stroke:none;stroke-width:0.529"
       x="85.91227"
       y="239.36726"
       id="text7-7"><tspan
         sodipodi:role="line"
         id="tspan7-8"
         style="stroke-width:0.529"
         x="85.91227"
         y="239.36726">[111]</tspan></text>
    <text
       xml:space="preserve"
       style="font-weight:bold;font-size:8.46667px;line-height:normal;font-family:'Segoe Script';-inkscape-font-specification:'Segoe Script Bold';text-align:center;text-decoration-color:#000000;writing-mode:lr-tb;direction:ltr;text-anchor:middle;fill:#000000;stroke:none;stroke-width:0.529"
       x="144.17818"
       y="239.45773"
       id="text7-9"><tspan
         sodipodi:role="line"
         id="tspan7-8-1"
         style="stroke-width:0.529"
         x="144.17818"
         y="239.45773">[100]</tspan></text>
    <text
       xml:space="preserve"
       style="font-weight:bold;font-size:8.46667px;line-height:normal;font-family:'Segoe Script';-inkscape-font-specification:'Segoe Script Bold';text-align:start;text-decoration-color:#000000;writing-mode:lr-tb;direction:ltr;text-anchor:start;fill:#000000;stroke:none;stroke-width:0.529"
       x="-173.8409"
       y="45.444859"
       id="text2"
       transform="rotate(-90)"><tspan
         sodipodi:role="line"
         id="tspan2"
         style="font-size:8.46667px;fill:#000000;stroke:none;stroke-width:0.529"
         x="-173.8409"
         y="45.444859">Energy (eV)</tspan></text>
    <text
       xml:space="preserve"
       style="font-weight:bold;font-size:8.46667px;line-height:normal;font-family:'Segoe Script';-inkscape-font-specification:'Segoe Script Bold';text-align:center;text-decoration-color:#000000;writing-mode:lr-tb;direction:ltr;text-anchor:middle;fill:#000000;stroke-width:0.529"
       x="142.22977"
       y="67.828026"
       id="text1"><tspan
         sodipodi:role="line"
         id="tspan1"
         style="stroke-width:0.529"
         x="142.22977"
         y="67.828026">Conduction</tspan><tspan
         sodipodi:role="line"
         style="stroke-width:0.529"
         x="142.22977"
         y="78.411362"
         id="tspan3">band</tspan></text>
    <text
       xml:space="preserve"
       style="font-weight:bold;font-size:8.46667px;line-height:normal;font-family:'Segoe Script';-inkscape-font-specification:'Segoe Script Bold';text-align:center;text-decoration-color:#000000;writing-mode:lr-tb;direction:ltr;text-anchor:middle;fill:#000000;stroke-width:0.529"
       x="85.15419"
       y="72.116737"
       id="text4"><tspan
         sodipodi:role="line"
         id="tspan4"
         style="stroke-width:0.529"
         x="85.15419"
         y="72.116737">GaAs</tspan></text>
    <text
       xml:space="preserve"
       style="font-weight:bold;font-size:8.46667px;line-height:normal;font-family:'Segoe Script';-inkscape-font-specification:'Segoe Script Bold';text-align:center;text-decoration-color:#000000;writing-mode:lr-tb;direction:ltr;text-anchor:middle;fill:#000000;stroke-width:0.529"
       x="88.481079"
       y="215.77763"
       id="text5"><tspan
         sodipodi:role="line"
         id="tspan5"
         style="stroke-width:0.529"
         x="88.481079"
         y="215.77763">Valence</tspan><tspan
         sodipodi:role="line"
         style="stroke-width:0.529"
         x="88.481079"
         y="226.36098"
         id="tspan6">Band</tspan></text>
    <text
       xml:space="preserve"
       style="font-weight:bold;font-size:8.46667px;line-height:normal;font-family:'Segoe Script';-inkscape-font-specification:'Segoe Script Bold';text-align:center;text-decoration-color:#000000;writing-mode:lr-tb;direction:ltr;text-anchor:middle;fill:#000000;stroke-width:0.529"
       x="102.09106"
       y="155.06201"
       id="text7"><tspan
         sodipodi:role="line"
         id="tspan7"
         style="stroke-width:0.529"
         x="102.09106"
         y="155.06201">E<tspan
   style="font-size:65%;baseline-shift:sub"
   id="tspan8">g</tspan></tspan></text>
    <text
       xml:space="preserve"
       style="font-weight:bold;font-size:6.35px;line-height:normal;font-family:'Segoe Script';-inkscape-font-specification:'Segoe Script Bold';text-align:center;text-decoration-color:#000000;writing-mode:lr-tb;direction:ltr;text-anchor:middle;fill:#000000;stroke-width:0.529"
       x="84.205338"
       y="131.34924"
       id="text9"><tspan
         sodipodi:role="line"
         id="tspan9"
         style="stroke-width:0.529;font-size:6.35px"
         x="84.205338"
         y="131.34924">ΔE=0.31 eV</tspan></text>
    <text
       xml:space="preserve"
       style="font-weight:bold;font-size:8.46667px;line-height:normal;font-family:'Segoe Script';-inkscape-font-specification:'Segoe Script Bold';text-align:center;text-decoration-color:#000000;writing-mode:lr-tb;direction:ltr;text-anchor:middle;fill:#000000;stroke-width:0.529"
       x="109.94515"
       y="248.10876"
       id="text10"><tspan
         sodipodi:role="line"
         id="tspan10"
         style="font-size:8.46667px;stroke-width:0.529"
         x="109.94515"
         y="248.10876">k</tspan></text>
    <circle
       style="fill:#000000;stroke-width:0.528999"
       id="path10"
       cx="112.22292"
       cy="130.2616"
       r="1.891048" />
    <circle
       style="fill:#000000;stroke-width:0.528999"
       id="path10-7"
       cx="112.39812"
       cy="121.93325"
       r="1.891048" />
    <circle
       style="fill:#ffffff;stroke:#000000;stroke-width:0.528999"
       id="path10-73"
       cx="108.64467"
       cy="178.78085"
       r="1.891048" />
    <circle
       style="fill:#ffffff;stroke:#000000;stroke-width:0.528999"
       id="path10-73-6"
       cx="112.96156"
       cy="178.28587"
       r="1.891048" />
    <circle
       style="fill:#ffffff;stroke:#000000;stroke-width:0.528999"
       id="path10-73-1"
       cx="116.32848"
       cy="181.8036"
       r="1.891048" />
    <circle
       style="fill:#ffffff;stroke:#000000;stroke-width:0.528999"
       id="path10-73-4"
       cx="104.68681"
       cy="181.27444"
       r="1.891048" />
    <circle
       style="fill:#000000;stroke-width:0.528999"
       id="path10-0"
       cx="114.51423"
       cy="125.63642"
       r="1.891048" />
    <circle
       style="fill:#000000;stroke-width:0.528999"
       id="path10-07"
       cx="109.90317"
       cy="125.67439"
       r="1.891048" />
  </g>
</svg>
