<?xml version="1.0" encoding="UTF-8" standalone="no"?>
<!-- Created with Inkscape (http://www.inkscape.org/) -->

<svg
   width="52.310432mm"
   height="76.945702mm"
   viewBox="0 0 52.310432 76.945701"
   version="1.1"
   id="svg1"
   inkscape:version="1.4.2 (f4327f4, 2025-05-13)"
   sodipodi:docname="oe_led_gaasp_bandstructure.svg"
   inkscape:export-filename="oe_led_gaasp_bandstructure.pdf"
   inkscape:export-xdpi="96"
   inkscape:export-ydpi="96"
   xmlns:inkscape="http://www.inkscape.org/namespaces/inkscape"
   xmlns:sodipodi="http://sodipodi.sourceforge.net/DTD/sodipodi-0.dtd"
   xmlns="http://www.w3.org/2000/svg"
   xmlns:svg="http://www.w3.org/2000/svg">
  <sodipodi:namedview
     id="namedview1"
     pagecolor="#ffffff"
     bordercolor="#000000"
     borderopacity="0.25"
     inkscape:showpageshadow="2"
     inkscape:pageopacity="0.0"
     inkscape:pagecheckerboard="0"
     inkscape:deskcolor="#d1d1d1"
     inkscape:document-units="mm"
     inkscape:zoom="2.4743579"
     inkscape:cx="93.963772"
     inkscape:cy="214.8032"
     inkscape:window-width="1366"
     inkscape:window-height="705"
     inkscape:window-x="-8"
     inkscape:window-y="-8"
     inkscape:window-maximized="1"
     inkscape:current-layer="layer1" />
  <defs
     id="defs1" />
  <g
     inkscape:label="Layer 1"
     inkscape:groupmode="layer"
     id="layer1"
     transform="translate(-71.084459,-91.738048)">
    <path
       style="fill:#000000;stroke-width:0.264583"
       d="m 77.681974,164.31361 c -0.03617,-0.0782 -0.05233,-0.31362 -0.03586,-0.5229 0.01639,-0.20925 0.02385,-2.17119 0.01649,-4.35985 -0.0073,-2.18866 -0.0044,-6.74136 0.0065,-10.11712 0.01086,-3.37576 0.01033,-6.6141 -0.0012,-7.19638 -0.01154,-0.58224 -0.01318,-2.73483 -0.0037,-4.78351 0.03254,-6.97138 0.03698,-9.98409 0.02394,-16.25489 -0.0071,-3.44591 -4.2e-4,-8.30332 0.01491,-10.79427 0.01535,-2.49095 0.02069,-6.14829 0.01199,-8.12743 -0.0087,-1.97916 5.57e-4,-5.122109 0.02069,-6.98435 l 0.03665,-3.385894 1.816336,-0.02161 c 0.998989,-0.01189 3.510707,-0.01706 5.581605,-0.01162 2.070899,0.0055 4.412696,0.0029 5.204011,-0.0059 0.791317,-0.0087 2.809483,-0.01235 4.484815,-0.008 1.675331,0.0044 5.178399,0.0073 7.784599,0.0067 2.60619,-6.86e-4 8.31146,-0.0021 12.67837,-0.0032 4.91048,-0.0012 7.96941,0.02863 8.01737,0.07831 0.0703,0.07288 0.0729,3.364582 0.0123,15.984754 -0.01,2.09524 -0.006,4.11453 0.01,4.48729 0.0156,0.3728 0.0186,2.39206 0.007,4.48728 -0.0118,2.0952 -0.0123,4.36205 -8.3e-4,5.03743 0.0115,0.67537 0.005,3.30404 -0.0155,5.84147 -0.0197,2.53744 -0.0297,5.41369 -0.0228,6.39167 0.0208,2.78569 0.0134,13.22169 -0.0166,23.11272 -0.01,3.25935 -0.002,6.19951 0.017,6.53371 0.0193,0.33418 4.4e-4,0.62817 -0.0414,0.65329 -0.0423,0.025 -0.96732,0.0493 -2.05578,0.0538 -3.61015,0.0153 -11.27979,0.0279 -18.47963,0.0302 -18.192158,0.007 -21.280724,0.009 -23.080075,0.0144 -1.738536,0.006 -1.93222,-0.008 -1.991538,-0.13634 z m 4.682839,-0.0996 c 4.055329,-0.0183 7.209122,-0.0236 11.465896,-0.0213 1.512505,0.002 4.768143,-3.5e-4 7.234751,-0.003 2.46661,-0.003 5.64612,-0.005 7.06556,-0.005 1.41946,-2.6e-4 3.34245,-0.006 4.27334,-0.0118 0.93089,-0.006 2.98711,-0.009 4.56939,-0.005 1.58228,0.002 3.59621,-0.005 4.47541,-0.0193 l 1.59855,-0.0248 0.0242,-4.58231 c 0.0136,-2.52028 0.0152,-5.28731 0.005,-6.14894 -0.011,-0.86162 -0.0136,-4.19529 -0.006,-7.40811 0.0143,-6.20648 0.0152,-7.09648 0.015,-15.11209 -2.2e-4,-7.53864 0.009,-14.53842 0.0268,-21.08062 0.0275,-9.972263 0.0242,-17.735023 -0.008,-17.772809 -0.0169,-0.01997 -2.03924,-0.02485 -4.49414,-0.01085 -2.45489,0.01394 -6.74805,0.0227 -9.54033,0.01941 -2.7923,-0.0033 -5.99082,-0.0017 -7.10785,0.0036 -2.062904,0.0098 -10.131252,3.78e-4 -15.822961,-0.0186 -5.247038,-0.01751 -8.035293,0.0073 -8.107934,0.07224 -0.03808,0.03399 -0.05954,1.077091 -0.04768,2.318002 l 0.02139,2.256197 0.219457,0.01194 c 0.120717,0.0066 0.358456,0.008 0.528323,0.0032 0.292295,-0.0083 0.490828,0.121185 0.367967,0.23998 -0.03102,0.02995 -0.292193,0.05152 -0.580455,0.04793 l -0.524115,-0.0066 -0.01796,2.327925 c -0.03801,4.926225 -0.04737,14.054225 -0.01535,14.960255 l 0.03356,0.94933 0.542075,0.0341 c 0.577953,0.0363 0.778525,0.19275 0.283489,0.22103 -0.163053,0.009 -0.426192,0.0362 -0.584766,0.0596 l -0.288325,0.0427 -0.01894,4.33248 c -0.02642,6.0362 -0.0058,13.70709 0.037,13.84827 0.02727,0.0897 0.141782,0.1074 0.479043,0.074 0.395028,-0.0391 0.759142,0.0485 0.648069,0.15586 -0.04221,0.0407 -0.638602,0.10853 -1.004241,0.11408 l -0.201793,0.004 0.01644,2.43435 c 0.02246,3.32194 0.02197,5.29749 -0.0031,10.68865 -0.01174,2.53757 0.0025,4.64088 0.03162,4.67403 0.02915,0.0331 0.338279,0.0765 0.686931,0.0964 0.3494,0.02 0.633253,0.0742 0.632454,0.12079 -8.01e-4,0.0469 -0.289842,0.0906 -0.648244,0.0981 -0.591797,0.0125 -0.649837,0.0294 -0.682602,0.19998 -0.05194,0.27045 -0.03641,11.56374 0.0161,11.70796 0.05263,0.14462 -0.278279,0.13597 4.407331,0.11529 z m 6.066784,-0.78511 c -0.05493,-0.0688 -0.146051,-0.28926 -0.202398,-0.49028 -0.122274,-0.43617 0.02528,-1.12678 0.279249,-1.30591 0.478408,-0.33759 1.047405,0.18917 1.034255,0.95751 -0.0066,0.38572 -0.17094,0.79616 -0.357064,0.89175 -0.230671,0.11848 -0.639678,0.0897 -0.75404,-0.0532 z m 0.639866,-0.24426 c 0.239463,-0.54693 0.116834,-1.39766 -0.202219,-1.40312 -0.230564,-0.003 -0.355678,0.36553 -0.324507,0.95828 0.01903,0.36112 0.06922,0.53126 0.182229,0.61693 0.207161,0.15707 0.198467,0.16142 0.344497,-0.17209 z m -0.28958,-2.33294 c -0.09296,-0.51032 -0.04076,-1.54552 0.07597,-1.50462 0.07069,0.0249 0.109031,0.27725 0.117022,0.77101 l 0.01195,0.73418 0.821501,0.0124 c 0.451827,0.007 3.742708,0.007 7.313089,1e-4 3.570375,-0.007 8.863225,-0.0123 11.761895,-0.0119 2.89867,3.4e-4 5.82252,-0.004 6.49743,-0.0109 0.67493,-0.007 1.7161,-0.006 2.31373,-3.2e-4 1.0123,0.0103 1.08981,-5e-4 1.13372,-0.1571 0.0259,-0.0926 0.0613,-0.16829 0.0786,-0.16798 0.0712,8.4e-4 1.34373,0.38423 1.40734,0.42358 0.038,0.0234 -0.24973,0.14372 -0.6392,0.26726 -0.73685,0.23371 -0.83523,0.23481 -0.83138,0.009 0.003,-0.12246 -0.2656,-0.13455 -2.81132,-0.12699 -6.84678,0.0207 -16.621167,0.0362 -24.018465,0.0387 l -3.181005,0.001 z m -8.182876,-0.99641 c -0.221526,-0.13422 -0.181995,-0.2426 0.311241,-0.85341 0.48463,-0.60015 0.766254,-0.96959 1.32321,-1.73583 0.361688,-0.49761 0.453622,-0.61454 1.313914,-1.67132 0.806645,-0.99087 2.410348,-2.55624 3.004548,-2.9327 0.298925,-0.18939 0.544038,-0.37623 0.544705,-0.41522 6.68e-4,-0.039 -0.188827,-0.0654 -0.421094,-0.0587 -0.232276,0.006 -0.449722,-0.0167 -0.483229,-0.0509 -0.136139,-0.14096 0.232604,-0.21979 0.951991,-0.20347 0.418699,0.01 0.902708,-0.0155 1.075576,-0.0555 0.17288,-0.04 0.333083,-0.0533 0.356008,-0.0295 0.161561,0.16728 0.202661,-2.1656 0.174105,-9.88011 -0.0043,-1.14091 -0.002,-4.56973 0.0051,-7.61958 0.007,-3.04988 -0.0017,-6.11808 -0.01946,-6.81825 l -0.03212,-1.27304 -0.369486,-0.17226 c -0.245626,-0.11449 -0.479687,-0.32507 -0.698213,-0.62812 -0.36076,-0.50028 -0.73652,-1.22526 -0.733277,-1.41473 0.0011,-0.0664 -0.0452,-0.14076 -0.102937,-0.16524 -0.05779,-0.0246 -0.289036,-0.41651 -0.513947,-0.87113 l -0.408935,-0.82658 0.202484,-0.15923 c 0.265442,-0.20872 0.337856,-0.1996 0.449286,0.0567 0.09362,0.21526 0.233482,0.29055 0.236279,0.12718 0.0029,-0.17046 0.425935,-0.49684 0.639222,-0.49319 0.118423,0.003 0.214667,0.0418 0.213871,0.0884 -7.99e-4,0.0466 0.05155,0.0854 0.116394,0.0867 0.262906,0.005 0.288974,0.6035 0.03681,0.84727 -0.210362,0.20338 -0.570074,0.20918 -0.7799,0.0126 -0.147604,-0.13833 -0.152863,-0.13729 -0.09905,0.0196 0.03125,0.091 0.118296,0.26184 0.193344,0.37955 0.0751,0.11769 0.260737,0.4828 0.412624,0.81136 0.1519,0.32855 0.300869,0.61685 0.331047,0.64064 0.0302,0.0238 0.115588,0.16702 0.1898,0.31828 0.205125,0.4181 0.461247,0.62416 0.782619,0.62965 0.156808,0.003 0.264381,-0.03 0.239048,-0.0727 -0.02538,-0.0427 -0.115129,-0.0606 -0.199552,-0.0401 -0.244664,0.0595 -0.547786,-0.25267 -0.542545,-0.55887 0.01246,-0.73038 0.928595,-0.81333 1.168722,-0.10582 l 0.08397,0.24748 0.242729,-0.44835 0.242728,-0.44836 -0.294691,0.0501 c -0.24504,0.0417 -0.330472,0.0131 -0.507145,-0.16987 -0.386254,-0.39993 -0.153804,-0.98865 0.386705,-0.97939 0.260149,0.005 0.592712,0.33572 0.588426,0.58614 -0.0012,0.0714 0.09597,-0.0559 0.216034,-0.28287 0.120031,-0.22703 0.218567,-0.42228 0.218968,-0.43392 3.87e-4,-0.0116 -0.113481,-0.023 -0.253062,-0.0254 -0.494659,-0.008 -0.783783,-0.65572 -0.427841,-0.95781 0.306477,-0.26013 0.517622,-0.25454 0.783455,0.0205 l 0.249309,0.25814 0.36225,-0.70742 c 0.199237,-0.38908 0.394844,-0.70686 0.434677,-0.70617 0.0398,6.8e-4 0.06538,-0.0276 0.05679,-0.0624 -0.03151,-0.12816 0.141966,-0.4964 0.469142,-0.99591 0.184231,-0.28126 0.335451,-0.53948 0.336039,-0.57382 5.88e-4,-0.0343 0.08881,-0.18093 0.195964,-0.32579 0.107184,-0.14485 0.26703,-0.39214 0.355195,-0.54953 0.0882,-0.15737 0.218453,-0.34235 0.289508,-0.41106 0.07109,-0.0687 0.226626,-0.27363 0.345694,-0.45537 0.379992,-0.58005 1.593701,-1.72597 2.30862,-2.17969 0.937115,-0.59472 1.556449,-0.8386 2.558446,-1.00742 0.490344,-0.0825 3.24642,-0.0696 4.31149,0.0201 1.11928,0.0945 1.79046,0.1752 2.11106,0.25373 0.18539,0.0454 0.46075,0.0857 0.61196,0.0895 0.15118,0.004 0.27423,0.045 0.27343,0.0915 -7.9e-4,0.0465 0.16031,0.0878 0.35804,0.092 0.68632,0.0133 4.26202,1.12792 4.34166,1.35227 0.0147,0.0417 0.0923,0.077 0.17212,0.0783 0.0799,0.002 0.18082,0.0354 0.22435,0.0753 0.0434,0.0401 0.30602,0.16507 0.58334,0.27781 0.2773,0.11276 0.5418,0.23213 0.58777,0.26529 0.11978,0.0865 1.35842,0.42428 1.83185,0.4997 l 0.40083,0.0639 0.0103,-0.55976 c 0.008,-0.44114 0.0364,-0.5593 0.13646,-0.55759 0.0924,0.002 0.128,0.10567 0.13095,0.38323 0.003,0.20958 0.009,0.42875 0.014,0.48704 0.0173,0.18434 0.73361,0.12184 1.36525,-0.11912 0.68745,-0.26224 1.2595,-0.52965 1.32214,-0.618 0.0238,-0.0336 0.19703,-0.14095 0.38485,-0.23845 0.38325,-0.19896 0.86772,-0.55834 1.62839,-1.2079 0.28336,-0.24199 0.72765,-0.61549 0.98729,-0.82999 0.25964,-0.2145 0.73267,-0.63586 1.05122,-0.93633 0.53858,-0.50805 0.59395,-0.53929 0.79033,-0.44565 0.30712,0.1464 0.25617,0.38047 -0.15925,0.73148 -0.44714,0.37783 -1.58035,1.37817 -2.07143,1.82857 -0.19937,0.18285 -0.47258,0.40677 -0.60716,0.4976 -0.13458,0.0907 -0.4558,0.32344 -0.71387,0.51691 -0.25803,0.19349 -0.49992,0.35127 -0.53752,0.35063 -0.0376,-6.5e-4 -0.11973,0.0484 -0.1825,0.10915 -0.18324,0.17719 -1.38041,0.7697 -1.67554,0.82926 -0.14864,0.0299 -0.27078,0.0856 -0.27141,0.12322 -0.003,0.12179 -0.61323,0.18646 -1.65302,0.17491 -0.91489,-0.0108 -1.09418,-0.0386 -1.81435,-0.28701 -0.43952,-0.15167 -1.00681,-0.37787 -1.26064,-0.50268 -0.25383,-0.12479 -0.65076,-0.29325 -0.88207,-0.37434 -0.23129,-0.0811 -0.43909,-0.17745 -0.46172,-0.21412 -0.055,-0.0892 -1.75217,-0.68279 -2.43928,-0.85318 -0.64343,-0.15958 -2.65861,-0.55688 -3.20462,-0.6318 -0.55726,-0.0764 -3.4048,-0.27034 -4.14137,-0.28198 -0.657387,-0.01 -2.181578,0.17782 -2.331884,0.28792 -0.0471,0.0345 -0.190811,0.0861 -0.319274,0.1144 -0.128465,0.0285 -0.234067,0.0802 -0.234664,0.11506 -5.97e-4,0.0349 0.179951,0.25629 0.401219,0.49207 0.381548,0.40652 1.007038,1.12714 1.392999,1.60485 0.704432,0.87191 1.638024,2.6849 1.992804,3.86996 0.3496,1.16777 0.51176,2.75299 0.29483,2.88205 -0.0971,0.0578 -0.12407,-0.0732 -0.2304,-1.1165 -0.11117,-1.09066 -0.40716,-2.12013 -0.93791,-3.2621 -0.25087,-0.53979 -0.482068,-1.00093 -0.513755,-1.02476 -0.03171,-0.0238 -0.183364,-0.23509 -0.337045,-0.46949 -0.440828,-0.67235 -1.354987,-1.77939 -2.016428,-2.44186 -0.322862,-0.32336 -0.399318,-0.36403 -0.513035,-0.27285 -0.07353,0.0589 -0.289283,0.18706 -0.479533,0.28472 -0.907727,0.46598 -2.736963,2.63844 -3.665179,4.35289 -0.172745,0.31907 -0.346967,0.6367 -0.387156,0.70587 -0.233945,0.40261 -0.617107,1.15447 -0.876824,1.72059 -0.187262,0.40817 -0.380387,0.78956 -0.673936,1.33095 -0.07859,0.14501 -0.176852,0.32944 -0.218286,0.40984 -0.561572,1.08987 -0.883633,1.52072 -1.360661,1.82035 l -0.19921,0.12513 -0.03036,2.3685 c -0.0163,1.3027 -0.02527,3.05437 -0.01913,3.89264 0.0062,0.83827 0.0068,3.22423 0.0014,5.30213 -0.0095,3.6447 -0.0041,3.77663 0.150265,3.73903 0.08808,-0.0213 0.160594,-0.0684 0.161208,-0.10431 6.15e-4,-0.0359 0.133414,-0.0878 0.295097,-0.11534 0.215751,-0.0367 0.389631,0.001 0.653388,0.14014 0.19767,0.10455 0.377936,0.21912 0.400602,0.25458 0.02269,0.0356 0.173499,0.12131 0.335195,0.19078 0.404684,0.17385 0.893642,0.0461 1.347134,-0.35218 0.193739,-0.17012 0.450861,-0.33228 0.57139,-0.36037 0.427928,-0.0997 0.998514,0.037 1.509475,0.36156 0.769396,0.4888 1.358882,0.45265 2.212565,-0.1357 0.143796,-0.0991 0.422313,-0.2414 0.618913,-0.31622 0.448315,-0.17065 0.787565,-0.10813 1.585173,0.29207 0.336342,0.16876 0.7281,0.30135 0.899054,0.30427 0.279999,0.005 0.305349,-0.0156 0.334199,-0.26944 0.038,-0.33387 0.14041,-0.3374 0.91553,-0.0317 0.30049,0.11854 0.87816,0.29404 1.28373,0.39002 0.71137,0.16834 0.95784,0.30944 0.52766,0.30209 -0.11412,-0.002 -0.29553,0.0298 -0.40314,0.0705 -0.10759,0.0408 -0.48258,0.15467 -0.83332,0.25312 -0.35073,0.0985 -0.73364,0.22368 -0.85093,0.27826 -0.11727,0.0546 -0.29934,0.12419 -0.40458,0.15471 -0.17615,0.0512 -0.19086,0.0289 -0.18559,-0.27971 0.005,-0.36509 -0.0796,-0.43944 -0.515432,-0.4469 -0.14043,-0.003 -0.573209,-0.1622 -0.961734,-0.35512 -0.388525,-0.1929 -0.791345,-0.35062 -0.895164,-0.35048 -0.103815,-1.1e-4 -0.361608,0.0885 -0.572882,0.19629 -1.366958,0.69755 -1.438543,0.72173 -1.968011,0.66453 -0.376109,-0.0405 -0.634515,-0.13543 -1.020124,-0.3743 -0.657259,-0.40716 -1.115838,-0.44143 -1.474549,-0.11024 -0.811867,0.74959 -1.361123,0.81304 -2.290495,0.26466 -0.33262,-0.19627 -0.658513,-0.35777 -0.724213,-0.35889 -0.06569,-8.5e-4 -0.235474,0.1127 -0.377295,0.25296 -0.216984,0.21458 -0.268437,0.34632 -0.324559,0.83102 -0.03673,0.3168 -0.04952,0.66655 -0.02849,0.77722 0.02101,0.11065 0.03166,1.97189 0.02372,4.13608 -0.0093,2.55606 0.01622,3.97309 0.07292,4.04389 0.04798,0.0599 0.19922,0.11096 0.335989,0.11329 0.312116,0.005 1.079837,0.26657 1.07812,0.36685 -7.04e-4,0.0412 0.09201,0.0765 0.20599,0.0783 0.114005,0.002 0.244941,0.0709 0.29097,0.15314 0.046,0.0823 0.08536,0.1204 0.08737,0.0848 0.0084,-0.14051 1.179299,0.89773 2.063835,1.82935 l 0.933412,0.98311 0.409309,-0.33237 c 0.654339,-0.53134 1.306334,-0.91468 1.937418,-1.1391 0.337513,-0.54409 3.898405,-0.34252 2.797764,-0.18493 -1.985677,0.0886 -3.099733,0.41715 -4.230734,1.24779 -0.817585,0.60047 -0.820521,0.61305 -0.287786,1.23142 0.250463,0.29071 0.519999,0.63272 0.598961,0.76 0.140018,0.22572 0.234243,0.34901 0.603536,0.78971 0.253528,0.30254 1.084586,1.42535 1.257996,1.69962 0.140401,0.22207 0.13926,0.23385 -0.0362,0.37375 -0.102099,0.0813 -0.228112,0.1162 -0.288807,0.0797 -0.145288,-0.0872 -0.871918,-1.02018 -0.870257,-1.11723 7.27e-4,-0.0425 -0.07773,-0.15117 -0.174343,-0.24151 -0.09657,-0.0903 -0.420387,-0.49232 -0.719499,-0.89323 -0.538957,-0.72241 -0.680907,-0.90132 -1.448844,-1.82596 -0.579259,-0.69747 -1.862896,-1.98604 -2.390514,-2.39971 -0.445922,-0.3496 -1.367341,-0.85838 -1.56083,-0.8618 -0.05309,-8.8e-4 -0.122337,0.094 -0.153846,0.21109 -0.1489,0.55331 -0.824062,0.73288 -1.148433,0.30543 -0.09429,-0.12432 -0.170292,-0.29705 -0.168806,-0.38388 0.0035,-0.19451 0.01233,-0.1946 -0.437287,0.004 -0.798469,0.35248 -1.803417,1.1198 -2.546669,1.9445 -0.207328,0.23006 -0.649213,0.70986 -0.98197,1.06622 -0.332767,0.35637 -0.66825,0.75854 -0.745514,0.89372 -0.07733,0.13519 -0.227807,0.34148 -0.334514,0.45841 -0.106717,0.11694 -0.194675,0.25042 -0.195465,0.29662 -7.91e-4,0.0462 -0.03643,0.0835 -0.07913,0.0827 -0.04269,-7.3e-4 -0.167371,0.14001 -0.276973,0.31275 -0.109611,0.17274 -0.385616,0.54457 -0.613361,0.82628 -0.227744,0.28174 -0.414573,0.54131 -0.415181,0.57683 -0.002,0.11814 -0.615531,0.79119 -0.717221,0.78683 -0.05497,-8.8e-4 -0.165976,-0.0443 -0.246592,-0.0931 z m 8.446702,-6.93111 c 0.0864,-0.0756 0.158663,-0.22905 0.16058,-0.34102 0.0032,-0.18262 -0.02835,-0.20143 -0.305619,-0.18262 -0.403819,0.0274 -0.551606,0.23744 -0.338605,0.48119 0.187103,0.21411 0.27826,0.22212 0.483644,0.0424 z m 25.493431,7.032 c -0.0136,-0.48788 0.0482,-1.1661 0.11224,-1.23114 0.0735,-0.0746 0.15492,1.19295 0.0874,1.36155 -0.0747,0.18651 -0.19298,0.10925 -0.19969,-0.13041 z m -25.780156,-1.28083 c -0.03771,-0.79402 0.0023,-1.4147 0.09272,-1.4439 0.07825,-0.0253 0.106806,0.13549 0.108065,0.60777 9.19e-4,0.35314 0.0047,0.68655 0.0084,0.74094 0.0039,0.0543 -0.04106,0.11395 -0.09958,0.13234 -0.05852,0.0183 -0.107859,0.001 -0.109689,-0.0371 z m 25.775926,-0.71675 c -0.083,-0.22838 0.0272,-1.353 0.13613,-1.38696 0.0799,-0.025 0.10306,0.15835 0.0932,0.73562 -0.008,0.4717 -0.0469,0.76822 -0.10053,0.76731 -0.048,-8.2e-4 -0.10599,-0.0531 -0.1289,-0.11597 z m -25.761898,-1.48417 c -0.03046,-0.0315 -0.051,-0.31631 -0.04557,-0.63276 0.0087,-0.51056 -0.01145,-0.58706 -0.178768,-0.67893 -0.2605,-0.14302 -0.310372,-0.24267 -0.305575,-0.61059 0.0036,-0.26935 0.04709,-0.3438 0.281664,-0.48108 0.308474,-0.18054 0.515023,-0.1488 0.80203,0.12321 0.292262,0.27699 0.219532,0.82508 -0.129661,0.97711 -0.191142,0.0833 -0.206687,0.13528 -0.216801,0.72625 -0.01005,0.58541 -0.06127,0.72801 -0.207313,0.57679 z m 0.435421,-1.74405 c 0.07645,-0.20702 0.06142,-0.26311 -0.109272,-0.40628 -0.174008,-0.14598 -0.219818,-0.1522 -0.378187,-0.0514 -0.231749,0.14751 -0.275419,0.41474 -0.09787,0.59864 0.202481,0.20964 0.480489,0.14269 0.585277,-0.14096 z m 25.338237,0.45669 c 0.0104,-0.5773 0.0392,-0.75962 0.11829,-0.73194 0.0707,0.0249 0.10902,0.27725 0.11702,0.77102 0.0104,0.615 -0.0101,0.7338 -0.11829,0.73194 -0.10764,-0.002 -0.1279,-0.13542 -0.11702,-0.77102 z m -28.070745,0.0528 c -0.23961,-0.0418 -0.523482,-0.41218 -0.518945,-0.6773 0.005,-0.29132 0.369132,-0.61339 0.687335,-0.60794 0.387118,0.007 0.705906,0.36503 0.630933,0.70932 -0.09746,0.44749 -0.377557,0.64932 -0.799323,0.57592 z m 0.403948,-0.3891 c 0.190371,-0.19592 0.193154,-0.21482 0.06233,-0.42225 -0.164998,-0.26162 -0.328596,-0.27773 -0.55891,-0.055 -0.218579,0.21134 -0.21747,0.28796 0.0073,0.5048 0.229899,0.22177 0.248029,0.22075 0.489263,-0.0274 z m 3.837392,0.32195 c -0.204316,-0.0931 -0.273835,-0.1897 -0.316174,-0.43901 -0.07341,-0.43243 0.159188,-0.74411 0.576861,-0.77285 0.247619,-0.0171 0.33586,0.0262 0.52189,0.25517 0.264819,0.32606 0.232452,0.61014 -0.102503,0.8994 -0.248784,0.21487 -0.321139,0.22096 -0.680109,0.0573 z m 0.548484,-0.3093 c 0.181509,-0.1755 0.127796,-0.48428 -0.103422,-0.59452 -0.182733,-0.0872 -0.23979,-0.0764 -0.397289,0.076 -0.1575,0.15229 -0.170361,0.20896 -0.08956,0.39468 0.102184,0.23498 0.408789,0.29925 0.590309,0.12375 z m -3.991628,-0.8518 c -0.340378,-0.35243 -0.22188,-0.82171 0.255807,-1.01312 0.548713,-0.21986 1.038288,0.28301 0.816281,0.83844 -0.17247,0.43148 -0.735463,0.52321 -1.072088,0.17468 z m 0.708485,-0.13566 c 0.285893,-0.27642 -0.03657,-0.7672 -0.386148,-0.58764 -0.237856,0.12218 -0.294167,0.34082 -0.134765,0.52324 0.159892,0.18297 0.371246,0.20911 0.520914,0.0645 z m 1.539697,0.14311 c -0.316094,-0.32729 -0.321689,-0.63503 -0.01655,-0.90845 0.283102,-0.25364 0.554008,-0.2546 0.82596,-0.003 0.310705,0.28747 0.34813,0.59136 0.105232,0.85448 -0.320783,0.34748 -0.616271,0.36588 -0.914659,0.057 z m 0.712904,-0.27811 c 0.209159,-0.32184 -0.355173,-0.67659 -0.587783,-0.36947 -0.167642,0.22134 0.01392,0.56573 0.28349,0.53772 0.114992,-0.0121 0.251918,-0.0878 0.304293,-0.16825 z m 24.306483,-0.0919 c -0.13639,-0.5465 0.008,-1.49499 0.19784,-1.29852 0.0748,0.0774 0.11439,1.053 0.0521,1.28415 -0.0699,0.25966 -0.1871,0.26638 -0.25001,0.0145 z m -34.690391,-1.52447 c -0.08186,-0.13773 0.03416,-0.16104 0.770642,-0.15477 0.648599,0.005 0.908904,0.0543 0.800514,0.14975 -0.08032,0.0708 -1.529313,0.0754 -1.571157,0.005 z m 2.106666,-0.0459 c 0.02722,-0.0773 0.248251,-0.10487 0.771334,-0.0959 1.008567,0.0167 0.993032,0.17952 -0.01852,0.19347 -0.616035,0.008 -0.782578,-0.0134 -0.75282,-0.0977 z m 2.13637,0.0539 c -0.06815,-0.11475 0.0603,-0.14553 0.770221,-0.18456 0.633327,-0.0348 0.949224,0.0582 0.710514,0.20923 -0.168984,0.10689 -1.414882,0.0862 -1.480734,-0.0248 z m 6.347268,-0.0607 c -0.08176,-0.13753 0.144003,-0.176 0.807735,-0.13771 0.401393,0.0232 0.630989,0.0733 0.652483,0.14215 0.04144,0.13283 -1.381201,0.12852 -1.460219,-0.004 z m 2.073581,-0.006 c 0.0018,-0.10345 0.143162,-0.12454 0.763501,-0.11392 0.620339,0.0106 0.760927,0.0365 0.759156,0.14 -0.0018,0.10343 -0.143163,0.12453 -0.763502,0.1139 -0.620339,-0.0106 -0.760925,-0.0365 -0.759155,-0.13998 z m 2.123662,0.0865 c -0.20535,-0.13512 0.165365,-0.24551 0.731817,-0.21794 0.543985,0.0265 0.669922,0.0762 0.573341,0.22683 -0.06865,0.10697 -1.140123,0.0996 -1.30516,-0.008 z m 19.920114,-0.54258 c -0.0736,-0.20199 0.0255,-1.3685 0.11425,-1.34525 0.11766,0.0309 0.13524,1.46327 0.0179,1.46127 -0.0498,-8.5e-4 -0.1093,-0.053 -0.13222,-0.11603 z m -0.007,-2.44037 c -0.0112,-0.97507 0.0344,-1.20359 0.20494,-1.02699 0.12349,0.12786 0.041,1.40345 -0.0933,1.44542 -0.0754,0.0235 -0.10788,-0.0992 -0.11154,-0.41843 z m -0.0299,-2.44164 c 0.0102,-0.54542 0.0363,-0.67667 0.13846,-0.67492 0.10221,0.002 0.12464,0.13384 0.1153,0.67928 -0.0102,0.54544 -0.0364,0.67667 -0.13847,0.67493 -0.10222,-0.002 -0.12463,-0.13384 -0.11529,-0.67929 z m 0.0212,-2.08221 c -0.008,-0.40055 0.0139,-0.7453 0.0492,-0.76614 0.16702,-0.0987 0.2305,0.12829 0.21929,0.78407 -0.0103,0.56227 -0.0379,0.71399 -0.13291,0.71236 -0.093,-0.002 -0.12408,-0.16891 -0.13558,-0.73029 z m 0.0233,-1.49349 c -0.073,-0.23252 0.0197,-1.36828 0.11341,-1.39796 0.0536,-0.0169 0.0978,7.7e-4 0.0982,0.0398 3.4e-4,0.0388 0.01,0.33599 0.0214,0.66039 0.0112,0.32438 10e-4,0.63852 -0.0231,0.69807 -0.0556,0.13785 -0.1667,0.13764 -0.21007,-2.4e-4 z m 0.01,-2.10973 c -0.0776,-0.21336 0.0176,-1.46871 0.11032,-1.44461 0.11307,0.0294 0.13418,1.38159 0.0232,1.48886 -0.0587,0.0565 -0.10216,0.042 -0.13361,-0.0443 z m 0.0412,-2.11716 c -0.0759,-0.24413 -0.0756,-1.35028 8e-4,-1.39555 0.15054,-0.0894 0.22479,0.1846 0.21561,0.79624 -0.009,0.55064 -0.12792,0.88255 -0.21609,0.59931 z m -0.0831,-2.81562 c 0.0105,-0.5886 0.0364,-0.72523 0.1393,-0.72348 0.0995,0.002 0.12745,0.13012 0.12944,0.59487 0.002,0.32596 0.005,0.63984 0.01,0.69746 0.005,0.0576 -0.0603,0.11649 -0.14185,0.13078 -0.13214,0.0232 -0.14716,-0.0543 -0.13611,-0.69964 z m 0.0364,-2.12923 c 0.0103,-0.54342 0.0389,-0.71719 0.11757,-0.68964 0.0698,0.0245 0.10943,0.26892 0.11788,0.7287 0.0103,0.57725 -0.007,0.69151 -0.11757,0.68966 -0.10724,-0.002 -0.1281,-0.13091 -0.11788,-0.72872 z m -0.0484,-2.11036 c 0.0105,-0.58305 0.0363,-0.719 0.13918,-0.71725 0.10284,0.002 0.12455,0.13853 0.11458,0.72161 -0.0105,0.58306 -0.0363,0.71901 -0.13922,0.71724 -0.10282,-0.002 -0.12453,-0.13852 -0.11454,-0.7216 z m 0.0361,-2.11594 c 0.0105,-0.58306 0.0362,-0.71901 0.13919,-0.71725 0.10285,0.002 0.12456,0.13852 0.11457,0.72159 -0.0105,0.58307 -0.0362,0.71902 -0.13919,0.71725 -0.10285,-0.002 -0.12456,-0.13853 -0.11457,-0.72159 z m 0.0821,-1.36495 c -0.0318,-0.0328 -0.0523,-0.38037 -0.0456,-0.77217 0.008,-0.53214 0.0388,-0.70305 0.11734,-0.67558 0.0678,0.0237 0.11027,0.25251 0.1196,0.64494 0.0137,0.58273 -0.0688,0.92968 -0.19138,0.80281 z m -0.05,-2.33856 c -0.11791,-0.47247 0.0154,-1.52455 0.16099,-1.27622 0.0408,0.0693 0.0749,1.00256 0.0485,1.32213 -0.0175,0.21056 -0.15287,0.18087 -0.20948,-0.0459 z m -26.869537,-2.03102 c -0.218876,-0.25047 -0.199493,-0.68985 0.0386,-0.87614 0.252283,-0.19735 0.440006,-0.18886 0.711172,0.0322 0.408738,0.33317 0.234031,0.89429 -0.302638,0.97204 -0.230105,0.0333 -0.331535,0.005 -0.447184,-0.12809 z m 26.821987,-0.1604 c -0.12001,-0.6589 8.9e-4,-1.35488 0.21237,-1.21924 0.14532,0.0932 0.10052,1.48918 -0.0477,1.48664 -0.064,-8.6e-4 -0.13807,-0.12144 -0.16466,-0.2674 z m -26.035896,-1.11371 c -0.282678,-0.23042 -0.29568,-0.60266 -0.02939,-0.84248 0.54179,-0.48795 1.316268,0.21416 0.838356,0.76004 -0.232915,0.26604 -0.544716,0.29782 -0.80893,0.0825 z m 26.072376,-0.70768 c -0.0942,-0.0974 -0.0421,-1.45452 0.058,-1.51408 0.0501,-0.0299 0.10324,-0.0406 0.11799,-0.0241 0.0147,0.0166 0.0346,0.36975 0.0443,0.78488 0.0163,0.70607 -0.0492,0.93054 -0.22036,0.75331 z m 0.0165,-2.26003 c -0.0736,-0.20198 0.0254,-1.36851 0.11425,-1.34525 0.11767,0.0309 0.13524,1.46327 0.0179,1.46126 -0.0498,-8.6e-4 -0.10929,-0.0531 -0.13219,-0.11601 z m -26.149717,-2.47234 c -0.06751,-0.0699 -0.20525,-0.1549 -0.306036,-0.18881 -0.100782,-0.0341 -0.387768,-0.3522 -0.637749,-0.7073 -0.486601,-0.69121 -1.35902,-2.41147 -1.354578,-2.67099 0.0027,-0.15094 0.360046,-0.30869 0.494175,-0.21809 0.03243,0.0218 0.297962,0.53239 0.59016,1.13448 0.292191,0.60208 0.588369,1.15282 0.658164,1.22386 0.06979,0.0711 0.192578,0.23657 0.272845,0.36784 0.186517,0.30499 0.639119,0.53432 0.923686,0.468 0.194031,-0.0452 1.086038,-0.84204 1.088266,-0.97217 4.94e-4,-0.0289 0.06885,-0.13136 0.151977,-0.2276 0.08307,-0.0964 0.235295,-0.28045 0.338245,-0.40932 0.329916,-0.41303 0.539467,-0.6345 1.39094,-1.47007 1.721443,-1.6893 3.180703,-2.48259 4.944738,-2.6881 1.591255,-0.18538 5.120334,0.22191 7.076994,0.81673 0.32408,0.0986 0.72191,0.21414 0.88407,0.25691 0.98487,0.25973 2.30517,0.76305 4.40841,1.68054 0.6732,0.29367 1.24658,0.53432 1.27416,0.5348 0.0276,4.7e-4 0.16917,0.0577 0.31463,0.12709 1.29271,0.617 2.36138,0.89542 3.36129,0.87569 0.22619,-0.006 0.23302,-0.0185 0.24118,-0.49528 l 0.008,-0.4907 -0.86541,-0.11232 c -0.47597,-0.0618 -1.13028,-0.19939 -1.45405,-0.30585 -0.70071,-0.23041 -2.05851,-0.87374 -2.05676,-0.97454 6.6e-4,-0.0391 -0.0362,-0.0716 -0.082,-0.0724 -0.0826,-0.002 -0.92659,-0.51193 -1.00626,-0.60867 -0.0228,-0.0277 -0.37956,-0.318 -0.7928,-0.64519 -0.41326,-0.32717 -0.82634,-0.66451 -0.91796,-0.74965 -0.0917,-0.0851 -0.42942,-0.37105 -0.75067,-0.6354 -0.32125,-0.26434 -0.67786,-0.56363 -0.79248,-0.66505 -0.61172,-0.54149 -1.89993,-1.49357 -2.67208,-1.9749 -1.55287,-0.96801 -2.82666,-1.50766 -4.254178,-1.8023 -2.564608,-0.52934 -4.511738,-0.16964 -5.911578,1.0922 -0.342909,0.3091 -0.92528,0.96969 -0.926674,1.05114 -0.0016,0.0961 -1.277828,2.1475 -1.508846,2.42536 -0.617062,0.74219 -1.307561,0.96645 -2.053154,0.66683 -0.31478,-0.12649 -0.445001,-0.2573 -0.790841,-0.79431 -0.227703,-0.35359 -0.41338,-0.67963 -0.412612,-0.72453 7.68e-4,-0.0449 -0.07199,-0.24061 -0.16179,-0.4349 -0.08979,-0.19429 -0.162139,-0.41466 -0.160855,-0.4897 0.0013,-0.0751 -0.03074,-0.17322 -0.07127,-0.21814 -0.04043,-0.045 -0.130627,-0.29221 -0.200345,-0.54951 -0.117373,-0.43322 -0.116169,-0.47546 0.01678,-0.57119 0.359326,-0.25964 0.482476,-0.11899 0.771275,0.881 0.306654,1.06179 0.846423,2.05811 1.248999,2.30544 0.559282,0.34362 1.181261,-0.12312 1.95549,-1.4674 0.74987,-1.302 1.1518,-1.85651 1.810072,-2.49735 0.653941,-0.63659 1.230156,-0.97034 2.18513,-1.26566 0.948277,-0.29324 2.781189,-0.34141 3.992221,-0.10487 2.375006,0.46381 4.852216,1.70667 7.033936,3.52906 0.0458,0.0383 0.25245,0.2045 0.45906,0.36927 0.2066,0.16479 0.43169,0.36205 0.50019,0.43839 0.0685,0.0761 0.2936,0.27256 0.50024,0.4361 0.20662,0.16352 0.7699,0.62378 1.25173,1.02276 2.09661,1.73608 4.08664,2.70005 5.62856,2.72644 l 0.51137,0.008 -0.0199,-0.35752 -0.0199,-0.35753 -0.75968,-0.10971 c -0.41782,-0.0603 -0.98496,-0.18093 -1.26031,-0.26793 -0.43484,-0.13738 -1.68472,-0.72917 -2.18665,-1.03535 -0.23472,-0.14317 -0.82026,-0.52833 -0.92042,-0.60544 -0.49116,-0.37807 -1.52068,-1.22518 -1.58539,-1.30446 -0.0454,-0.0559 -0.21425,-0.21259 -0.37481,-0.34833 -0.16057,-0.13572 -0.55515,-0.50419 -0.87688,-0.81878 -0.62937,-0.61546 -2.81214,-2.72938 -3.03801,-2.94223 -0.0756,-0.0711 -0.19671,-0.16844 -0.26938,-0.21626 -0.0727,-0.0479 -0.48271,-0.36608 -0.91125,-0.7073 -1.16199,-0.92522 -2.1569,-1.53304 -3.489007,-2.13156 -1.273862,-0.57235 -3.038762,-0.77857 -4.182119,-0.48866 -1.467604,0.3721 -2.595886,1.20465 -3.654464,2.6966 -0.162503,0.22902 -0.345724,0.46591 -0.407138,0.52638 -0.06144,0.0604 -0.112376,0.15075 -0.113229,0.2006 -8.55e-4,0.0499 -0.178524,0.29085 -0.394823,0.53555 -0.292037,0.33041 -0.484557,0.46786 -0.747908,0.534 -0.779655,0.19581 -1.308615,-0.0764 -1.932266,-0.9944 -0.429444,-0.63214 -0.877998,-1.47671 -0.87507,-1.64766 0.0011,-0.067 -0.03221,-0.12233 -0.0742,-0.12305 -0.042,-7.2e-4 -0.114092,-0.116 -0.160269,-0.25621 -0.0714,-0.21681 -0.05993,-0.26721 0.07659,-0.33734 0.343055,-0.17621 0.458846,-0.0841 0.794026,0.63166 0.574103,1.22602 1.196274,2.05987 1.599899,2.14424 0.440309,0.0922 0.801861,-0.2345 1.698248,-1.53387 0.587469,-0.85156 1.843322,-2.15692 2.071379,-2.15301 0.06299,8.5e-4 0.11515,-0.03 0.115818,-0.069 0.0016,-0.0912 0.749266,-0.4416 1.453944,-0.68142 0.489955,-0.16676 0.695842,-0.18414 1.902818,-0.1607 1.119015,0.0221 1.470436,0.0601 2.029066,0.22215 0.620901,0.18 1.582997,0.56013 2.038005,0.80521 0.10272,0.0555 0.26739,0.14368 0.36594,0.1963 0.53728,0.28693 1.95662,1.2312 2.08014,1.3839 0.0228,0.0283 0.1207,0.1075 0.21757,0.17631 0.22406,0.15914 1.01219,0.84227 1.26466,1.09619 0.10598,0.10659 0.21032,0.1941 0.23187,0.19447 0.0504,8.5e-4 0.43248,0.35092 1.0359,0.94901 1.25927,1.24817 2.08819,2.02908 3.24864,3.06055 0.25214,0.22409 0.57698,0.51972 0.72187,0.65693 0.1449,0.13723 0.29168,0.24996 0.32619,0.25057 0.0345,5.8e-4 0.18588,0.0984 0.33639,0.2174 0.15051,0.11899 0.31425,0.21704 0.36389,0.2179 0.0496,8.4e-4 0.0896,0.0397 0.0887,0.0862 -8e-4,0.0466 0.0529,0.0856 0.11939,0.0867 0.0665,8.4e-4 0.17033,0.0505 0.23081,0.10979 0.17161,0.16806 1.32234,0.73587 1.78903,0.88276 1.03687,0.32633 1.17337,0.3458 1.93207,0.27551 0.77903,-0.0723 1.60331,-0.38589 2.26662,-0.86264 0.16485,-0.11849 0.72377,-0.51784 1.24202,-0.88746 0.51825,-0.36962 1.05825,-0.77377 1.20001,-0.89812 0.14174,-0.12433 0.52795,-0.44288 0.85828,-0.7079 0.33031,-0.265 0.79396,-0.6583 1.03035,-0.874 0.23639,-0.21568 0.53775,-0.47382 0.66971,-0.57363 0.2301,-0.17403 0.24659,-0.17521 0.40243,-0.0292 0.0895,0.0838 0.16173,0.19836 0.16075,0.25466 -8.7e-4,0.0563 -0.33607,0.39707 -0.74469,0.75725 -0.40861,0.3602 -0.80497,0.71533 -0.88081,0.78921 -0.29407,0.28638 -1.55,1.23375 -1.63373,1.23231 -0.0486,-8.3e-4 -0.0888,0.0322 -0.0896,0.0736 -0.002,0.0936 -1.35988,1.08685 -2.2561,1.64983 -0.36832,0.23137 -0.93457,0.50105 -1.25835,0.59931 l -0.58872,0.17864 -0.008,0.41559 c -0.005,0.34541 0.0158,0.40723 0.12852,0.36614 0.0746,-0.0272 0.23715,-0.0697 0.36124,-0.0944 0.42393,-0.0847 1.40902,-0.46764 1.54668,-0.60149 0.0236,-0.0229 0.27051,-0.19023 0.54854,-0.3716 1.57305,-1.02613 1.86455,-1.24021 3.26678,-2.39908 0.98628,-0.8151 1.0882,-0.85451 1.24957,-0.48345 0.0752,0.17289 0.0695,0.23777 -0.0286,0.32275 -1.04756,0.90884 -2.73311,2.2055 -3.88317,2.98724 -0.86099,0.58524 -1.80235,1.0145 -2.54911,1.16236 l -0.658,0.1303 -0.008,0.5231 -0.008,0.5231 0.40292,-0.0578 c 0.54432,-0.0782 0.78672,-0.16388 1.80906,-0.63977 0.82659,-0.38475 1.68834,-0.93767 2.64203,-1.69518 0.54551,-0.43329 1.01718,-0.81438 1.21148,-0.97884 0.63914,-0.54097 1.10943,-0.88274 1.21224,-0.88099 0.15333,0.003 0.33037,0.30525 0.26847,0.4588 -0.0268,0.0667 -0.1671,0.20874 -0.31148,0.31551 -0.28273,0.20904 -0.47942,0.36959 -0.8836,0.72116 -0.33586,0.29215 -1.22801,0.99962 -1.54896,1.22832 -0.13864,0.0988 -0.46308,0.33136 -0.72096,0.5168 -0.25789,0.18546 -0.5175,0.33636 -0.5769,0.33534 -0.0594,-8.6e-4 -0.10859,0.0316 -0.1093,0.0726 -0.003,0.1177 -1.73075,0.90582 -2.36568,1.0785 -0.78114,0.21246 -2.04684,0.26363 -2.78233,0.11251 -0.54566,-0.11215 -1.81357,-0.56661 -2.76704,-0.99182 -0.23093,-0.10296 -0.53326,-0.23689 -0.67183,-0.29756 -0.13859,-0.0607 -0.53539,-0.23639 -0.8818,-0.39048 -1.87972,-0.83614 -4.58532,-1.74692 -5.93129,-1.99667 -0.0928,-0.0172 -0.22539,-0.0553 -0.29471,-0.0842 -0.36779,-0.15448 -2.950305,-0.44905 -4.0959,-0.4672 -1.590805,-0.0249 -2.318245,0.11246 -3.395656,0.64265 -0.35482,0.1746 -1.228839,0.72505 -1.518802,0.95651 -0.348847,0.27847 -1.496642,1.40667 -1.810867,1.77996 -0.180363,0.21425 -0.374569,0.43738 -0.431568,0.49583 -0.05701,0.0583 -0.259165,0.29372 -0.449242,0.52282 -0.19008,0.22912 -0.561734,0.63811 -0.825904,0.90886 -0.453879,0.46523 -0.5059,0.49401 -0.945628,0.5229 -0.33826,0.0222 -0.498848,-0.004 -0.588123,-0.0966 z m 26.117777,-6.0395 c -0.0339,-0.13962 -0.15066,-0.16675 -0.94028,-0.21864 -0.97017,-0.0638 -1.30029,-0.16782 -2.16012,-0.68102 -0.51511,-0.30747 -1.14911,-0.78304 -1.19745,-0.89828 -0.015,-0.0356 -0.066,-0.0652 -0.11341,-0.0659 -0.0475,-8.1e-4 -0.31698,-0.19826 -0.5989,-0.43877 -0.47642,-0.40639 -0.71971,-0.62671 -2.08605,-1.88905 -0.27999,-0.25869 -2.21146,-2.23476 -4.29214,-4.39128 -3.858443,-3.99909 -4.556069,-4.700666 -5.656544,-5.688601 -0.343699,-0.308551 -0.63711,-0.589786 -0.65202,-0.624966 -0.01489,-0.03519 -0.0744,-0.06476 -0.132203,-0.06577 -0.05779,-9.67e-4 -0.195695,-0.101932 -0.306426,-0.224326 -0.27545,-0.304465 -1.333703,-0.831011 -1.789327,-0.890308 -0.405794,-0.05281 -0.454914,-0.0282 -1.003701,0.503342 -0.319726,0.309674 -0.968746,1.465867 -1.466234,2.612039 -0.245725,0.566126 -1.261233,2.49851 -1.397132,2.65856 -0.04911,0.0579 -0.190588,0.22731 -0.31432,0.37654 -0.123741,0.14921 -0.278698,0.27038 -0.344357,0.26925 -0.06569,-8.5e-4 -0.120005,0.0354 -0.120787,0.0811 -7.84e-4,0.0458 -0.192128,0.17584 -0.425219,0.28905 -0.629343,0.30566 -1.463116,0.27998 -1.914131,-0.059 -0.826097,-0.62081 -1.295896,-1.70123 -1.823826,-4.194433 -0.08522,-0.402507 -0.292577,-1.198858 -0.359494,-1.380747 -0.04042,-0.109929 0.0059,-0.169816 0.181767,-0.233167 0.129912,-0.0469 0.278836,-0.06804 0.330933,-0.047 0.05215,0.02104 0.227857,0.625651 0.390554,1.343585 0.162688,0.71793 0.330468,1.37208 0.372828,1.453663 0.04241,0.08158 0.07605,0.196452 0.07474,0.255267 -0.0045,0.211586 0.517065,1.477762 0.75006,1.820812 0.234739,0.3456 0.677826,0.63883 0.972953,0.64389 0.364861,0.005 0.944277,-0.26998 1.34875,-0.64294 0.306227,-0.28241 0.568224,-0.65562 0.89378,-1.273254 0.253311,-0.480562 0.488798,-0.911366 0.523311,-0.957343 0.03449,-0.04598 0.164482,-0.329485 0.288824,-0.630028 0.422591,-1.021413 1.063486,-2.224016 1.415564,-2.656194 0.218961,-0.268783 0.520574,-0.514756 0.801838,-0.65392 0.39366,-0.194779 0.516681,-0.215959 0.97,-0.166997 0.795156,0.08588 1.743331,0.631293 2.633808,1.51501 0.102544,0.10176 0.221846,0.199053 0.26512,0.216197 0.363159,0.143874 3.368281,3.166233 7.626141,7.669899 1.09345,1.15656 1.55578,1.61714 3.00991,2.99841 0.27858,0.26463 1.2511,1.1292 1.73551,1.54287 0.0918,0.0784 0.29844,0.23756 0.45933,0.35383 0.16091,0.11626 0.31112,0.2382 0.33383,0.27096 0.11061,0.15953 1.43084,0.93717 1.8011,1.06087 0.57868,0.19332 1.17332,0.27476 1.56879,0.21486 0.29755,-0.0452 0.3327,-0.0762 0.33647,-0.29681 0.005,-0.29008 0.21545,-0.33633 0.28216,-0.062 0.0387,0.15876 0.0828,0.17386 0.36714,0.1255 0.17779,-0.0302 0.34282,-0.0798 0.36671,-0.10996 0.0239,-0.0302 0.23148,-0.14575 0.46129,-0.25669 0.68332,-0.32988 2.02719,-1.36697 4.08189,-3.15008 1.41553,-1.22842 1.84387,-1.57707 1.9356,-1.57551 0.0528,8.8e-4 0.16264,0.0781 0.2442,0.17134 0.13885,0.1589 0.13914,0.18314 0.006,0.38108 -0.0789,0.11625 -0.17131,0.21106 -0.20513,0.21069 -0.0338,-3.4e-4 -0.17856,0.10193 -0.32161,0.22733 -0.14306,0.12539 -0.58636,0.50813 -0.98513,0.85053 -0.39875,0.34242 -0.78602,0.67868 -0.86055,0.74724 -0.0746,0.0685 -0.38285,0.32999 -0.6851,0.58093 -1.7076,1.41762 -1.58725,1.32332 -2.2221,1.74116 -0.49773,0.32759 -1.86666,0.98273 -2.04696,0.97965 -0.0919,-0.002 -0.12837,0.10796 -0.10501,0.31569 0.0192,0.17065 -0.2613,0.117 -0.30388,-0.0582 z m 0.003,-2.58345 c -0.0206,-0.7549 0.006,-0.89818 0.16293,-0.89549 0.0956,0.002 0.11796,0.16053 0.10764,0.76383 -0.0105,0.60184 -0.0382,0.7613 -0.13323,0.75967 -0.0905,-0.002 -0.12445,-0.15661 -0.13734,-0.62801 z m -38.989146,44.23711 c -0.136501,-0.1226 -0.201127,-0.29285 -0.224683,-0.59191 -0.04215,-0.53482 0.02211,-0.76608 0.290344,-1.04597 0.172351,-0.17979 0.262037,-0.21265 0.449091,-0.16454 0.338379,0.0871 0.430673,0.18759 0.52781,0.5748 0.110452,0.44031 0.0179,0.99924 -0.203623,1.22907 -0.216619,0.2248 -0.587751,0.22416 -0.838933,-10e-4 z m 0.709176,-0.40149 c 0.04358,-0.20318 0.05035,-0.54597 0.01502,-0.76171 -0.05108,-0.3108 -0.102567,-0.39839 -0.248049,-0.42173 -0.286067,-0.0458 -0.390724,0.23474 -0.333513,0.89426 0.05864,0.67579 0.07454,0.71106 0.306972,0.68154 0.138592,-0.0176 0.198827,-0.1086 0.259733,-0.39235 z m -0.607315,-17.62156 c -0.02509,-0.0422 0.01177,-0.0973 0.08172,-0.12294 0.199754,-0.0728 0.203832,-1.3879 0.0048,-1.54452 -0.139146,-0.10951 -0.139053,-0.11499 0.0019,-0.11513 0.08142,-1.3e-4 0.148736,-0.0381 0.149532,-0.0847 0.0017,-0.097 0.254439,-0.11346 0.256734,-0.0167 0.02241,0.94668 0.08227,1.69134 0.141844,1.76573 0.04181,0.0523 0.05065,0.11963 0.01944,0.14972 -0.08451,0.0818 -0.603634,0.057 -0.656081,-0.0313 z m -0.240477,-18.6601 c 0.649288,-0.75511 0.781349,-0.958 0.785609,-1.20691 0.0055,-0.33118 -0.234312,-0.4483 -0.521281,-0.25443 -0.269719,0.1822 -0.334414,0.15916 -0.221086,-0.0787 0.20697,-0.43464 0.948958,-0.42702 1.050845,0.0114 0.07109,0.30542 -0.0166,0.56109 -0.316912,0.92645 -0.143659,0.17465 -0.261696,0.34638 -0.262298,0.38163 -6.02e-4,0.0352 0.140096,0.0347 0.312657,-6.9e-4 0.381801,-0.0792 0.477762,-0.0299 0.358387,0.18432 -0.07645,0.13718 -0.183363,0.16106 -0.683108,0.1525 -0.464474,-0.008 -0.573126,-0.0327 -0.502825,-0.11444 z m 0.07667,-18.46296 c -0.137188,-0.171275 -0.02008,-0.229432 0.335167,-0.166356 0.262331,0.04659 0.332697,0.02695 0.411725,-0.114896 0.124007,-0.222592 0.043,-0.432084 -0.205603,-0.531548 -0.242823,-0.09717 -0.254021,-0.224167 -0.0258,-0.292373 0.208757,-0.06237 0.236638,-0.420364 0.03897,-0.500173 -0.07579,-0.03062 -0.228702,0.0016 -0.339688,0.07175 -0.110996,0.07008 -0.201185,0.09155 -0.200436,0.04775 0.0029,-0.171544 0.114021,-0.345577 0.219425,-0.343773 0.06089,0.0011 0.124545,-0.03717 0.141364,-0.08491 0.02061,-0.05861 0.119244,-0.05417 0.303491,0.01369 0.298771,0.109981 0.422914,0.396655 0.278908,0.644078 -0.06143,0.105556 -0.0505,0.204369 0.0383,0.345065 0.170869,0.270924 0.06736,0.733513 -0.202196,0.903713 -0.254162,0.160475 -0.668125,0.164662 -0.793584,0.008 z"
       id="path2"
       sodipodi:nodetypes="sssssssssssssssssssssscsssssscsssssssssssscscsccsscssscssssscssssssssccsssssssssssscsssssssssssssssssssssssscssssscsssssssssssssssssscccssssssssscssssssssssssscscsssssscssscsssssssssssssssssssssscsssssssssssssssssssscssssssssssssssssssssssssssscssssssssssssssssscssssssssssssssssssssssssssssscsssssssssssssssssssssscsssssssssssssssssssssssssssssssssssssssssssssssssscssssssssssssssscssssssssssssssssssssssssssssscsssssssssssssscssssssssccssscccsssccsscsssssssssssssssssssssssssssssssssssssssssscsscscsssssssssssssssssssssssssssssssssscccsssssssssssssssssssssssssssscsssssssssssssssssssssssssssssssscsssssssssscccssssssssssssssssssscsssssssssssssssscssssssssssssssssssssssssssssssssssssssssssssssssssssssssssssssssssssssssssssssssssssssssssssssssssssssssssssssssccsscsssssscssscsssssssssssssccccccsccccccccccccccccccccc" />
    <text
       xml:space="preserve"
       style="font-weight:bold;font-size:4.23333px;line-height:normal;font-family:'Segoe Script';-inkscape-font-specification:'Segoe Script Bold';text-align:center;text-decoration-color:#000000;writing-mode:lr-tb;direction:ltr;text-anchor:middle;fill:#000000;stroke-width:0.529"
       x="-132.35867"
       y="74.362808"
       id="text1"
       transform="rotate(-90)"><tspan
         sodipodi:role="line"
         id="tspan1"
         style="font-size:4.23333px;stroke-width:0.529"
         x="-132.35867"
         y="74.362808">Energy (eV)</tspan></text>
    <text
       xml:space="preserve"
       style="font-weight:bold;font-size:2.82222px;line-height:normal;font-family:'Segoe Script';-inkscape-font-specification:'Segoe Script Bold';text-align:center;text-decoration-color:#000000;writing-mode:lr-tb;direction:ltr;text-anchor:middle;fill:#000000;stroke-width:0.529"
       x="103.16348"
       y="126.86459"
       id="text2"><tspan
         sodipodi:role="line"
         style="font-size:2.82222px;stroke-width:0.529"
         x="103.16348"
         y="126.86459"
         id="tspan3">Conduction</tspan><tspan
         sodipodi:role="line"
         style="font-size:2.82222px;stroke-width:0.529"
         x="103.16348"
         y="130.39236"
         id="tspan4">band</tspan></text>
    <text
       xml:space="preserve"
       style="font-weight:bold;font-size:2.82222px;line-height:normal;font-family:'Segoe Script';-inkscape-font-specification:'Segoe Script Bold';text-align:center;text-decoration-color:#000000;writing-mode:lr-tb;direction:ltr;text-anchor:middle;fill:#000000;stroke-width:0.529"
       x="105.56942"
       y="152.608"
       id="text5"><tspan
         sodipodi:role="line"
         id="tspan5"
         style="font-size:2.82222px;stroke-width:0.529"
         x="105.56942"
         y="152.608">Valence</tspan><tspan
         sodipodi:role="line"
         style="font-size:2.82222px;stroke-width:0.529"
         x="105.56942"
         y="156.13577"
         id="tspan6">band</tspan></text>
    <text
       xml:space="preserve"
       style="font-weight:bold;font-size:4.23333px;line-height:normal;font-family:'Segoe Script';-inkscape-font-specification:'Segoe Script Bold';text-align:center;text-decoration-color:#000000;writing-mode:lr-tb;direction:ltr;text-anchor:middle;fill:#000000;stroke-width:0.529"
       x="100.16945"
       y="167.63368"
       id="text7"><tspan
         sodipodi:role="line"
         id="tspan7"
         style="font-size:4.23333px;stroke-width:0.529"
         x="100.16945"
         y="167.63368">Wavevector (k)</tspan></text>
    <text
       xml:space="preserve"
       style="font-weight:bold;font-size:2.82222222px;line-height:normal;font-family:'Segoe Script';-inkscape-font-specification:'Segoe Script Bold';text-align:center;text-decoration-color:#000000;writing-mode:lr-tb;direction:ltr;text-anchor:middle;fill:#000000;stroke-width:0.529"
       x="115.12773"
       y="163.02602"
       id="text8"><tspan
         sodipodi:role="line"
         id="tspan8"
         style="stroke-width:0.529;font-size:2.82222222px"
         x="115.12773"
         y="163.02602">k<tspan
   style="baseline-shift:sub;font-size:2.82222222px"
   id="tspan9">max</tspan></tspan></text>
    <text
       xml:space="preserve"
       style="font-weight:bold;font-size:2.11667px;line-height:normal;font-family:'Segoe Script';-inkscape-font-specification:'Segoe Script Bold';text-align:center;text-decoration-color:#000000;writing-mode:lr-tb;direction:ltr;text-anchor:middle;fill:#000000;stroke-width:0.529"
       x="83.556892"
       y="122.96163"
       id="text10"><tspan
         sodipodi:role="line"
         id="tspan10"
         style="stroke-width:0.529"
         x="83.556892"
         y="122.96163">0</tspan></text>
    <text
       xml:space="preserve"
       style="font-weight:bold;font-size:2.11667px;line-height:normal;font-family:'Segoe Script';-inkscape-font-specification:'Segoe Script Bold';text-align:center;text-decoration-color:#000000;writing-mode:lr-tb;direction:ltr;text-anchor:middle;fill:#000000;stroke-width:0.529"
       x="83.027725"
       y="113.43664"
       id="text10-2"><tspan
         sodipodi:role="line"
         id="tspan10-9"
         style="stroke-width:0.529"
         x="83.027725"
         y="113.43664">0.4</tspan></text>
    <text
       xml:space="preserve"
       style="font-weight:bold;font-size:2.11667px;line-height:normal;font-family:'Segoe Script';-inkscape-font-specification:'Segoe Script Bold';text-align:center;text-decoration-color:#000000;writing-mode:lr-tb;direction:ltr;text-anchor:middle;fill:#000000;stroke-width:0.529"
       x="83.556892"
       y="107.08662"
       id="text10-8"><tspan
         sodipodi:role="line"
         id="tspan10-4"
         style="stroke-width:0.529"
         x="83.556892"
         y="107.08662">0.65</tspan></text>
    <text
       xml:space="preserve"
       style="font-weight:bold;font-size:2.11667px;line-height:normal;font-family:'Segoe Script';-inkscape-font-specification:'Segoe Script Bold';text-align:center;text-decoration-color:#000000;writing-mode:lr-tb;direction:ltr;text-anchor:middle;fill:#000000;stroke-width:0.529"
       x="83.507538"
       y="103.00821"
       id="text10-6"><tspan
         sodipodi:role="line"
         id="tspan10-1"
         style="stroke-width:0.529"
         x="83.507538"
         y="103.00821">0.85</tspan></text>
    <text
       xml:space="preserve"
       style="font-weight:bold;font-size:2.11667px;line-height:normal;font-family:'Segoe Script';-inkscape-font-specification:'Segoe Script Bold';text-align:center;text-decoration-color:#000000;writing-mode:lr-tb;direction:ltr;text-anchor:middle;fill:#000000;stroke-width:0.529"
       x="81.517181"
       y="95.518867"
       id="text11"><tspan
         sodipodi:role="line"
         id="tspan11"
         style="stroke-width:0.529"
         x="81.517181"
         y="95.518867">x=1.0</tspan></text>
    <text
       xml:space="preserve"
       style="font-weight:bold;font-size:4.23333px;line-height:normal;font-family:'Segoe Script';-inkscape-font-specification:'Segoe Script Bold';text-align:center;text-decoration-color:#000000;writing-mode:lr-tb;direction:ltr;text-anchor:middle;fill:#000000;stroke-width:0.529"
       x="106.37138"
       y="143.49222"
       id="text12"><tspan
         sodipodi:role="line"
         id="tspan12"
         style="font-size:4.23333px;stroke-width:0.529"
         x="106.37138"
         y="143.49222">hν</tspan></text>
  </g>
</svg>
