<?xml version="1.0" encoding="UTF-8" standalone="no"?>
<!-- Created with Inkscape (http://www.inkscape.org/) -->

<svg
   width="51.462097mm"
   height="64.985168mm"
   viewBox="0 0 51.462098 64.985168"
   version="1.1"
   id="svg1"
   inkscape:version="1.4.2 (f4327f4, 2025-05-13)"
   sodipodi:docname="oe_led_gaalas_bandgap.svg"
   inkscape:export-filename="oe_led_gaalas_bandgap.pdf"
   inkscape:export-xdpi="96"
   inkscape:export-ydpi="96"
   xmlns:inkscape="http://www.inkscape.org/namespaces/inkscape"
   xmlns:sodipodi="http://sodipodi.sourceforge.net/DTD/sodipodi-0.dtd"
   xmlns="http://www.w3.org/2000/svg"
   xmlns:svg="http://www.w3.org/2000/svg">
  <sodipodi:namedview
     id="namedview1"
     pagecolor="#ffffff"
     bordercolor="#000000"
     borderopacity="0.25"
     inkscape:showpageshadow="2"
     inkscape:pageopacity="0.0"
     inkscape:pagecheckerboard="0"
     inkscape:deskcolor="#d1d1d1"
     inkscape:document-units="mm"
     inkscape:zoom="2.0000001"
     inkscape:cx="36.249999"
     inkscape:cy="132.75"
     inkscape:window-width="1366"
     inkscape:window-height="705"
     inkscape:window-x="-8"
     inkscape:window-y="-8"
     inkscape:window-maximized="1"
     inkscape:current-layer="layer1" />
  <defs
     id="defs1">
    <inkscape:path-effect
       effect="bspline"
       id="path-effect2"
       is_visible="true"
       lpeversion="1.3"
       weight="33.333333"
       steps="2"
       helper_size="0"
       apply_no_weight="true"
       apply_with_weight="true"
       only_selected="false"
       uniform="false" />
  </defs>
  <g
     inkscape:label="Layer 1"
     inkscape:groupmode="layer"
     id="layer1"
     transform="translate(-81.860839,-91.087737)">
    <path
       d="m 90.604208,150.59245 c -0.414721,-0.45475 -0.2468,-1.66861 0.246934,-1.785 0.569443,-0.13446 0.920879,0.33883 0.843205,1.13524 -0.05185,0.53167 -0.315244,0.87202 -0.670839,0.86685 -0.12969,-0.002 -0.306551,-0.0934 -0.4193,-0.21709 z m 0.66164,-0.20941 c 0.161388,-0.29251 0.112341,-1.19637 -0.07543,-1.38976 -0.140289,-0.1445 -0.152305,-0.14425 -0.267024,0.005 -0.205965,0.26872 -0.26913,1.0206 -0.114115,1.35838 0.149591,0.32599 0.286727,0.33377 0.456567,0.0259 z m 18.396682,0.2286 c -0.3956,-0.28591 -0.44104,-1.33857 -0.0743,-1.72114 0.0991,-0.10341 0.27519,-0.17773 0.41623,-0.17563 0.43538,0.006 0.67381,0.4049 0.66357,1.10924 -0.0102,0.71376 -0.53694,1.12619 -1.0055,0.78758 z m 0.47836,-0.1093 c 0.13939,-0.0855 0.23456,-0.80092 0.16225,-1.22001 -0.0568,-0.32914 -0.26703,-0.46444 -0.44816,-0.28841 -0.14883,0.14464 -0.18276,1.13776 -0.0478,1.39912 0.10355,0.20061 0.15662,0.21796 0.33372,0.1093 z m 0.77045,0.0458 c 0.002,-0.15518 0.0481,-0.21092 0.17225,-0.20914 0.20578,0.004 0.22961,0.29901 0.0301,0.37234 -0.19851,0.073 -0.20559,0.0672 -0.20225,-0.16321 z m 0.61941,0.088 c -0.0695,-0.18959 0.11466,-0.35414 0.24556,-0.21933 0.055,0.0567 0.18586,0.10431 0.29076,0.10582 0.15272,0.002 0.20314,-0.0595 0.25356,-0.30737 0.0528,-0.26043 0.0324,-0.33535 -0.12524,-0.46755 -0.10364,-0.0866 -0.26162,-0.15837 -0.35097,-0.15967 -0.23297,-0.004 -0.27835,-0.21506 -0.11655,-0.54377 0.12014,-0.24406 0.18987,-0.28867 0.48881,-0.31284 0.24339,-0.0196 0.36178,0.008 0.39205,0.0901 0.0554,0.15108 -0.13017,0.26491 -0.42762,0.26223 -0.31916,-0.003 -0.29357,0.11094 0.054,0.24271 0.32676,0.1236 0.50992,0.52461 0.41038,0.89838 -0.10995,0.4128 -0.99451,0.73922 -1.1148,0.4114 z m 18.32709,-0.003 c -0.003,-0.0349 0.005,-0.40256 0.0169,-0.81687 0.0158,-0.53916 -0.009,-0.77417 -0.0882,-0.82673 -0.0891,-0.0594 -0.0856,-0.089 0.018,-0.15491 0.0704,-0.0448 0.19475,-0.0811 0.27617,-0.0807 0.13116,0.001 0.14667,0.0969 0.1358,0.8423 -0.008,0.55667 0.0213,0.86285 0.087,0.90478 0.0682,0.0436 0.0478,0.0828 -0.0653,0.1251 -0.21898,0.0821 -0.37502,0.0854 -0.38082,0.007 z m 1.11035,-0.002 c -0.14172,-0.0905 -0.0495,-0.34231 0.12443,-0.33979 0.0719,0.001 0.12848,0.075 0.12714,0.16617 -0.002,0.20159 -0.10146,0.26954 -0.25159,0.17363 z m 0.67511,-0.2683 c -0.27391,-0.46452 -0.15761,-1.40321 0.19651,-1.58629 0.5211,-0.26935 0.9245,0.14101 0.91361,0.92935 -0.004,0.24672 -0.066,0.56013 -0.13889,0.69643 -0.11329,0.21161 -0.18202,0.24712 -0.47015,0.24295 -0.28991,-0.004 -0.36049,-0.0439 -0.50108,-0.28244 z m 0.6607,0.0138 c 0.13216,-0.12845 0.14847,-1.08989 0.023,-1.37563 -0.0522,-0.11935 -0.16064,-0.21796 -0.24078,-0.21913 -0.17855,-0.002 -0.25121,0.23291 -0.26007,0.84281 -0.004,0.25605 0.015,0.55157 0.0414,0.65673 0.0523,0.2074 0.27139,0.25523 0.43605,0.0953 z M 90.92434,145.8888 c 0.01438,-1.04231 0.02405,-4.2 0.02162,-7.0171 -0.0025,-2.81707 -0.001,-6.81721 0.0033,-8.8892 0.0088,-4.26944 0.0029,-7.908 -0.01756,-10.87899 -0.0077,-1.11763 -0.0086,-4.90827 -0.0021,-8.42365 0.0065,-3.5154 0.0092,-7.62982 0.0059,-9.14314 -0.0032,-1.51334 -0.0072,-4.037309 -0.0088,-5.608824 l -0.0029,-2.857301 0.448101,0.0055 c 0.541807,0.0065 8.593511,-0.01576 12.125259,-0.0336 1.39621,-0.007 5.69902,-0.02295 9.56178,-0.03534 3.86278,-0.01238 8.88907,-0.03198 11.16954,-0.04352 5.46501,-0.02767 6.89173,-0.01902 6.95115,0.04215 0.0767,0.07905 0.0839,0.978676 0.0542,6.74597 -0.0155,2.956495 -0.0162,7.051895 -0.003,9.100845 0.014,2.04897 0.0153,5.82057 0.003,8.38135 -0.0116,2.56077 -0.0135,5.36085 -0.003,6.22242 0.0103,0.86157 0.0112,3.41407 0.002,5.67223 -0.009,2.25815 -0.0113,5.03919 -0.005,6.18006 0.006,1.14088 0.007,3.82673 0.003,5.96854 -0.005,2.14182 -0.01,4.45263 -0.0106,5.13513 l -0.002,1.24088 -0.88897,0.036 c -0.48892,0.0197 -2.52619,0.0333 -4.52723,0.0301 -3.66174,-0.006 -5.83854,-0.003 -10.28071,0.0157 -1.32639,0.005 -3.72523,0.01 -5.33076,0.01 -3.37307,-5.7e-4 -7.50447,0.0212 -8.54658,0.0447 -0.39571,0.009 -2.975355,0.0114 -5.732596,0.005 l -5.013162,-0.0109 z m 3.876145,1.58654 c 0.106115,-0.0548 0.166202,-0.17471 0.168548,-0.3362 0.0052,-0.35722 0.14251,-0.30895 0.197231,0.0693 l 0.04603,0.31812 1.758169,0.002 c 0.966993,9.4e-4 1.799884,-0.0121 1.850876,-0.0287 0.05276,-0.0174 0.07733,-0.14753 0.05702,-0.30152 -0.03032,-0.22992 -0.01194,-0.26539 0.122697,-0.23584 0.113968,0.025 0.151084,0.0964 0.132339,0.25458 -0.03595,0.3034 0.06204,0.31688 2.049455,0.28153 l 1.69272,-0.0302 0.0305,-0.27469 c 0.0182,-0.1637 0.0775,-0.27401 0.14669,-0.27303 0.0692,0.001 0.12526,0.11301 0.13867,0.27718 l 0.0225,0.27546 0.80372,0.007 c 0.44208,0.003 1.27018,0.006 1.84026,0.005 l 1.03653,-5.7e-4 0.004,-0.29624 c 0.004,-0.23985 0.0366,-0.29579 0.17349,-0.29379 0.13824,0.002 0.16839,0.0588 0.16475,0.31067 l -0.004,0.30826 1.84073,-0.0262 c 1.01237,-0.0144 1.85022,-0.0267 1.86188,-0.0273 0.0115,-8.3e-4 0.0253,-0.28555 0.0303,-0.63322 0.008,-0.52716 0.0301,-0.62376 0.13535,-0.5816 0.0953,0.0382 0.12412,0.19384 0.11764,0.63724 l -0.008,0.58669 1.58634,0.0106 c 1.99625,0.0135 2.12656,-0.003 2.10193,-0.26204 -0.0108,-0.10851 0.0108,-0.24267 0.0456,-0.29812 0.10381,-0.16274 0.25101,-0.002 0.24706,0.26884 l -0.004,0.2506 1.84027,0.004 1.84028,0.004 0.0463,-0.27779 c 0.061,-0.36504 0.18838,-0.38063 0.27294,-0.0334 l 0.0681,0.2777 1.83442,0.004 1.83442,0.003 0.007,-0.24641 c 0.004,-0.13553 0.0544,-0.2618 0.11286,-0.28057 0.0695,-0.0227 0.10502,0.0545 0.10251,0.22185 -0.002,0.14076 0.0376,0.28242 0.0887,0.31458 0.0506,0.0324 0.90508,0.0429 1.89888,0.0238 l 1.80693,-0.0354 0.0299,-0.28842 c 0.0399,-0.38425 0.19325,-0.36665 0.2216,0.0254 l 0.0224,0.3114 1.86453,-0.0226 c 1.02549,-0.0125 1.87285,-0.0346 1.88303,-0.0491 0.0102,-0.0145 0.008,-0.47419 -0.003,-1.02147 l -0.0214,-0.99506 -0.63569,-0.01 c -0.55546,-0.008 -0.62216,-0.025 -0.52854,-0.13467 0.0749,-0.0876 0.27064,-0.12308 0.64974,-0.1175 l 0.54259,0.008 -0.012,-0.82559 c -0.0119,-0.80996 -0.0162,-0.82615 -0.2238,-0.8539 -0.11612,-0.0155 -0.26688,-0.0483 -0.33503,-0.0728 -0.1091,-0.0392 -0.10888,-0.0538 0.002,-0.12154 0.0691,-0.0423 0.23173,-0.076 0.36139,-0.0749 l 0.23567,0.002 -0.005,-0.80005 -0.005,-0.80002 -0.29672,-0.0299 c -0.40788,-0.041 -0.459,-0.24376 -0.06,-0.23797 l 0.30314,0.004 0.0121,-0.84107 0.0121,-0.84104 -0.26805,-0.0303 c -0.36779,-0.0418 -0.40413,-0.22552 -0.0505,-0.25435 l 0.28046,-0.0229 0.0361,-0.81963 0.0361,-0.81959 -0.30047,-0.0309 c -0.37828,-0.0389 -0.4259,-0.19334 -0.0687,-0.22276 0.15082,-0.0124 0.292,-0.082 0.32279,-0.15862 0.0301,-0.0751 0.0336,-0.45387 0.008,-0.84165 l -0.0469,-0.70507 -0.58053,-0.008 c -0.45187,-0.006 -0.58013,-0.0357 -0.57876,-0.13169 10e-4,-0.0943 0.14601,-0.12699 0.61548,-0.13917 l 0.61368,-0.0159 0.0119,-0.8041 0.0119,-0.80411 -0.31684,-0.0309 c -0.42444,-0.0414 -0.43944,-0.27642 -0.0171,-0.27028 l 0.29606,0.004 0.0121,-0.8413 0.0121,-0.8413 -0.29745,-0.0307 c -0.16362,-0.0168 -0.29692,-0.0688 -0.29625,-0.11524 6.7e-4,-0.0466 0.13543,-0.0945 0.29947,-0.10655 l 0.29822,-0.0219 0.0117,-0.80163 c 0.008,-0.56753 -0.0191,-0.81162 -0.0936,-0.83579 -0.058,-0.0187 -0.21117,-0.0589 -0.34061,-0.0895 -0.29626,-0.0695 -0.21436,-0.21934 0.11733,-0.21452 l 0.24879,0.004 0.0122,-0.84641 0.0122,-0.84641 -0.24344,-0.004 c -0.13385,-0.002 -0.28997,-0.0613 -0.34688,-0.13202 -0.0892,-0.11072 -0.0548,-0.12779 0.24834,-0.12334 l 0.35182,0.006 -0.012,-0.8256 -0.012,-0.82562 -0.58493,-0.0508 c -0.36054,-0.0313 -0.59769,-0.0915 -0.61821,-0.15713 -0.0248,-0.0781 0.12202,-0.10404 0.55425,-0.0977 l 0.58753,0.008 0.065,-0.55441 c 0.0357,-0.30494 0.0423,-0.68582 0.0142,-0.84641 -0.0457,-0.26445 -0.077,-0.29245 -0.33703,-0.2961 -0.19842,-0.002 -0.28609,-0.0433 -0.28482,-0.13113 0.001,-0.0887 0.0911,-0.12563 0.29794,-0.12265 l 0.29607,0.004 0.0121,-0.84132 0.0121,-0.84129 -0.29746,-0.0307 c -0.16362,-0.0168 -0.29693,-0.0688 -0.29624,-0.11524 6.6e-4,-0.0466 0.13543,-0.0945 0.29947,-0.10654 l 0.29824,-0.0219 0.0117,-0.78993 c 0.0122,-0.84875 -0.0105,-0.89301 -0.46629,-0.89964 -0.33349,-0.004 -0.18319,-0.21056 0.17201,-0.23542 l 0.31107,-0.0217 0.0117,-0.78994 c 0.0122,-0.84653 -0.0115,-0.89303 -0.45922,-0.89954 -0.12546,-0.002 -0.20385,-0.0521 -0.20274,-0.12993 10e-4,-0.0917 0.0958,-0.12557 0.34024,-0.12199 l 0.33839,0.004 -0.002,-0.35984 c -0.003,-0.19794 -0.0249,-0.56848 -0.0515,-0.82344 l -0.0483,-0.4636 -0.5917,-0.0406 c -0.32542,-0.0224 -0.60937,-0.0583 -0.63098,-0.08 -0.10102,-0.10146 0.26213,-0.19271 0.74379,-0.18688 l 0.53191,0.007 -0.0127,-0.7781 -0.0127,-0.77812 -0.27963,-0.0766 c -0.34353,-0.0942 -0.30898,-0.27112 0.059,-0.30208 0.22906,-0.0192 0.26912,-0.0564 0.27083,-0.25005 0.003,-0.33418 -0.10674,-0.45958 -0.37646,-0.43097 -0.19992,0.0212 -0.24781,-0.0126 -0.29852,-0.21338 -0.0441,-0.17459 -0.0278,-0.2482 0.061,-0.27425 0.0669,-0.0199 0.17889,-0.0524 0.24893,-0.0734 0.18557,-0.055 0.15981,-0.30506 -0.0371,-0.35964 -0.0927,-0.0258 -0.16761,-0.11074 -0.16647,-0.18897 0.002,-0.19683 -0.54325,-0.72598 -1.01929,-0.98765 -0.21772,-0.11969 -0.62487,-0.26842 -0.90478,-0.33052 -0.3355,-0.0743 -0.50833,-0.15406 -0.50717,-0.2337 0.006,-0.35865 1.63559,0.22504 2.20823,0.79059 0.16115,0.15915 0.39167,0.38316 0.51225,0.4978 l 0.21924,0.20842 0.0123,-0.86117 0.0123,-0.86117 -0.25378,-0.004 c -0.32825,-0.004 -0.34308,-0.23707 -0.0171,-0.2698 l 0.23301,-0.0234 0.0361,-0.81961 0.0361,-0.81964 -0.30046,-0.0309 c -0.37804,-0.0388 -0.39194,-0.18767 -0.0223,-0.23843 0.33068,-0.0454 0.36172,-0.16412 0.27522,-1.05269 -0.0495,-0.50902 -0.0813,-0.5934 -0.22668,-0.60261 -0.0931,-0.007 -0.33079,-0.0195 -0.52838,-0.0302 -0.25114,-0.0137 -0.35879,-0.0567 -0.35755,-0.14264 10e-4,-0.0917 0.13632,-0.12733 0.53094,-0.14021 l 0.52908,-0.0175 0.0119,-0.8041 0.0119,-0.8041 -0.25228,-0.004 c -0.17284,-0.002 -0.26067,-0.0504 -0.27898,-0.15221 -0.0217,-0.11904 0.0331,-0.14768 0.27559,-0.14414 l 0.30227,0.004 0.0122,-0.84641 0.0122,-0.84643 -0.34545,-0.005 c -0.42662,-0.006 -0.41349,-0.19706 0.0175,-0.25372 l 0.28998,-0.0381 0.0356,-0.77728 0.0356,-0.7773 -0.31994,-0.0311 c -0.40696,-0.0396 -0.44489,-0.27442 -0.0497,-0.30704 0.31874,-0.0263 0.33923,-0.0898 0.31329,-0.964311 -0.0174,-0.588717 -0.0368,-0.656651 -0.18756,-0.658832 -0.23114,-0.0033 -0.50852,-0.167746 -0.44666,-0.264715 0.0279,-0.04387 0.18182,-0.07777 0.34191,-0.07548 l 0.29111,0.0043 0.008,-0.550171 c 0.004,-0.302583 -0.0161,-0.550522 -0.0455,-0.550941 -0.0627,-8.42e-4 -0.30182,0.256237 -0.62151,0.668248 -0.12504,0.161156 -0.27567,0.342645 -0.33473,0.403313 -0.059,0.0607 -0.10776,0.137756 -0.10823,0.171295 -7.6e-4,0.03363 -0.17648,0.247328 -0.39109,0.475071 -0.21462,0.227747 -0.54959,0.640346 -0.74443,0.916883 -0.1948,0.27655 -0.53247,0.69232 -0.75035,0.92393 -0.43067,0.45783 -0.61518,0.67336 -0.97646,1.14064 -0.12969,0.16778 -0.28475,0.3562 -0.34453,0.4187 -0.0598,0.0626 -0.3971,0.43233 -0.74959,0.82187 -1.5924,1.75969 -4.84348,4.91455 -5.8417,5.66879 -0.21081,0.1593 -0.46895,0.38789 -0.57361,0.50799 -0.10469,0.12007 -0.41312,0.38272 -0.68538,0.58358 -0.27229,0.20084 -0.51441,0.38478 -0.53801,0.40872 -0.10549,0.10697 -1.26744,1.0591 -1.49857,1.22796 -0.14111,0.10308 -0.54038,0.40169 -0.88725,0.66352 -0.34686,0.26185 -0.71251,0.53205 -0.81253,0.60044 -0.10001,0.0684 -0.195,0.15272 -0.211,0.18742 -0.016,0.0347 -0.0658,0.0625 -0.11035,0.0619 -0.0447,-6.6e-4 -0.23606,0.13942 -0.42526,0.3113 -0.18921,0.17187 -0.45238,0.37032 -0.58481,0.44101 -0.13243,0.0706 -0.35563,0.21984 -0.49601,0.33143 -0.14038,0.11157 -0.34376,0.25876 -0.45196,0.32703 -0.10823,0.0682 -0.26196,0.18429 -0.34162,0.25782 -0.0796,0.0735 -0.30397,0.22013 -0.49846,0.32582 -0.19449,0.1057 -0.35393,0.21422 -0.35432,0.24121 -4.1e-4,0.027 -0.15342,0.14052 -0.34011,0.2522 -0.32032,0.1917 -0.33682,0.22102 -0.29322,0.52178 0.0542,0.37387 -0.0363,0.42847 -0.8575,0.51731 -0.4048,0.0438 -0.63457,0.13914 -1.20857,0.50172 -0.3898,0.24622 -0.73138,0.44736 -0.75904,0.44696 -0.0277,-2.4e-4 -0.13107,0.0723 -0.22977,0.16174 -0.0988,0.0894 -0.30319,0.21905 -0.45438,0.28815 -0.15117,0.0691 -0.32369,0.18279 -0.38334,0.25264 -0.0596,0.0699 -0.14077,0.1265 -0.18024,0.12594 -0.0896,-0.001 -0.87783,0.51459 -0.91747,0.60046 -0.016,0.0347 -0.0785,0.0623 -0.13861,0.0615 -0.0602,-5.6e-4 -0.16264,0.0606 -0.22763,0.13678 -0.065,0.0759 -0.23313,0.1913 -0.37368,0.25599 -0.52151,0.23997 -0.63908,0.30815 -0.64,0.37119 -3.3e-4,0.0355 -0.0486,0.064 -0.10669,0.0631 -0.0582,-5.7e-4 -0.21898,0.0932 -0.35742,0.20885 -0.13844,0.11559 -0.34001,0.23109 -0.44794,0.25654 -0.108,0.0252 -0.19666,0.0742 -0.19717,0.10825 -6.7e-4,0.0341 -0.20232,0.16719 -0.44852,0.29574 -0.24618,0.12856 -0.5437,0.29576 -0.66116,0.37158 -0.11744,0.0759 -0.37679,0.23667 -0.57633,0.35746 -0.19954,0.12082 -0.52607,0.31866 -0.72558,0.43967 -0.19954,0.12102 -0.52288,0.32586 -0.71851,0.4552 -0.19564,0.12932 -0.383956,0.23474 -0.418481,0.23422 -0.03458,-5.4e-4 -0.18894,0.0924 -0.343131,0.20668 -0.154181,0.11422 -0.307846,0.20717 -0.341456,0.20669 -0.03368,-7.6e-4 -0.187272,0.0924 -0.341453,0.20668 -0.154185,0.11422 -0.309395,0.20716 -0.344894,0.20664 -0.03545,-3.4e-4 -0.210718,0.0922 -0.389397,0.20599 -0.178672,0.11379 -0.478508,0.29994 -0.666308,0.41363 -0.187813,0.11361 -0.485533,0.29566 -0.661627,0.40444 -0.176108,0.10871 -0.492678,0.28512 -0.703517,0.3919 -0.210842,0.10674 -0.402839,0.21845 -0.426671,0.24814 -0.04637,0.0579 -1.323364,0.82508 -1.536684,0.92334 -0.07029,0.0324 -0.300733,0.17029 -0.512129,0.30647 -0.211395,0.13618 -0.451309,0.26986 -0.533147,0.29706 -0.08193,0.0269 -0.149274,0.0831 -0.149868,0.12426 -5.99e-4,0.0411 -0.0365,0.0742 -0.07981,0.0736 -0.04331,-6.1e-4 -0.311433,0.13833 -0.595844,0.30883 -0.373705,0.22399 -0.518118,0.36081 -0.520715,0.49332 -0.002,0.10087 -0.04788,0.19744 -0.101988,0.21461 -0.05901,0.0191 0.0474,0.25268 0.266486,0.58547 0.386912,0.58772 1.126079,1.15869 1.853581,1.43182 0.75774,0.28448 0.761468,0.28685 0.651534,0.41554 -0.07046,0.0825 -0.145546,0.0948 -0.241867,0.0394 -0.07684,-0.0442 -0.318754,-0.14041 -0.537613,-0.21396 -0.698171,-0.23465 -1.733058,-1.06051 -2.004555,-1.59969 -0.05904,-0.11727 -0.12839,-0.23257 -0.154078,-0.25621 -0.02571,-0.0237 -0.109769,-0.13813 -0.186817,-0.25439 -0.136027,-0.20521 -0.140444,-0.18744 -0.152053,0.61159 l -0.01198,0.82292 0.243427,0.004 c 0.133894,0.002 0.286657,0.0573 0.339495,0.12286 0.07815,0.0971 0.03616,0.1326 -0.225095,0.19063 l -0.321058,0.0718 -0.01162,0.80068 -0.01162,0.80067 0.322088,0.0312 c 0.389536,0.0378 0.378409,0.22055 -0.01544,0.25371 l -0.268809,0.0226 -0.01222,0.84105 -0.01222,0.84105 0.303142,0.004 c 0.383921,0.006 0.349384,0.20503 -0.04116,0.2378 l -0.271816,0.0227 0.01229,0.82002 0.01229,0.82002 0.612954,0.0338 c 0.929301,0.0512 0.74921,0.23698 -0.279177,0.28797 l -0.338686,0.0167 -0.01165,0.80407 -0.01165,0.80411 0.316849,0.0309 c 0.472757,0.046 0.354778,0.27552 -0.137732,0.26783 -0.177182,-0.002 -0.182909,0.0245 -0.168146,0.80184 0.01288,0.6819 0.03695,0.80646 0.157362,0.81649 0.336404,0.028 0.382568,0.0431 0.411705,0.13426 0.01715,0.0536 -0.103426,0.11935 -0.272873,0.1486 l -0.303599,0.0524 0.01219,0.82122 c 0.0087,0.58046 0.04319,0.82475 0.11782,0.83333 0.05807,0.006 0.181645,0.0178 0.274617,0.0252 0.273971,0.0212 0.190912,0.16962 -0.10859,0.19411 l -0.275327,0.0225 -0.01165,0.8041 -0.01165,0.8041 0.253396,0.0315 c 0.382015,0.0473 0.439354,0.16966 0.116383,0.24841 -0.343505,0.0836 -0.386984,0.21322 -0.36163,1.07612 l 0.01863,0.63397 0.585485,0.008 c 0.464035,0.006 0.585099,0.035 0.583639,0.13548 -0.0015,0.10073 -0.124041,0.12517 -0.594,0.11839 l -0.59217,-0.008 -0.01479,1.01571 -0.01479,1.0157 1.739767,0.0253 c 1.037478,0.0155 1.806321,-0.009 1.904657,-0.0599 z m 16.723445,-31.03077 c -0.10763,-0.29315 0.014,-0.41428 0.52509,-0.52311 0.28007,-0.0596 0.62166,-0.0958 0.75904,-0.0803 0.21291,0.0242 0.24981,0.0645 0.24986,0.2744 5.1e-4,0.20597 -0.0486,0.26309 -0.29759,0.34905 -0.42637,0.14722 -1.17951,0.135 -1.23639,-0.02 z m 2.19146,-0.19739 c -0.11933,-0.12293 -0.13503,-0.46501 -0.0245,-0.53118 0.0409,-0.0244 0.27948,-0.0655 0.53016,-0.0919 0.25077,-0.0262 0.47511,-0.0573 0.49857,-0.0693 0.11871,-0.0607 0.42093,0.14794 0.41886,0.28929 -0.004,0.22401 -0.15301,0.31735 -0.5977,0.37254 -0.2098,0.0261 -0.4579,0.0677 -0.55133,0.0927 -0.0935,0.0246 -0.2168,-0.003 -0.27409,-0.0621 z m 2.02012,-0.37168 c -0.10113,-0.19596 -0.11177,-0.43466 -0.0202,-0.43329 0.0349,4.8e-4 0.33741,-0.0522 0.67223,-0.11699 0.69143,-0.1339 0.84255,-0.10435 0.83234,0.16255 -0.0113,0.30838 -0.10927,0.3755 -0.62188,0.42814 -0.2686,0.0276 -0.55294,0.0679 -0.63184,0.0894 -0.0863,0.0239 -0.17828,-0.0281 -0.23081,-0.12979 z m 2.12927,-0.25108 c -0.092,-0.0949 -0.13749,-0.49155 -0.056,-0.49039 0.0201,8e-5 0.30542,-0.052 0.63376,-0.11605 0.73007,-0.14263 0.87358,-0.0995 0.83393,0.25073 -0.0252,0.22346 -0.0717,0.26808 -0.3264,0.31309 -0.74051,0.13093 -0.98991,0.14071 -1.08513,0.0426 z m 2.07646,-0.26085 c -0.0312,-0.032 -0.055,-0.16361 -0.0532,-0.29236 0.004,-0.25589 0.0155,-0.26185 0.80411,-0.40663 0.45525,-0.0836 0.51386,-0.0776 0.61256,0.0617 0.13811,0.19489 0.13746,0.45668 -5.6e-4,0.47158 -0.11919,0.0127 -0.2546,0.0402 -0.31826,0.0645 -0.0234,0.009 -0.11869,0.0247 -0.21202,0.0345 -0.0933,0.01 -0.30582,0.0424 -0.47248,0.0718 -0.16662,0.0294 -0.32842,0.0272 -0.35953,-0.005 z m 2.12004,-0.3935 c -0.0306,-0.0314 -0.054,-0.16104 -0.0522,-0.28787 0.004,-0.26088 0.0802,-0.29189 0.90411,-0.36697 l 0.5187,-0.0473 0.035,0.26475 c 0.0302,0.22974 0.006,0.27056 -0.18404,0.30888 -0.12045,0.0242 -0.32995,0.0771 -0.46536,0.11825 -0.28843,0.0867 -0.67674,0.0919 -0.75609,0.0105 z m 2.06679,-0.46078 c -0.0454,-0.12483 -0.0821,-0.25647 -0.0811,-0.29267 0.002,-0.10774 0.60836,-0.26426 1.06159,-0.27415 0.41383,-0.009 0.42365,-0.003 0.44471,0.25017 0.0213,0.25664 0.016,0.26007 -0.55529,0.36388 -0.31723,0.0576 -0.6241,0.12155 -0.68192,0.14202 -0.0578,0.0208 -0.14225,-0.0648 -0.18762,-0.18971 z m 2.05322,-0.54461 c 0.028,-0.25408 0.0622,-0.28142 0.45489,-0.36624 0.73483,-0.15868 0.96371,-0.13216 1.02275,0.11862 0.0679,0.28937 -0.005,0.34413 -0.60223,0.44383 -0.83658,0.13991 -0.91091,0.1233 -0.87541,-0.19621 z m 2.09571,-0.21549 c -0.16042,-0.31067 -0.0534,-0.42553 0.52278,-0.56114 0.73784,-0.17367 0.93277,-0.13841 0.92831,0.16773 -0.004,0.2128 -0.0462,0.24851 -0.40681,0.33701 -0.95386,0.23459 -0.95252,0.23425 -1.04427,0.0564 z m -36.517276,13.22633 c 0.182769,-0.12101 0.485837,-0.30471 0.673491,-0.40819 0.51696,-0.28508 0.898652,-0.50935 1.32279,-0.77716 0.211349,-0.13351 0.535358,-0.32237 0.720005,-0.41979 0.184634,-0.0975 0.389178,-0.22908 0.454511,-0.29257 0.06534,-0.0634 0.16006,-0.11488 0.210514,-0.11409 0.05046,6.3e-4 0.217879,-0.092 0.372065,-0.20625 0.154184,-0.11421 0.302841,-0.20726 0.330332,-0.20686 0.02746,2.9e-4 0.242309,-0.12759 0.477385,-0.28438 0.235075,-0.15681 0.502881,-0.30789 0.595129,-0.33571 0.09236,-0.0274 0.168228,-0.0861 0.168858,-0.12956 6.31e-4,-0.0434 0.04514,-0.0783 0.09891,-0.0775 0.05377,6.1e-4 0.223904,-0.0921 0.378107,-0.20618 0.154176,-0.1142 0.315244,-0.20706 0.357895,-0.20644 0.04264,5.8e-4 0.227579,-0.10365 0.410927,-0.23183 0.18335,-0.12819 0.393022,-0.25445 0.465926,-0.28068 0.07281,-0.0267 0.433063,-0.2378 0.800358,-0.47016 0.367289,-0.23235 0.720023,-0.4217 0.783853,-0.4208 0.0639,5.3e-4 0.1165,-0.0303 0.11708,-0.0697 0.001,-0.0814 1.14468,-0.7586 1.27759,-0.75668 0.048,6.5e-4 0.0877,-0.0305 0.0882,-0.0701 5.3e-4,-0.0392 0.14485,-0.1415 0.32062,-0.22727 0.17575,-0.0857 0.39771,-0.2206 0.49324,-0.29957 0.0956,-0.079 0.33064,-0.22839 0.52248,-0.33197 0.19184,-0.10359 0.55567,-0.32268 0.80851,-0.48693 0.25286,-0.16427 0.70934,-0.44192 1.01436,-0.61705 0.30503,-0.17518 0.69486,-0.42257 0.86631,-0.54986 0.1714,-0.12734 0.33566,-0.2311 0.36497,-0.23067 0.0633,5.4e-4 0.85531,-0.50875 1.16007,-0.74655 0.11768,-0.0918 0.29994,-0.18837 0.40502,-0.21458 0.2022,-0.0504 0.24857,-0.15319 0.10929,-0.2421 -0.0461,-0.0294 -0.082,-0.17909 -0.0798,-0.33253 l 0.004,-0.27896 0.77377,-0.0996 c 0.64312,-0.0827 0.84049,-0.14627 1.1689,-0.37634 0.21731,-0.15222 0.47174,-0.30969 0.56541,-0.34984 0.0937,-0.0401 0.31998,-0.18921 0.50297,-0.33123 0.18297,-0.14201 0.36357,-0.25779 0.40128,-0.25722 0.0377,7.3e-4 0.17663,-0.092 0.30867,-0.20585 0.29529,-0.25446 0.36135,-0.30157 0.64154,-0.45763 0.17684,-0.0985 1.21018,-0.83552 1.64903,-1.17618 0.50741,-0.39389 1.08328,-0.81983 1.32667,-0.98131 0.16448,-0.10909 0.4285,-0.31813 0.58672,-0.46444 0.15823,-0.14633 0.38592,-0.31656 0.50602,-0.3783 0.12004,-0.0617 0.34088,-0.22474 0.49072,-0.36225 0.4487,-0.41179 1.07484,-0.91094 1.23366,-0.98345 0.0819,-0.0374 0.45055,-0.34633 0.81928,-0.68654 0.36871,-0.34021 0.70185,-0.61811 0.74028,-0.61756 0.0384,6.2e-4 0.41,-0.32738 0.82571,-0.72878 0.41572,-0.40137 1.08263,-1.03427 1.48203,-1.4064 0.93157,-0.86798 2.15527,-2.10253 3.13355,-3.16133 0.42436,-0.45928 0.94553,-1.01617 1.15817,-1.23754 0.52871,-0.55045 0.50076,-0.51796 1.09176,-1.26987 0.28946,-0.3683 0.59977,-0.74475 0.68959,-0.83658 0.0899,-0.09179 0.38933,-0.458912 0.66558,-0.815761 0.27625,-0.356843 0.5313,-0.648394 0.56677,-0.647879 0.0355,3.32e-4 0.0884,-0.06541 0.11746,-0.146442 0.0292,-0.0811 0.19912,-0.338359 0.37777,-0.571774 0.17864,-0.233406 0.41481,-0.544278 0.52482,-0.690818 0.21683,-0.288839 0.23035,-0.273821 -0.27628,-0.307046 -0.0932,-0.0061 -0.16824,-0.06823 -0.16723,-0.138048 0.001,-0.09379 0.12015,-0.132024 0.45497,-0.146309 l 0.45312,-0.01929 -0.32338,-0.174482 c -0.92733,-0.50031 -2.26689,-0.869617 -3.20368,-0.883225 -0.47077,-0.0068 -0.62508,-0.03644 -0.5971,-0.114498 0.0269,-0.07537 0.27579,-0.09983 0.87559,-0.08612 0.96307,0.022 1.80287,0.23634 2.79804,0.714044 0.34641,0.166292 0.66254,0.302829 0.70252,0.303411 0.0839,0.0012 0.109,-0.783968 0.0374,-1.171336 -0.0318,-0.17179 -0.0962,-0.259511 -0.1867,-0.253855 -0.29889,0.01867 -0.4338,-0.02801 -0.43202,-0.149457 0.001,-0.08894 0.0915,-0.125654 0.30122,-0.122616 l 0.29938,0.0044 -0.0134,-0.740972 c -0.008,-0.432559 -0.049,-0.736137 -0.0985,-0.729347 -0.0465,0.0065 -1.89337,0.01102 -4.10386,0.01024 -2.21052,-7.41e-4 -4.07641,0.01155 -4.14643,0.02737 -0.0701,0.01573 -2.22145,0.02402 -4.78093,0.0183 -2.55946,-0.0057 -4.67276,2.55e-4 -4.6962,0.01325 -0.0234,0.01303 -1.92739,0.02177 -4.23094,0.01962 -2.30356,-0.0022 -4.32171,0.008 -4.48483,0.02269 -0.29804,0.02684 -7.623434,0.04746 -9.519336,0.02684 -0.558363,-0.0061 -1.614899,-0.01024 -2.347871,-0.0093 l -1.332688,0.0018 -0.01039,0.714472 -0.01039,0.714474 0.358403,0.08255 c 0.356498,0.08211 0.331162,0.127706 -0.12208,0.219682 l -0.225326,0.04572 0.0011,0.82585 0.0011,0.825848 0.507878,-0.01384 c 0.464192,-0.01269 0.821187,0.0851 0.708986,0.194147 -0.02499,0.02429 -0.310055,0.06482 -0.633457,0.09006 l -0.588003,0.04588 0.01461,0.836805 0.01461,0.836812 0.297514,0.0044 c 0.379377,0.0056 0.340059,0.205262 -0.04679,0.237722 l -0.271804,0.02281 0.01229,0.82002 0.01229,0.820018 0.316854,0.0309 c 0.489668,0.0477 0.350231,0.27512 -0.164115,0.26765 -0.208556,-0.003 -0.20977,0.001 -0.204758,0.73779 0.0027,0.40746 0.04232,0.78901 0.08788,0.84787 0.04556,0.0588 0.192387,0.10862 0.326269,0.11058 0.133889,0.002 0.242935,0.0376 0.24233,0.0792 -0.0013,0.0917 -0.211468,0.17531 -0.432483,0.17211 -0.149148,-0.002 -0.163266,0.0661 -0.174568,0.84406 l -0.01226,0.84642 0.291092,0.004 c 0.160099,0.002 0.314063,0.0427 0.342143,0.0896 0.02879,0.0481 -0.04034,0.084 -0.158506,0.0823 -0.45347,-0.006 -0.477829,0.0374 -0.490173,0.88716 l -0.01145,0.79132 0.606187,0.0337 c 0.827335,0.0459 0.854887,0.21015 0.04904,0.29223 l -0.618576,0.063 -0.03403,0.59035 c -0.0491,0.85138 -0.0054,0.97528 0.346291,0.98038 0.159209,0.002 0.311299,0.0408 0.33797,0.0854 0.05978,0.0999 -0.224137,0.25498 -0.460839,0.25153 -0.16433,-0.002 -0.175457,0.0453 -0.186434,0.80157 l -0.01165,0.80408 0.296072,0.004 c 0.20679,0.003 0.295531,0.0426 0.294241,0.13129 -0.0013,0.0887 -0.09116,0.12563 -0.297928,0.12264 l -0.296005,-0.004 -0.01226,0.84643 -0.01226,0.84639 0.345435,0.005 c 0.426631,0.006 0.413494,0.19708 -0.01747,0.25373 l -0.289988,0.038 -0.0362,0.82493 -0.0362,0.82489 0.348493,0.006 c 0.429215,0.006 0.418399,0.19689 -0.01441,0.25378 l -0.289988,0.038 0.0162,0.67753 c 0.0089,0.37261 0.01966,0.72518 0.02387,0.78344 0.0048,0.067 0.149885,0.1101 0.395313,0.11727 0.213206,0.007 0.501634,0.0279 0.640955,0.048 0.208933,0.0302 0.330155,-0.0337 0.691905,-0.36471 0.560711,-0.51305 1.047732,-0.83376 1.741522,-1.14679 0.719784,-0.32474 1.105844,-0.40446 1.103274,-0.22776 -0.0011,0.0733 -0.122064,0.1633 -0.278,0.20692 -0.33508,0.094 -1.195745,0.44107 -1.255401,0.50669 -0.02363,0.026 -0.235191,0.17247 -0.470101,0.32547 -0.535793,0.34895 -0.987644,0.79281 -1.7125,1.68223 l -0.569002,0.69817 0.46669,0.0322 c 0.411837,0.0284 0.47231,0.056 0.51456,0.23548 0.07188,0.30517 9.69e-4,0.35187 -0.606234,0.39972 -0.306229,0.0242 -0.593635,0.0659 -0.638679,0.0929 -0.09005,0.054 -0.121901,0.9001 -0.04531,1.2036 0.03589,0.14222 0.110715,0.1921 0.292162,0.19473 0.160416,0.002 0.243287,0.0471 0.242075,0.13051 -0.0012,0.0846 -0.08644,0.12572 -0.255618,0.12333 l -0.253788,-0.004 -0.01222,0.84105 -0.01222,0.84106 0.268041,0.0304 c 0.373213,0.0423 0.390111,0.21198 0.02736,0.27463 l -0.300577,0.0519 -0.01159,0.79515 -0.01158,0.79516 0.297466,0.0307 c 0.368994,0.038 0.423377,0.1916 0.07984,0.22558 -0.139654,0.0138 -0.282568,0.0692 -0.31777,0.12239 -0.07795,0.11879 -0.09826,0.95214 -0.03193,1.31106 0.04757,0.25737 0.05741,0.26217 0.609163,0.29458 0.731284,0.0429 0.722088,0.19744 -0.01298,0.21896 l -0.571381,0.0168 -0.008,0.54629 c -0.0092,0.63165 0.04752,0.66534 0.554544,0.32963 z m 1.406051,-8.60722 c -0.03437,-0.0362 -0.06101,-0.16849 -0.05919,-0.2939 0.003,-0.21189 0.03483,-0.23136 0.448211,-0.27495 0.244686,-0.0258 0.587657,-0.0451 0.762145,-0.043 0.306299,0.003 0.317097,0.0136 0.312936,0.30011 -0.004,0.27766 -0.02156,0.29604 -0.279249,0.29298 -0.151216,-0.002 -0.465605,0.0165 -0.698647,0.0407 -0.233047,0.0242 -0.451832,0.0143 -0.486205,-0.0219 z m 2.11041,-0.14719 c -0.03057,-0.0314 -0.05404,-0.16284 -0.05217,-0.2919 0.003,-0.21255 0.03726,-0.23834 0.363593,-0.27422 0.953761,-0.10486 1.007716,-0.0995 1.083067,0.10789 0.03916,0.10772 0.05035,0.24801 0.02485,0.31171 -0.06423,0.16047 -1.283587,0.28638 -1.419329,0.14656 z m 2.071498,-0.1915 c -0.166444,-0.17145 -0.105062,-0.47861 0.103489,-0.5179 0.558033,-0.10506 1.320902,-0.11248 1.352414,-0.0129 0.06889,0.21736 -0.05049,0.4934 -0.22763,0.52619 -0.488163,0.0905 -1.142696,0.093 -1.228275,0.005 z m 2.076393,-0.17501 c -0.02872,-0.0296 -0.05088,-0.14354 -0.04931,-0.25331 0.0036,-0.25045 0.21895,-0.33434 0.933374,-0.36356 0.52287,-0.0214 0.54249,-0.0148 0.59701,0.20152 0.031,0.12301 0.0318,0.26009 0.002,0.30464 -0.0624,0.0923 -1.403397,0.19257 -1.482856,0.11073 z m 2.168154,-0.19999 c -0.11775,-0.19354 -0.0959,-0.45395 0.0423,-0.50472 0.078,-0.0289 0.42201,-0.0716 0.76451,-0.0956 l 0.62274,-0.0436 -0.004,0.30866 c -0.002,0.1882 -0.0458,0.30977 -0.11028,0.31148 -0.0582,0.002 -0.36548,0.0279 -0.68281,0.0585 -0.38128,0.0367 -0.59562,0.025 -0.63196,-0.0347 z m 2.04658,-0.22863 c -0.0232,-0.0638 -0.0286,-0.20411 -0.0123,-0.31202 0.0282,-0.18031 0.0877,-0.20123 0.73479,-0.2584 0.38723,-0.0344 0.71691,-0.0485 0.73259,-0.0318 0.0158,0.0168 0.0402,0.14245 0.0543,0.27917 0.0292,0.28303 -0.0889,0.33157 -0.97545,0.40053 -0.36917,0.0287 -0.50251,0.009 -0.5344,-0.0776 z m 2.0913,-0.46635 c 0.004,-0.27995 0.0111,-0.28518 0.44902,-0.33137 0.24468,-0.0258 0.58766,-0.0451 0.76215,-0.0431 0.30407,0.003 0.31706,0.0157 0.31308,0.28955 -0.004,0.25223 -0.0352,0.29142 -0.26927,0.33472 -0.14594,0.0265 -0.48876,0.0458 -0.76213,0.0418 l -0.49699,-0.008 z m -14.049093,0.23972 c 0.213473,-0.27907 0.437831,-0.57418 0.498573,-0.65581 0.102605,-0.13786 0.07275,-0.14825 -0.420934,-0.1467 l -0.531368,8.8e-4 -0.03423,0.65562 c -0.01884,0.36059 -0.004,0.65494 0.03281,0.65412 0.03697,-6e-5 0.241699,-0.22983 0.455169,-0.5089 z m -1.622452,18.46071 c -0.0037,0.21996 0.005,-0.29565 0,0 z m -4.558797,-18.16022 c -0.0018,0.12751 0.0021,-0.1436 0,0 z"
       style="fill:#000000;stroke-width:0.264583"
       id="path1"
       sodipodi:nodetypes="ccscccscccccccccccssccccccccccccccsccccccccccscccccccccccccccccccccccccccssccccccccccccccccccccccccccsscccscsccccscccccccccccccccccccccccccccccccccccccccccscccccscccccccccccccsccccccccccscccccssccccccccccccccccccccccccccccsccccccccccccccccccccccsscccccccscccccsccccscccccccccccccccccccsscccccccsccsccccccccccccscccccccccscsccccccccccccccccccccccccscccccscsccccsscsccccccccccccccccccccccccccccccccsccccccccccsccccccccccsccccsscccccccccccccccccccccccccccccccsccccccccccccccccccccccccscccsscsccccccccscccccscscccccsccccccsccccsccscccccsccccscccsccssccccccccscccccccccccccscccccscccccscccccccccsccccccccccccccccccccccccccccccccccccccccccccccccccccscccccccccccccccccccccccscccsccccscccccccccccccscccccccccccccccccccccccccccccccccccccccc" />
    <g
       id="layer1-6"
       transform="translate(4.6966875,-27.243281)">
      <text
         xml:space="preserve"
         style="font-weight:bold;font-size:2.11667px;line-height:normal;font-family:'Segoe Script';-inkscape-font-specification:'Segoe Script Bold';text-align:center;text-decoration-color:#000000;writing-mode:lr-tb;direction:ltr;text-anchor:middle;fill:#000000;stroke:none;stroke-width:0.529"
         x="83.892509"
         y="143.91121"
         id="text18-1"><tspan
           sodipodi:role="line"
           id="tspan18-8"
           style="stroke-width:0.529"
           x="83.892509"
           y="143.91121">2.0</tspan></text>
    </g>
    <text
       xml:space="preserve"
       style="font-weight:bold;font-size:4.23333px;line-height:normal;font-family:'Segoe Script';-inkscape-font-specification:'Segoe Script Bold';text-align:start;text-decoration-color:#000000;writing-mode:lr-tb;direction:ltr;text-anchor:start;fill:#000000;stroke:none;stroke-width:0.529"
       x="-139.87828"
       y="85.708488"
       id="text2"
       transform="rotate(-90)"><tspan
         sodipodi:role="line"
         id="tspan2"
         style="fill:#000000;stroke:none;stroke-width:0.529"
         x="-139.87828"
         y="85.708488">Bandgap Eg (eV)</tspan></text>
    <text
       xml:space="preserve"
       style="font-weight:bold;font-size:2.11667px;line-height:normal;font-family:'Segoe Script';-inkscape-font-specification:'Segoe Script Bold';text-align:center;text-decoration-color:#000000;writing-mode:lr-tb;direction:ltr;text-anchor:middle;fill:#000000;stroke:none;stroke-width:0.529"
       x="88.534943"
       y="107.14293"
       id="text18-5"><tspan
         sodipodi:role="line"
         id="tspan18-4"
         style="stroke-width:0.529"
         x="88.534943"
         y="107.14293">2.5</tspan></text>
    <text
       xml:space="preserve"
       style="font-weight:bold;font-size:2.11667px;line-height:normal;font-family:'Segoe Script';-inkscape-font-specification:'Segoe Script Bold';text-align:center;text-decoration-color:#000000;writing-mode:lr-tb;direction:ltr;text-anchor:middle;fill:#000000;stroke:none;stroke-width:0.529"
       x="88.695137"
       y="97.617928"
       id="text18-3"><tspan
         sodipodi:role="line"
         id="tspan18-41"
         style="stroke-width:0.529"
         x="88.695137"
         y="97.617928">3.0</tspan></text>
    <text
       xml:space="preserve"
       style="font-weight:bold;font-size:2.11667px;line-height:normal;font-family:'Segoe Script';-inkscape-font-specification:'Segoe Script Bold';text-align:center;text-decoration-color:#000000;writing-mode:lr-tb;direction:ltr;text-anchor:middle;fill:#000000;stroke:none;stroke-width:0.529"
       x="101.67912"
       y="134.86769"
       id="text3"
       transform="rotate(-9.1745293)"><tspan
         sodipodi:role="line"
         style="font-size:2.11667px;text-align:center;text-anchor:middle;stroke-width:0.529"
         x="101.67912"
         y="134.86769"
         id="tspan4">Indirect band</tspan></text>
    <text
       xml:space="preserve"
       style="font-weight:bold;font-size:2.11667px;line-height:normal;font-family:'Segoe Script';-inkscape-font-specification:'Segoe Script Bold';text-align:center;text-decoration-color:#000000;writing-mode:lr-tb;direction:ltr;text-anchor:middle;fill:#000000;stroke:none;stroke-width:0.529"
       x="26.503845"
       y="158.50992"
       id="text5"
       transform="rotate(-30.00053)"><tspan
         sodipodi:role="line"
         id="tspan5"
         style="stroke-width:0.529"
         x="26.503845"
         y="158.50992">Direct band</tspan></text>
    <text
       xml:space="preserve"
       style="font-weight:bold;font-size:2.11667px;line-height:normal;font-family:'Segoe Script';-inkscape-font-specification:'Segoe Script Bold';text-align:center;text-decoration-color:#000000;writing-mode:lr-tb;direction:ltr;text-anchor:middle;fill:#000000;stroke:none;stroke-width:0.529"
       x="102.74686"
       y="131.2296"
       id="text6"><tspan
         sodipodi:role="line"
         id="tspan6"
         style="stroke-width:0.529"
         x="102.74686"
         y="131.2296">E<tspan
   style="font-size:65%;baseline-shift:sub"
   id="tspan11">g</tspan> = 1.424 eV</tspan></text>
    <text
       xml:space="preserve"
       style="font-weight:bold;font-size:2.11667px;line-height:normal;font-family:'Segoe Script';-inkscape-font-specification:'Segoe Script Bold';text-align:center;text-decoration-color:#000000;writing-mode:lr-tb;direction:ltr;text-anchor:middle;fill:#000000;stroke:none;stroke-width:0.529"
       x="101.94489"
       y="114.54849"
       id="text7"><tspan
         sodipodi:role="line"
         id="tspan7"
         style="stroke-width:0.529"
         x="101.94489"
         y="114.54849">Eg= 1.9 eV</tspan></text>
    <text
       xml:space="preserve"
       style="font-weight:bold;font-size:2.11667px;line-height:normal;font-family:'Segoe Script';-inkscape-font-specification:'Segoe Script Bold';text-align:center;text-decoration-color:#000000;writing-mode:lr-tb;direction:ltr;text-anchor:middle;fill:#000000;stroke:none;stroke-width:0.529"
       x="123.86555"
       y="111.39407"
       id="text8"><tspan
         sodipodi:role="line"
         id="tspan8"
         style="stroke-width:0.529"
         x="123.86555"
         y="111.39407">2.168</tspan></text>
    <text
       xml:space="preserve"
       style="font-weight:bold;font-size:2.11667px;line-height:normal;font-family:'Segoe Script';-inkscape-font-specification:'Segoe Script Bold';text-align:center;text-decoration-color:#000000;writing-mode:lr-tb;direction:ltr;text-anchor:middle;fill:#000000;stroke:none;stroke-width:0.529"
       x="118.8933"
       y="95.942665"
       id="text9"><tspan
         sodipodi:role="line"
         id="tspan9"
         style="stroke-width:0.529"
         x="118.8933"
         y="95.942665">E<tspan
   style="font-size:65%;baseline-shift:sub"
   id="tspan10">g</tspan> = 3.108 eV</tspan></text>
    <text
       xml:space="preserve"
       style="font-weight:bold;font-size:2.11667px;line-height:normal;font-family:'Segoe Script';-inkscape-font-specification:'Segoe Script Bold';text-align:center;text-decoration-color:#000000;writing-mode:lr-tb;direction:ltr;text-anchor:middle;fill:#000000;stroke:none;stroke-width:0.529"
       x="110.82008"
       y="141.49489"
       id="text12"><tspan
         sodipodi:role="line"
         id="tspan12"
         style="stroke-width:0.529"
         x="110.82008"
         y="141.49489">Al<tspan
   style="font-size:65%;baseline-shift:sub"
   id="tspan15">x</tspan>Ga<tspan
   style="font-size:65%;baseline-shift:sub"
   id="tspan14">1-x</tspan>As</tspan><tspan
         sodipodi:role="line"
         style="stroke-width:0.529"
         x="110.82008"
         y="144.14073"
         id="tspan13">T=297K</tspan></text>
    <text
       xml:space="preserve"
       style="font-weight:bold;font-size:2.11667px;line-height:normal;font-family:'Segoe Script';-inkscape-font-specification:'Segoe Script Bold';text-align:center;text-decoration-color:#000000;writing-mode:lr-tb;direction:ltr;text-anchor:middle;fill:#000000;stroke:none;stroke-width:0.529"
       x="110.65969"
       y="153.68492"
       id="text16"><tspan
         sodipodi:role="line"
         id="tspan16"
         style="font-size:2.11667px;stroke-width:0.529"
         x="110.65969"
         y="153.68492">Mole fraction AlAs, x</tspan></text>
    <text
       xml:space="preserve"
       style="font-weight:bold;font-size:2.11667px;line-height:normal;font-family:'Segoe Script';-inkscape-font-specification:'Segoe Script Bold';text-align:center;text-decoration-color:#000000;writing-mode:lr-tb;direction:ltr;text-anchor:middle;fill:#000000;stroke:none;stroke-width:0.529"
       x="90.717216"
       y="153.63145"
       id="text17"><tspan
         sodipodi:role="line"
         id="tspan17"
         style="stroke-width:0.529"
         x="90.717216"
         y="153.63145">GaAs</tspan></text>
    <text
       xml:space="preserve"
       style="font-weight:bold;font-size:2.11667px;line-height:normal;font-family:'Segoe Script';-inkscape-font-specification:'Segoe Script Bold';text-align:center;text-decoration-color:#000000;writing-mode:lr-tb;direction:ltr;text-anchor:middle;fill:#000000;stroke:none;stroke-width:0.529"
       x="129.87552"
       y="153.63145"
       id="text17-7"><tspan
         sodipodi:role="line"
         id="tspan17-1"
         style="stroke-width:0.529"
         x="129.87552"
         y="153.63145">AlAs</tspan></text>
    <text
       xml:space="preserve"
       style="font-weight:bold;font-size:2.11667px;line-height:normal;font-family:'Segoe Script';-inkscape-font-specification:'Segoe Script Bold';text-align:center;text-decoration-color:#000000;writing-mode:lr-tb;direction:ltr;text-anchor:middle;fill:#000000;stroke:none;stroke-width:0.529"
       x="88.598503"
       y="145.77209"
       id="text18"><tspan
         sodipodi:role="line"
         id="tspan18"
         style="stroke-width:0.529"
         x="88.598503"
         y="145.77209">0.5</tspan></text>
    <text
       xml:space="preserve"
       style="font-weight:bold;font-size:2.11667px;line-height:normal;font-family:'Segoe Script';-inkscape-font-specification:'Segoe Script Bold';text-align:center;text-decoration-color:#000000;writing-mode:lr-tb;direction:ltr;text-anchor:middle;fill:#000000;stroke:none;stroke-width:0.529"
       x="88.589203"
       y="136.24707"
       id="text18-6"><tspan
         sodipodi:role="line"
         id="tspan18-1"
         style="stroke-width:0.529"
         x="88.589203"
         y="136.24707">1.0</tspan></text>
    <text
       xml:space="preserve"
       style="font-weight:bold;font-size:2.11667px;line-height:normal;font-family:'Segoe Script';-inkscape-font-specification:'Segoe Script Bold';text-align:center;text-decoration-color:#000000;writing-mode:lr-tb;direction:ltr;text-anchor:middle;fill:#000000;stroke:none;stroke-width:0.529"
       x="88.534943"
       y="128.30959"
       id="text18-2"><tspan
         sodipodi:role="line"
         id="tspan18-16"
         style="stroke-width:0.529"
         x="88.534943"
         y="128.30959">1.5</tspan></text>
  </g>
</svg>
