<?xml version="1.0" encoding="UTF-8" standalone="no"?>
<!-- Created with Inkscape (http://www.inkscape.org/) -->

<svg
   width="135.64343mm"
   height="196.15228mm"
   viewBox="0 0 135.64343 196.15228"
   version="1.1"
   id="svg1"
   inkscape:version="1.4.2 (f4327f4, 2025-05-13)"
   sodipodi:docname="oe_led_si_bandstructure.svg"
   inkscape:export-filename="oe_led_si_bandstructure.pdf"
   inkscape:export-xdpi="96"
   inkscape:export-ydpi="96"
   xmlns:inkscape="http://www.inkscape.org/namespaces/inkscape"
   xmlns:sodipodi="http://sodipodi.sourceforge.net/DTD/sodipodi-0.dtd"
   xmlns="http://www.w3.org/2000/svg"
   xmlns:svg="http://www.w3.org/2000/svg">
  <sodipodi:namedview
     id="namedview1"
     pagecolor="#ffffff"
     bordercolor="#000000"
     borderopacity="0.25"
     inkscape:showpageshadow="2"
     inkscape:pageopacity="0.0"
     inkscape:pagecheckerboard="0"
     inkscape:deskcolor="#d1d1d1"
     inkscape:document-units="mm"
     inkscape:zoom="1.4142136"
     inkscape:cx="471.28667"
     inkscape:cy="406.23285"
     inkscape:window-width="1366"
     inkscape:window-height="705"
     inkscape:window-x="-8"
     inkscape:window-y="-8"
     inkscape:window-maximized="1"
     inkscape:current-layer="layer1" />
  <defs
     id="defs1">
    <rect
       x="270.11479"
       y="674.57987"
       width="31.819805"
       height="32.526912"
       id="rect8" />
  </defs>
  <g
     inkscape:label="Layer 1"
     inkscape:groupmode="layer"
     id="layer1"
     transform="translate(-204.25833,-24.077082)">
    <path
       style="fill:#000000"
       d="m 222.71592,202.43748 c 1.23956,-1.34476 1.52694,-2.06017 1.12744,-2.80665 -0.34933,-0.65272 -0.98537,-0.69204 -1.63816,-0.10128 -0.26612,0.24084 -0.48386,0.30901 -0.48386,0.1515 0,-0.48524 1.3263,-1.36436 1.80282,-1.19498 1.42476,0.50644 1.49055,1.68467 0.18156,3.25144 -0.50933,0.60962 -0.92605,1.16917 -0.92605,1.24344 0,0.0743 0.47625,0.0896 1.05834,0.0341 0.73467,-0.0701 1.05833,0.002 1.05833,0.2368 0,0.23716 -0.48273,0.33772 -1.6212,0.33772 h -1.62119 z m 80.19141,-0.5512 c -0.092,-0.0784 -52.36173,-0.41382 -66.97774,-0.42978 -5.90342,-0.006 -7.90983,-0.0886 -7.98542,-0.32683 -0.27141,-0.85549 -0.40679,-23.47768 -0.57128,-95.46439 l -0.17933,-78.47744 3.94462,-0.179028 c 2.16954,-0.09847 6.14727,-0.288461 8.83941,-0.422212 6.68787,-0.332268 9.7532,-0.470879 20.50521,-0.927219 5.09323,-0.216169 10.45104,-0.451573 11.90625,-0.52312 1.45521,-0.07155 4.66989,-0.194438 7.14375,-0.27309 2.47385,-0.07865 6.34338,-0.21221 8.59895,-0.296797 13.60048,-0.510036 49.2816,-0.676593 49.69901,-0.231991 0.36127,0.384815 0.80949,41.237019 0.96813,88.238537 0.0749,22.19193 0.19385,43.0874 0.26434,46.43438 0.0705,3.34698 0.15681,14.36026 0.19184,24.47396 l 0.0637,18.38854 -18.16012,0.0471 c -9.98806,0.0259 -18.20115,0.0121 -18.25131,-0.0306 z m 5.50893,-0.76592 c 0.0666,-0.0666 -0.22292,-0.52049 -0.64332,-1.00872 -0.98048,-1.13868 -2.2376,-2.99497 -3.4324,-5.06835 -0.91615,-1.58985 -3.77337,-7.22851 -3.77337,-7.44668 0,-0.0894 -0.78146,-1.85399 -2.11548,-4.77681 -0.13283,-0.29104 -0.79335,-1.95792 -1.46781,-3.70417 -0.67445,-1.74625 -1.51139,-3.88937 -1.85986,-4.7625 -0.34847,-0.87312 -1.57754,-4.14734 -2.73127,-7.27604 -4.46754,-12.11518 -6.28337,-16.23449 -8.67979,-19.69061 -1.38455,-1.99679 -2.71494,-3.19712 -3.84943,-3.47309 -0.71669,-0.17434 -0.72761,-0.15809 -0.72761,1.08332 0,1.20421 0.0215,1.24082 0.48386,0.82243 0.6161,-0.55756 1.3266,-0.55756 1.9427,0 0.60173,0.54455 0.62044,1.35391 0.046,1.98868 -0.54343,0.60048 -1.1114,0.61347 -1.9244,0.044 l -0.62795,-0.43983 0.16889,23.39243 c 0.0929,12.86584 0.17038,24.96893 0.1722,26.89576 l 0.003,3.50332 13.55989,0.0685 c 13.90618,0.0703 15.247,0.0571 15.45586,-0.15172 z m -27.80538,-49.1027 c -0.62109,-0.68629 -0.43491,-1.63969 0.41278,-2.11391 0.62466,-0.34944 0.76904,-0.34285 1.38907,0.0634 0.72856,0.47737 0.87473,1.19276 0.41805,2.04607 -0.3579,0.66874 -1.61644,0.67125 -2.2199,0.004 z m 50.84829,48.72766 c 0.0139,-1.41817 0.0665,-1.73963 0.2539,-1.55219 0.10431,0.10431 0.19361,0.63017 0.19844,1.16858 l 0.009,0.97892 3.04271,0.0666 c 1.67349,0.0367 3.20029,-0.0353 3.39289,-0.15992 0.28895,-0.18695 0.31652,-5.322 0.15765,-29.36924 l -0.19254,-29.14268 -2.80348,0.004 c -3.1342,0.004 -3.9941,0.15231 -3.9941,0.6887 0,0.20131 -0.1318,0.36602 -0.29289,0.36602 -0.16109,0 -0.22436,-0.1786 -0.1406,-0.39688 0.0838,-0.21828 0.007,-0.40988 -0.17013,-0.42578 -0.79501,-0.0713 -20.98403,0.0455 -34.53944,0.19979 l -14.90245,0.1696 1.29226,1.35111 c 3.24475,3.39254 5.0854,7.23794 10.80832,22.58015 7.34672,19.69539 11.02473,27.51432 15.24181,32.40192 1.57198,1.82192 0.51105,1.68272 13.34087,1.75031 l 9.29088,0.0489 z m 0.0422,-4.43177 c -0.0121,-0.50933 -0.032,-1.34276 -0.0441,-1.85209 -0.0121,-0.50932 0.0573,-1.00541 0.15434,-1.10243 0.097,-0.097 0.17639,0.73643 0.17639,1.85209 0,1.98847 -0.24326,2.92408 -0.28663,1.10243 z m -0.1322,-6.87917 c 0.005,-1.09141 0.10071,-1.98437 0.21359,-1.98437 0.11288,0 0.20524,0.89296 0.20524,1.98437 0,1.09141 -0.0961,1.98438 -0.21358,1.98438 -0.11748,0 -0.20984,-0.89297 -0.20525,-1.98438 z m 0.0511,-4.05381 c -0.23495,-0.38015 -0.12886,-3.47575 0.12448,-3.63232 0.13969,-0.0863 0.2432,0.70095 0.2432,1.84968 0,1.91441 -0.0716,2.26167 -0.36768,1.78264 z m -0.16148,-7.57224 c 0,-2.32134 0.44358,-2.4457 0.50175,-0.14067 0.0284,1.12641 -0.0602,1.84485 -0.2276,1.84485 -0.16077,0 -0.27415,-0.70478 -0.27415,-1.70418 z m 0,-5.82083 c 0,-1.1 0.0952,-1.99999 0.21155,-1.99999 0.3215,0 0.38116,3.63366 0.0629,3.83035 -0.1803,0.11144 -0.27445,-0.51647 -0.27445,-1.83036 z m 0,-6.20484 c 0,-1.09338 0.10398,-1.84754 0.2429,-1.76168 0.24166,0.14936 0.14451,3.28605 -0.10965,3.54022 -0.0733,0.0733 -0.13325,-0.72706 -0.13325,-1.77854 z m -0.1323,-5.84932 c 0,-1.01865 0.0893,-1.85208 0.19844,-1.85208 0.2335,0 0.24331,0.0718 0.27781,2.03288 0.0146,0.82704 -0.0866,1.54142 -0.22489,1.5875 -0.14279,0.0476 -0.25136,-0.71616 -0.25136,-1.7683 z m 0.0974,-3.82724 c -0.17142,-0.17142 -0.0371,-3.59727 0.14827,-3.78268 0.0832,-0.0832 0.15119,0.76162 0.15119,1.87728 0,1.95808 -0.0335,2.17134 -0.29946,1.9054 z m -0.0574,-7.69991 c 0.0547,-2.37831 0.35689,-2.5126 0.35689,-0.15861 0,1.0429 -0.0893,1.89625 -0.19844,1.89634 -0.10914,8e-5 -0.18044,-0.78189 -0.15845,-1.73773 z m -0.17228,-4.08327 c 0,-0.14552 0.11907,-0.26458 0.26459,-0.26458 0.14552,0 0.26458,0.11906 0.26458,0.26458 0,0.14552 -0.11906,0.26459 -0.26458,0.26459 -0.14552,0 -0.26459,-0.11907 -0.26459,-0.26459 z m -52.21133,42.53177 c -0.0954,-7.8945 -0.17411,-20.81278 -0.17484,-28.70729 l -0.001,-14.35364 -0.8599,0.006 c -1.25048,0.009 -3.45372,0.99709 -6.01927,2.69913 -3.4494,2.28839 -6.86412,5.23106 -15.74271,13.56642 -6.89271,6.47099 -8.29849,7.75855 -11.04649,10.11754 -6.06135,5.20331 -10.93193,8.25974 -15.25548,9.57325 l -1.43113,0.43479 0.0602,10.17398 c 0.0331,5.59569 0.12147,10.23526 0.19631,10.31015 0.0748,0.0749 9.44283,0.1687 20.81776,0.20847 11.37494,0.0398 21.03888,0.11 21.47545,0.15609 0.43656,0.0461 2.45,0.10285 4.47431,0.12614 l 3.68056,0.0423 z m -2.55741,-34.83933 c -0.50924,-0.13289 -0.68084,-0.37209 -0.74566,-1.0394 -0.10459,-1.07669 0.32606,-1.62596 1.27482,-1.62596 0.91174,0 1.38657,0.54905 1.27589,1.47534 -0.10535,0.88167 -0.92244,1.42036 -1.80505,1.19002 z m -3.94671,-2.11697 c -0.20615,-0.13049 -0.37482,-0.61539 -0.37482,-1.07756 0,-0.93227 0.41094,-1.31278 1.42434,-1.31887 0.83009,-0.005 1.30969,0.44199 1.30969,1.2206 0,1.1334 -1.35741,1.80994 -2.35921,1.17583 z m 2.95315,-2.46662 c -0.61275,-0.7659 -0.62187,-1.47472 -0.0261,-2.02975 0.71038,-0.66182 0.85188,-0.67209 1.69044,-0.12264 0.70994,0.46518 0.88731,1.61296 0.33465,2.16562 -0.41587,0.41587 -1.66227,0.40762 -1.99897,-0.0132 z m -45.44082,31.2616 c 4.32475,-1.17284 11.8181,-6.50399 20.24137,-14.40073 12.33528,-11.56421 12.35886,-11.58594 15.47738,-14.263 2.70192,-2.31944 5.63926,-4.44562 7.87135,-5.69764 0.83675,-0.46934 1.52136,-0.88514 1.52136,-0.924 0,-0.0389 -0.26789,-0.0413 -0.59531,-0.006 -0.32743,0.0358 -10.4775,0.15713 -22.55573,0.26957 -12.07823,0.11244 -22.31761,0.21559 -22.75417,0.22922 l -0.79375,0.0248 -0.0685,14.08906 -0.0685,14.08906 h 1.58982 c 0.88349,0 1.58982,0.11755 1.58982,0.26459 0,0.1469 -0.70408,0.26458 -1.58307,0.26458 h -1.58306 l 0.0617,3.17496 c 0.0369,1.90032 0.16793,3.17439 0.3263,3.17353 0.14552,-7.9e-4 0.74083,-0.1306 1.32291,-0.28845 z m 45.11146,-35.85612 c 1.96453,-0.0857 3.60071,-0.18244 3.63595,-0.21496 0.0352,-0.0325 0.0676,-22.13623 0.0718,-49.119362 0.007,-41.362018 -0.0492,-49.07245 -0.35524,-49.138148 -0.78592,-0.168735 -4.36035,0.782302 -6.16968,1.641549 -4.62854,2.198085 -8.36414,5.853858 -16.90891,16.547567 -4.41856,5.5298 -8.94091,10.295302 -12.06391,12.712572 -4.04482,3.13077 -9.05758,5.28106 -13.33216,5.719 -1.92035,0.19675 -2.06558,0.37948 -1.86855,2.35099 0.0582,0.58208 0.11784,1.32622 0.13261,1.65364 0.0244,0.54195 0.15729,0.59531 1.48205,0.59531 0.80036,0 1.45521,0.11907 1.45521,0.26459 0,0.14552 -0.65485,0.26458 -1.45521,0.26458 h -1.45521 l -0.0282,0.99219 c -0.0155,0.5457 -0.0205,4.38547 -0.0111,8.53281 0.009,4.14734 0.022,10.130242 0.0282,13.295312 l 0.0111,5.75469 h 1.45521 c 1.84443,0 1.91611,0.39404 0.0862,0.47366 -0.75297,0.0328 -1.40319,0.0937 -1.44494,0.13547 -0.0866,0.0865 -0.12176,6.41801 -0.10678,19.1997 l 0.0104,8.82862 21.62969,-0.16698 c 11.89632,-0.0918 23.23703,-0.2371 25.20156,-0.3228 z m 34.99114,-0.36475 6.28386,-0.002 v -0.80225 c 0,-0.44123 -0.1786,-1.22968 -0.39688,-1.7521 -0.21828,-0.52242 -0.39687,-1.11391 -0.39687,-1.31442 0,-0.20051 0.17859,-0.36456 0.39687,-0.36456 0.32989,0 0.39688,-0.51621 0.39688,-3.05833 0,-1.9715 0.094,-3.00021 0.26458,-2.8948 0.1503,0.0929 0.26458,1.41386 0.26458,3.05833 0,2.62572 0.0449,2.8948 0.4828,2.8948 0.45496,0 0.44734,0.10874 -0.1323,1.88671 -0.33829,1.0377 -0.61508,1.99735 -0.61508,2.13257 0,0.36452 14.36679,-0.0479 14.61545,-0.41955 0.10761,-0.16084 0.14258,-0.43746 0.0777,-0.6147 -0.0649,-0.17724 -0.004,-0.39262 0.13507,-0.47863 0.14012,-0.0866 0.25303,0.2083 0.25303,0.66089 v 0.81727 l 3.37344,-0.074 3.37343,-0.074 -0.0442,-14.90501 c -0.0243,-8.19775 -0.0947,-14.95548 -0.1564,-15.01717 -0.20011,-0.2001 -6.25983,-0.21804 -6.45876,-0.0191 -0.10608,0.10609 -0.16091,0.71267 -0.12185,1.34796 0.0397,0.64512 -0.0601,1.23614 -0.22607,1.3387 -0.20759,0.12829 -0.27862,-0.22139 -0.23576,-1.16064 0.0684,-1.49875 0.0506,-1.54021 -0.69442,-1.61953 -1.45083,-0.15447 -13.27385,0.0411 -13.56248,0.2243 -0.26161,0.16608 -0.22076,0.54944 0.18989,1.78189 0.45599,1.36853 0.47332,1.60802 0.13489,1.86403 -0.30393,0.22991 -0.38834,0.99187 -0.38834,3.50573 0,1.96493 -0.10272,3.21198 -0.26458,3.21198 -0.16228,0 -0.26458,-1.27882 -0.26458,-3.30729 0,-3.18688 -0.0203,-3.30729 -0.55748,-3.30729 -0.41539,0 -0.5136,-0.11433 -0.38533,-0.44859 0.0947,-0.24672 0.36312,-1.03249 0.59655,-1.74617 0.53612,-1.63907 0.28601,-1.85869 -1.86402,-1.63678 -1.21202,0.1251 -1.52369,0.0844 -1.43328,-0.18711 0.0907,-0.27236 1.6472,-0.36254 7.23736,-0.41935 l 7.12182,-0.0724 -1.98437,-1.07282 c -3.46157,-1.87145 -7.71718,-5.42549 -10.68643,-8.9247 -1.85428,-2.185222 -2.56479,-3.088182 -5.4695,-6.950862 -5.18044,-6.88897 -11.67246,-18.84655 -15.06809,-27.753741 -0.41606,-1.091407 -1.42762,-3.591719 -2.2479,-5.55625 -0.82028,-1.964531 -1.64616,-3.990199 -1.83531,-4.501485 -0.68422,-1.849572 -3.14381,-6.515057 -4.27486,-8.108796 -0.63626,-0.896541 -1.65257,-2.054398 -2.25846,-2.573016 -1.166,-0.998054 -3.28405,-1.957362 -3.60754,-1.633929 -0.10589,0.105877 -0.23319,22.287689 -0.28289,49.292917 l -0.0904,49.100412 12.26119,-0.17284 c 6.74365,-0.0951 15.08891,-0.1736 18.54503,-0.17451 z m 21.33421,-4.16886 c -0.1917,-1.23131 -0.17148,-3.24836 0.0338,-3.37525 0.16303,-0.10076 0.26164,0.54224 0.26164,1.70599 0,1.02724 -0.0595,1.8677 -0.13229,1.8677 -0.0728,0 -0.1462,-0.0893 -0.16319,-0.19844 z m -0.0874,-6.10738 c -0.21922,-0.69069 -0.10193,-2.9508 0.16159,-3.11366 0.12169,-0.0752 0.22126,0.70371 0.22126,1.73095 0,1.89083 -0.10324,2.26369 -0.38285,1.38271 z m 0.0301,-5.51224 c -0.28474,-0.28474 -0.20367,-3.52777 0.0882,-3.52777 0.15119,0 0.26458,0.79375 0.26458,1.85208 0,1.8623 -0.0289,1.99957 -0.35278,1.67569 z m -0.17639,-7.77672 c 0,-1.02723 0.10366,-1.80363 0.23036,-1.72533 0.32984,0.20385 0.36513,3.59303 0.0374,3.59303 -0.15535,0 -0.26777,-0.78415 -0.26777,-1.8677 z m 7.21601,-7.99313 c 0.21217,-0.55292 -0.18735,-2.49109 -0.43277,-2.09947 -0.11816,0.18856 -0.81045,0.81364 -1.53842,1.38907 l -1.32358,1.04623 h 1.58295 c 1.03511,0 1.62755,-0.11623 1.71182,-0.33583 z m -3.42398,-0.99323 c 0.68329,-0.34126 1.73613,-1.16303 2.33964,-1.82617 l 1.09728,-1.2057 -0.17447,-24.740892 c -0.18149,-25.73752 -0.66453,-56.923205 -0.88523,-57.152347 -0.45873,-0.476269 -47.84588,-0.106046 -55.44789,0.4332 l -2.3151,0.164221 v 8.798004 8.798005 l 1.12447,0.284763 c 1.71081,0.433246 3.44963,1.675899 4.93707,3.528297 1.30506,1.625263 4.71781,8.009599 5.80109,10.852279 0.88773,2.329522 5.23862,12.906605 6.18293,15.030818 1.16725,2.62571 4.99127,9.94213 6.49952,12.43541 7.41813,12.26287 15.09305,20.970142 21.22783,24.083192 2.34051,1.18767 2.91618,1.3076 5.8389,1.21638 2.01897,-0.063 2.78317,-0.20464 3.77396,-0.69946 z m -7.1685,-0.43468 c -0.59046,-0.23788 -0.87472,-1.06526 -0.60747,-1.76817 0.30466,-0.80133 1.03653,-1.06757 1.96462,-0.71471 0.55942,0.21269 0.69641,0.43781 0.69641,1.14444 0,1.30146 -0.81953,1.83559 -2.05356,1.33844 z m 3.60955,-0.8544 c -0.53171,-0.43056 -0.58196,-0.60762 -0.35532,-1.25206 0.36356,-1.0338 1.50326,-1.42577 2.2309,-0.76726 0.69273,0.62691 0.70692,1.88216 0.0254,2.2469 -0.73874,0.39536 -1.19985,0.34016 -1.90098,-0.22758 z m 3.74498,-1.5978 c -0.41635,-0.77796 -0.33476,-1.19088 0.36524,-1.8485 0.58125,-0.54606 0.70703,-0.56803 1.38906,-0.2426 0.83168,0.39683 1.14947,1.56519 0.60436,2.222 -0.47658,0.57425 -2.02733,0.48819 -2.35866,-0.1309 z m -10.68392,-0.23667 c -0.85443,-0.94413 -0.20484,-2.42656 1.06329,-2.42656 0.66472,0 1.40924,0.7931 1.40924,1.50118 0,1.2121 -1.65314,1.83081 -2.47253,0.92538 z m 4.9067,-0.89198 c -0.76356,-0.76355 -0.028,-2.59291 1.0425,-2.59291 0.56136,0 1.55041,0.99312 1.55041,1.5568 0,1.06568 -1.83149,1.79753 -2.59291,1.03611 z M 231.75623,79.636358 c 2.35745,-0.49591 5.62141,-1.74764 7.24971,-2.78028 0.69004,-0.43761 1.35962,-0.79565 1.48796,-0.79565 0.12834,0 0.27303,-0.0962 0.32154,-0.21384 0.0485,-0.11762 0.6835,-0.61681 1.41111,-1.10933 2.31557,-1.56742 7.81089,-7.364946 12.28854,-12.964335 8.0457,-10.061292 11.62837,-13.683342 15.88958,-16.064232 1.95077,-1.089963 4.99448,-2.152466 6.76076,-2.360058 l 1.44133,-0.169399 v -8.827113 -8.827113 l -0.72761,0.002 c -0.65365,0.0018 -26.00466,1.106143 -43.06093,1.875898 -4.0584,0.183156 -6.68281,0.407124 -6.79111,0.579555 -0.14042,0.223557 -0.13323,24.919581 0.008,27.773548 0.036,0.726145 0.0437,0.729032 1.49135,0.558884 0.92542,-0.108765 1.45521,-0.07268 1.45521,0.09912 0,0.326429 -0.89101,0.587923 -2.02004,0.592841 -0.8048,0.0035 -0.83379,0.04482 -0.97719,1.392675 -0.11424,1.073881 -0.0644,18.022539 0.0618,21.034369 0.0208,0.49697 0.17509,0.59531 0.9337,0.59531 0.49981,0 1.74908,-0.17676 2.77615,-0.39281 z M 216.16509,201.21864 c 0,-0.16722 0.82906,-0.27488 2.11667,-0.27488 1.16416,0 2.11666,0.10336 2.11666,0.2297 0,0.12633 -0.9525,0.25003 -2.11666,0.27488 -1.3166,0.0281 -2.11667,-0.0587 -2.11667,-0.2297 z m 6.56976,-28.35745 c 0.0561,-1.38214 -0.0177,-2.21966 -0.20595,-2.33598 -0.18033,-0.11145 -0.0422,-0.29578 0.35828,-0.47827 l 0.65168,-0.29693 0.0834,2.63287 c 0.0787,2.48427 0.0536,2.63286 -0.44574,2.63291 -0.49301,4e-5 -0.52319,-0.14718 -0.4417,-2.1546 z m -6.7025,-0.4917 c 0.17426,-0.28196 3.99168,-0.19874 4.28381,0.0934 0.0937,0.0937 -0.86844,0.17046 -2.13821,0.17046 -1.46747,0 -2.24926,-0.0961 -2.1456,-0.26385 z m 5.97278,-26.62704 c -0.68507,-0.87092 -0.75566,-3.1225 -0.12608,-4.02136 0.63804,-0.91092 1.91545,-0.69882 2.57028,0.42677 0.9024,1.55113 0.0108,4.29173 -1.39618,4.29173 -0.27481,0 -0.74642,-0.31371 -1.04802,-0.69714 z m 1.77791,-0.38209 c 0.44073,-0.8257 0.26022,-3.06224 -0.29169,-3.61415 -0.76771,-0.76771 -1.24084,0.005 -1.24084,2.02703 0,2.35246 0.72388,3.10213 1.53253,1.58712 z m 115.67788,-3.68327 c 0,-0.14552 0.12609,-0.26458 0.2802,-0.26458 0.15411,0 0.20661,0.11906 0.11667,0.26458 -0.0899,0.14552 -0.21602,0.26458 -0.28019,0.26458 -0.0642,0 -0.11668,-0.11906 -0.11668,-0.26458 z M 222.44894,117.42478 c 0.40788,-0.16458 0.46706,-4.23315 0.0635,-4.36766 -0.14696,-0.049 -0.0279,-0.23851 0.26458,-0.42116 0.51853,-0.32383 0.53178,-0.26995 0.53178,2.16163 0,1.74743 0.099,2.53368 0.33073,2.62719 0.1819,0.0734 -0.086,0.13345 -0.59531,0.13345 -0.50933,0 -0.77722,-0.06 -0.59532,-0.13345 z m -0.99218,-28.820732 c 0,-0.086 0.42112,-0.64837 0.93582,-1.24968 1.04308,-1.2186 1.3875,-2.17592 1.00247,-2.78634 -0.39962,-0.63351 -0.80002,-0.65004 -1.39259,-0.0575 -0.39467,0.39467 -0.5457,0.44109 -0.5457,0.16772 0,-1.20926 1.84449,-1.60629 2.53889,-0.5465 0.51681,0.78875 0.20999,1.80978 -0.84037,2.79655 -0.90744,0.85249 -0.79787,1.10896 0.42397,0.99244 0.81633,-0.0778 1.03199,-0.0177 0.92604,0.25843 -0.076,0.19796 -0.13812,0.40971 -0.13812,0.47057 0,0.0609 -0.65484,0.11065 -1.4552,0.11065 -0.80037,0 -1.45521,-0.0704 -1.45521,-0.15637 z m -0.081,-29.116987 c -0.37252,-0.372514 0.13946,-0.586571 0.74407,-0.311094 1.32836,0.60524 2.05742,-1.391566 0.74549,-2.041799 -0.5608,-0.277949 -0.56253,-0.293692 -0.0661,-0.603685 0.59516,-0.371684 0.67808,-1.324126 0.13347,-1.533112 -0.20691,-0.0794 -0.63264,-0.0071 -0.94607,0.160623 -0.52897,0.283094 -0.54818,0.264458 -0.26768,-0.259662 0.22706,-0.424252 0.50499,-0.544358 1.11783,-0.483048 1.02686,0.10273 1.52303,0.799683 1.07735,1.513329 -0.25392,0.406597 -0.24039,0.571059 0.0681,0.827061 0.58259,0.48351 0.46623,1.673722 -0.22734,2.325296 -0.57885,0.543796 -1.99895,0.786199 -2.37905,0.406091 z m 1.84489,-29.375942 c -0.097,-0.09701 -0.17639,-0.394022 -0.17639,-0.660018 0,-0.401975 -0.1524,-0.459409 -0.90264,-0.340177 -0.53864,0.0856 -0.97768,0.02204 -1.08871,-0.157621 -0.19717,-0.319023 2.14604,-3.957462 2.54866,-3.957462 0.13004,0 0.23644,0.718112 0.23644,1.595804 0,1.174417 0.1048,1.636019 0.39687,1.748099 0.21828,0.08376 0.39688,0.258619 0.39688,0.388571 0,0.129952 -0.1786,0.236276 -0.39688,0.236276 -0.24694,0 -0.39687,0.249884 -0.39687,0.661458 0,0.642373 -0.25763,0.844798 -0.61736,0.48507 z m -0.17639,-2.795447 V 26.19592 l -0.66146,0.973423 c -0.3638,0.535383 -0.66146,1.039272 -0.66146,1.119752 0,0.08048 0.29766,0.146329 0.66146,0.146329 0.60136,0 0.66146,-0.101738 0.66146,-1.119752 z"
       id="path1"
       sodipodi:nodetypes="sssssssssscsscsscsssssssssscssscsssssssssssssscsccscccssscccscccssccssscscssssccssssscssscssssssssssssssssssssssssssssssssssccccsssscsssssccsssssssssssssssscsssscsscccsssccscccscsssssscssscscccssccccccccsssssssssssssscccssssssssssssssssssscssssssssssccccsssssssssssssssssssssscsssscssscccssssssssssssssssssssssssssssssssssssssscccssscsssssssssssssssscssssssssssssssssssssssssssssssscssssssccsscccsscssssscsccsssssssssssscssss" />
    <text
       xml:space="preserve"
       style="font-weight:bold;font-size:8.46667px;line-height:normal;font-family:'Segoe Script';-inkscape-font-specification:'Segoe Script Bold';text-align:center;text-decoration-color:#000000;writing-mode:lr-tb;direction:ltr;text-anchor:middle;fill:#000000;stroke-width:0.529"
       x="252.5844"
       y="187.86998"
       id="text5-9"><tspan
         sodipodi:role="line"
         id="tspan5-6"
         style="stroke-width:0.529"
         x="252.5844"
         y="187.86998">Valence</tspan><tspan
         sodipodi:role="line"
         style="stroke-width:0.529"
         x="252.5844"
         y="198.45332"
         id="tspan6-5">Band</tspan></text>
    <text
       xml:space="preserve"
       style="font-weight:bold;font-size:8.46667px;line-height:normal;font-family:'Segoe Script';-inkscape-font-specification:'Segoe Script Bold';text-align:center;text-decoration-color:#000000;writing-mode:lr-tb;direction:ltr;text-anchor:middle;fill:#000000;stroke-width:0.529"
       x="278.75278"
       y="218.1071"
       id="text10"><tspan
         sodipodi:role="line"
         id="tspan10"
         style="font-size:8.46667px;stroke-width:0.529"
         x="278.75278"
         y="218.1071">k</tspan></text>
    <text
       xml:space="preserve"
       style="font-weight:bold;font-size:8.46667px;line-height:normal;font-family:'Segoe Script';-inkscape-font-specification:'Segoe Script Bold';text-align:center;text-decoration-color:#000000;writing-mode:lr-tb;direction:ltr;text-anchor:middle;fill:#000000;stroke-width:0.529"
       x="309.03012"
       y="32.568382"
       id="text1"><tspan
         sodipodi:role="line"
         id="tspan1"
         style="stroke-width:0.529"
         x="309.03012"
         y="32.568382">Conduction</tspan><tspan
         sodipodi:role="line"
         style="stroke-width:0.529"
         x="309.03012"
         y="43.151718"
         id="tspan3">band</tspan></text>
    <text
       xml:space="preserve"
       style="font-weight:bold;font-size:8.46667px;line-height:normal;font-family:'Segoe Script';-inkscape-font-specification:'Segoe Script Bold';text-align:start;text-decoration-color:#000000;writing-mode:lr-tb;direction:ltr;text-anchor:start;fill:#000000;stroke:none;stroke-width:0.529"
       x="-153.75972"
       y="212.63687"
       id="text2"
       transform="rotate(-90)"><tspan
         sodipodi:role="line"
         id="tspan2"
         style="font-size:8.46667px;fill:#000000;stroke:none;stroke-width:0.529"
         x="-153.75972"
         y="212.63687">Energy (eV)</tspan></text>
    <text
       xml:space="preserve"
       style="font-weight:bold;font-size:8.46667px;line-height:normal;font-family:'Segoe Script';-inkscape-font-specification:'Segoe Script Bold';text-align:center;text-decoration-color:#000000;writing-mode:lr-tb;direction:ltr;text-anchor:middle;fill:#000000;stroke:none;stroke-width:0.529"
       x="251.15306"
       y="36.379715"
       id="text4"><tspan
         sodipodi:role="line"
         id="tspan4"
         style="stroke-width:0.529;fill:#000000;stroke:none"
         x="251.15306"
         y="36.379715">Si</tspan></text>
    <text
       xml:space="preserve"
       style="font-weight:bold;font-size:8.46667px;line-height:normal;font-family:'Segoe Script';-inkscape-font-specification:'Segoe Script Bold';text-align:center;text-decoration-color:#000000;writing-mode:lr-tb;direction:ltr;text-anchor:middle;fill:#000000;stroke:none;stroke-width:0.529"
       x="311.06537"
       y="129.11983"
       id="text5"><tspan
         sodipodi:role="line"
         id="tspan5"
         style="stroke-width:0.529"
         x="311.06537"
         y="129.11983">E<tspan
   style="font-size:65%;baseline-shift:sub"
   id="tspan11">g</tspan> = 1.1 eV</tspan></text>
    <text
       xml:space="preserve"
       style="font-weight:bold;font-size:8.46667px;line-height:normal;font-family:'Segoe Script';-inkscape-font-specification:'Segoe Script Bold';text-align:center;text-decoration-color:#000000;writing-mode:lr-tb;direction:ltr;text-anchor:middle;fill:#000000;stroke:none;stroke-width:0.529"
       x="252.67708"
       y="211.40208"
       id="text7"><tspan
         sodipodi:role="line"
         id="tspan7"
         style="stroke-width:0.529"
         x="252.67708"
         y="211.40208">[111]</tspan></text>
    <text
       xml:space="preserve"
       style="font-weight:bold;font-size:8.46667px;line-height:normal;font-family:'Segoe Script';-inkscape-font-specification:'Segoe Script Bold';text-align:center;text-decoration-color:#000000;writing-mode:lr-tb;direction:ltr;text-anchor:middle;fill:#000000;stroke:none;stroke-width:0.529"
       x="310.88531"
       y="211.40208"
       id="text7-9"><tspan
         sodipodi:role="line"
         id="tspan7-8"
         style="stroke-width:0.529"
         x="310.88531"
         y="211.40208">[100]</tspan></text>
    <text
       xml:space="preserve"
       transform="matrix(0.26458333,0,0,0.26458333,204.25833,24.077082)"
       id="text8"
       style="font-weight:bold;font-size:32px;line-height:normal;font-family:'Segoe Script';-inkscape-font-specification:'Segoe Script Bold';text-align:center;text-decoration-color:#000000;writing-mode:lr-tb;direction:ltr;white-space:pre;shape-inside:url(#rect8);display:inline;fill:#000000;stroke:none;stroke-width:1.99937" />
  </g>
</svg>
