<?xml version="1.0" encoding="UTF-8" standalone="no"?>
<!-- Created with Inkscape (http://www.inkscape.org/) -->

<svg
   width="100mm"
   height="129.8938mm"
   viewBox="0 0 100 129.8938"
   version="1.1"
   id="svg1"
   inkscape:version="1.4.2 (f4327f4, 2025-05-13)"
   sodipodi:docname="oe_led_gaalas_bandgap_problem.svg"
   inkscape:export-filename="oe_led_gaalas_bandgap_problem.png"
   inkscape:export-xdpi="96"
   inkscape:export-ydpi="96"
   xmlns:inkscape="http://www.inkscape.org/namespaces/inkscape"
   xmlns:sodipodi="http://sodipodi.sourceforge.net/DTD/sodipodi-0.dtd"
   xmlns="http://www.w3.org/2000/svg"
   xmlns:svg="http://www.w3.org/2000/svg">
  <sodipodi:namedview
     id="namedview1"
     pagecolor="#ffffff"
     bordercolor="#000000"
     borderopacity="0.25"
     inkscape:showpageshadow="2"
     inkscape:pageopacity="0.0"
     inkscape:pagecheckerboard="0"
     inkscape:deskcolor="#d1d1d1"
     inkscape:document-units="mm"
     inkscape:zoom="1.4142136"
     inkscape:cx="157.33125"
     inkscape:cy="347.54297"
     inkscape:window-width="1366"
     inkscape:window-height="705"
     inkscape:window-x="-8"
     inkscape:window-y="-8"
     inkscape:window-maximized="1"
     inkscape:current-layer="layer1"
     showguides="false" />
  <defs
     id="defs1">
    <inkscape:path-effect
       effect="bspline"
       id="path-effect2"
       is_visible="true"
       lpeversion="1.3"
       weight="33.333333"
       steps="2"
       helper_size="0"
       apply_no_weight="true"
       apply_with_weight="true"
       only_selected="false"
       uniform="false" />
  </defs>
  <g
     inkscape:label="Layer 1"
     inkscape:groupmode="layer"
     id="layer1"
     transform="translate(-82.430138,-92.948523)">
    <path
       d="m 98.673186,207.49517 c -0.82411,-0.90366 -0.490427,-3.31577 0.490693,-3.54705 1.131561,-0.26719 1.829921,0.6733 1.675571,2.25588 -0.10303,1.05651 -0.62644,1.73283 -1.333055,1.72256 -0.257712,-0.004 -0.60916,-0.1856 -0.833209,-0.43139 z m 1.314774,-0.41613 c 0.3207,-0.58126 0.22324,-2.37736 -0.149891,-2.76165 -0.278774,-0.28714 -0.302651,-0.28665 -0.530615,0.01 -0.409282,0.53399 -0.534799,2.02808 -0.226762,2.6993 0.297258,0.64779 0.569767,0.66325 0.907264,0.0515 z m 36.55684,0.45426 c -0.78611,-0.56814 -0.87641,-2.65993 -0.14764,-3.42015 0.19692,-0.20549 0.54684,-0.35318 0.82711,-0.349 0.86516,0.0119 1.33895,0.80459 1.31861,2.20422 -0.0203,1.41834 -1.06698,2.2379 -1.99808,1.56503 z m 0.95057,-0.21719 c 0.27699,-0.1699 0.46611,-1.59155 0.32242,-2.42434 -0.11287,-0.65405 -0.53063,-0.92291 -0.89056,-0.57311 -0.29575,0.28742 -0.36317,2.26089 -0.095,2.78025 0.20577,0.39864 0.31123,0.43312 0.66315,0.2172 z m 1.531,0.091 c 0.004,-0.30837 0.0956,-0.41913 0.34228,-0.41559 0.40892,0.008 0.45627,0.59417 0.0598,0.73989 -0.39447,0.14506 -0.40854,0.13354 -0.4019,-0.32432 z m 1.23085,0.17487 c -0.1381,-0.37675 0.22785,-0.70373 0.48797,-0.43584 0.10929,0.11267 0.36933,0.20728 0.57778,0.21028 0.30348,0.004 0.40367,-0.11824 0.50386,-0.61079 0.10492,-0.51751 0.0644,-0.66639 -0.24887,-0.92909 -0.20595,-0.17209 -0.51988,-0.31471 -0.69743,-0.31729 -0.46294,-0.008 -0.55312,-0.42735 -0.2316,-1.08055 0.23873,-0.48498 0.3773,-0.57363 0.97134,-0.62166 0.48365,-0.0389 0.7189,0.0159 0.77905,0.17905 0.11009,0.30021 -0.25866,0.52641 -0.84974,0.52109 -0.63421,-0.006 -0.58336,0.22045 0.10731,0.48229 0.64932,0.24562 1.01328,1.04248 0.81548,1.78521 -0.21848,0.8203 -1.97623,1.46894 -2.21527,0.81752 z m 36.41856,-0.006 c -0.006,-0.0694 0.01,-0.79995 0.0336,-1.62324 0.0314,-1.07139 -0.0179,-1.53839 -0.17527,-1.64283 -0.17705,-0.11804 -0.17009,-0.17686 0.0358,-0.30783 0.1399,-0.089 0.387,-0.16116 0.54879,-0.16036 0.26064,0.002 0.29146,0.19255 0.26986,1.67377 -0.0159,1.10618 0.0423,1.7146 0.17288,1.79792 0.13552,0.0866 0.095,0.16454 -0.12976,0.2486 -0.43515,0.16314 -0.74522,0.1697 -0.75675,0.0139 z m 2.20642,-0.004 c -0.28162,-0.17984 -0.0984,-0.68022 0.24726,-0.67521 0.14288,0.002 0.25531,0.14904 0.25265,0.3302 -0.004,0.40059 -0.20162,0.53562 -0.49995,0.34503 z m 1.34154,-0.53315 c -0.5443,-0.92307 -0.31319,-2.78838 0.3905,-3.15219 1.0355,-0.53523 1.83711,0.28021 1.81547,1.84676 -0.008,0.49026 -0.13115,1.11305 -0.27599,1.3839 -0.22513,0.4205 -0.3617,0.49107 -0.93426,0.48278 -0.57609,-0.008 -0.71634,-0.0872 -0.99572,-0.56125 z m 1.31291,0.0274 c 0.26262,-0.25525 0.29503,-2.16576 0.0457,-2.73357 -0.10373,-0.23717 -0.31921,-0.43312 -0.47846,-0.43544 -0.35481,-0.004 -0.49919,0.46282 -0.5168,1.67478 -0.008,0.50881 0.0298,1.09605 0.0823,1.30502 0.10393,0.41213 0.53929,0.50718 0.86649,0.18937 z m -82.227316,-8.91798 c 0.02857,-2.07122 0.04779,-8.346 0.04296,-13.94398 -0.005,-5.59792 -0.002,-13.54677 0.0066,-17.66412 0.01749,-8.48398 0.0058,-15.71433 -0.03489,-21.61811 -0.0153,-2.22089 -0.01709,-9.75343 -0.0042,-16.739 0.01292,-6.9856 0.01828,-15.16154 0.01172,-18.16873 -0.0064,-3.00722 -0.01431,-8.02271 -0.01749,-11.145534 l -0.0058,-5.677867 0.890436,0.01093 c 1.07665,0.01292 17.07654,-0.03132 24.09463,-0.06677 2.77447,-0.01391 11.32477,-0.0456 19.00063,-0.07023 7.67589,-0.0246 17.66385,-0.06355 22.19547,-0.08648 10.85976,-0.05499 13.69486,-0.0378 13.81293,0.08376 0.15242,0.157083 0.16673,1.944769 0.10771,13.405211 -0.0308,5.87498 -0.0322,14.01313 -0.006,18.08468 0.0278,4.0716 0.0304,11.56631 0.006,16.65495 -0.023,5.08862 -0.0268,10.65278 -0.006,12.36484 0.0205,1.71206 0.0222,6.78424 0.004,11.27153 -0.0179,4.48727 -0.0225,10.0136 -0.01,12.28067 0.0119,2.26709 0.0139,7.60426 0.006,11.86034 -0.01,4.2561 -0.0199,8.84802 -0.0211,10.20424 l -0.004,2.46581 -1.76651,0.0715 c -0.97156,0.0392 -5.0199,0.0662 -8.99626,0.0598 -7.2764,-0.0119 -11.60201,-0.006 -20.42924,0.0312 -2.63573,0.01 -7.40257,0.0199 -10.59299,0.0199 -6.70277,-0.001 -14.91245,0.0421 -16.98327,0.0888 -0.78634,0.0179 -5.91246,0.0227 -11.39149,0.01 l -9.961873,-0.0217 z m 7.702456,3.15268 c 0.21087,-0.10889 0.33027,-0.34717 0.33493,-0.66807 0.0103,-0.70985 0.28319,-0.61393 0.39193,0.13771 l 0.0915,0.63215 3.49374,0.004 c 1.92155,0.002 3.57662,-0.024 3.67795,-0.057 0.10484,-0.0346 0.15367,-0.29316 0.11331,-0.59916 -0.0602,-0.45689 -0.0237,-0.52737 0.24382,-0.46865 0.22647,0.0497 0.30022,0.19156 0.26297,0.50588 -0.0714,0.6029 0.12329,0.62969 4.07256,0.55944 l 3.36368,-0.06 0.0606,-0.54585 c 0.0362,-0.32529 0.154,-0.54449 0.29149,-0.54255 0.13751,0.002 0.24891,0.22457 0.27556,0.5508 l 0.0447,0.54738 1.59711,0.0139 c 0.87847,0.006 2.52403,0.0119 3.65686,0.01 l 2.05973,-0.001 0.008,-0.58867 c 0.008,-0.47661 0.0727,-0.58778 0.34475,-0.5838 0.2747,0.004 0.33461,0.11684 0.32738,0.61734 l -0.008,0.61256 3.6578,-0.0521 c 2.01172,-0.0286 3.67665,-0.0531 3.69982,-0.0542 0.0229,-0.002 0.0503,-0.56743 0.0602,-1.2583 0.0159,-1.04754 0.0598,-1.2395 0.26896,-1.15572 0.18937,0.0759 0.24664,0.38519 0.23377,1.26628 l -0.0159,1.16584 3.15229,0.0211 c 3.96683,0.0268 4.22577,-0.006 4.17683,-0.52072 -0.0215,-0.21562 0.0215,-0.48222 0.0906,-0.5924 0.20629,-0.32339 0.4988,-0.004 0.49095,0.53422 l -0.008,0.49798 3.65688,0.008 3.6569,0.008 0.092,-0.55201 c 0.12121,-0.72539 0.37433,-0.75637 0.54237,-0.0664 l 0.13532,0.55183 3.64526,0.008 3.64525,0.006 0.0139,-0.48965 c 0.008,-0.26932 0.1081,-0.52024 0.22427,-0.55754 0.13811,-0.0451 0.20869,0.1083 0.2037,0.44085 -0.004,0.27971 0.0747,0.56121 0.17626,0.62512 0.10055,0.0644 1.79853,0.0852 3.77335,0.0473 l 3.59063,-0.0704 0.0594,-0.57313 c 0.0793,-0.76356 0.38402,-0.72858 0.44035,0.0505 l 0.0445,0.61879 3.70508,-0.0449 c 2.0378,-0.0248 3.72163,-0.0687 3.74185,-0.0976 0.0203,-0.0288 0.0159,-0.94228 -0.006,-2.0298 l -0.0425,-1.97733 -1.26321,-0.0199 c -1.10378,-0.0159 -1.23632,-0.0497 -1.05028,-0.26761 0.14883,-0.17407 0.5378,-0.24458 1.29112,-0.23349 l 1.07821,0.0159 -0.0239,-1.64057 c -0.0237,-1.6095 -0.0322,-1.64168 -0.44472,-1.69682 -0.23075,-0.0308 -0.53033,-0.096 -0.66575,-0.14466 -0.2168,-0.0779 -0.21636,-0.10691 0.004,-0.24152 0.13731,-0.0841 0.46048,-0.15102 0.71813,-0.14884 l 0.46831,0.004 -0.01,-1.58982 -0.01,-1.58975 -0.58962,-0.0594 c -0.81052,-0.0815 -0.9121,-0.48438 -0.11923,-0.47288 l 0.60238,0.008 0.0241,-1.67133 0.024,-1.67126 -0.53265,-0.0602 c -0.73085,-0.0831 -0.80307,-0.44814 -0.10035,-0.50543 l 0.55731,-0.0455 0.0717,-1.62872 0.0717,-1.62864 -0.59708,-0.0614 c -0.75169,-0.0773 -0.84632,-0.38419 -0.13651,-0.44265 0.2997,-0.0246 0.58024,-0.16295 0.64143,-0.3152 0.0598,-0.14924 0.0668,-0.90191 0.0159,-1.67248 l -0.0932,-1.40108 -1.1536,-0.0159 c -0.89793,-0.0119 -1.1528,-0.0709 -1.15008,-0.26169 0.002,-0.18739 0.29015,-0.25235 1.22305,-0.27655 l 1.21947,-0.0316 0.0237,-1.59786 0.0236,-1.59788 -0.6296,-0.0614 c -0.84343,-0.0823 -0.87323,-0.54929 -0.034,-0.53709 l 0.58831,0.008 0.024,-1.67178 0.024,-1.67179 -0.59108,-0.061 c -0.32513,-0.0334 -0.59002,-0.13672 -0.58869,-0.229 0.001,-0.0926 0.26912,-0.18779 0.59509,-0.21173 l 0.59261,-0.0435 0.0233,-1.59295 c 0.0159,-1.12777 -0.038,-1.61281 -0.186,-1.66084 -0.11525,-0.0372 -0.41962,-0.11704 -0.67684,-0.17785 -0.58871,-0.1381 -0.42596,-0.43586 0.23315,-0.42628 l 0.49438,0.008 0.0242,-1.68194 0.0242,-1.68194 -0.48375,-0.008 c -0.26598,-0.004 -0.57621,-0.12181 -0.6893,-0.26234 -0.17725,-0.22002 -0.1089,-0.25394 0.49349,-0.24509 l 0.69911,0.0119 -0.0238,-1.64059 -0.0239,-1.64062 -1.16234,-0.10095 c -0.71644,-0.0622 -1.18769,-0.18182 -1.22847,-0.31224 -0.0493,-0.15519 0.24247,-0.20674 1.10137,-0.19414 l 1.16751,0.0159 0.12917,-1.1017 c 0.0709,-0.60596 0.084,-1.36282 0.0282,-1.68193 -0.0908,-0.5255 -0.15301,-0.58114 -0.66972,-0.5884 -0.39429,-0.004 -0.56851,-0.086 -0.56598,-0.26057 0.002,-0.17626 0.18103,-0.24965 0.59205,-0.24372 l 0.58833,0.008 0.024,-1.67182 0.024,-1.67176 -0.5911,-0.061 c -0.32513,-0.0334 -0.59004,-0.13671 -0.58867,-0.229 0.001,-0.0926 0.26912,-0.18778 0.59509,-0.21171 l 0.59265,-0.0435 0.0233,-1.5697 c 0.0242,-1.68659 -0.0209,-1.77454 -0.92659,-1.78771 -0.66269,-0.008 -0.36402,-0.41842 0.34181,-0.46782 l 0.61814,-0.0431 0.0232,-1.56972 c 0.0242,-1.68218 -0.0228,-1.77458 -0.91253,-1.78752 -0.24931,-0.004 -0.40508,-0.10353 -0.40288,-0.25819 0.002,-0.18222 0.19037,-0.24952 0.67611,-0.24241 l 0.67243,0.008 -0.004,-0.71505 c -0.006,-0.39334 -0.0495,-1.12965 -0.10234,-1.6363 l -0.096,-0.92124 -1.1758,-0.0807 c -0.64665,-0.0445 -1.2109,-0.11585 -1.25384,-0.15898 -0.20075,-0.20161 0.52089,-0.38294 1.47801,-0.37135 l 1.05698,0.0139 -0.0252,-1.5462 -0.0252,-1.54623 -0.55566,-0.15222 c -0.68265,-0.18719 -0.61399,-0.53875 0.11724,-0.60028 0.45517,-0.0382 0.53478,-0.11207 0.53818,-0.49688 0.006,-0.66406 -0.21211,-0.91325 -0.74808,-0.8564 -0.39727,0.0421 -0.49244,-0.025 -0.59321,-0.42402 -0.0876,-0.34693 -0.0552,-0.49321 0.12122,-0.54497 0.13294,-0.0395 0.35548,-0.10413 0.49466,-0.14586 0.36875,-0.10929 0.31756,-0.6062 -0.0737,-0.71465 -0.18421,-0.0513 -0.33307,-0.22006 -0.3308,-0.37551 0.004,-0.39113 -1.07952,-1.44263 -2.02548,-1.96261 -0.43264,-0.23784 -1.24171,-0.53339 -1.79793,-0.65679 -0.66668,-0.14764 -1.01012,-0.30614 -1.00782,-0.46439 0.0119,-0.71269 3.25016,0.44718 4.38807,1.57101 0.32023,0.31626 0.77831,0.7614 1.01792,0.9892 l 0.43566,0.41416 0.0244,-1.71126 0.0244,-1.71127 -0.5043,-0.008 c -0.65227,-0.008 -0.68174,-0.47109 -0.034,-0.53613 l 0.46303,-0.0465 0.0717,-1.62868 0.0717,-1.62875 -0.59706,-0.0614 c -0.75122,-0.0771 -0.77884,-0.37293 -0.0443,-0.47379 0.65711,-0.0902 0.71879,-0.32613 0.5469,-2.09185 -0.0984,-1.01149 -0.16155,-1.17917 -0.45044,-1.19747 -0.18501,-0.0139 -0.65733,-0.0388 -1.04997,-0.06 -0.49905,-0.0272 -0.71297,-0.11267 -0.7105,-0.28345 0.002,-0.18222 0.27088,-0.25302 1.05505,-0.27862 l 1.05136,-0.0348 0.0236,-1.59786 0.0236,-1.59787 -0.50131,-0.008 c -0.34346,-0.004 -0.51799,-0.10016 -0.55438,-0.30247 -0.0431,-0.23655 0.0658,-0.29346 0.54764,-0.28642 l 0.60065,0.008 0.0242,-1.68193 0.0242,-1.68198 -0.68646,-0.01 c -0.84775,-0.0119 -0.82166,-0.39158 0.0348,-0.50418 l 0.57623,-0.0757 0.0707,-1.54456 0.0707,-1.54461 -0.63576,-0.0618 c -0.80869,-0.0787 -0.88406,-0.54531 -0.0988,-0.61013 0.63339,-0.0523 0.6741,-0.17845 0.62256,-1.91623 -0.0346,-1.16986 -0.0731,-1.30485 -0.37271,-1.30919 -0.45931,-0.007 -1.0105,-0.33333 -0.88758,-0.52603 0.0554,-0.0872 0.3613,-0.15454 0.67942,-0.14999 l 0.57848,0.009 0.0159,-1.09327 c 0.008,-0.60127 -0.032,-1.09397 -0.0904,-1.0948 -0.12459,-0.002 -0.59976,0.50918 -1.23503,1.32791 -0.24847,0.32024 -0.54779,0.68088 -0.66515,0.80144 -0.11724,0.12062 -0.21414,0.27374 -0.21507,0.34039 -0.002,0.0668 -0.35069,0.49147 -0.77715,0.94403 -0.42648,0.45257 -1.09212,1.27246 -1.47929,1.82198 -0.3871,0.54954 -1.0581,1.37574 -1.49105,1.83598 -0.85581,0.90977 -1.22246,1.33806 -1.94037,2.26661 -0.25771,0.33341 -0.56584,0.70782 -0.68463,0.83202 -0.11883,0.1244 -0.7891,0.8591 -1.48954,1.63317 -3.16433,3.49676 -9.62469,9.76592 -11.6083,11.2647 -0.41891,0.31655 -0.93187,0.7708 -1.13984,1.00945 -0.20804,0.2386 -0.82093,0.76052 -1.36195,1.15966 -0.54108,0.3991 -1.02221,0.76461 -1.06911,0.81218 -0.20962,0.21257 -2.51858,2.10459 -2.97787,2.44014 -0.2804,0.20483 -1.07381,0.79821 -1.76309,1.31851 -0.68926,0.52033 -1.41586,1.05725 -1.61461,1.19316 -0.19874,0.13592 -0.3875,0.30347 -0.41929,0.37243 -0.0318,0.069 -0.13076,0.12419 -0.21928,0.123 -0.0888,-0.001 -0.46909,0.27705 -0.84506,0.6186 -0.37598,0.34153 -0.89894,0.73588 -1.1621,0.87635 -0.26315,0.14029 -0.70668,0.43685 -0.98564,0.6586 -0.27896,0.2217 -0.6831,0.51419 -0.89811,0.64985 -0.21507,0.13553 -0.52055,0.36621 -0.67885,0.51233 -0.15817,0.14605 -0.60403,0.43743 -0.99051,0.64745 -0.38648,0.21004 -0.70331,0.42568 -0.70408,0.47932 -8.2e-4,0.0537 -0.30487,0.27923 -0.67585,0.50116 -0.63652,0.38093 -0.66931,0.43919 -0.58267,1.03685 0.1077,0.74293 -0.0721,0.85143 -1.70398,1.02797 -0.80439,0.087 -1.26098,0.27649 -2.4016,0.99699 -0.77459,0.48927 -1.45335,0.88896 -1.50832,0.88817 -0.055,-4.8e-4 -0.26045,0.14367 -0.45659,0.3214 -0.19632,0.17765 -0.60248,0.43528 -0.90291,0.57259 -0.3004,0.13732 -0.64322,0.36323 -0.76175,0.50204 -0.11844,0.1389 -0.27974,0.25137 -0.35817,0.25026 -0.17805,-0.002 -1.74437,1.02256 -1.82314,1.1932 -0.0318,0.069 -0.15599,0.1238 -0.27544,0.12221 -0.11963,-0.001 -0.32319,0.12042 -0.45233,0.2718 -0.12917,0.15082 -0.46327,0.38014 -0.74256,0.50869 -1.03631,0.47685 -1.26994,0.61234 -1.27177,0.7376 -6.6e-4,0.0705 -0.0966,0.12718 -0.21201,0.12539 -0.11565,-0.001 -0.43514,0.18521 -0.71024,0.41502 -0.2751,0.22969 -0.67565,0.45921 -0.89012,0.50978 -0.21462,0.0501 -0.3908,0.14745 -0.39181,0.21511 -0.001,0.0678 -0.40204,0.33223 -0.89127,0.58768 -0.4892,0.25546 -1.08041,0.58771 -1.31382,0.73838 -0.23337,0.15082 -0.74874,0.4703 -1.14525,0.71032 -0.39652,0.24009 -1.04538,0.63323 -1.44183,0.87369 -0.39652,0.24048 -1.03904,0.64753 -1.42779,0.90455 -0.38876,0.25698 -0.76297,0.46646 -0.83158,0.46543 -0.0687,-0.001 -0.37545,0.18361 -0.68185,0.4107 -0.30638,0.22697 -0.61173,0.41168 -0.67852,0.41072 -0.0669,-0.002 -0.37214,0.18361 -0.67852,0.41071 -0.30638,0.22697 -0.61481,0.41165 -0.68535,0.41062 -0.0705,-6.8e-4 -0.41873,0.18321 -0.77379,0.40933 -0.35505,0.22612 -0.95086,0.59602 -1.32405,0.82194 -0.37321,0.22576 -0.96482,0.58752 -1.31475,0.80368 -0.34995,0.21602 -0.97902,0.56658 -1.39798,0.77876 -0.41898,0.21211 -0.8005,0.4341 -0.84786,0.49309 -0.0921,0.11506 -2.62972,1.63956 -3.05361,1.83481 -0.13968,0.0644 -0.5976,0.33839 -1.01768,0.609 -0.42007,0.27061 -0.89681,0.53625 -1.05944,0.5903 -0.1628,0.0535 -0.29662,0.16513 -0.29781,0.24693 -10e-4,0.0817 -0.0725,0.14744 -0.15859,0.14625 -0.0861,-0.001 -0.61886,0.27488 -1.18403,0.61369 -0.7426,0.4451 -1.02957,0.71698 -1.03473,0.9803 -0.004,0.20044 -0.0952,0.39234 -0.20267,0.42646 -0.11726,0.038 0.0942,0.50211 0.52955,1.16341 0.76885,1.16788 2.23768,2.30248 3.68333,2.84523 1.50574,0.5653 1.51315,0.57001 1.29469,0.82574 -0.14001,0.16394 -0.28922,0.18838 -0.48062,0.0783 -0.15269,-0.0878 -0.63341,-0.27901 -1.06832,-0.42517 -1.38736,-0.46628 -3.44383,-2.10738 -3.98333,-3.17881 -0.11733,-0.23303 -0.25513,-0.46215 -0.30618,-0.50913 -0.0511,-0.0471 -0.21813,-0.27448 -0.37123,-0.50551 -0.270307,-0.40778 -0.279084,-0.37247 -0.302153,1.21532 l -0.02381,1.63526 0.483733,0.008 c 0.26606,0.004 0.56962,0.11386 0.67462,0.24414 0.1553,0.19295 0.0719,0.2635 -0.4473,0.37881 l -0.637988,0.14268 -0.02309,1.59106 -0.02309,1.59105 0.640038,0.062 c 0.77406,0.0751 0.75195,0.43826 -0.0307,0.50416 l -0.534166,0.0449 -0.02428,1.67129 -0.02428,1.67129 0.602386,0.008 c 0.7629,0.0119 0.69427,0.40742 -0.0818,0.47254 l -0.540138,0.0451 0.02442,1.6295 0.02442,1.62949 1.218028,0.0672 c 1.84665,0.10174 1.48879,0.47091 -0.55476,0.57224 l -0.673023,0.0332 -0.02315,1.5978 -0.02315,1.59788 0.629623,0.0614 c 0.93944,0.0914 0.705,0.5475 -0.27369,0.53221 -0.352088,-0.004 -0.363468,0.0487 -0.334132,1.59338 0.02559,1.35503 0.07343,1.60255 0.312702,1.62248 0.66848,0.0556 0.76022,0.0856 0.81812,0.26679 0.0341,0.10651 -0.20553,0.23717 -0.54224,0.29529 l -0.603297,0.10413 0.02422,1.63188 c 0.01729,1.15346 0.08582,1.6389 0.234127,1.65595 0.1154,0.0119 0.36096,0.0354 0.54571,0.0501 0.54442,0.0421 0.37937,0.33706 -0.21579,0.38573 l -0.547116,0.0447 -0.02315,1.59786 -0.02315,1.59786 0.503536,0.0626 c 0.75912,0.094 0.87306,0.33713 0.23127,0.49362 -0.682595,0.16613 -0.768994,0.4237 -0.718612,2.13841 l 0.03702,1.25979 1.163442,0.0159 c 0.92211,0.0119 1.16268,0.0695 1.15978,0.26922 -0.003,0.20017 -0.24649,0.24873 -1.18037,0.23526 l -1.176725,-0.0159 -0.02939,2.01836 -0.02939,2.01834 3.457165,0.0503 c 2.06162,0.0308 3.58942,-0.0179 3.78483,-0.11903 z m 33.23188,-61.66258 c -0.21387,-0.58253 0.0278,-0.82324 1.04343,-1.0395 0.55654,-0.11843 1.23533,-0.19037 1.50832,-0.15956 0.42308,0.0481 0.49641,0.12817 0.49651,0.54527 0.001,0.40929 -0.0966,0.52279 -0.59135,0.69361 -0.84726,0.29255 -2.34386,0.26826 -2.45689,-0.0397 z m 4.35475,-0.39224 c -0.23713,-0.24428 -0.26833,-0.92405 -0.0487,-1.05554 0.0813,-0.0485 0.55537,-0.13015 1.05351,-0.18261 0.49831,-0.0521 0.94411,-0.11387 0.99073,-0.13771 0.23589,-0.12062 0.83644,0.29397 0.83233,0.57486 -0.008,0.44514 -0.30405,0.63062 -1.18772,0.74029 -0.4169,0.0519 -0.90991,0.13453 -1.09557,0.18421 -0.18579,0.0489 -0.43081,-0.006 -0.54465,-0.12341 z m 4.01426,-0.73859 c -0.20096,-0.3894 -0.2221,-0.86373 -0.0401,-0.86101 0.0694,9.6e-4 0.67049,-0.10372 1.33582,-0.23247 1.37397,-0.26608 1.67427,-0.20736 1.65398,0.32301 -0.0224,0.61279 -0.21713,0.74617 -1.23576,0.85077 -0.53375,0.0549 -1.09878,0.13493 -1.25556,0.17765 -0.17149,0.0475 -0.35427,-0.0558 -0.45865,-0.25791 z m 4.23117,-0.49893 c -0.18282,-0.18858 -0.27321,-0.97678 -0.11128,-0.97447 0.0399,1.6e-4 0.60691,-0.10333 1.25937,-0.23061 1.45075,-0.28343 1.73593,-0.19772 1.65714,0.49823 -0.0501,0.44405 -0.14248,0.53272 -0.6486,0.62216 -1.4715,0.26018 -1.9671,0.27961 -2.15631,0.0847 z m 4.12622,-0.51834 c -0.062,-0.0636 -0.10929,-0.32512 -0.10571,-0.58097 0.008,-0.50849 0.0308,-0.52033 1.59788,-0.80803 0.90465,-0.16612 1.02111,-0.1542 1.21724,0.12261 0.27445,0.38727 0.27316,0.90749 -0.001,0.9371 -0.23685,0.0252 -0.50593,0.0799 -0.63243,0.12817 -0.0465,0.0179 -0.23585,0.0491 -0.42131,0.0685 -0.1854,0.0199 -0.60771,0.0843 -0.93889,0.14268 -0.3311,0.0584 -0.65262,0.054 -0.71444,-0.01 z m 4.21283,-0.78195 c -0.0608,-0.0624 -0.10731,-0.32001 -0.10373,-0.57203 0.008,-0.51841 0.15937,-0.58003 1.79659,-0.72923 l 1.03073,-0.094 0.0696,0.5261 c 0.06,0.45652 0.0119,0.53764 -0.36571,0.61379 -0.23935,0.0481 -0.65566,0.15321 -0.92474,0.23498 -0.57315,0.17228 -1.34478,0.18261 -1.50246,0.0209 z m 4.107,-0.91563 c -0.0902,-0.24806 -0.16314,-0.50964 -0.16115,-0.58158 0.004,-0.21409 1.2089,-0.52512 2.10953,-0.54477 0.82234,-0.0179 0.84185,-0.006 0.8837,0.49712 0.0423,0.50998 0.0318,0.5168 -1.10344,0.72308 -0.63038,0.11446 -1.24018,0.24154 -1.35507,0.28222 -0.11486,0.0413 -0.28267,-0.12877 -0.37283,-0.37699 z m 4.08005,-1.08222 c 0.0556,-0.50489 0.1236,-0.55922 0.90393,-0.72777 1.46021,-0.31532 1.91503,-0.26262 2.03235,0.23571 0.13493,0.57502 -0.01,0.68384 -1.19672,0.88196 -1.6624,0.27802 -1.81011,0.24501 -1.73956,-0.3899 z m 4.16447,-0.42821 c -0.31878,-0.61734 -0.10611,-0.84559 1.03884,-1.11506 1.46619,-0.34511 1.85355,-0.27505 1.84469,0.3333 -0.008,0.42286 -0.0918,0.49382 -0.80839,0.66969 -1.89546,0.46616 -1.8928,0.46548 -2.07512,0.11207 z m -72.56506,26.28261 c 0.36319,-0.24046 0.96543,-0.6055 1.33833,-0.81113 1.02727,-0.56649 1.78575,-1.01215 2.62857,-1.54433 0.41998,-0.2653 1.06383,-0.64059 1.43075,-0.83418 0.3669,-0.19375 0.77335,-0.45521 0.90318,-0.58138 0.12984,-0.12598 0.31806,-0.22828 0.41832,-0.22671 0.10027,0.001 0.43296,-0.18282 0.73935,-0.40985 0.30638,-0.22695 0.60179,-0.41185 0.65641,-0.41106 0.0546,5.8e-4 0.48151,-0.25354 0.94864,-0.5651 0.46713,-0.31161 0.99929,-0.61183 1.1826,-0.66711 0.18354,-0.0545 0.3343,-0.17109 0.33555,-0.25745 10e-4,-0.0862 0.0897,-0.15559 0.19655,-0.15401 0.10685,0.001 0.44493,-0.18301 0.75135,-0.4097 0.30637,-0.22694 0.62644,-0.41146 0.71119,-0.41023 0.0847,0.001 0.45223,-0.20597 0.81657,-0.46068 0.36434,-0.25473 0.78099,-0.50563 0.92586,-0.55775 0.14469,-0.0531 0.86056,-0.47254 1.59043,-0.93428 0.72985,-0.46171 1.43079,-0.83797 1.55763,-0.83619 0.12697,0.001 0.2315,-0.0602 0.23265,-0.1385 0.002,-0.16175 2.27464,-1.50745 2.53875,-1.50363 0.0954,10e-4 0.17428,-0.0606 0.17527,-0.1393 0.001,-0.0779 0.28784,-0.28118 0.63712,-0.45162 0.34924,-0.1703 0.79031,-0.43836 0.98014,-0.59529 0.18997,-0.15698 0.65703,-0.45384 1.03824,-0.65967 0.38121,-0.20585 1.1042,-0.64121 1.60663,-0.9676 0.50246,-0.32643 1.40956,-0.87816 2.01567,-1.22617 0.60614,-0.3481 1.38079,-0.8397 1.72149,-1.09265 0.34059,-0.25304 0.667,-0.45922 0.72524,-0.45837 0.12579,0.001 1.69963,-1.01096 2.30523,-1.4835 0.23385,-0.18242 0.59602,-0.37432 0.80483,-0.4264 0.4018,-0.10016 0.49395,-0.30441 0.21718,-0.48109 -0.0916,-0.0584 -0.16295,-0.35588 -0.15858,-0.66079 l 0.008,-0.55433 1.53759,-0.19792 c 1.27797,-0.16434 1.67018,-0.29066 2.32277,-0.74784 0.43183,-0.30248 0.93742,-0.6154 1.12356,-0.69518 0.18619,-0.0797 0.63584,-0.37599 0.99947,-0.6582 0.36359,-0.2822 0.72246,-0.51227 0.7974,-0.51114 0.0749,0.001 0.35099,-0.18281 0.61337,-0.40905 0.58678,-0.50565 0.71806,-0.59926 1.27483,-0.90938 0.35141,-0.19573 2.4048,-1.66029 3.27686,-2.33723 1.0083,-0.78272 2.15263,-1.62912 2.63629,-1.95001 0.32684,-0.21678 0.85149,-0.63217 1.16589,-0.92291 0.31443,-0.29078 0.76688,-0.62905 1.00554,-0.75173 0.23853,-0.12261 0.67737,-0.44659 0.97513,-0.71985 0.89163,-0.81828 2.13586,-1.81016 2.45146,-1.95425 0.16274,-0.0743 0.8953,-0.68821 1.62802,-1.36426 0.73268,-0.67604 1.39468,-1.22827 1.47105,-1.22718 0.0763,0.001 0.81472,-0.65055 1.6408,-1.44819 0.8261,-0.79758 2.15134,-2.05524 2.94501,-2.79471 1.85116,-1.72481 4.28283,-4.17803 6.22681,-6.28202 0.84326,-0.91266 1.8789,-2.01928 2.30145,-2.45917 1.05062,-1.09382 0.99508,-1.02926 2.16948,-2.52341 0.5752,-0.73187 1.19183,-1.47993 1.37032,-1.66241 0.17864,-0.1824 0.77365,-0.91192 1.3226,-1.62103 0.54895,-0.7091 1.05577,-1.28845 1.12625,-1.28743 0.0705,6.6e-4 0.17567,-0.12998 0.23341,-0.291 0.058,-0.16116 0.39568,-0.67237 0.75069,-1.1362 0.35498,-0.46381 0.82428,-1.08156 1.04289,-1.37275 0.43087,-0.57397 0.45774,-0.54412 -0.54901,-0.61015 -0.1852,-0.0121 -0.33432,-0.13558 -0.33231,-0.27432 0.002,-0.18637 0.23876,-0.26235 0.90409,-0.29074 l 0.90042,-0.0383 -0.64261,-0.346718 c -1.84273,-0.994187 -4.50463,-1.728053 -6.36617,-1.755094 -0.93549,-0.01351 -1.24212,-0.07241 -1.18652,-0.227524 0.0534,-0.149771 0.54803,-0.198377 1.73992,-0.171133 1.91376,0.04372 3.58256,0.469641 5.56011,1.418908 0.68836,0.330446 1.31656,0.601764 1.39601,0.602921 0.16672,0.0024 0.21659,-1.557857 0.0743,-2.327613 -0.0632,-0.341371 -0.19116,-0.515685 -0.371,-0.504446 -0.59393,0.0371 -0.86202,-0.05566 -0.85848,-0.296993 0.002,-0.176736 0.18182,-0.249692 0.59857,-0.243655 l 0.59491,0.0087 -0.0266,-1.472417 c -0.0159,-0.859557 -0.0974,-1.46281 -0.19573,-1.449317 -0.0924,0.01292 -3.7624,0.0219 -8.15496,0.02035 -4.39262,-0.0015 -8.10041,0.02295 -8.23955,0.05439 -0.1393,0.03126 -4.41434,0.04773 -9.5004,0.03637 -5.08601,-0.01133 -9.28544,5.07e-4 -9.33202,0.02633 -0.0465,0.02589 -3.83,0.04326 -8.40748,0.03899 -4.57751,-0.0044 -8.58786,0.0159 -8.912,0.04509 -0.59225,0.05334 -15.14886,0.09431 -18.91629,0.05334 -1.10954,-0.01212 -3.20903,-0.02035 -4.66555,-0.01848 l -2.648245,0.0036 -0.02065,1.419758 -0.02065,1.419762 0.712195,0.164039 c 0.70841,0.163164 0.65807,0.25377 -0.24259,0.43654 l -0.447752,0.09085 0.0022,1.641082 0.0022,1.64108 1.009222,-0.0275 c 0.92242,-0.0252 1.63182,0.16911 1.40886,0.3858 -0.0497,0.0483 -0.61612,0.1288 -1.25877,0.17896 l -1.168445,0.0912 0.02903,1.66285 0.02903,1.66287 0.591205,0.009 c 0.75388,0.0111 0.67575,0.40788 -0.093,0.47239 l -0.540114,0.0453 0.02442,1.6295 0.02442,1.62949 0.629634,0.0614 c 0.97304,0.0948 0.69596,0.5467 -0.32612,0.53186 -0.41443,-0.006 -0.416843,0.002 -0.406883,1.46609 0.0054,0.80968 0.0841,1.56788 0.17463,1.68484 0.09054,0.11684 0.382293,0.21584 0.648343,0.21974 0.26605,0.004 0.48274,0.0747 0.48154,0.15738 -0.003,0.18222 -0.42022,0.34837 -0.8594,0.34201 -0.296379,-0.004 -0.324434,0.13135 -0.346893,1.67727 l -0.02436,1.68195 0.578433,0.008 c 0.31814,0.004 0.62409,0.0849 0.67989,0.17805 0.0572,0.0956 -0.0802,0.16692 -0.31497,0.16354 -0.901108,-0.0119 -0.949513,0.0743 -0.974042,1.76292 l -0.02275,1.57246 1.204582,0.067 c 1.64403,0.0912 1.69878,0.4176 0.0974,0.5807 l -1.229201,0.12519 -0.06762,1.17311 c -0.09757,1.69182 -0.01073,1.93802 0.688131,1.94816 0.31637,0.004 0.61859,0.0811 0.67159,0.1697 0.11879,0.19852 -0.44539,0.50668 -0.91575,0.49983 -0.326547,-0.004 -0.348657,0.09 -0.37047,1.59283 l -0.02315,1.59782 0.58834,0.008 c 0.41092,0.006 0.58726,0.0846 0.58469,0.26089 -0.003,0.17626 -0.18114,0.24965 -0.59202,0.24371 l -0.588203,-0.008 -0.02436,1.68198 -0.02436,1.68189 0.686433,0.01 c 0.84778,0.0119 0.82167,0.39163 -0.0347,0.5042 l -0.576247,0.0755 -0.07193,1.63925 -0.07193,1.63918 0.692507,0.0119 c 0.85291,0.0119 0.83142,0.39125 -0.0286,0.5043 l -0.576254,0.0755 0.03219,1.34635 c 0.01769,0.74043 0.03907,1.44103 0.04743,1.55681 0.0095,0.13313 0.297844,0.21878 0.785544,0.23303 0.42367,0.0139 0.99682,0.0554 1.27367,0.0954 0.41518,0.06 0.65606,-0.067 1.37491,-0.72473 1.11422,-1.0195 2.082,-1.6568 3.46066,-2.27884 1.43031,-0.6453 2.19747,-0.80372 2.19236,-0.45259 -0.002,0.14566 -0.24256,0.3245 -0.55243,0.41118 -0.66585,0.18679 -2.37611,0.87647 -2.49466,1.00687 -0.0469,0.0517 -0.46736,0.34272 -0.93416,0.64675 -1.06469,0.69342 -1.96259,1.57543 -3.40298,3.34283 l -1.13069,1.38737 0.92738,0.064 c 0.81838,0.0564 0.93855,0.11128 1.02251,0.46794 0.14283,0.60641 0.002,0.69921 -1.20468,0.7943 -0.60852,0.0481 -1.17963,0.13095 -1.269143,0.1846 -0.178942,0.10731 -0.242235,1.78863 -0.09004,2.39173 0.07132,0.28261 0.220013,0.38173 0.580573,0.38696 0.31877,0.004 0.48344,0.0936 0.48103,0.25934 -0.002,0.16811 -0.17176,0.24982 -0.50795,0.24507 l -0.50431,-0.008 -0.02428,1.67129 -0.02428,1.67131 0.53263,0.0604 c 0.74163,0.0841 0.77521,0.42123 0.0544,0.54573 l -0.597286,0.10313 -0.02303,1.58008 -0.02301,1.58009 0.591116,0.061 c 0.73324,0.0755 0.84131,0.38073 0.15865,0.44826 -0.27751,0.0274 -0.561508,0.13751 -0.631459,0.2432 -0.154898,0.23606 -0.195257,1.89204 -0.06345,2.60527 0.09453,0.51143 0.114082,0.52097 1.210499,0.58537 1.45317,0.0853 1.43489,0.39234 -0.0258,0.43511 l -1.135424,0.0334 -0.0159,1.08556 c -0.01828,1.25518 0.09443,1.32212 1.101954,0.65502 z m 2.79403,-17.10378 c -0.0683,-0.0719 -0.12124,-0.33481 -0.11762,-0.58402 0.006,-0.42105 0.0692,-0.45974 0.89066,-0.54636 0.48622,-0.0513 1.16776,-0.0896 1.51449,-0.0855 0.60866,0.006 0.63012,0.027 0.62185,0.59636 -0.008,0.55175 -0.0429,0.58828 -0.55491,0.5822 -0.30049,-0.004 -0.92522,0.0328 -1.38831,0.0809 -0.4631,0.0481 -0.89786,0.0284 -0.96616,-0.0435 z m 4.19368,-0.29248 c -0.0607,-0.0624 -0.10738,-0.32359 -0.10367,-0.58005 0.006,-0.42237 0.074,-0.47362 0.72252,-0.54491 1.89526,-0.20838 2.00247,-0.19773 2.15221,0.21439 0.0778,0.21405 0.10005,0.49283 0.0494,0.61941 -0.12764,0.31888 -2.55068,0.56908 -2.82041,0.29124 z m 4.11637,-0.38054 c -0.33075,-0.3407 -0.20878,-0.95107 0.20564,-1.02914 1.1089,-0.20877 2.62483,-0.22352 2.68745,-0.0256 0.13689,0.43193 -0.10034,0.98046 -0.45234,1.04562 -0.97005,0.17983 -2.2707,0.1848 -2.44076,0.01 z m 4.12609,-0.34777 c -0.0571,-0.0588 -0.10111,-0.28524 -0.098,-0.50336 0.007,-0.49768 0.43509,-0.66439 1.85475,-0.72245 1.03902,-0.0425 1.078,-0.0294 1.18634,0.40045 0.0616,0.24444 0.0632,0.51684 0.004,0.60536 -0.124,0.18342 -2.78875,0.38267 -2.94665,0.22004 z m 4.30843,-0.39741 c -0.23399,-0.38459 -0.19057,-0.90206 0.0841,-1.00295 0.15499,-0.0574 0.83859,-0.14228 1.51919,-0.18997 l 1.23747,-0.0866 -0.008,0.61335 c -0.004,0.37398 -0.091,0.61556 -0.21914,0.61896 -0.11565,0.004 -0.72626,0.0554 -1.35684,0.11624 -0.75766,0.0729 -1.18358,0.0497 -1.2558,-0.069 z m 4.06685,-0.45432 c -0.0461,-0.12678 -0.0568,-0.4056 -0.0244,-0.62003 0.056,-0.3583 0.17427,-0.39987 1.46013,-0.51348 0.76948,-0.0684 1.4246,-0.0964 1.45576,-0.0632 0.0314,0.0334 0.0799,0.28307 0.1079,0.55475 0.058,0.56242 -0.17665,0.65888 -1.93836,0.79591 -0.73359,0.057 -0.99856,0.0179 -1.06193,-0.1542 z m 4.15571,-0.9267 c 0.008,-0.55631 0.0221,-0.5667 0.89227,-0.65848 0.48621,-0.0513 1.16776,-0.0896 1.5145,-0.0856 0.60423,0.006 0.63004,0.0312 0.62213,0.57538 -0.008,0.50121 -0.0699,0.57909 -0.53507,0.66513 -0.29001,0.0527 -0.97124,0.091 -1.51447,0.0831 l -0.98759,-0.0159 z m -27.91756,0.47635 c 0.4242,-0.55455 0.87003,-1.14097 0.99074,-1.30319 0.20389,-0.27394 0.14456,-0.29459 -0.83646,-0.29151 l -1.055905,0.002 -0.06802,1.30281 c -0.03744,0.71654 -0.0079,1.30146 0.0652,1.29983 0.07346,-1.2e-4 0.480285,-0.4567 0.904485,-1.01126 z m -3.224045,36.68408 c -0.0074,0.43709 0.0099,-0.5875 0,0 z m -9.058983,-36.08696 c -0.0036,0.25338 0.0042,-0.28535 0,0 z"
       style="fill:#000000;stroke-width:0.525764"
       id="path1"
       sodipodi:nodetypes="ccscccscccccccccccssccccccccccccccsccccccccccscccccccccccccccccccccccccccssccccccccccccccccccccccccccsscccscsccccscccccccccccccccccccccccccccccccccccccccccscccccscccccccccccccsccccccccccscccccssccccccccccccccccccccccccccccsccccccccccccccccccccccsscccccccscccccsccccscccccccccccccccccccsscccccccsccsccccccccccccscccccccccscsccccccccccccccccccccccccscccccscsccccsscsccccccccccccccccccccccccccccccccsccccccccccsccccccccccsccccsscccccccccccccccccccccccccccccccsccccccccccccccccccccccccscccsscsccccccccscccccscscccccsccccccsccccsccscccccsccccscccsccssccccccccscccccccccccccscccccscccccscccccccccsccccccccccccccccccccccccccccccccccccccccccccccccccccscccccccccccccccccccccccscccsccccscccccccccccccscccccccccccccccccccccccccccccccccccccccc" />
    <g
       id="layer1-6"
       transform="matrix(1.9871433,0,0,1.9871433,-72.037368,-145.88991)">
      <text
         xml:space="preserve"
         style="font-weight:bold;font-size:2.11667px;line-height:normal;font-family:'Segoe Script';-inkscape-font-specification:'Segoe Script Bold';text-align:center;text-decoration-color:#000000;writing-mode:lr-tb;direction:ltr;text-anchor:middle;fill:#000000;stroke:none;stroke-width:0.529"
         x="83.892509"
         y="143.91121"
         id="text18-1"><tspan
           sodipodi:role="line"
           id="tspan18-8"
           style="stroke-width:0.529"
           x="83.892509"
           y="143.91121">2.0</tspan></text>
    </g>
    <text
       xml:space="preserve"
       style="font-weight:bold;font-size:8.41223px;line-height:normal;font-family:'Segoe Script';-inkscape-font-specification:'Segoe Script Bold';text-align:start;text-decoration-color:#000000;writing-mode:lr-tb;direction:ltr;text-anchor:start;fill:#000000;stroke:none;stroke-width:1.0512"
       x="-186.20457"
       y="88.944687"
       id="text2"
       transform="rotate(-90)"><tspan
         sodipodi:role="line"
         id="tspan2"
         style="fill:#000000;stroke:none;stroke-width:1.0512"
         x="-186.20457"
         y="88.944687">Bandgap Eg (eV)</tspan></text>
    <text
       xml:space="preserve"
       style="font-weight:bold;font-size:4.20613px;line-height:normal;font-family:'Segoe Script';-inkscape-font-specification:'Segoe Script Bold';text-align:center;text-decoration-color:#000000;writing-mode:lr-tb;direction:ltr;text-anchor:middle;fill:#000000;stroke:none;stroke-width:1.0512"
       x="94.561256"
       y="121.15475"
       id="text18-5"><tspan
         sodipodi:role="line"
         id="tspan18-4"
         style="stroke-width:1.0512"
         x="94.561256"
         y="121.15475">2.5</tspan></text>
    <text
       xml:space="preserve"
       style="font-weight:bold;font-size:4.20613px;line-height:normal;font-family:'Segoe Script';-inkscape-font-specification:'Segoe Script Bold';text-align:center;text-decoration-color:#000000;writing-mode:lr-tb;direction:ltr;text-anchor:middle;fill:#000000;stroke:none;stroke-width:1.0512"
       x="94.879585"
       y="102.2272"
       id="text18-3"><tspan
         sodipodi:role="line"
         id="tspan18-41"
         style="stroke-width:1.0512"
         x="94.879585"
         y="102.2272">3.0</tspan></text>
    <text
       xml:space="preserve"
       style="font-weight:bold;font-size:4.20613px;line-height:normal;font-family:'Segoe Script';-inkscape-font-specification:'Segoe Script Bold';text-align:center;text-decoration-color:#000000;writing-mode:lr-tb;direction:ltr;text-anchor:middle;fill:#000000;stroke:none;stroke-width:1.0512"
       x="136.351"
       y="164.44772"
       id="text3"
       transform="rotate(-9.1745293)"><tspan
         sodipodi:role="line"
         style="font-size:4.20613px;text-align:center;text-anchor:middle;stroke-width:1.0512"
         x="136.351"
         y="164.44772"
         id="tspan4">Indirect band</tspan></text>
    <text
       xml:space="preserve"
       style="font-weight:bold;font-size:4.20613px;line-height:normal;font-family:'Segoe Script';-inkscape-font-specification:'Segoe Script Bold';text-align:center;text-decoration-color:#000000;writing-mode:lr-tb;direction:ltr;text-anchor:middle;fill:#000000;stroke:none;stroke-width:1.0512"
       x="28.076057"
       y="194.83556"
       id="text5"
       transform="rotate(-30.00053)"><tspan
         sodipodi:role="line"
         id="tspan5"
         style="stroke-width:1.0512"
         x="28.076057"
         y="194.83556">Direct band</tspan></text>
    <text
       xml:space="preserve"
       style="font-weight:bold;font-size:4.20613px;line-height:normal;font-family:'Segoe Script';-inkscape-font-specification:'Segoe Script Bold';text-align:center;text-decoration-color:#000000;writing-mode:lr-tb;direction:ltr;text-anchor:middle;fill:#000000;stroke:none;stroke-width:1.0512"
       x="122.80237"
       y="169.0184"
       id="text6"><tspan
         sodipodi:role="line"
         id="tspan6"
         style="stroke-width:1.0512"
         x="122.80237"
         y="169.0184">E<tspan
   style="font-size:2.73398px;baseline-shift:sub;stroke-width:1.0512"
   id="tspan11">g</tspan> = 1.424 eV</tspan></text>
    <text
       xml:space="preserve"
       style="font-weight:bold;font-size:4.20613px;line-height:normal;font-family:'Segoe Script';-inkscape-font-specification:'Segoe Script Bold';text-align:center;text-decoration-color:#000000;writing-mode:lr-tb;direction:ltr;text-anchor:middle;fill:#000000;stroke:none;stroke-width:1.0512"
       x="121.20876"
       y="135.87067"
       id="text7"><tspan
         sodipodi:role="line"
         id="tspan7"
         style="stroke-width:1.0512"
         x="121.20876"
         y="135.87067">Eg= 1.9 eV</tspan></text>
    <text
       xml:space="preserve"
       style="font-weight:bold;font-size:4.20613px;line-height:normal;font-family:'Segoe Script';-inkscape-font-specification:'Segoe Script Bold';text-align:center;text-decoration-color:#000000;writing-mode:lr-tb;direction:ltr;text-anchor:middle;fill:#000000;stroke:none;stroke-width:1.0512"
       x="164.76823"
       y="129.60237"
       id="text8"><tspan
         sodipodi:role="line"
         id="tspan8"
         style="stroke-width:1.0512"
         x="164.76823"
         y="129.60237">2.168</tspan></text>
    <text
       xml:space="preserve"
       style="font-weight:bold;font-size:4.20613px;line-height:normal;font-family:'Segoe Script';-inkscape-font-specification:'Segoe Script Bold';text-align:center;text-decoration-color:#000000;writing-mode:lr-tb;direction:ltr;text-anchor:middle;fill:#000000;stroke:none;stroke-width:1.0512"
       x="154.88766"
       y="98.898216"
       id="text9"><tspan
         sodipodi:role="line"
         id="tspan9"
         style="stroke-width:1.0512"
         x="154.88766"
         y="98.898216">E<tspan
   style="font-size:2.73398px;baseline-shift:sub;stroke-width:1.0512"
   id="tspan10">g</tspan> = 3.108 eV</tspan></text>
    <text
       xml:space="preserve"
       style="font-weight:bold;font-size:4.20613px;line-height:normal;font-family:'Segoe Script';-inkscape-font-specification:'Segoe Script Bold';text-align:center;text-decoration-color:#000000;writing-mode:lr-tb;direction:ltr;text-anchor:middle;fill:#000000;stroke:none;stroke-width:1.0512"
       x="138.84503"
       y="189.41701"
       id="text12"><tspan
         sodipodi:role="line"
         id="tspan12"
         style="stroke-width:1.0512"
         x="138.84503"
         y="189.41701">Al<tspan
   style="font-size:2.73398px;baseline-shift:sub;stroke-width:1.0512"
   id="tspan15">x</tspan>Ga<tspan
   style="font-size:2.73398px;baseline-shift:sub;stroke-width:1.0512"
   id="tspan14">1-x</tspan>As</tspan><tspan
         sodipodi:role="line"
         style="stroke-width:1.0512"
         x="138.84503"
         y="194.67467"
         id="tspan13">T=297K</tspan></text>
    <text
       xml:space="preserve"
       style="font-weight:bold;font-size:4.20613px;line-height:normal;font-family:'Segoe Script';-inkscape-font-specification:'Segoe Script Bold';text-align:center;text-decoration-color:#000000;writing-mode:lr-tb;direction:ltr;text-anchor:middle;fill:#000000;stroke:none;stroke-width:1.0512"
       x="138.52631"
       y="213.64035"
       id="text16"><tspan
         sodipodi:role="line"
         id="tspan16"
         style="font-size:4.20613px;stroke-width:1.0512"
         x="138.52631"
         y="213.64035">Mole fraction AlAs, x</tspan></text>
    <text
       xml:space="preserve"
       style="font-weight:bold;font-size:4.20613px;line-height:normal;font-family:'Segoe Script';-inkscape-font-specification:'Segoe Script Bold';text-align:center;text-decoration-color:#000000;writing-mode:lr-tb;direction:ltr;text-anchor:middle;fill:#000000;stroke:none;stroke-width:1.0512"
       x="98.897751"
       y="213.5341"
       id="text17"><tspan
         sodipodi:role="line"
         id="tspan17"
         style="stroke-width:1.0512"
         x="98.897751"
         y="213.5341">GaAs</tspan></text>
    <text
       xml:space="preserve"
       style="font-weight:bold;font-size:4.20613px;line-height:normal;font-family:'Segoe Script';-inkscape-font-specification:'Segoe Script Bold';text-align:center;text-decoration-color:#000000;writing-mode:lr-tb;direction:ltr;text-anchor:middle;fill:#000000;stroke:none;stroke-width:1.0512"
       x="176.71091"
       y="213.5341"
       id="text17-7"><tspan
         sodipodi:role="line"
         id="tspan17-1"
         style="stroke-width:1.0512"
         x="176.71091"
         y="213.5341">AlAs</tspan></text>
    <text
       xml:space="preserve"
       style="font-weight:bold;font-size:4.20613px;line-height:normal;font-family:'Segoe Script';-inkscape-font-specification:'Segoe Script Bold';text-align:center;text-decoration-color:#000000;writing-mode:lr-tb;direction:ltr;text-anchor:middle;fill:#000000;stroke:none;stroke-width:1.0512"
       x="94.687561"
       y="197.91643"
       id="text18"><tspan
         sodipodi:role="line"
         id="tspan18"
         style="stroke-width:1.0512"
         x="94.687561"
         y="197.91643">0.5</tspan></text>
    <text
       xml:space="preserve"
       style="font-weight:bold;font-size:4.20613px;line-height:normal;font-family:'Segoe Script';-inkscape-font-specification:'Segoe Script Bold';text-align:center;text-decoration-color:#000000;writing-mode:lr-tb;direction:ltr;text-anchor:middle;fill:#000000;stroke:none;stroke-width:1.0512"
       x="94.669083"
       y="178.98885"
       id="text18-6"><tspan
         sodipodi:role="line"
         id="tspan18-1"
         style="stroke-width:1.0512"
         x="94.669083"
         y="178.98885">1.0</tspan></text>
    <text
       xml:space="preserve"
       style="font-weight:bold;font-size:4.20613px;line-height:normal;font-family:'Segoe Script';-inkscape-font-specification:'Segoe Script Bold';text-align:center;text-decoration-color:#000000;writing-mode:lr-tb;direction:ltr;text-anchor:middle;fill:#000000;stroke:none;stroke-width:1.0512"
       x="94.561256"
       y="163.21593"
       id="text18-2"><tspan
         sodipodi:role="line"
         id="tspan18-16"
         style="stroke-width:1.0512"
         x="94.561256"
         y="163.21593">1.5</tspan></text>
    <text
       xml:space="preserve"
       style="font-weight:bold;font-size:7.05556px;line-height:normal;font-family:'Segoe Script';-inkscape-font-specification:'Segoe Script Bold';text-align:center;text-decoration-color:#000000;writing-mode:lr-tb;direction:ltr;text-anchor:middle;fill:#000000;stroke:none;stroke-width:0.525764;stroke-dasharray:2.10305, 1.05153"
       x="132.15625"
       y="220.79593"
       id="text1"><tspan
         sodipodi:role="line"
         id="tspan1"
         style="font-size:7.05556px;fill:#000000;stroke:none;stroke-width:0.525764"
         x="133.56702"
         y="220.79593">Figure 1. Energy Bandgap </tspan></text>
  </g>
</svg>
