<?xml version="1.0" encoding="UTF-8" standalone="no"?>
<!-- Created with Inkscape (http://www.inkscape.org/) -->

<svg
   width="120mm"
   height="80mm"
   viewBox="0 0 120 79.999998"
   version="1.1"
   id="svg1"
   xml:space="preserve"
   sodipodi:docname="oe_sc_optical_transparent.svg"
   inkscape:version="1.4.2 (f4327f4, 2025-05-13)"
   inkscape:export-filename="oe_sc_optical_transparent.pdf"
   inkscape:export-xdpi="96"
   inkscape:export-ydpi="96"
   xmlns:inkscape="http://www.inkscape.org/namespaces/inkscape"
   xmlns:sodipodi="http://sodipodi.sourceforge.net/DTD/sodipodi-0.dtd"
   xmlns="http://www.w3.org/2000/svg"
   xmlns:svg="http://www.w3.org/2000/svg"><sodipodi:namedview
     id="namedview1"
     pagecolor="#ffffff"
     bordercolor="#000000"
     borderopacity="0.25"
     inkscape:showpageshadow="2"
     inkscape:pageopacity="0.0"
     inkscape:pagecheckerboard="0"
     inkscape:deskcolor="#d1d1d1"
     inkscape:document-units="mm"
     inkscape:zoom="0.94608586"
     inkscape:cx="276.40197"
     inkscape:cy="122.08194"
     inkscape:window-width="1366"
     inkscape:window-height="705"
     inkscape:window-x="-8"
     inkscape:window-y="-8"
     inkscape:window-maximized="1"
     inkscape:current-layer="layer1" /><defs
     id="defs1"><marker
       style="overflow:visible"
       id="ArrowTriangleStylized-9"
       refX="0"
       refY="0"
       orient="auto-start-reverse"
       inkscape:stockid="Stylized triangle arrow"
       markerWidth="1"
       markerHeight="1"
       viewBox="0 0 1 1"
       inkscape:isstock="true"
       inkscape:collect="always"
       preserveAspectRatio="xMidYMid"><path
         transform="scale(0.5)"
         style="fill:context-stroke;fill-rule:evenodd;stroke:context-stroke;stroke-width:1pt"
         d="m 6,0 c -3,1 -7,3 -9,5 0,0 0,-4 2,-5 -2,-1 -2,-5 -2,-5 2,2 6,4 9,5 z"
         id="path4-9" /></marker><inkscape:path-effect
       effect="bspline"
       id="path-effect1-5"
       is_visible="true"
       lpeversion="1.3"
       weight="33.333333"
       steps="2"
       helper_size="0"
       apply_no_weight="true"
       apply_with_weight="true"
       only_selected="false"
       uniform="false" /><inkscape:path-effect
       effect="bspline"
       id="path-effect1-5-3"
       is_visible="true"
       lpeversion="1.3"
       weight="33.333333"
       steps="2"
       helper_size="0"
       apply_no_weight="true"
       apply_with_weight="true"
       only_selected="false"
       uniform="false" /><marker
       style="overflow:visible"
       id="marker5-9"
       refX="0"
       refY="0"
       orient="auto-start-reverse"
       inkscape:stockid="Stylized triangle arrow"
       markerWidth="1"
       markerHeight="1"
       viewBox="0 0 1 1"
       inkscape:isstock="true"
       inkscape:collect="always"
       preserveAspectRatio="xMidYMid"><path
         transform="scale(0.5)"
         style="fill:context-stroke;fill-rule:evenodd;stroke:context-stroke;stroke-width:1pt"
         d="m 6,0 c -3,1 -7,3 -9,5 0,0 0,-4 2,-5 -2,-1 -2,-5 -2,-5 2,2 6,4 9,5 z"
         id="path5-2" /></marker><marker
       style="overflow:visible"
       id="marker3-6"
       refX="0"
       refY="0"
       orient="auto-start-reverse"
       inkscape:stockid="Stylized triangle arrow"
       markerWidth="1"
       markerHeight="1"
       viewBox="0 0 1 1"
       inkscape:isstock="true"
       inkscape:collect="always"
       preserveAspectRatio="xMidYMid"><path
         transform="scale(0.5)"
         style="fill:context-stroke;fill-rule:evenodd;stroke:context-stroke;stroke-width:1pt"
         d="m 6,0 c -3,1 -7,3 -9,5 0,0 0,-4 2,-5 -2,-1 -2,-5 -2,-5 2,2 6,4 9,5 z"
         id="path3-5" /></marker><inkscape:path-effect
       effect="bspline"
       id="path-effect2-3"
       is_visible="true"
       lpeversion="1.3"
       weight="33.333333"
       steps="2"
       helper_size="0"
       apply_no_weight="true"
       apply_with_weight="true"
       only_selected="false"
       uniform="false" /><inkscape:path-effect
       effect="bspline"
       id="path-effect2-3-0"
       is_visible="true"
       lpeversion="1.3"
       weight="33.333333"
       steps="2"
       helper_size="0"
       apply_no_weight="true"
       apply_with_weight="true"
       only_selected="false"
       uniform="false" /><marker
       style="overflow:visible"
       id="Arrow5"
       refX="0"
       refY="0"
       orient="auto-start-reverse"
       inkscape:stockid="Arrow5"
       markerWidth="5.8874264"
       markerHeight="6.6094756"
       viewBox="0 0 5.8874262 6.6094758"
       inkscape:isstock="true"
       inkscape:collect="always"
       preserveAspectRatio="xMidYMid"><path
         transform="scale(0.5)"
         style="fill:context-stroke;fill-rule:evenodd;stroke:context-stroke;stroke-width:1pt"
         d="m 6,0 c -3,1 -7,3 -9,5 0,0 0,-4 2,-5 -2,-1 -2,-5 -2,-5 2,2 6,4 9,5 z"
         id="path8893" /></marker><marker
       style="overflow:visible"
       id="Arrow5-6"
       refX="0"
       refY="0"
       orient="auto-start-reverse"
       inkscape:stockid="Arrow5"
       markerWidth="5.8874264"
       markerHeight="6.6094756"
       viewBox="0 0 5.8874262 6.6094758"
       inkscape:isstock="true"
       inkscape:collect="always"
       preserveAspectRatio="xMidYMid"><path
         transform="scale(0.5)"
         style="fill:context-stroke;fill-rule:evenodd;stroke:context-stroke;stroke-width:1pt"
         d="m 6,0 c -3,1 -7,3 -9,5 0,0 0,-4 2,-5 -2,-1 -2,-5 -2,-5 2,2 6,4 9,5 z"
         id="path8893-1" /></marker></defs><g
     inkscape:label="Layer 1"
     inkscape:groupmode="layer"
     id="layer1"
     transform="translate(3.4784259,-123.44865)"><rect
       style="fill:#ff0000;stroke:#0000ff;stroke-width:1.058;stroke-linejoin:round"
       id="rect1-4"
       width="76.906776"
       height="22.372881"
       x="30.941916"
       y="170.78305" /><rect
       style="fill:#ffffff;stroke:#0000ff;stroke-width:1.058;stroke-linejoin:round"
       id="rect1-4-5"
       width="76.906776"
       height="22.372881"
       x="30.941916"
       y="133.74136" /><path
       style="fill:#ffffff;stroke:#000000;stroke-width:0.668798;stroke-linejoin:round;marker-end:url(#ArrowTriangleStylized-9)"
       d="m 46.70339,136.47457 c 0,-9.21764 0,-18.43528 0,-27.65292"
       id="path1-7"
       inkscape:path-effect="#path-effect1-5"
       inkscape:original-d="m 46.70339,136.47457 c 0,-9.21764 0,-18.43528 0,-27.65292"
       transform="matrix(1.5819433,0,0,1.5819433,-57.762227,-23.578114)"
       sodipodi:nodetypes="cc" /><text
       xml:space="preserve"
       style="font-size:8.46667px;line-height:normal;font-family:'Segoe Script';-inkscape-font-specification:'Segoe Script';text-align:center;text-decoration-color:#000000;writing-mode:lr-tb;direction:ltr;text-anchor:middle;fill:#000000;stroke:none;stroke-width:1.058;stroke-linejoin:round"
       x="7.1707301"
       y="169.79082"
       id="text1-3"><tspan
         sodipodi:role="line"
         id="tspan1-1"
         style="font-size:8.46667px;fill:#000000;stroke:none;stroke-width:1.058"
         x="7.1707301"
         y="169.79082">E</tspan></text><text
       xml:space="preserve"
       style="font-size:8.46667px;line-height:normal;font-family:'Segoe Script';-inkscape-font-specification:'Segoe Script';text-align:center;text-decoration-color:#000000;writing-mode:lr-tb;direction:ltr;text-anchor:middle;fill:#000000;stroke:none;stroke-width:1.058;stroke-linejoin:round"
       x="80.195732"
       y="166.0867"
       id="text1-3-7"><tspan
         sodipodi:role="line"
         id="tspan1-1-6"
         style="font-size:8.46667px;fill:#000000;stroke:none;stroke-width:1.058"
         x="80.195732"
         y="166.0867">E<tspan
   style="font-size:65%;baseline-shift:sub"
   id="tspan2">g</tspan></tspan></text><path
       style="fill:#000000;stroke:#000000;stroke-width:1.058;stroke-linejoin:round;marker-start:url(#marker5-9);marker-end:url(#marker3-6)"
       d="m 119.73775,99.666098 c -0.033,-2.274131 -0.0659,-4.548251 -0.0989,-6.822378"
       id="path2-5"
       sodipodi:nodetypes="cc"
       transform="translate(-47.681785,67.336519)"
       inkscape:original-d="m 119.73775,99.666098 c -0.033,-2.274131 -0.0659,-4.548251 -0.0989,-6.822378"
       inkscape:path-effect="#path-effect2-3" /><path
       style="fill:none;stroke:#008000;stroke-width:1.05833;stroke-dasharray:none;marker-end:url(#Arrow5);stop-color:#000000"
       d="m 35.239139,162.73284 c 0.501655,-0.0574 1.003405,-0.2079 1.50508,-0.27723 0.501687,-0.0695 1.003341,0.0204 1.505006,0.41332 0.501628,0.39275 1.003433,1.09004 1.505077,1.1311 0.501665,0.0413 1.003359,-0.86496 1.505009,-2.22438 0.501663,-1.35938 1.003417,-2.80044 1.505082,-2.16544 0.501645,0.63502 1.00334,3.57298 1.505,5.93944 0.50166,2.36645 1.003409,3.25382 1.505106,1.28871 0.501681,-1.96511 1.003336,-6.24165 1.505017,-8.21102 0.501665,-1.96948 1.003384,-1.07591 1.505082,1.28879 0.501665,2.36465 1.003331,5.30076 1.504998,5.93939 0.501645,0.63871 1.003407,-0.80571 1.505076,-2.16543 0.501683,-1.3598 1.003349,-2.2641 1.505007,-2.22441 0.501669,0.0394 1.00341,0.73796 1.505089,1.13112 0.501677,0.39313 1.003336,0.48229 1.505002,0.41326 0.50168,-0.0693 1.0034,-0.21965 1.505083,-0.27722"
       title="sin(2*pi*x)*exp(-1*x**2)"
       id="path685" /><path
       style="fill:none;stroke:#008000;stroke-width:1.05833;stroke-dasharray:none;marker-end:url(#Arrow5-6);stop-color:#000000"
       d="m 84.451642,162.73284 c 0.501655,-0.0574 1.003405,-0.2079 1.50508,-0.27723 0.501687,-0.0695 1.003341,0.0204 1.505006,0.41332 0.501628,0.39275 1.003433,1.09004 1.505077,1.1311 0.501665,0.0413 1.003359,-0.86496 1.505009,-2.22438 0.501663,-1.35938 1.003417,-2.80044 1.505082,-2.16544 0.501645,0.63502 1.00334,3.57298 1.505,5.93944 0.50166,2.36645 1.003409,3.25382 1.505106,1.28871 0.501681,-1.96511 1.003336,-6.24165 1.505017,-8.21102 0.501665,-1.96948 1.003384,-1.07591 1.505082,1.28879 0.501665,2.36465 1.003331,5.30076 1.504998,5.93939 0.501641,0.63871 1.003411,-0.80571 1.505071,-2.16543 0.50169,-1.3598 1.00335,-2.2641 1.50501,-2.22441 0.50167,0.0394 1.00341,0.73796 1.50509,1.13112 0.50168,0.39313 1.00334,0.48229 1.505,0.41326 0.50169,-0.0693 1.00341,-0.21965 1.5051,-0.27722"
       title="sin(2*pi*x)*exp(-1*x**2)"
       id="path685-3" /><text
       xml:space="preserve"
       style="font-weight:bold;font-size:7.43048px;line-height:normal;font-family:'Segoe Script';-inkscape-font-specification:'Segoe Script Bold';text-align:start;text-decoration-color:#000000;writing-mode:lr-tb;direction:ltr;text-anchor:start;fill:#008000;stroke:none;stroke-width:0.529169;stroke-dasharray:none"
       x="22.867537"
       y="166.16455"
       id="text9"><tspan
         sodipodi:role="line"
         id="tspan9"
         style="fill:#008000;stroke:none;stroke-width:0.529169"
         x="22.867537"
         y="166.16455">hν</tspan></text><text
       xml:space="preserve"
       style="font-weight:bold;font-size:7.43048px;line-height:normal;font-family:'Segoe Script';-inkscape-font-specification:'Segoe Script Bold';text-align:start;text-decoration-color:#000000;writing-mode:lr-tb;direction:ltr;text-anchor:start;fill:#000000;stroke:none;stroke-width:0.529169;stroke-dasharray:none"
       x="42.594139"
       y="129.50769"
       id="text9-5"><tspan
         sodipodi:role="line"
         id="tspan9-4"
         style="fill:#000000;stroke:none;stroke-width:0.529169"
         x="42.594139"
         y="129.50769">hν &lt; E<tspan
   style="font-size:65%;baseline-shift:sub"
   id="tspan3">g</tspan></tspan></text></g></svg>
