<?xml version="1.0" encoding="UTF-8" standalone="no"?>
<!-- Created with Inkscape (http://www.inkscape.org/) -->

<svg
   width="40mm"
   height="160mm"
   viewBox="0 0 40 160"
   version="1.1"
   id="svg1"
   inkscape:version="1.4.2 (f4327f4, 2025-05-13)"
   sodipodi:docname="oe_sc_solar_irradiance.svg"
   inkscape:export-filename="oe_sc_solar_irradiance.pdf"
   inkscape:export-xdpi="96"
   inkscape:export-ydpi="96"
   xmlns:inkscape="http://www.inkscape.org/namespaces/inkscape"
   xmlns:sodipodi="http://sodipodi.sourceforge.net/DTD/sodipodi-0.dtd"
   xmlns:xlink="http://www.w3.org/1999/xlink"
   xmlns="http://www.w3.org/2000/svg"
   xmlns:svg="http://www.w3.org/2000/svg"
   xmlns:ns5="http://www.iki.fi/pav/software/textext/">
  <sodipodi:namedview
     id="namedview1"
     pagecolor="#ffffff"
     bordercolor="#000000"
     borderopacity="0.25"
     inkscape:showpageshadow="2"
     inkscape:pageopacity="0.0"
     inkscape:pagecheckerboard="0"
     inkscape:deskcolor="#d1d1d1"
     inkscape:document-units="mm"
     inkscape:zoom="1"
     inkscape:cx="200.5"
     inkscape:cy="413.5"
     inkscape:window-width="1366"
     inkscape:window-height="705"
     inkscape:window-x="-8"
     inkscape:window-y="-8"
     inkscape:window-maximized="1"
     inkscape:current-layer="layer1" />
  <defs
     id="defs1">
    <marker
       style="overflow:visible"
       id="marker16"
       refX="0"
       refY="0"
       orient="auto-start-reverse"
       inkscape:stockid="Stylized triangle arrow"
       markerWidth="1"
       markerHeight="1"
       viewBox="0 0 1 1"
       inkscape:isstock="true"
       inkscape:collect="always"
       preserveAspectRatio="xMidYMid">
      <path
         transform="scale(0.5)"
         style="fill:context-stroke;fill-rule:evenodd;stroke:context-stroke;stroke-width:1pt"
         d="m 6,0 c -3,1 -7,3 -9,5 0,0 0,-4 2,-5 -2,-1 -2,-5 -2,-5 2,2 6,4 9,5 z"
         id="path16" />
    </marker>
    <inkscape:path-effect
       effect="bspline"
       id="path-effect15"
       is_visible="true"
       lpeversion="1.3"
       weight="33.333333"
       steps="2"
       helper_size="0"
       apply_no_weight="true"
       apply_with_weight="true"
       only_selected="false"
       uniform="false" />
    <inkscape:path-effect
       effect="bspline"
       id="path-effect10"
       is_visible="true"
       lpeversion="1.3"
       weight="33.333333"
       steps="2"
       helper_size="0"
       apply_no_weight="true"
       apply_with_weight="true"
       only_selected="false"
       uniform="false" />
    <linearGradient
       id="linearGradient9"
       inkscape:collect="always">
      <stop
         style="stop-color:#ffff00;stop-opacity:1;"
         offset="0"
         id="stop9" />
      <stop
         style="stop-color:#ffff00;stop-opacity:0;"
         offset="1"
         id="stop10" />
    </linearGradient>
    <marker
       style="overflow:visible"
       id="ArrowTriangleStylized"
       refX="0"
       refY="0"
       orient="auto-start-reverse"
       inkscape:stockid="Stylized triangle arrow"
       markerWidth="1"
       markerHeight="1"
       viewBox="0 0 1 1"
       inkscape:isstock="true"
       inkscape:collect="always"
       preserveAspectRatio="xMidYMid">
      <path
         transform="scale(0.5)"
         style="fill:context-stroke;fill-rule:evenodd;stroke:context-stroke;stroke-width:1pt"
         d="m 6,0 c -3,1 -7,3 -9,5 0,0 0,-4 2,-5 -2,-1 -2,-5 -2,-5 2,2 6,4 9,5 z"
         id="path4" />
    </marker>
    <inkscape:path-effect
       effect="bspline"
       id="path-effect3"
       is_visible="true"
       lpeversion="1.3"
       weight="33.333333"
       steps="2"
       helper_size="0"
       apply_no_weight="true"
       apply_with_weight="true"
       only_selected="false"
       uniform="false" />
    <marker
       style="overflow:visible"
       id="ArrowTriangleStylized-4"
       refX="0"
       refY="0"
       orient="auto-start-reverse"
       inkscape:stockid="Stylized triangle arrow"
       markerWidth="1"
       markerHeight="1"
       viewBox="0 0 1 1"
       inkscape:isstock="true"
       inkscape:collect="always"
       preserveAspectRatio="xMidYMid">
      <path
         transform="scale(0.5)"
         style="fill:context-stroke;fill-rule:evenodd;stroke:context-stroke;stroke-width:1pt"
         d="m 6,0 c -3,1 -7,3 -9,5 0,0 0,-4 2,-5 -2,-1 -2,-5 -2,-5 2,2 6,4 9,5 z"
         id="path4-8" />
    </marker>
    <inkscape:path-effect
       effect="bspline"
       id="path-effect3-8"
       is_visible="true"
       lpeversion="1.3"
       weight="33.333333"
       steps="2"
       helper_size="0"
       apply_no_weight="true"
       apply_with_weight="true"
       only_selected="false"
       uniform="false" />
    <radialGradient
       inkscape:collect="always"
       xlink:href="#linearGradient9"
       id="radialGradient10"
       cx="102.43904"
       cy="31.75824"
       fx="102.43904"
       fy="31.75824"
       r="10.52979"
       gradientUnits="userSpaceOnUse"
       gradientTransform="matrix(1.5412657,0,0,1.5412657,-140.17351,48.310438)" />
    <inkscape:path-effect
       effect="bspline"
       id="path-effect10-6"
       is_visible="true"
       lpeversion="1.3"
       weight="33.333333"
       steps="2"
       helper_size="0"
       apply_no_weight="true"
       apply_with_weight="true"
       only_selected="false"
       uniform="false" />
    <inkscape:path-effect
       effect="bspline"
       id="path-effect10-6-4"
       is_visible="true"
       lpeversion="1.3"
       weight="33.333333"
       steps="2"
       helper_size="0"
       apply_no_weight="true"
       apply_with_weight="true"
       only_selected="false"
       uniform="false" />
    <inkscape:path-effect
       effect="bspline"
       id="path-effect10-6-1"
       is_visible="true"
       lpeversion="1.3"
       weight="33.333333"
       steps="2"
       helper_size="0"
       apply_no_weight="true"
       apply_with_weight="true"
       only_selected="false"
       uniform="false" />
    <inkscape:path-effect
       effect="bspline"
       id="path-effect10-6-1-7"
       is_visible="true"
       lpeversion="1.3"
       weight="33.333333"
       steps="2"
       helper_size="0"
       apply_no_weight="true"
       apply_with_weight="true"
       only_selected="false"
       uniform="false" />
  </defs>
  <g
     inkscape:label="Layer 1"
     inkscape:groupmode="layer"
     id="layer1">
    <rect
       style="fill:#999999;stroke-width:0.529165"
       id="rect1"
       width="40"
       height="160"
       x="6.6613381e-16"
       y="2.7815501e-08" />
    <g
       id="g7"
       transform="translate(3.1750001,-3.1750001)">
      <path
         sodipodi:type="star"
         style="fill:#d45500;stroke:none;stroke-width:0.700969;stroke-dasharray:none"
         id="path5"
         inkscape:flatsided="false"
         sodipodi:sides="16"
         sodipodi:cx="16.936865"
         sodipodi:cy="15.424644"
         sodipodi:r1="17.25588"
         sodipodi:r2="8.6279402"
         sodipodi:arg1="0.78539816"
         sodipodi:arg2="0.9817477"
         inkscape:rounded="0"
         inkscape:randomized="0"
         d="m 29.138615,27.626394 -7.408323,-5.027879 1.810112,8.768484 -4.920311,-7.480198 -1.683228,8.793724 -1.683228,-8.793724 -4.920312,7.480198 1.810113,-8.768484 -7.4083231,5.02788 5.0278799,-7.408324 -8.7684846,1.810113 7.4801979,-4.920312 -8.7937236,-1.683227 8.7937236,-1.683228 -7.48019795,-4.920312 8.76848465,1.810113 -5.02788,-7.4083235 7.4083232,5.0278799 -1.810113,-8.76848458 4.920312,7.48019798 1.683228,-8.7937237 1.683227,8.7937236 4.920312,-7.48019793 -1.810112,8.76848463 7.408323,-5.02788 -5.02788,7.4083236 8.768485,-1.8101131 -7.480198,4.9203121 8.793723,1.683227 -8.793723,1.683228 7.480198,4.920312 -8.768485,-1.810113 z"
         inkscape:transform-center-x="1.6852422"
         inkscape:transform-center-y="-1.6852418"
         transform="matrix(0.75467296,0,0,0.75467296,4.930527,4.6552697)" />
      <circle
         style="fill:#ffff00;stroke-width:0.529167"
         id="path1"
         cx="17.71232"
         cy="16.29583"
         r="10" />
    </g>
    <text
       xml:space="preserve"
       style="font-weight:bold;font-size:4.23333px;line-height:normal;font-family:'Segoe Script';-inkscape-font-specification:'Segoe Script Bold';text-align:start;text-decoration-color:#000000;writing-mode:lr-tb;direction:ltr;text-anchor:start;fill:#000000;stroke-width:0.529167"
       x="59.119698"
       y="14.370062"
       id="text1"><tspan
         sodipodi:role="line"
         style="text-align:center;text-anchor:middle;fill:#000000;stroke-width:0.529167"
         x="59.119698"
         y="14.370062"
         id="tspan2">sun as</tspan><tspan
         sodipodi:role="line"
         style="text-align:center;text-anchor:middle;fill:#000000;stroke-width:0.529167"
         x="59.119698"
         y="19.661724"
         id="tspan3"> blackbody</tspan></text>
    <text
       xml:space="preserve"
       style="font-weight:bold;font-size:4.23333px;line-height:normal;font-family:'Segoe Script';-inkscape-font-specification:'Segoe Script Bold';text-align:start;text-decoration-color:#000000;writing-mode:lr-tb;direction:ltr;text-anchor:start;fill:#000000;stroke-width:0.529167"
       x="62.294701"
       y="45.061726"
       id="text1-7"><tspan
         sodipodi:role="line"
         style="text-align:center;text-anchor:middle;fill:#000000;stroke-width:0.529167"
         x="62.294701"
         y="45.061726"
         id="tspan2-9">Planck's</tspan><tspan
         sodipodi:role="line"
         style="text-align:center;text-anchor:middle;fill:#000000;stroke-width:0.529167"
         x="62.294701"
         y="50.353386"
         id="tspan3-3"> radiation law</tspan></text>
    <g
       id="g6"
       transform="translate(-23.812499,22.224995)">
      <path
         style="fill:none;stroke:#000000;stroke-width:0.529167"
         d="m 34.9323,27.9354 c 0.8836,-1.8008 1.7673,-10.1233 2.6509,-12.8054 0.8837,-2.6821 1.7673,-2.4209 2.651,-1.7871 0.8836,0.6338 1.7673,1.7386 2.6509,2.7236 0.8837,0.985 1.7673,1.9082 2.651,2.7075 0.8836,0.7993 1.7673,1.4847 2.6509,2.0777 0.8837,0.593 1.7673,1.0947 2.651,1.5315 0.8836,0.4367 1.7673,0.8082 2.6509,1.1342 0.8837,0.3259 1.7673,0.606 2.651,0.8537 0.8836,0.2477 1.7672,0.4628 2.6509,0.6547"
         title="1/(pow(x,3)*(exp(1/x) - 1))"
         id="path2" />
      <path
         style="fill:#000000;stroke:#000000;stroke-width:0.529;stroke-dasharray:none;marker-end:url(#ArrowTriangleStylized)"
         d="m 35.083503,28.732181 c 8.216396,0 16.432791,0 24.649186,0"
         id="path3"
         inkscape:path-effect="#path-effect3"
         inkscape:original-d="m 35.083503,28.732181 c 8.216396,0 16.432791,0 24.649186,0"
         sodipodi:nodetypes="cc"
         transform="translate(-0.2646385,-0.9071113)" />
      <path
         style="fill:#000000;stroke:#000000;stroke-width:0.529;stroke-dasharray:none;marker-end:url(#ArrowTriangleStylized-4)"
         d="m 35.083503,28.732181 c 5.796844,0 11.593687,0 17.39053,0"
         id="path3-5"
         inkscape:path-effect="#path-effect3-8"
         inkscape:original-d="m 35.083503,28.732181 c 5.796844,0 11.593687,0 17.39053,0"
         sodipodi:nodetypes="cc"
         transform="rotate(-90,34.610208,28.391867)" />
      <g
         id="g689"
         transform="matrix(0.4663123,0,0,0.4663123,26.688144,13.940425)"
         ns5:version="1.12.0"
         ns5:texconverter="pdflatex"
         ns5:pdfconverter="inkscape"
         ns5:text="$$\n\\frac{\\mathrm{d}I_R}{\\mathrm{d}\\lambda}\n$$\n"
         ns5:preamble="C:\Users\Admin\AppData\Roaming\inkscape\extensions\textext\default_packages.tex"
         ns5:scale="0.6671531324967325"
         ns5:alignment="middle center"
         ns5:inkscapeversion="1.4.2"
         ns5:jacobian_sqrt="0.235357"
         style="stroke-width:0.504719">
        <defs
           id="defs9933">
          <g
             id="g1894">
            <g
               id="g9322">
              <path
                 d="m 3.78125,-0.546875 v 0.65625 L 5.25,0 v -0.3125 c -0.6875,0 -0.78125,-0.0625 -0.78125,-0.5625 V -6.921875 L 3.046875,-6.8125 V -6.5 c 0.6875,0 0.765625,0.0625 0.765625,0.5625 v 2.15625 c -0.28125,-0.359375 -0.71875,-0.625 -1.25,-0.625 -1.171875,0 -2.21875,0.984375 -2.21875,2.265625 0,1.265625 0.96875,2.25 2.109375,2.25 0.640625,0 1.078125,-0.34375 1.328125,-0.65625 z m 0,-2.671875 v 2.046875 c 0,0.171875 0,0.1875 -0.109375,0.359375 C 3.375,-0.328125 2.9375,-0.109375 2.5,-0.109375 2.046875,-0.109375 1.6875,-0.375 1.453125,-0.75 1.203125,-1.15625 1.171875,-1.71875 1.171875,-2.140625 1.171875,-2.5 1.1875,-3.09375 1.46875,-3.546875 1.6875,-3.859375 2.0625,-4.1875 2.609375,-4.1875 c 0.34375,0 0.765625,0.15625 1.0625,0.59375 0.109375,0.171875 0.109375,0.1875 0.109375,0.375 z m 0,0"
                 id="path7745" />
            </g>
            <g
               id="g8853">
              <path
                 d="M 3.734375,-6.046875 C 3.8125,-6.40625 3.84375,-6.5 4.640625,-6.5 c 0.234375,0 0.3125,0 0.3125,-0.1875 0,-0.125 -0.109375,-0.125 -0.140625,-0.125 -0.296875,0 -1.03125,0.03125 -1.328125,0.03125 -0.296875,0 -1.015625,-0.03125 -1.328125,-0.03125 -0.0625,0 -0.1875,0 -0.1875,0.203125 C 1.96875,-6.5 2.046875,-6.5 2.25,-6.5 c 0.40625,0 0.6875,0 0.6875,0.1875 0,0.046875 0,0.078125 -0.03125,0.15625 l -1.34375,5.375 c -0.09375,0.375 -0.109375,0.46875 -0.90625,0.46875 -0.234375,0 -0.3125,0 -0.3125,0.203125 C 0.34375,0 0.453125,0 0.484375,0 0.78125,0 1.5,-0.03125 1.796875,-0.03125 2.09375,-0.03125 2.828125,0 3.125,0 c 0.078125,0 0.203125,0 0.203125,-0.1875 0,-0.125 -0.078125,-0.125 -0.296875,-0.125 -0.1875,0 -0.234375,0 -0.421875,-0.015625 -0.21875,-0.015625 -0.25,-0.0625 -0.25,-0.171875 0,-0.078125 0.015625,-0.15625 0.03125,-0.234375 z m 0,0"
                 id="path545" />
            </g>
            <g
               id="g2822">
              <path
                 d="m 3.5625,-2.90625 c 0.40625,1.046875 0.890625,2.5625 1.046875,2.796875 0.15625,0.21875 0.25,0.21875 0.53125,0.21875 h 0.21875 c 0.09375,-0.015625 0.109375,-0.0625 0.109375,-0.09375 0,-0.03125 -0.03125,-0.0625 -0.0625,-0.09375 C 5.3125,-0.1875 5.25,-0.34375 5.1875,-0.53125 L 3.15625,-6.203125 c -0.21875,-0.578125 -0.75,-0.71875 -1.21875,-0.71875 -0.046875,0 -0.1875,0 -0.1875,0.109375 0,0.078125 0.078125,0.109375 0.09375,0.109375 C 2.171875,-6.65625 2.25,-6.59375 2.5,-5.90625 l 0.953125,2.703125 -2.75,2.734375 c -0.109375,0.125 -0.171875,0.171875 -0.171875,0.3125 0,0.171875 0.140625,0.28125 0.296875,0.28125 0.15625,0 0.25,-0.109375 0.328125,-0.203125 z m 0,0"
                 id="path249" />
            </g>
            <g
               id="g1318">
              <path
                 d="m 2.875,-4.265625 c 0.046875,-0.203125 0.0625,-0.21875 0.21875,-0.25 h 0.453125 c 0.640625,0 1.4375,0 1.4375,0.71875 0,0.296875 -0.125,0.734375 -0.453125,0.984375 C 4.25,-2.59375 3.8125,-2.484375 3.328125,-2.484375 H 2.4375 Z M 4.140625,-2.375 c 0.828125,-0.1875 1.5625,-0.6875 1.5625,-1.3125 0,-0.59375 -0.703125,-1.078125 -1.71875,-1.078125 H 1.84375 c -0.125,0 -0.21875,0 -0.21875,0.15625 0,0.09375 0.078125,0.09375 0.21875,0.09375 0.015625,0 0.140625,0 0.265625,0.015625 0.15625,0.015625 0.15625,0.03125 0.15625,0.109375 0,0 0,0.046875 -0.015625,0.140625 L 1.3125,-0.546875 C 1.265625,-0.3125 1.25,-0.25 0.703125,-0.25 0.578125,-0.25 0.5,-0.25 0.5,-0.109375 0.5,-0.03125 0.546875,0 0.609375,0 c 0.125,0 0.296875,-0.015625 0.421875,-0.015625 0.140625,0 0.34375,-0.015625 0.46875,-0.015625 0.140625,0 0.296875,0.015625 0.4375,0.015625 C 2.09375,-0.015625 2.265625,0 2.40625,0 2.453125,0 2.5625,0 2.5625,-0.140625 2.5625,-0.25 2.484375,-0.25 2.328125,-0.25 2.21875,-0.25 2.1875,-0.25 2.0625,-0.265625 1.90625,-0.28125 1.90625,-0.296875 1.90625,-0.375 c 0,0 0,-0.046875 0.03125,-0.140625 L 2.375,-2.28125 h 0.953125 c 0.59375,0 0.859375,0.296875 0.859375,0.625 0,0.09375 -0.0625,0.328125 -0.109375,0.484375 C 4,-0.84375 3.96875,-0.75 3.96875,-0.625 c 0,0.546875 0.515625,0.765625 1.03125,0.765625 0.640625,0 0.921875,-0.6875 0.921875,-0.8125 0,-0.015625 -0.015625,-0.09375 -0.125,-0.09375 -0.09375,0 -0.109375,0.046875 -0.125,0.125 C 5.578125,-0.34375 5.3125,-0.0625 5.03125,-0.0625 c -0.1875,0 -0.328125,-0.0625 -0.328125,-0.453125 0,-0.171875 0.046875,-0.53125 0.078125,-0.71875 0.03125,-0.1875 0.03125,-0.25 0.03125,-0.328125 0,-0.078125 0,-0.3125 -0.203125,-0.515625 C 4.484375,-2.21875 4.296875,-2.3125 4.140625,-2.375 Z m 0,0"
                 id="path3604" />
            </g>
          </g>
        </defs>
        <g
           fill="#000000"
           fill-opacity="1"
           id="g1253"
           transform="translate(-297.398,-135.757)"
           style="stroke-width:0.504719">
          <g
             transform="translate(297.399,142.679)"
             id="g3379"
             style="stroke-width:0.504719">
            <path
               d="m 3.78125,-0.546875 v 0.65625 L 5.25,0 v -0.3125 c -0.6875,0 -0.78125,-0.0625 -0.78125,-0.5625 V -6.921875 L 3.046875,-6.8125 V -6.5 c 0.6875,0 0.765625,0.0625 0.765625,0.5625 v 2.15625 c -0.28125,-0.359375 -0.71875,-0.625 -1.25,-0.625 -1.171875,0 -2.21875,0.984375 -2.21875,2.265625 0,1.265625 0.96875,2.25 2.109375,2.25 0.640625,0 1.078125,-0.34375 1.328125,-0.65625 z m 0,-2.671875 v 2.046875 c 0,0.171875 0,0.1875 -0.109375,0.359375 C 3.375,-0.328125 2.9375,-0.109375 2.5,-0.109375 2.046875,-0.109375 1.6875,-0.375 1.453125,-0.75 1.203125,-1.15625 1.171875,-1.71875 1.171875,-2.140625 1.171875,-2.5 1.1875,-3.09375 1.46875,-3.546875 1.6875,-3.859375 2.0625,-4.1875 2.609375,-4.1875 c 0.34375,0 0.765625,0.15625 1.0625,0.59375 0.109375,0.171875 0.109375,0.1875 0.109375,0.375 z m 0,0"
               id="path9182"
               style="stroke-width:0.504719" />
          </g>
        </g>
        <g
           fill="#000000"
           fill-opacity="1"
           id="g5498"
           transform="translate(-297.398,-135.757)"
           style="stroke-width:0.504719">
          <g
             transform="translate(302.934,142.679)"
             id="g5917"
             style="stroke-width:0.504719">
            <path
               d="M 3.734375,-6.046875 C 3.8125,-6.40625 3.84375,-6.5 4.640625,-6.5 c 0.234375,0 0.3125,0 0.3125,-0.1875 0,-0.125 -0.109375,-0.125 -0.140625,-0.125 -0.296875,0 -1.03125,0.03125 -1.328125,0.03125 -0.296875,0 -1.015625,-0.03125 -1.328125,-0.03125 -0.0625,0 -0.1875,0 -0.1875,0.203125 C 1.96875,-6.5 2.046875,-6.5 2.25,-6.5 c 0.40625,0 0.6875,0 0.6875,0.1875 0,0.046875 0,0.078125 -0.03125,0.15625 l -1.34375,5.375 c -0.09375,0.375 -0.109375,0.46875 -0.90625,0.46875 -0.234375,0 -0.3125,0 -0.3125,0.203125 C 0.34375,0 0.453125,0 0.484375,0 0.78125,0 1.5,-0.03125 1.796875,-0.03125 2.09375,-0.03125 2.828125,0 3.125,0 c 0.078125,0 0.203125,0 0.203125,-0.1875 0,-0.125 -0.078125,-0.125 -0.296875,-0.125 -0.1875,0 -0.234375,0 -0.421875,-0.015625 -0.21875,-0.015625 -0.25,-0.0625 -0.25,-0.171875 0,-0.078125 0.015625,-0.15625 0.03125,-0.234375 z m 0,0"
               id="path6974"
               style="stroke-width:0.504719" />
          </g>
        </g>
        <g
           fill="#000000"
           fill-opacity="1"
           id="g946"
           transform="translate(-297.398,-135.757)"
           style="stroke-width:0.504719">
          <g
             transform="translate(307.313,144.174)"
             id="g9924"
             style="stroke-width:0.504719">
            <path
               d="m 2.875,-4.265625 c 0.046875,-0.203125 0.0625,-0.21875 0.21875,-0.25 h 0.453125 c 0.640625,0 1.4375,0 1.4375,0.71875 0,0.296875 -0.125,0.734375 -0.453125,0.984375 C 4.25,-2.59375 3.8125,-2.484375 3.328125,-2.484375 H 2.4375 Z M 4.140625,-2.375 c 0.828125,-0.1875 1.5625,-0.6875 1.5625,-1.3125 0,-0.59375 -0.703125,-1.078125 -1.71875,-1.078125 H 1.84375 c -0.125,0 -0.21875,0 -0.21875,0.15625 0,0.09375 0.078125,0.09375 0.21875,0.09375 0.015625,0 0.140625,0 0.265625,0.015625 0.15625,0.015625 0.15625,0.03125 0.15625,0.109375 0,0 0,0.046875 -0.015625,0.140625 L 1.3125,-0.546875 C 1.265625,-0.3125 1.25,-0.25 0.703125,-0.25 0.578125,-0.25 0.5,-0.25 0.5,-0.109375 0.5,-0.03125 0.546875,0 0.609375,0 c 0.125,0 0.296875,-0.015625 0.421875,-0.015625 0.140625,0 0.34375,-0.015625 0.46875,-0.015625 0.140625,0 0.296875,0.015625 0.4375,0.015625 C 2.09375,-0.015625 2.265625,0 2.40625,0 2.453125,0 2.5625,0 2.5625,-0.140625 2.5625,-0.25 2.484375,-0.25 2.328125,-0.25 2.21875,-0.25 2.1875,-0.25 2.0625,-0.265625 1.90625,-0.28125 1.90625,-0.296875 1.90625,-0.375 c 0,0 0,-0.046875 0.03125,-0.140625 L 2.375,-2.28125 h 0.953125 c 0.59375,0 0.859375,0.296875 0.859375,0.625 0,0.09375 -0.0625,0.328125 -0.109375,0.484375 C 4,-0.84375 3.96875,-0.75 3.96875,-0.625 c 0,0.546875 0.515625,0.765625 1.03125,0.765625 0.640625,0 0.921875,-0.6875 0.921875,-0.8125 0,-0.015625 -0.015625,-0.09375 -0.125,-0.09375 -0.09375,0 -0.109375,0.046875 -0.125,0.125 C 5.578125,-0.34375 5.3125,-0.0625 5.03125,-0.0625 c -0.1875,0 -0.328125,-0.0625 -0.328125,-0.453125 0,-0.171875 0.046875,-0.53125 0.078125,-0.71875 0.03125,-0.1875 0.03125,-0.25 0.03125,-0.328125 0,-0.078125 0,-0.3125 -0.203125,-0.515625 C 4.484375,-2.21875 4.296875,-2.3125 4.140625,-2.375 Z m 0,0"
               id="path9962"
               style="stroke-width:0.504719" />
          </g>
        </g>
        <path
           fill="#000000"
           d="m 0,10.973562 h 16.449218 v 0.398 H 0 Z"
           id="path794"
           style="stroke-width:0.504719" />
        <g
           fill="#000000"
           fill-opacity="1"
           id="g5991"
           transform="translate(-297.398,-135.757)"
           style="stroke-width:0.504719">
          <g
             transform="translate(299.951,156.253)"
             id="g1145"
             style="stroke-width:0.504719">
            <path
               d="m 3.78125,-0.546875 v 0.65625 L 5.25,0 v -0.3125 c -0.6875,0 -0.78125,-0.0625 -0.78125,-0.5625 V -6.921875 L 3.046875,-6.8125 V -6.5 c 0.6875,0 0.765625,0.0625 0.765625,0.5625 v 2.15625 c -0.28125,-0.359375 -0.71875,-0.625 -1.25,-0.625 -1.171875,0 -2.21875,0.984375 -2.21875,2.265625 0,1.265625 0.96875,2.25 2.109375,2.25 0.640625,0 1.078125,-0.34375 1.328125,-0.65625 z m 0,-2.671875 v 2.046875 c 0,0.171875 0,0.1875 -0.109375,0.359375 C 3.375,-0.328125 2.9375,-0.109375 2.5,-0.109375 2.046875,-0.109375 1.6875,-0.375 1.453125,-0.75 1.203125,-1.15625 1.171875,-1.71875 1.171875,-2.140625 1.171875,-2.5 1.1875,-3.09375 1.46875,-3.546875 1.6875,-3.859375 2.0625,-4.1875 2.609375,-4.1875 c 0.34375,0 0.765625,0.15625 1.0625,0.59375 0.109375,0.171875 0.109375,0.1875 0.109375,0.375 z m 0,0"
               id="path935"
               style="stroke-width:0.504719" />
          </g>
        </g>
        <g
           fill="#000000"
           fill-opacity="1"
           id="g2513"
           transform="translate(-297.398,-135.757)"
           style="stroke-width:0.504719">
          <g
             transform="translate(305.486,156.253)"
             id="g6365"
             style="stroke-width:0.504719">
            <path
               d="m 3.5625,-2.90625 c 0.40625,1.046875 0.890625,2.5625 1.046875,2.796875 0.15625,0.21875 0.25,0.21875 0.53125,0.21875 h 0.21875 c 0.09375,-0.015625 0.109375,-0.0625 0.109375,-0.09375 0,-0.03125 -0.03125,-0.0625 -0.0625,-0.09375 C 5.3125,-0.1875 5.25,-0.34375 5.1875,-0.53125 L 3.15625,-6.203125 c -0.21875,-0.578125 -0.75,-0.71875 -1.21875,-0.71875 -0.046875,0 -0.1875,0 -0.1875,0.109375 0,0.078125 0.078125,0.109375 0.09375,0.109375 C 2.171875,-6.65625 2.25,-6.59375 2.5,-5.90625 l 0.953125,2.703125 -2.75,2.734375 c -0.109375,0.125 -0.171875,0.171875 -0.171875,0.3125 0,0.171875 0.140625,0.28125 0.296875,0.28125 0.15625,0 0.25,-0.109375 0.328125,-0.203125 z m 0,0"
               id="path9478"
               style="stroke-width:0.504719" />
          </g>
        </g>
      </g>
      <g
         id="g811"
         transform="matrix(0.68591135,0,0,0.68591135,48.847482,28.564141)"
         ns5:version="1.12.0"
         ns5:texconverter="pdflatex"
         ns5:pdfconverter="inkscape"
         ns5:text="$$\n\\lambda\n$$"
         ns5:preamble="C:\Users\Admin\AppData\Roaming\inkscape\extensions\textext\default_packages.tex"
         ns5:scale="0.6671531324967325"
         ns5:alignment="middle center"
         ns5:inkscapeversion="1.4.2"
         ns5:jacobian_sqrt="0.235357"
         style="stroke-width:0.343129">
        <defs
           id="defs2912">
          <g
             id="g7580">
            <g
               id="g4304">
              <path
                 d="m 3.5625,-2.90625 c 0.40625,1.046875 0.890625,2.5625 1.046875,2.796875 0.15625,0.21875 0.25,0.21875 0.53125,0.21875 h 0.21875 c 0.09375,-0.015625 0.109375,-0.0625 0.109375,-0.09375 0,-0.03125 -0.03125,-0.0625 -0.0625,-0.09375 C 5.3125,-0.1875 5.25,-0.34375 5.1875,-0.53125 L 3.15625,-6.203125 c -0.21875,-0.578125 -0.75,-0.71875 -1.21875,-0.71875 -0.046875,0 -0.1875,0 -0.1875,0.109375 0,0.078125 0.078125,0.109375 0.09375,0.109375 C 2.171875,-6.65625 2.25,-6.59375 2.5,-5.90625 l 0.953125,2.703125 -2.75,2.734375 c -0.109375,0.125 -0.171875,0.171875 -0.171875,0.3125 0,0.171875 0.140625,0.28125 0.296875,0.28125 0.15625,0 0.25,-0.109375 0.328125,-0.203125 z m 0,0"
                 id="path3384" />
            </g>
          </g>
        </defs>
        <g
           fill="#000000"
           fill-opacity="1"
           id="g5317"
           transform="translate(-303.249,-139.798)"
           style="stroke-width:0.343129">
          <g
             transform="translate(302.718,146.72)"
             id="g7801"
             style="stroke-width:0.343129">
            <path
               d="m 3.5625,-2.90625 c 0.40625,1.046875 0.890625,2.5625 1.046875,2.796875 0.15625,0.21875 0.25,0.21875 0.53125,0.21875 h 0.21875 c 0.09375,-0.015625 0.109375,-0.0625 0.109375,-0.09375 0,-0.03125 -0.03125,-0.0625 -0.0625,-0.09375 C 5.3125,-0.1875 5.25,-0.34375 5.1875,-0.53125 L 3.15625,-6.203125 c -0.21875,-0.578125 -0.75,-0.71875 -1.21875,-0.71875 -0.046875,0 -0.1875,0 -0.1875,0.109375 0,0.078125 0.078125,0.109375 0.09375,0.109375 C 2.171875,-6.65625 2.25,-6.59375 2.5,-5.90625 l 0.953125,2.703125 -2.75,2.734375 c -0.109375,0.125 -0.171875,0.171875 -0.171875,0.3125 0,0.171875 0.140625,0.28125 0.296875,0.28125 0.15625,0 0.25,-0.109375 0.328125,-0.203125 z m 0,0"
               id="path1862"
               style="stroke-width:0.343129" />
          </g>
        </g>
      </g>
      <rect
         style="fill:#d45500;stroke:none;stroke-width:0.529;stroke-dasharray:none"
         id="rect3-1"
         width="0.34752226"
         height="13.045472"
         x="37.983837"
         y="14.610621" />
      <rect
         style="fill:#ffff00;stroke:none;stroke-width:0.529;stroke-dasharray:none"
         id="rect3-14"
         width="0.34752226"
         height="14.088041"
         x="38.513004"
         y="13.568052" />
      <rect
         style="fill:#00ff00;stroke:none;stroke-width:0.529;stroke-dasharray:none"
         id="rect3-16"
         width="0.34752226"
         height="14.43984"
         x="39.042171"
         y="13.216253" />
      <rect
         style="fill:#0000ff;stroke:none;stroke-width:0.529001;stroke-dasharray:none"
         id="rect3-18"
         width="0.34752226"
         height="14.301901"
         x="39.571339"
         y="13.354194" />
      <rect
         style="fill:#800080;stroke:none;stroke-width:0.529;stroke-dasharray:none"
         id="rect3-5"
         width="0.34752226"
         height="13.874181"
         x="40.100506"
         y="13.781914" />
      <rect
         style="fill:#ff00ff;stroke:none;stroke-width:0.529;stroke-dasharray:none"
         id="rect3-3"
         width="0.34752226"
         height="13.312798"
         x="40.629673"
         y="14.343296" />
      <rect
         style="fill:#ff0000;stroke:none;stroke-width:0.529001;stroke-dasharray:none"
         id="rect3-38"
         width="0.34752283"
         height="11.147463"
         x="37.414577"
         y="16.508633" />
    </g>
    <path
       style="fill:#000000;fill-opacity:0.501259;stroke:#000000;stroke-width:0.529;stroke-dasharray:1.587, 1.587;stroke-dashoffset:0"
       d="m 34.478616,36.595724 c 0,-10.58554 0,-21.17108 0,-31.75662"
       id="path10-8"
       inkscape:path-effect="#path-effect10-6"
       inkscape:original-d="m 34.478616,36.595724 c 0,-10.58554 0,-21.17108 0,-31.75662"
       transform="rotate(-90,31.039038,31.565341)" />
    <path
       style="fill:#000000;fill-opacity:0.501259;stroke:#000000;stroke-width:0.529;stroke-dasharray:1.587, 1.587;stroke-dashoffset:0"
       d="m 34.478616,36.595724 c 0,-10.58554 0,-21.17108 0,-31.75662"
       id="path10-8-0"
       inkscape:path-effect="#path-effect10-6-4"
       inkscape:original-d="m 34.478616,36.595724 c 0,-10.58554 0,-21.17108 0,-31.75662"
       transform="rotate(90,8.54945,31.82992)" />
    <path
       style="fill:#000000;fill-opacity:0.501259;stroke:#000000;stroke-width:0.529;stroke-dasharray:1.587, 1.587;stroke-dashoffset:0"
       d="m 34.478616,36.595724 c 0,-10.58554 0,-21.17108 0,-31.75662"
       id="path10-8-9"
       inkscape:path-effect="#path-effect10-6-1"
       inkscape:original-d="m 34.478616,36.595724 c 0,-10.58554 0,-21.17108 0,-31.75662"
       transform="rotate(-90,64.905707,65.432006)" />
    <path
       style="fill:#000000;fill-opacity:0.501259;stroke:#000000;stroke-width:0.529;stroke-dasharray:1.587, 1.587;stroke-dashoffset:0"
       d="m 34.478616,36.595724 c 0,-10.58554 0,-21.17108 0,-31.75662"
       id="path10-8-9-2"
       inkscape:path-effect="#path-effect10-6-1-7"
       inkscape:original-d="m 34.478616,36.595724 c 0,-10.58554 0,-21.17108 0,-31.75662"
       transform="rotate(90,-27.96307,69.929916)" />
    <g
       id="g21"
       transform="translate(0,-13.758336)">
      <ellipse
         style="fill:#ffff00;fill-opacity:1;stroke:none;stroke-width:0.529;stroke-dasharray:1.587, 1.587;stroke-dashoffset:0"
         id="path12"
         cx="20.462084"
         cy="151.85713"
         rx="3.1009729"
         ry="3.2079031" />
      <g
         id="g18"
         transform="translate(-150.81254,137.58336)">
        <rect
           style="fill:#00ffff;fill-opacity:1;stroke:none;stroke-width:0.529;stroke-dasharray:1.587, 1.587;stroke-dashoffset:0"
           id="rect12"
           width="20.423649"
           height="9.944499"
           x="161.35753"
           y="24.914713" />
        <text
           xml:space="preserve"
           style="font-weight:bold;font-size:4.23333px;line-height:normal;font-family:'Segoe Script';-inkscape-font-specification:'Segoe Script Bold';text-align:start;text-decoration-color:#000000;writing-mode:lr-tb;direction:ltr;text-anchor:start;fill:#000000;fill-opacity:1;stroke:none;stroke-width:0.529;stroke-dasharray:1.587, 1.587;stroke-dashoffset:0"
           x="163.37657"
           y="28.423487"
           id="text12"><tspan
             sodipodi:role="line"
             id="tspan12"
             style="fill:#000000;stroke:none;stroke-width:0.529"
             x="163.37657"
             y="28.423487">Earth's</tspan><tspan
             sodipodi:role="line"
             style="fill:#000000;stroke:none;stroke-width:0.529"
             x="163.37657"
             y="33.715149"
             id="tspan13">surface</tspan></text>
      </g>
    </g>
    <g
       id="g19"
       transform="translate(2.1166667,-20.108339)">
      <circle
         style="fill:url(#radialGradient10);stroke:none;stroke-width:0.529;stroke-dasharray:none"
         id="path9"
         cx="17.712336"
         cy="97.258316"
         r="15.821538" />
      <g
         id="g7-5"
         transform="matrix(0.3272507,0,0,0.3272507,11.91595,91.925513)"
         style="stroke-width:3.05573">
        <path
           sodipodi:type="star"
           style="fill:#d45500;stroke:none;stroke-width:2.14199;stroke-dasharray:none"
           id="path5-0"
           inkscape:flatsided="false"
           sodipodi:sides="16"
           sodipodi:cx="16.936865"
           sodipodi:cy="15.424644"
           sodipodi:r1="17.25588"
           sodipodi:r2="8.6279402"
           sodipodi:arg1="0.78539816"
           sodipodi:arg2="0.9817477"
           inkscape:rounded="0"
           inkscape:randomized="0"
           d="m 29.138615,27.626394 -7.408323,-5.027879 1.810112,8.768484 -4.920311,-7.480198 -1.683228,8.793724 -1.683228,-8.793724 -4.920312,7.480198 1.810113,-8.768484 -7.4083231,5.02788 5.0278799,-7.408324 -8.7684846,1.810113 7.4801979,-4.920312 -8.7937236,-1.683227 8.7937236,-1.683228 -7.48019795,-4.920312 8.76848465,1.810113 -5.02788,-7.4083235 7.4083232,5.0278799 -1.810113,-8.76848458 4.920312,7.48019798 1.683228,-8.7937237 1.683227,8.7937236 4.920312,-7.48019793 -1.810112,8.76848463 7.408323,-5.02788 -5.02788,7.4083236 8.768485,-1.8101131 -7.480198,4.9203121 8.793723,1.683227 -8.793723,1.683228 7.480198,4.920312 -8.768485,-1.810113 z"
           inkscape:transform-center-x="1.6852422"
           inkscape:transform-center-y="-1.6852418"
           transform="matrix(0.75467296,0,0,0.75467296,4.930527,4.6552697)" />
        <circle
           style="fill:#ffff00;stroke-width:1.617"
           id="path1-2"
           cx="17.71232"
           cy="16.29583"
           r="10" />
      </g>
      <circle
         style="fill:none;stroke:#000000;stroke-width:0.529;stroke-dasharray:none"
         id="path7"
         cx="17.71232"
         cy="97.258316"
         r="15.938382" />
      <circle
         style="fill:#00ffff;stroke:#00ffff;stroke-width:0.529;stroke-dasharray:none"
         id="path8"
         cx="33.15934"
         cy="101.68089"
         r="0.83911306" />
      <path
         style="fill:#000000;fill-opacity:1;stroke:#000000;stroke-width:0.529;stroke-dasharray:1.587, 1.587;stroke-dashoffset:0;marker-end:url(#marker16)"
         d="m 91.85833,21.17216 c 4.952636,1.497021 9.90527,2.994042 14.85791,4.491064"
         id="path15"
         inkscape:path-effect="#path-effect15"
         inkscape:original-d="m 91.85833,21.17216 c 4.952636,1.497021 9.90527,2.994043 14.85791,4.491064"
         sodipodi:nodetypes="cc"
         transform="translate(-74.083337,76.200004)" />
      <text
         xml:space="preserve"
         style="font-weight:bold;font-size:4.23333px;line-height:normal;font-family:'Segoe Script';-inkscape-font-specification:'Segoe Script Bold';text-align:start;text-decoration-color:#000000;writing-mode:lr-tb;direction:ltr;text-anchor:start;fill:#000000;fill-opacity:1;stroke:none;stroke-width:0.529;stroke-dasharray:1.587, 1.587;stroke-dashoffset:0"
         x="43.613525"
         y="93.836975"
         id="text16"
         transform="rotate(15)"><tspan
           sodipodi:role="line"
           id="tspan16"
           style="fill:#000000;stroke:none;stroke-width:0.529"
           x="43.613525"
           y="93.836975">1 a.u.</tspan></text>
    </g>
    <text
       xml:space="preserve"
       style="font-weight:bold;font-size:4.23333px;line-height:normal;font-family:'Segoe Script';-inkscape-font-specification:'Segoe Script Bold';text-align:start;text-decoration-color:#000000;writing-mode:lr-tb;direction:ltr;text-anchor:start;fill:#000000;fill-opacity:1;stroke:none;stroke-width:0.529;stroke-dasharray:1.587, 1.587;stroke-dashoffset:0"
       x="52.35918"
       y="81.113861"
       id="text17"><tspan
         sodipodi:role="line"
         id="tspan17"
         style="stroke-width:0.529"
         x="52.35918"
         y="81.113861">1 a.u. ~ </tspan><tspan
         sodipodi:role="line"
         style="stroke-width:0.529"
         x="52.35918"
         y="86.405525"
         id="tspan18">150 million km</tspan></text>
    <g
       id="g20"
       transform="translate(2.6458334,-22.225007)">
      <rect
         style="fill:#ffff00;fill-opacity:0.617128;stroke:none;stroke-width:0.529;stroke-dasharray:1.587, 1.587;stroke-dashoffset:0"
         id="rect10"
         width="20.93442"
         height="31.86517"
         x="0.046656702"
         y="120.48" />
      <circle
         style="fill:#00ffff;fill-opacity:0.501259;stroke:none;stroke-width:0.529;stroke-dasharray:none"
         id="path8-4-9"
         cx="20.779148"
         cy="136.41257"
         r="13.562055" />
      <circle
         style="fill:#00ffff;stroke:#00ffff;stroke-width:0.529;stroke-dasharray:none"
         id="path8-4"
         cx="20.779148"
         cy="136.41257"
         r="10.972854" />
      <path
         style="fill:none;fill-opacity:1;stroke:none;stroke-width:0.529001;stroke-dasharray:1.587, 1.587;stroke-dashoffset:0"
         id="path13"
         sodipodi:type="arc"
         sodipodi:cx="-20.626598"
         sodipodi:cy="136.41167"
         sodipodi:rx="13.183654"
         sodipodi:ry="13.171547"
         sodipodi:start="4.8388535"
         sodipodi:end="1.5157877"
         sodipodi:arc-type="arc"
         d="m -18.963775,123.34531 a 13.183654,13.171547 0 0 1 11.512417,13.53685 13.183654,13.171547 0 0 1 -12.450391,12.68113"
         sodipodi:open="true"
         transform="scale(-1,1)" />
      <text
         xml:space="preserve"
         style="font-weight:bold;font-size:4.23333px;line-height:normal;font-family:'Segoe Script';-inkscape-font-specification:'Segoe Script Bold';text-align:start;text-decoration-color:#000000;writing-mode:lr-tb;direction:ltr;text-anchor:start;fill:#000000;fill-opacity:1;stroke:none;stroke-width:0.529;stroke-dasharray:1.587, 1.587;stroke-dashoffset:0"
         id="text14"><textPath
           xlink:href="#path13"
           id="textPath14"><tspan
             id="tspan14"
             style="fill:#000000;stroke:none;stroke-width:0.529">    Atmosphere</tspan></textPath></text>
      <text
         xml:space="preserve"
         style="font-weight:bold;font-size:4.23333px;line-height:normal;font-family:'Segoe Script';-inkscape-font-specification:'Segoe Script Bold';text-align:start;text-decoration-color:#000000;writing-mode:lr-tb;direction:ltr;text-anchor:start;fill:#000000;fill-opacity:1;stroke:none;stroke-width:0.529;stroke-dasharray:1.587, 1.587;stroke-dashoffset:0"
         x="14.093238"
         y="138.08174"
         id="text15"><tspan
           sodipodi:role="line"
           id="tspan15"
           style="fill:#000000;stroke:none;stroke-width:0.529"
           x="14.093238"
           y="138.08174">Earth</tspan></text>
      <text
         xml:space="preserve"
         style="font-weight:bold;font-size:4.23333px;line-height:normal;font-family:'Segoe Script';-inkscape-font-specification:'Segoe Script Bold';text-align:start;text-decoration-color:#000000;writing-mode:lr-tb;direction:ltr;text-anchor:start;fill:#000000;fill-opacity:1;stroke:none;stroke-width:0.529;stroke-dasharray:1.587, 1.587;stroke-dashoffset:0"
         x="125.57565"
         y="-1.2911458"
         id="text19"
         transform="rotate(90)"><tspan
           sodipodi:role="line"
           id="tspan19"
           style="stroke-width:0.529"
           x="125.57565"
           y="-1.2911458">Sun's rays</tspan></text>
    </g>
    <text
       xml:space="preserve"
       style="font-weight:bold;font-size:4.23333px;line-height:normal;font-family:'Segoe Script';-inkscape-font-specification:'Segoe Script Bold';text-align:start;text-decoration-color:#000000;writing-mode:lr-tb;direction:ltr;text-anchor:start;fill:#000000;fill-opacity:1;stroke:none;stroke-width:0.529;stroke-dasharray:1.587, 1.587;stroke-dashoffset:0"
       x="54.504166"
       y="114.03542"
       id="text21"><tspan
         sodipodi:role="line"
         id="tspan21"
         style="stroke-width:0.529"
         x="54.504166"
         y="114.03542">solar irradiance</tspan><tspan
         sodipodi:role="line"
         style="stroke-width:0.529"
         x="54.504166"
         y="119.32709"
         id="tspan22"> outside atmosphere</tspan></text>
    <text
       xml:space="preserve"
       style="font-weight:bold;font-size:4.23333px;line-height:normal;font-family:'Segoe Script';-inkscape-font-specification:'Segoe Script Bold';text-align:start;text-decoration-color:#000000;writing-mode:lr-tb;direction:ltr;text-anchor:start;fill:#000000;fill-opacity:1;stroke:none;stroke-width:0.529;stroke-dasharray:1.587, 1.587;stroke-dashoffset:0"
       x="54.504166"
       y="151.0771"
       id="text21-9"><tspan
         sodipodi:role="line"
         id="tspan21-8"
         style="stroke-width:0.529"
         x="54.504166"
         y="151.0771">solar irradiance</tspan><tspan
         sodipodi:role="line"
         style="stroke-width:0.529"
         x="54.504166"
         y="156.36876"
         id="tspan22-4">at surface</tspan></text>
    <g
       id="g69-4"
       transform="matrix(1.2192024,0,0,1.2192024,-248.64807,-27.980278)"
       style="stroke-width:0.820208">
      <circle
         style="opacity:1;fill:#0066ff;fill-opacity:1;stroke:none;stroke-width:0.217014;stroke-linecap:butt;stroke-linejoin:round;stroke-miterlimit:4;stroke-dasharray:none;stroke-dashoffset:0;stroke-opacity:1"
         id="path68-9"
         cx="206.97031"
         cy="26.19375"
         r="2.0505209" />
      <text
         xml:space="preserve"
         style="font-style:normal;font-variant:normal;font-weight:normal;font-stretch:normal;font-size:3.52777px;font-family:'Segoe Script';-inkscape-font-specification:'Segoe Script';text-align:start;writing-mode:lr-tb;direction:ltr;text-anchor:start;opacity:1;fill:#ffffff;fill-opacity:1;stroke:none;stroke-width:0.217014;stroke-linecap:butt;stroke-linejoin:round;stroke-miterlimit:4;stroke-dasharray:none;stroke-dashoffset:0;stroke-opacity:1"
         x="205.66203"
         y="27.360773"
         id="text69-9"><tspan
           sodipodi:role="line"
           id="tspan69-2"
           style="stroke-width:0.217014"
           x="205.66203"
           y="27.360773">1</tspan></text>
    </g>
    <g
       id="g69-4-5"
       transform="matrix(1.2192024,0,0,1.2192024,-248.64807,0.06555641)"
       style="stroke-width:0.820208">
      <circle
         style="opacity:1;fill:#0066ff;fill-opacity:1;stroke:none;stroke-width:0.217014;stroke-linecap:butt;stroke-linejoin:round;stroke-miterlimit:4;stroke-dasharray:none;stroke-dashoffset:0;stroke-opacity:1"
         id="path68-9-1"
         cx="206.97031"
         cy="26.19375"
         r="2.0505209" />
      <text
         xml:space="preserve"
         style="font-style:normal;font-variant:normal;font-weight:normal;font-stretch:normal;font-size:3.52777px;font-family:'Segoe Script';-inkscape-font-specification:'Segoe Script';text-align:start;writing-mode:lr-tb;direction:ltr;text-anchor:start;opacity:1;fill:#ffffff;fill-opacity:1;stroke:none;stroke-width:0.217014;stroke-linecap:butt;stroke-linejoin:round;stroke-miterlimit:4;stroke-dasharray:none;stroke-dashoffset:0;stroke-opacity:1"
         x="205.66203"
         y="27.360773"
         id="text69-9-7"><tspan
           sodipodi:role="line"
           id="tspan69-2-1"
           style="stroke-width:0.217014"
           x="205.66203"
           y="27.360773">2</tspan></text>
    </g>
    <g
       id="g69-4-6"
       transform="matrix(1.2192024,0,0,1.2192024,-248.64807,30.228057)"
       style="stroke-width:0.820208">
      <circle
         style="opacity:1;fill:#0066ff;fill-opacity:1;stroke:none;stroke-width:0.217014;stroke-linecap:butt;stroke-linejoin:round;stroke-miterlimit:4;stroke-dasharray:none;stroke-dashoffset:0;stroke-opacity:1"
         id="path68-9-14"
         cx="206.97031"
         cy="26.19375"
         r="2.0505209" />
      <text
         xml:space="preserve"
         style="font-style:normal;font-variant:normal;font-weight:normal;font-stretch:normal;font-size:3.52777px;font-family:'Segoe Script';-inkscape-font-specification:'Segoe Script';text-align:start;writing-mode:lr-tb;direction:ltr;text-anchor:start;opacity:1;fill:#ffffff;fill-opacity:1;stroke:none;stroke-width:0.217014;stroke-linecap:butt;stroke-linejoin:round;stroke-miterlimit:4;stroke-dasharray:none;stroke-dashoffset:0;stroke-opacity:1"
         x="205.66203"
         y="27.360773"
         id="text69-9-2"><tspan
           sodipodi:role="line"
           id="tspan69-2-3"
           style="stroke-width:0.217014"
           x="205.66203"
           y="27.360773">3</tspan></text>
    </g>
    <g
       id="g69-4-8"
       transform="matrix(1.2192024,0,0,1.2192024,-248.64807,69.386391)"
       style="stroke-width:0.820208">
      <circle
         style="opacity:1;fill:#0066ff;fill-opacity:1;stroke:none;stroke-width:0.217014;stroke-linecap:butt;stroke-linejoin:round;stroke-miterlimit:4;stroke-dasharray:none;stroke-dashoffset:0;stroke-opacity:1"
         id="path68-9-5"
         cx="206.97031"
         cy="26.19375"
         r="2.0505209" />
      <text
         xml:space="preserve"
         style="font-style:normal;font-variant:normal;font-weight:normal;font-stretch:normal;font-size:3.52777px;font-family:'Segoe Script';-inkscape-font-specification:'Segoe Script';text-align:start;writing-mode:lr-tb;direction:ltr;text-anchor:start;opacity:1;fill:#ffffff;fill-opacity:1;stroke:none;stroke-width:0.217014;stroke-linecap:butt;stroke-linejoin:round;stroke-miterlimit:4;stroke-dasharray:none;stroke-dashoffset:0;stroke-opacity:1"
         x="205.66203"
         y="27.360773"
         id="text69-9-76"><tspan
           sodipodi:role="line"
           id="tspan69-2-18"
           style="stroke-width:0.217014"
           x="205.66203"
           y="27.360773">4</tspan></text>
    </g>
    <g
       id="g69-4-54"
       transform="matrix(1.2192024,0,0,1.2192024,-248.64807,104.84056)"
       style="stroke-width:0.820208">
      <circle
         style="opacity:1;fill:#0066ff;fill-opacity:1;stroke:none;stroke-width:0.217014;stroke-linecap:butt;stroke-linejoin:round;stroke-miterlimit:4;stroke-dasharray:none;stroke-dashoffset:0;stroke-opacity:1"
         id="path68-9-3"
         cx="206.97031"
         cy="26.19375"
         r="2.0505209" />
      <text
         xml:space="preserve"
         style="font-style:normal;font-variant:normal;font-weight:normal;font-stretch:normal;font-size:3.52777px;font-family:'Segoe Script';-inkscape-font-specification:'Segoe Script';text-align:start;writing-mode:lr-tb;direction:ltr;text-anchor:start;opacity:1;fill:#ffffff;fill-opacity:1;stroke:none;stroke-width:0.217014;stroke-linecap:butt;stroke-linejoin:round;stroke-miterlimit:4;stroke-dasharray:none;stroke-dashoffset:0;stroke-opacity:1"
         x="205.66203"
         y="27.360773"
         id="text69-9-1"><tspan
           sodipodi:role="line"
           id="tspan69-2-2"
           style="stroke-width:0.217014"
           x="205.66203"
           y="27.360773">5</tspan></text>
    </g>
  </g>
</svg>
