<?xml version="1.0" encoding="UTF-8" standalone="no"?>
<!-- Created with Inkscape (http://www.inkscape.org/) -->

<svg
   width="97.860596mm"
   height="105.25884mm"
   viewBox="0 0 97.860596 105.25884"
   version="1.1"
   id="svg1"
   sodipodi:docname="qbt_band_structure_density_of_states.svg"
   inkscape:version="1.4.2 (f4327f4, 2025-05-13)"
   inkscape:export-filename="qbt_band_structure_density_of_states.pdf"
   inkscape:export-xdpi="96"
   inkscape:export-ydpi="96"
   xmlns:inkscape="http://www.inkscape.org/namespaces/inkscape"
   xmlns:sodipodi="http://sodipodi.sourceforge.net/DTD/sodipodi-0.dtd"
   xmlns="http://www.w3.org/2000/svg"
   xmlns:svg="http://www.w3.org/2000/svg">
  <sodipodi:namedview
     id="namedview1"
     pagecolor="#ffffff"
     bordercolor="#000000"
     borderopacity="0.25"
     inkscape:showpageshadow="2"
     inkscape:pageopacity="0.0"
     inkscape:pagecheckerboard="0"
     inkscape:deskcolor="#d1d1d1"
     inkscape:document-units="mm"
     inkscape:zoom="0.21870441"
     inkscape:cx="395.51101"
     inkscape:cy="422.9453"
     inkscape:window-width="1304"
     inkscape:window-height="745"
     inkscape:window-x="-8"
     inkscape:window-y="-8"
     inkscape:window-maximized="1"
     inkscape:current-layer="layer1" />
  <defs
     id="defs1">
    <inkscape:path-effect
       effect="bspline"
       id="path-effect9"
       is_visible="true"
       lpeversion="1.3"
       weight="33.333333"
       steps="2"
       helper_size="0"
       apply_no_weight="true"
       apply_with_weight="true"
       only_selected="false"
       uniform="false" />
    <inkscape:path-effect
       effect="bspline"
       id="path-effect8"
       is_visible="true"
       lpeversion="1.3"
       weight="33.333333"
       steps="2"
       helper_size="0"
       apply_no_weight="true"
       apply_with_weight="true"
       only_selected="false"
       uniform="false" />
    <inkscape:path-effect
       effect="bspline"
       id="path-effect3"
       is_visible="true"
       lpeversion="1.3"
       weight="33.333333"
       steps="2"
       helper_size="0"
       apply_no_weight="true"
       apply_with_weight="true"
       only_selected="false"
       uniform="false" />
    <marker
       style="overflow:visible"
       id="ArrowTriangleStylized-7-2"
       refX="0"
       refY="0"
       orient="auto-start-reverse"
       inkscape:stockid="Stylized triangle arrow"
       markerWidth="1"
       markerHeight="1"
       viewBox="0 0 1 1"
       inkscape:isstock="true"
       inkscape:collect="always"
       preserveAspectRatio="xMidYMid">
      <path
         transform="scale(0.5)"
         style="fill:context-stroke;fill-rule:evenodd;stroke:context-stroke;stroke-width:1pt"
         d="m 6,0 c -3,1 -7,3 -9,5 0,0 0,-4 2,-5 -2,-1 -2,-5 -2,-5 2,2 6,4 9,5 z"
         id="path10-2-8" />
    </marker>
    <inkscape:path-effect
       effect="bspline"
       id="path-effect3-2-3-6-2"
       is_visible="true"
       lpeversion="1.3"
       weight="33.333333"
       steps="2"
       helper_size="0"
       apply_no_weight="true"
       apply_with_weight="true"
       only_selected="false"
       uniform="false" />
    <inkscape:path-effect
       effect="bspline"
       id="path-effect3-2-3-6-2-2"
       is_visible="true"
       lpeversion="1.3"
       weight="33.333333"
       steps="2"
       helper_size="0"
       apply_no_weight="true"
       apply_with_weight="true"
       only_selected="false"
       uniform="false" />
    <marker
       style="overflow:visible"
       id="ArrowTriangleStylized-7-2-7"
       refX="0"
       refY="0"
       orient="auto-start-reverse"
       inkscape:stockid="Stylized triangle arrow"
       markerWidth="1"
       markerHeight="1"
       viewBox="0 0 1 1"
       inkscape:isstock="true"
       inkscape:collect="always"
       preserveAspectRatio="xMidYMid">
      <path
         transform="scale(0.5)"
         style="fill:context-stroke;fill-rule:evenodd;stroke:context-stroke;stroke-width:1pt"
         d="m 6,0 c -3,1 -7,3 -9,5 0,0 0,-4 2,-5 -2,-1 -2,-5 -2,-5 2,2 6,4 9,5 z"
         id="path10-2-8-9" />
    </marker>
    <inkscape:path-effect
       effect="bspline"
       id="path-effect3-2-3-6-2-8"
       is_visible="true"
       lpeversion="1.3"
       weight="33.333333"
       steps="2"
       helper_size="0"
       apply_no_weight="true"
       apply_with_weight="true"
       only_selected="false"
       uniform="false" />
    <marker
       style="overflow:visible"
       id="ArrowTriangleStylized-7-2-7-0"
       refX="0"
       refY="0"
       orient="auto-start-reverse"
       inkscape:stockid="Stylized triangle arrow"
       markerWidth="1"
       markerHeight="1"
       viewBox="0 0 1 1"
       inkscape:isstock="true"
       inkscape:collect="always"
       preserveAspectRatio="xMidYMid">
      <path
         transform="scale(0.5)"
         style="fill:context-stroke;fill-rule:evenodd;stroke:context-stroke;stroke-width:1pt"
         d="m 6,0 c -3,1 -7,3 -9,5 0,0 0,-4 2,-5 -2,-1 -2,-5 -2,-5 2,2 6,4 9,5 z"
         id="path10-2-8-9-2" />
    </marker>
    <inkscape:path-effect
       effect="bspline"
       id="path-effect3-2-3-6-2-8-6"
       is_visible="true"
       lpeversion="1.3"
       weight="33.333333"
       steps="2"
       helper_size="0"
       apply_no_weight="true"
       apply_with_weight="true"
       only_selected="false"
       uniform="false" />
    <inkscape:path-effect
       effect="bspline"
       id="path-effect9-0"
       is_visible="true"
       lpeversion="1.3"
       weight="33.333333"
       steps="2"
       helper_size="0"
       apply_no_weight="true"
       apply_with_weight="true"
       only_selected="false"
       uniform="false" />
  </defs>
  <g
     inkscape:label="Layer 1"
     inkscape:groupmode="layer"
     id="layer1"
     transform="translate(-65.698235,-101.07083)">
    <path
       style="fill:none;stroke:#0000ff;stroke-width:1.05833;stroke-linejoin:round;stroke-dasharray:none;stroke-dashoffset:0"
       d="m 66.551022,102.25154 c 1.334297,7.8246 2.668607,14.78066 4.002907,20.86803 1.3343,6.08744 2.668597,11.30224 4.002907,15.65073 1.3343,4.34851 2.66865,7.82452 4.002947,10.43424 1.33431,2.60972 2.66861,4.34696 4.00291,5.21712 1.334297,0.87017 2.668607,0.86862 4.002907,0 1.33435,-0.86862 2.668647,-2.60971 4.002947,-5.21712 1.3343,-2.6074 2.66861,-6.08728 4.002907,-10.43424 1.33431,-4.34618 2.66861,-9.56484 4.00291,-15.65073 1.334347,-6.08567 2.668646,-13.04343 4.002956,-20.86803"
       title="pow(x, 2)"
       id="path4-4" />
    <path
       style="fill:#000000;stroke:#000000;stroke-width:1.058;stroke-linejoin:round;stroke-dasharray:none;stroke-dashoffset:0;marker-end:url(#ArrowTriangleStylized-7-2)"
       d="m 93.074416,124.81455 c 0,-30.566774 0,-61.133549 0,-91.700328"
       id="path3-8-1-0-3"
       transform="translate(-9.258022,72.245841)"
       sodipodi:nodetypes="cc"
       inkscape:original-d="m 93.074416,124.81455 c 0,-30.566774 0,-61.133549 0,-91.700328"
       inkscape:path-effect="#path-effect3-2-3-6-2" />
    <path
       style="fill:#000000;stroke:#000000;stroke-width:1.058;stroke-linejoin:round;stroke-dasharray:none;stroke-dashoffset:0;marker-end:url(#ArrowTriangleStylized-7-2-7)"
       d="m 93.074416,124.81455 c 0,-30.566774 0,-61.133549 0,-91.700328"
       id="path3-8-1-0-3-2"
       transform="translate(22.491979,72.245841)"
       sodipodi:nodetypes="cc"
       inkscape:original-d="m 93.074416,124.81455 c 0,-30.566774 0,-61.133549 0,-91.700328"
       inkscape:path-effect="#path-effect3-2-3-6-2-8" />
    <path
       style="fill:#000000;stroke:#000000;stroke-width:1.058;stroke-linejoin:round;stroke-dasharray:none;stroke-dashoffset:0;marker-end:url(#ArrowTriangleStylized-7-2-7-0)"
       d="m 93.074416,76.909866 c 0,-14.598547 0,-29.197095 0,-43.795644"
       id="path3-8-1-0-3-2-1"
       transform="rotate(90,44.385336,147.99849)"
       sodipodi:nodetypes="cc"
       inkscape:original-d="m 93.074416,76.909866 c 0,-14.598547 0,-29.197095 0,-43.795644"
       inkscape:path-effect="#path-effect3-2-3-6-2-8-6" />
    <text
       xml:space="preserve"
       style="font-size:8.46667px;line-height:normal;font-family:'Segoe Script';-inkscape-font-specification:'Segoe Script';text-align:center;text-decoration-color:#000000;writing-mode:lr-tb;direction:ltr;text-anchor:middle;fill:#000000;stroke:none;stroke-width:1.058;stroke-linejoin:round;stroke-dasharray:none;stroke-dashoffset:0"
       x="90.048492"
       y="115.84133"
       id="text10-4-9-4"><tspan
         sodipodi:role="line"
         id="tspan10-0-2-9"
         style="font-size:8.46667px;fill:#000000;stroke:none;stroke-width:1.058"
         x="90.048492"
         y="115.84133">E</tspan></text>
    <path
       style="fill:none;stroke:#ff0000;stroke-width:1.05833;stroke-linejoin:round;stroke-dasharray:none;stroke-dashoffset:0"
       d="m 74.131917,192.61119 c 0.730027,-3.57603 1.460061,-6.75511 2.19009,-9.53718 0.730029,-2.78211 1.460056,-5.16539 2.19009,-7.15276 0.730028,-1.98737 1.460084,-3.57599 2.190111,-4.76869 0.730034,-1.1927 1.460063,-1.98666 2.190092,-2.38435 0.730029,-0.39769 1.460069,-0.39698 2.190089,0 0.73007,0.39698 1.4601,1.1927 2.19013,2.38435 0.73003,1.19164 1.46007,2.78203 2.1901,4.76869 0.73004,1.98631 1.46006,4.37136 2.19009,7.15276 0.73006,2.78129 1.46009,5.96115 2.19012,9.53718"
       title="pow(x, 2)"
       id="path4-4-8" />
    <path
       style="fill:none;stroke:#000000;stroke-width:1.058;stroke-linejoin:round;stroke-dasharray:none;stroke-dashoffset:0"
       d="m 152.56698,105.42575 c -1.39291,7.436 -2.78678,9.691 -4.17969,12.625 -1.39291,2.934 -2.78582,5.303 -4.17969,7.462 -1.39291,2.16 -2.78582,4.081 -4.17873,5.87 -1.39291,1.789 -2.78677,3.439 -4.17968,4.999 -1.39291,1.561 -2.78582,3.029 -4.17874,4.43 -1.39386,1.402 -2.78676,2.736 -4.17967,4.02 -1.39291,1.283 -2.78582,2.515 -4.17968,3.705 -1.39291,1.191 -2.78583,2.34 -4.17874,3.456 -1.39386,1.115 -2.78677,2.197 -4.17968,3.25"
       title="sqrt(x)"
       id="path2" />
    <path
       style="fill:none;stroke:#000000;stroke-width:1.05833;stroke-linejoin:round;stroke-dasharray:none"
       d="m 142.38133,196.11234 c -1.39291,-1.789 -5.13923,-7.50234 -6.53214,-9.06234 -1.39291,-1.561 -2.78582,-3.029 -4.17874,-4.43 -1.39386,-1.402 -2.78676,-2.736 -4.17967,-4.02 -1.39291,-1.283 -2.78582,-2.515 -4.17968,-3.705 -1.39291,-1.191 -2.78583,-2.34 -4.17874,-3.456 -1.39386,-1.115 -2.78677,-2.197 -4.17968,-3.25"
       title="sqrt(x)"
       id="path2-0"
       sodipodi:nodetypes="ccscccc" />
    <path
       style="fill:#87cdde;stroke:none;stroke-width:3.99874;stroke-linejoin:round;stroke-dasharray:none;stroke-dashoffset:0"
       d="m 438.94863,492.0632 v -86.91462 l 5.71548,0.75818 c 5.71746,0.75845 7.01907,-0.0617 4.34376,-2.73701 -1.06688,-1.06689 12.55572,-1.37172 61.30171,-1.37172 h 62.67341 l -0.74025,4.6293 c -2.5196,15.75667 -16.12908,46.06981 -30.51029,67.95726 -14.78271,22.4985 -35.51948,46.4483 -59.71483,68.96728 -13.12672,12.21724 -40.99796,35.62595 -42.41753,35.62595 -0.3583,0 -0.65146,-39.11158 -0.65146,-86.91462 z"
       id="path4"
       transform="scale(0.26458333)" />
    <path
       style="fill:none;stroke:none;stroke-width:3.99874;stroke-linejoin:round;stroke-dasharray:none;stroke-dashoffset:0"
       d="m 438.94863,691.53626 v -49.47533 l 4.43254,3.42897 c 17.5809,13.60045 39.65108,33.28657 55.42336,49.43643 12.86368,13.17163 14.0269,14.568 24.16281,29.00584 4.49819,6.40735 9.06056,12.87141 10.13859,14.36457 l 1.96008,2.71486 h -48.05869 -48.05869 z"
       id="path5"
       transform="scale(0.26458333)" />
    <path
       style="fill:#ff8080;stroke:none;stroke-width:3.99874;stroke-linejoin:round;stroke-dasharray:none;stroke-dashoffset:0"
       d="m 438.94863,691.53626 v -49.47533 l 4.43254,3.42897 c 17.5809,13.60045 39.65108,33.28657 55.42336,49.43643 12.86368,13.17163 14.0269,14.568 24.16281,29.00584 4.49819,6.40735 9.06056,12.87141 10.13859,14.36457 l 1.96008,2.71486 h -48.05869 -48.05869 z"
       id="path6"
       transform="scale(0.26458333)" />
    <text
       xml:space="preserve"
       style="font-size:8.46667px;line-height:normal;font-family:'Segoe Script';-inkscape-font-specification:'Segoe Script';text-align:center;text-decoration-color:#000000;writing-mode:lr-tb;direction:ltr;text-anchor:middle;fill:#000000;stroke:none;stroke-width:1.058;stroke-linejoin:round;stroke-dasharray:none;stroke-dashoffset:0"
       x="121.79848"
       y="115.84134"
       id="text10-4-9-4-1"><tspan
         sodipodi:role="line"
         id="tspan10-0-2-9-5"
         style="font-size:8.46667px;fill:#000000;stroke:none;stroke-width:1.058"
         x="121.79848"
         y="115.84134">E</tspan></text>
    <text
       xml:space="preserve"
       style="font-size:6.35px;line-height:normal;font-family:'Segoe Script';-inkscape-font-specification:'Segoe Script';text-align:center;text-decoration-color:#000000;writing-mode:lr-tb;direction:ltr;text-anchor:middle;fill:#000000;stroke:none;stroke-width:1.058;stroke-linejoin:round;stroke-dasharray:none;stroke-dashoffset:0"
       x="142.45111"
       y="204.75458"
       id="text6"><tspan
         sodipodi:role="line"
         id="tspan6"
         style="fill:#000000;stroke-width:1.058"
         x="142.45111"
         y="204.75458">Z(E)</tspan></text>
    <text
       xml:space="preserve"
       style="font-size:6.35px;line-height:normal;font-family:'Segoe Script';-inkscape-font-specification:'Segoe Script';text-align:center;text-decoration-color:#000000;writing-mode:lr-tb;direction:ltr;text-anchor:middle;fill:#000000;stroke:none;stroke-width:1.058;stroke-linejoin:round;stroke-dasharray:none;stroke-dashoffset:0"
       x="140.93506"
       y="178.2196"
       id="text6-0"><tspan
         sodipodi:role="line"
         id="tspan6-1"
         style="fill:#000000;stroke-width:1.058"
         x="140.93506"
         y="178.2196">Z<tspan
   style="font-size:65%;baseline-shift:sub"
   id="tspan7">v</tspan>(E)</tspan></text>
    <text
       xml:space="preserve"
       style="font-size:6.35px;line-height:normal;font-family:'Segoe Script';-inkscape-font-specification:'Segoe Script';text-align:center;text-decoration-color:#000000;writing-mode:lr-tb;direction:ltr;text-anchor:middle;fill:#000000;stroke:none;stroke-width:1.058;stroke-linejoin:round;stroke-dasharray:none;stroke-dashoffset:0"
       x="140.93506"
       y="146.46957"
       id="text6-0-8"><tspan
         sodipodi:role="line"
         id="tspan6-1-8"
         style="fill:#000000;stroke-width:1.058"
         x="140.93506"
         y="146.46957">Z<tspan
   style="font-size:65%;baseline-shift:sub"
   id="tspan8">c</tspan>(E)</tspan></text>
    <path
       style="fill:#000000;stroke:#000000;stroke-width:1.058;stroke-linejoin:round;stroke-dasharray:2.116, 1.058;stroke-dashoffset:0"
       d="m 75.610997,167.25153 c 15.827901,0 31.655803,0 47.483703,0"
       id="path8"
       inkscape:path-effect="#path-effect9"
       inkscape:original-d="m 75.610997,167.25153 c 15.827901,0 31.655803,0 47.483703,0"
       transform="translate(0,0.52916667)" />
    <path
       style="fill:#000000;stroke:#000000;stroke-width:1.058;stroke-linejoin:round;stroke-dasharray:2.116, 1.058;stroke-dashoffset:0"
       d="m 75.610997,167.25153 c 15.827901,0 31.655803,0 47.483703,0"
       id="path8-3"
       inkscape:path-effect="#path-effect9-0"
       inkscape:original-d="m 75.610997,167.25153 c 15.827901,0 31.655803,0 47.483703,0"
       transform="translate(0,-12.170835)" />
    <text
       xml:space="preserve"
       style="font-size:6.35px;line-height:normal;font-family:'Segoe Script';-inkscape-font-specification:'Segoe Script';text-align:center;text-decoration-color:#000000;writing-mode:lr-tb;direction:ltr;text-anchor:middle;fill:#000000;stroke:#000000;stroke-width:1.058;stroke-linejoin:round;stroke-dasharray:2.116, 1.058;stroke-dashoffset:0"
       x="68.805565"
       y="156.66599"
       id="text9"><tspan
         sodipodi:role="line"
         id="tspan9"
         style="fill:#000000;stroke:none;stroke-width:1.058"
         x="68.805565"
         y="156.66599">E<tspan
   style="font-size:65%;baseline-shift:sub"
   id="tspan10">c</tspan></tspan></text>
    <text
       xml:space="preserve"
       style="font-size:6.35px;line-height:normal;font-family:'Segoe Script';-inkscape-font-specification:'Segoe Script';text-align:center;text-decoration-color:#000000;writing-mode:lr-tb;direction:ltr;text-anchor:middle;fill:#000000;stroke:#000000;stroke-width:1.058;stroke-linejoin:round;stroke-dasharray:2.116, 1.058;stroke-dashoffset:0"
       x="68.805565"
       y="170.42435"
       id="text9-8"><tspan
         sodipodi:role="line"
         id="tspan9-3"
         style="fill:#000000;stroke:none;stroke-width:1.058"
         x="68.805565"
         y="170.42435">E<tspan
   style="font-size:65%;baseline-shift:sub"
   id="tspan11">v</tspan></tspan></text>
  </g>
</svg>
