<?xml version="1.0" encoding="UTF-8" standalone="no"?>
<!-- Created with Inkscape (http://www.inkscape.org/) -->

<svg
   width="60mm"
   height="50mm"
   viewBox="0 0 60 50"
   version="1.1"
   id="svg1"
   inkscape:version="1.4.2 (f4327f4, 2025-05-13)"
   sodipodi:docname="qbt_esc_ebd_acceptor_energy_level_after_ionization.svg"
   inkscape:export-filename="qbt_esc_ebd_acceptor_energy_level_after_ionization.pdf"
   inkscape:export-xdpi="96"
   inkscape:export-ydpi="96"
   xmlns:inkscape="http://www.inkscape.org/namespaces/inkscape"
   xmlns:sodipodi="http://sodipodi.sourceforge.net/DTD/sodipodi-0.dtd"
   xmlns="http://www.w3.org/2000/svg"
   xmlns:svg="http://www.w3.org/2000/svg"
   xmlns:ns6="http://www.iki.fi/pav/software/textext/">
  <sodipodi:namedview
     id="namedview1"
     pagecolor="#ffffff"
     bordercolor="#000000"
     borderopacity="0.25"
     inkscape:showpageshadow="2"
     inkscape:pageopacity="0.0"
     inkscape:pagecheckerboard="0"
     inkscape:deskcolor="#d1d1d1"
     inkscape:document-units="mm"
     inkscape:zoom="2.4743579"
     inkscape:cx="171.15551"
     inkscape:cy="93.155481"
     inkscape:window-width="1366"
     inkscape:window-height="705"
     inkscape:window-x="-8"
     inkscape:window-y="-8"
     inkscape:window-maximized="1"
     inkscape:current-layer="layer1" />
  <defs
     id="defs1">
    <inkscape:path-effect
       effect="bspline"
       id="path-effect14"
       is_visible="true"
       lpeversion="1.3"
       weight="33.333333"
       steps="2"
       helper_size="0"
       apply_no_weight="true"
       apply_with_weight="true"
       only_selected="false"
       uniform="false" />
    <marker
       style="overflow:visible"
       id="ArrowTriangleStylized"
       refX="0"
       refY="0"
       orient="auto-start-reverse"
       inkscape:stockid="Stylized triangle arrow"
       markerWidth="1"
       markerHeight="1"
       viewBox="0 0 1 1"
       inkscape:isstock="true"
       inkscape:collect="always"
       preserveAspectRatio="xMidYMid">
      <path
         transform="scale(0.5)"
         style="fill:context-stroke;fill-rule:evenodd;stroke:context-stroke;stroke-width:1pt"
         d="m 6,0 c -3,1 -7,3 -9,5 0,0 0,-4 2,-5 -2,-1 -2,-5 -2,-5 2,2 6,4 9,5 z"
         id="path4" />
    </marker>
    <inkscape:path-effect
       effect="bspline"
       id="path-effect4"
       is_visible="true"
       lpeversion="1.3"
       weight="33.333333"
       steps="2"
       helper_size="0"
       apply_no_weight="true"
       apply_with_weight="true"
       only_selected="false"
       uniform="false" />
    <inkscape:path-effect
       effect="bspline"
       id="path-effect2"
       is_visible="true"
       lpeversion="1.3"
       weight="33.333333"
       steps="2"
       helper_size="0"
       apply_no_weight="true"
       apply_with_weight="true"
       only_selected="false"
       uniform="false" />
    <inkscape:path-effect
       effect="bspline"
       id="path-effect1"
       is_visible="true"
       lpeversion="1.3"
       weight="33.333333"
       steps="2"
       helper_size="0"
       apply_no_weight="true"
       apply_with_weight="true"
       only_selected="false"
       uniform="false" />
    <inkscape:path-effect
       effect="bspline"
       id="path-effect2-4"
       is_visible="true"
       lpeversion="1.3"
       weight="33.333333"
       steps="2"
       helper_size="0"
       apply_no_weight="true"
       apply_with_weight="true"
       only_selected="false"
       uniform="false" />
    <marker
       style="overflow:visible"
       id="ArrowTriangleStylized-5"
       refX="0"
       refY="0"
       orient="auto-start-reverse"
       inkscape:stockid="Stylized triangle arrow"
       markerWidth="1"
       markerHeight="1"
       viewBox="0 0 1 1"
       inkscape:isstock="true"
       inkscape:collect="always"
       preserveAspectRatio="xMidYMid">
      <path
         transform="scale(0.5)"
         style="fill:context-stroke;fill-rule:evenodd;stroke:context-stroke;stroke-width:1pt"
         d="m 6,0 c -3,1 -7,3 -9,5 0,0 0,-4 2,-5 -2,-1 -2,-5 -2,-5 2,2 6,4 9,5 z"
         id="path4-1" />
    </marker>
    <inkscape:path-effect
       effect="bspline"
       id="path-effect2-4-7"
       is_visible="true"
       lpeversion="1.3"
       weight="33.333333"
       steps="2"
       helper_size="0"
       apply_no_weight="true"
       apply_with_weight="true"
       only_selected="false"
       uniform="false" />
    <marker
       style="overflow:visible"
       id="marker7"
       refX="0"
       refY="0"
       orient="auto-start-reverse"
       inkscape:stockid="Stylized triangle arrow"
       markerWidth="1"
       markerHeight="1"
       viewBox="0 0 1 1"
       inkscape:isstock="true"
       inkscape:collect="always"
       preserveAspectRatio="xMidYMid">
      <path
         transform="scale(0.5)"
         style="fill:context-stroke;fill-rule:evenodd;stroke:context-stroke;stroke-width:1pt"
         d="m 6,0 c -3,1 -7,3 -9,5 0,0 0,-4 2,-5 -2,-1 -2,-5 -2,-5 2,2 6,4 9,5 z"
         id="path7" />
    </marker>
    <inkscape:path-effect
       effect="bspline"
       id="path-effect6"
       is_visible="true"
       lpeversion="1.3"
       weight="33.333333"
       steps="2"
       helper_size="0"
       apply_no_weight="true"
       apply_with_weight="true"
       only_selected="false"
       uniform="false" />
    <marker
       style="overflow:visible"
       id="marker7-6"
       refX="0"
       refY="0"
       orient="auto-start-reverse"
       inkscape:stockid="Stylized triangle arrow"
       markerWidth="1"
       markerHeight="1"
       viewBox="0 0 1 1"
       inkscape:isstock="true"
       inkscape:collect="always"
       preserveAspectRatio="xMidYMid">
      <path
         transform="scale(0.5)"
         style="fill:context-stroke;fill-rule:evenodd;stroke:context-stroke;stroke-width:1pt"
         d="m 6,0 c -3,1 -7,3 -9,5 0,0 0,-4 2,-5 -2,-1 -2,-5 -2,-5 2,2 6,4 9,5 z"
         id="path7-1" />
    </marker>
    <inkscape:path-effect
       effect="bspline"
       id="path-effect6-4"
       is_visible="true"
       lpeversion="1.3"
       weight="33.333333"
       steps="2"
       helper_size="0"
       apply_no_weight="true"
       apply_with_weight="true"
       only_selected="false"
       uniform="false" />
    <g
       id="g9123">
      <g
         id="g8287">
        <path
           d="m 4.40625,-6.953125 c -0.0625,-0.140625 -0.09375,-0.1875 -0.265625,-0.1875 -0.15625,0 -0.1875,0.046875 -0.25,0.1875 l -3.375,6.75 C 0.46875,-0.109375 0.46875,-0.09375 0.46875,-0.078125 0.46875,0 0.53125,0 0.6875,0 h 6.921875 c 0.15625,0 0.21875,0 0.21875,-0.078125 0,-0.015625 0,-0.03125 -0.046875,-0.125 z m -0.578125,0.8125 2.6875,5.390625 h -5.375 z m 0,0"
           id="path1477" />
      </g>
      <g
         id="g3117">
        <path
           d="M 7.0625,-2.328125 C 7.078125,-2.375 7.109375,-2.4375 7.109375,-2.46875 c 0,0 0,-0.109375 -0.125,-0.109375 -0.09375,0 -0.109375,0.0625 -0.125,0.125 C 6.203125,-0.984375 5.84375,-0.3125 4.140625,-0.3125 H 2.6875 c -0.140625,0 -0.171875,0 -0.21875,0 -0.109375,-0.015625 -0.140625,-0.03125 -0.140625,-0.109375 0,-0.03125 0,-0.046875 0.046875,-0.21875 L 3.0625,-3.375 h 0.984375 c 0.84375,0 0.84375,0.21875 0.84375,0.46875 0,0.0625 0,0.1875 -0.0625,0.484375 C 4.8125,-2.375 4.796875,-2.34375 4.796875,-2.3125 c 0,0.046875 0.03125,0.109375 0.125,0.109375 C 5,-2.203125 5.03125,-2.25 5.078125,-2.40625 l 0.5625,-2.328125 c 0,-0.0625 -0.046875,-0.109375 -0.125,-0.109375 -0.078125,0 -0.109375,0.0625 -0.125,0.171875 -0.21875,0.765625 -0.390625,1 -1.3125,1 h -0.9375 l 0.59375,-2.40625 C 3.828125,-6.4375 3.84375,-6.46875 4.28125,-6.46875 H 5.6875 c 1.203125,0 1.515625,0.28125 1.515625,1.109375 0,0.234375 0,0.25 -0.046875,0.53125 0,0.046875 -0.015625,0.125 -0.015625,0.171875 0,0.046875 0.03125,0.125 0.125,0.125 0.109375,0 0.125,-0.0625 0.140625,-0.25 L 7.609375,-6.515625 C 7.640625,-6.78125 7.59375,-6.78125 7.34375,-6.78125 H 2.296875 c -0.1875,0 -0.296875,0 -0.296875,0.203125 0,0.109375 0.09375,0.109375 0.28125,0.109375 0.375,0 0.65625,0 0.65625,0.171875 0,0.046875 0,0.0625 -0.0625,0.25 L 1.5625,-0.78125 c -0.09375,0.390625 -0.109375,0.46875 -0.90625,0.46875 -0.171875,0 -0.28125,0 -0.28125,0.1875 C 0.375,0 0.46875,0 0.65625,0 h 5.171875 c 0.234375,0 0.25,-0.015625 0.3125,-0.171875 z m 0,0"
           id="path1623" />
      </g>
      <g
         id="g6839">
        <path
           d="m 2.484375,-4.765625 v 0.25 C 2.953125,-4.515625 3,-4.453125 3,-4.125 v 1.453125 c -0.25,-0.25 -0.59375,-0.40625 -0.96875,-0.40625 -0.9375,0 -1.703125,0.703125 -1.703125,1.578125 0,0.875 0.734375,1.5625 1.609375,1.5625 0.578125,0 0.921875,-0.296875 1.03125,-0.421875 V 0.0625 L 4.046875,0 V -0.25 C 3.578125,-0.25 3.53125,-0.296875 3.53125,-0.640625 V -4.84375 Z m 0.484375,4.03125 C 2.796875,-0.40625 2.4375,-0.125 1.984375,-0.125 1.59375,-0.125 1.3125,-0.359375 1.171875,-0.5625 1.03125,-0.765625 0.953125,-1.046875 0.953125,-1.484375 c 0,-0.171875 0,-0.6875 0.28125,-1.015625 0.28125,-0.3125 0.625,-0.375 0.828125,-0.375 0.328125,0 0.640625,0.15625 0.828125,0.40625 0.078125,0.109375 0.078125,0.109375 0.078125,0.25 z m 0,0"
           id="path6162" />
      </g>
      <g
         id="g762">
        <path
           d="m 1.46875,-4.296875 c 0,-0.203125 -0.171875,-0.40625 -0.40625,-0.40625 -0.203125,0 -0.390625,0.171875 -0.390625,0.40625 0,0.25 0.203125,0.40625 0.390625,0.40625 0.234375,0 0.40625,-0.171875 0.40625,-0.40625 z M 0.40625,-3 v 0.25 c 0.4375,0 0.5,0.046875 0.5,0.390625 v 1.8125 C 0.90625,-0.25 0.84375,-0.25 0.390625,-0.25 V 0 c 0.015625,0 0.5,-0.03125 0.78125,-0.03125 0.25,0 0.5,0.015625 0.734375,0.03125 V -0.25 C 1.5,-0.25 1.4375,-0.25 1.4375,-0.546875 v -2.53125 z m 0,0"
           id="path9285" />
      </g>
      <g
         id="g7394">
        <path
           d="m 3.6875,-1.484375 c 0,-0.875 -0.75,-1.625 -1.703125,-1.625 -0.96875,0 -1.71875,0.75 -1.71875,1.625 0,0.859375 0.765625,1.546875 1.71875,1.546875 0.9375,0 1.703125,-0.6875 1.703125,-1.546875 z M 1.984375,-0.15625 c -0.265625,0 -0.640625,-0.078125 -0.875,-0.421875 -0.1875,-0.28125 -0.203125,-0.640625 -0.203125,-0.96875 0,-0.296875 0,-0.71875 0.25,-1.015625 0.171875,-0.203125 0.46875,-0.34375 0.828125,-0.34375 0.40625,0 0.703125,0.1875 0.859375,0.40625 0.1875,0.265625 0.203125,0.625 0.203125,0.953125 0,0.328125 -0.015625,0.703125 -0.21875,0.984375 -0.1875,0.265625 -0.5,0.40625 -0.84375,0.40625 z m 0,0"
           id="path4737" />
      </g>
      <g
         id="g801">
        <path
           d="m 3.59375,-2.109375 c 0,-0.609375 -0.296875,-0.96875 -1.046875,-0.96875 -0.578125,0 -0.9375,0.3125 -1.140625,0.6875 v -0.6875 L 0.375,-3 v 0.25 c 0.46875,0 0.53125,0.046875 0.53125,0.390625 v 1.8125 C 0.90625,-0.25 0.828125,-0.25 0.375,-0.25 V 0 C 0.390625,0 0.875,-0.03125 1.171875,-0.03125 1.421875,-0.03125 1.90625,0 1.96875,0 v -0.25 c -0.453125,0 -0.515625,0 -0.515625,-0.296875 V -1.8125 c 0,-0.71875 0.578125,-1.0625 1.03125,-1.0625 0.484375,0 0.546875,0.375 0.546875,0.734375 v 1.59375 C 3.03125,-0.25 2.96875,-0.25 2.515625,-0.25 V 0 C 2.53125,0 3.015625,-0.03125 3.3125,-0.03125 3.5625,-0.03125 4.046875,0 4.109375,0 v -0.25 c -0.453125,0 -0.515625,0 -0.515625,-0.296875 z m 0,0"
           id="path8425" />
      </g>
    </g>
    <marker
       style="overflow:visible"
       id="marker9"
       refX="0"
       refY="0"
       orient="auto-start-reverse"
       inkscape:stockid="Stylized triangle arrow"
       markerWidth="1"
       markerHeight="1"
       viewBox="0 0 1 1"
       inkscape:isstock="true"
       inkscape:collect="always"
       preserveAspectRatio="xMidYMid">
      <path
         transform="scale(0.5)"
         style="fill:context-stroke;fill-rule:evenodd;stroke:context-stroke;stroke-width:1pt"
         d="m 6,0 c -3,1 -7,3 -9,5 0,0 0,-4 2,-5 -2,-1 -2,-5 -2,-5 2,2 6,4 9,5 z"
         id="path9" />
    </marker>
    <inkscape:path-effect
       effect="bspline"
       id="path-effect8"
       is_visible="true"
       lpeversion="1.3"
       weight="33.333333"
       steps="2"
       helper_size="0"
       apply_no_weight="true"
       apply_with_weight="true"
       only_selected="false"
       uniform="false" />
    <inkscape:path-effect
       effect="bspline"
       id="path-effect8-3"
       is_visible="true"
       lpeversion="1.3"
       weight="33.333333"
       steps="2"
       helper_size="0"
       apply_no_weight="true"
       apply_with_weight="true"
       only_selected="false"
       uniform="false" />
    <inkscape:path-effect
       effect="bspline"
       id="path-effect8-6"
       is_visible="true"
       lpeversion="1.3"
       weight="33.333333"
       steps="2"
       helper_size="0"
       apply_no_weight="true"
       apply_with_weight="true"
       only_selected="false"
       uniform="false" />
    <inkscape:path-effect
       effect="bspline"
       id="path-effect14-6"
       is_visible="true"
       lpeversion="1.3"
       weight="33.333333"
       steps="2"
       helper_size="0"
       apply_no_weight="true"
       apply_with_weight="true"
       only_selected="false"
       uniform="false" />
    <inkscape:path-effect
       effect="bspline"
       id="path-effect14-3"
       is_visible="true"
       lpeversion="1.3"
       weight="33.333333"
       steps="2"
       helper_size="0"
       apply_no_weight="true"
       apply_with_weight="true"
       only_selected="false"
       uniform="false" />
    <inkscape:path-effect
       effect="bspline"
       id="path-effect8-9"
       is_visible="true"
       lpeversion="1.3"
       weight="33.333333"
       steps="2"
       helper_size="0"
       apply_no_weight="true"
       apply_with_weight="true"
       only_selected="false"
       uniform="false" />
    <inkscape:path-effect
       effect="bspline"
       id="path-effect8-4"
       is_visible="true"
       lpeversion="1.3"
       weight="33.333333"
       steps="2"
       helper_size="0"
       apply_no_weight="true"
       apply_with_weight="true"
       only_selected="false"
       uniform="false" />
    <marker
       style="overflow:visible"
       id="marker9-1"
       refX="0"
       refY="0"
       orient="auto-start-reverse"
       inkscape:stockid="Stylized triangle arrow"
       markerWidth="1"
       markerHeight="1"
       viewBox="0 0 1 1"
       inkscape:isstock="true"
       inkscape:collect="always"
       preserveAspectRatio="xMidYMid">
      <path
         transform="scale(0.5)"
         style="fill:context-stroke;fill-rule:evenodd;stroke:context-stroke;stroke-width:1pt"
         d="m 6,0 c -3,1 -7,3 -9,5 0,0 0,-4 2,-5 -2,-1 -2,-5 -2,-5 2,2 6,4 9,5 z"
         id="path9-7" />
    </marker>
    <inkscape:path-effect
       effect="bspline"
       id="path-effect8-7"
       is_visible="true"
       lpeversion="1.3"
       weight="33.333333"
       steps="2"
       helper_size="0"
       apply_no_weight="true"
       apply_with_weight="true"
       only_selected="false"
       uniform="false" />
  </defs>
  <g
     inkscape:label="Layer 1"
     inkscape:groupmode="layer"
     id="layer1">
    <rect
       style="fill:#808080;fill-opacity:1;stroke:none;stroke-width:0.529001"
       id="rect12"
       width="60"
       height="50"
       x="7.1054274e-15"
       y="8.8817842e-16" />
    <g
       id="g5"
       transform="translate(0,9.9476483)">
      <path
         style="fill:#000000;stroke:#000000;stroke-width:0.52006;marker-end:url(#ArrowTriangleStylized-5)"
         d="m 10.37222,14.328633 c 12.439534,0 24.879069,0 37.318602,0"
         id="path2-2-5"
         inkscape:path-effect="#path-effect2-4-7"
         inkscape:original-d="m 10.37222,14.328633 c 12.439534,0 24.879069,0 37.318602,0"
         transform="matrix(0,-1.0171895,1.0171895,0,-10.607193,50.602865)" />
      <rect
         style="fill:#ff0000;stroke:#0000ff;stroke-width:0.529"
         id="rect1"
         width="39.472374"
         height="8.9639997"
         x="10.887983"
         y="26.910807" />
      <rect
         style="fill:none;stroke:#0000ff;stroke-width:0.529"
         id="rect1-0"
         width="39.472374"
         height="8.9639997"
         x="10.887983"
         y="0.45247334" />
      <path
         style="fill:#000000;stroke:#000000;stroke-width:0.493538"
         d="m 10.37222,14.328633 c 12.439534,0 24.879069,0 37.318602,0"
         id="path2"
         inkscape:path-effect="#path-effect2"
         inkscape:original-d="m 10.37222,14.328633 c 12.439534,0 24.879069,0 37.318602,0"
         transform="matrix(1.0718515,0,0,1.0718515,-0.7452597,7.9781546)" />
      <path
         style="fill:#000000;stroke:#000000;stroke-width:1.9887;marker-end:url(#ArrowTriangleStylized)"
         d="m 10.37222,14.328633 c 12.439534,0 24.879069,0 37.318602,0"
         id="path2-2"
         inkscape:path-effect="#path-effect2-4"
         inkscape:original-d="m 10.37222,14.328633 c 12.439534,0 24.879069,0 37.318602,0"
         transform="matrix(0.26600266,0,0,0.26600266,22.583395,34.252367)" />
      <text
         xml:space="preserve"
         style="font-size:4.23333px;line-height:normal;font-family:'Segoe Script';-inkscape-font-specification:'Segoe Script';text-align:center;text-decoration-color:#000000;writing-mode:lr-tb;direction:ltr;text-anchor:middle;fill:#000000;stroke:none;stroke-width:0.529"
         x="30.733725"
         y="32.852146"
         id="text2"><tspan
           sodipodi:role="line"
           id="tspan2"
           style="fill:#000000;stroke:none;stroke-width:0.529"
           x="30.733725"
           y="32.852146">V.B.</tspan></text>
      <text
         xml:space="preserve"
         style="font-size:4.23333px;line-height:normal;font-family:'Segoe Script';-inkscape-font-specification:'Segoe Script';text-align:center;text-decoration-color:#000000;writing-mode:lr-tb;direction:ltr;text-anchor:middle;fill:#000000;stroke:none;stroke-width:0.529"
         x="30.642775"
         y="6.3721108"
         id="text2-6"><tspan
           sodipodi:role="line"
           id="tspan2-1"
           style="fill:#000000;stroke:none;stroke-width:0.529"
           x="30.642775"
           y="6.3721108">C.B.</tspan></text>
      <text
         xml:space="preserve"
         style="font-size:4.23333px;line-height:normal;font-family:'Segoe Script';-inkscape-font-specification:'Segoe Script';text-align:center;text-decoration-color:#000000;writing-mode:lr-tb;direction:ltr;text-anchor:middle;fill:#000000;stroke:none;stroke-width:0.529"
         x="53.25119"
         y="24.459869"
         id="text3"><tspan
           sodipodi:role="line"
           id="tspan3"
           style="fill:#000000;stroke:none;stroke-width:0.529"
           x="53.25119"
           y="24.459869">E<tspan
   style="font-size:65%;baseline-shift:sub"
   id="tspan4">a</tspan></tspan></text>
      <text
         xml:space="preserve"
         style="font-size:4.23333px;line-height:normal;font-family:'Segoe Script';-inkscape-font-specification:'Segoe Script';text-align:center;text-decoration-color:#000000;writing-mode:lr-tb;direction:ltr;text-anchor:middle;fill:#000000;stroke:none;stroke-width:0.529"
         x="53.328445"
         y="28.164034"
         id="text3-8"><tspan
           sodipodi:role="line"
           id="tspan3-7"
           style="fill:#000000;stroke:none;stroke-width:0.529"
           x="53.328445"
           y="28.164034">E<tspan
   style="font-size:65%;baseline-shift:sub"
   id="tspan4-7">v</tspan></tspan></text>
      <text
         xml:space="preserve"
         style="font-size:4.23333px;line-height:normal;font-family:'Segoe Script';-inkscape-font-specification:'Segoe Script';text-align:center;text-decoration-color:#000000;writing-mode:lr-tb;direction:ltr;text-anchor:middle;fill:#000000;stroke:none;stroke-width:0.529"
         x="53.335835"
         y="10.931849"
         id="text3-1"><tspan
           sodipodi:role="line"
           id="tspan3-4"
           style="fill:#000000;stroke:none;stroke-width:0.529"
           x="53.335835"
           y="10.931849">E<tspan
   style="font-size:65%;baseline-shift:sub"
   id="tspan4-3">c</tspan></tspan></text>
      <text
         xml:space="preserve"
         style="font-size:4.23333px;line-height:normal;font-family:'Segoe Script';-inkscape-font-specification:'Segoe Script';text-align:center;text-decoration-color:#000000;writing-mode:lr-tb;direction:ltr;text-anchor:middle;fill:#000000;stroke-width:0.529"
         x="39.777992"
         y="38.954723"
         id="text1"><tspan
           sodipodi:role="line"
           id="tspan1"
           style="stroke-width:0.529"
           x="39.777992"
           y="38.954723">x</tspan></text>
      <text
         xml:space="preserve"
         style="font-size:4.23333px;line-height:normal;font-family:'Segoe Script';-inkscape-font-specification:'Segoe Script';text-align:center;text-decoration-color:#000000;writing-mode:lr-tb;direction:ltr;text-anchor:middle;fill:#000000;stroke-width:0.529"
         x="6.3088756"
         y="21.506884"
         id="text5"><tspan
           sodipodi:role="line"
           id="tspan5"
           style="stroke-width:0.529"
           x="6.3088756"
           y="21.506884">E</tspan></text>
    </g>
    <g
       id="g4944"
       transform="matrix(0.235357,0,0,0.235357,12.7,33.938507)"
       ns6:version="1.12.0"
       ns6:texconverter="pdflatex"
       ns6:pdfconverter="inkscape"
       ns6:text="$$\n\\Delta E_\\text{ion}^\\text{a}\n$$"
       ns6:preamble="C:\Users\Admin\AppData\Roaming\inkscape\extensions\textext\default_packages.tex"
       ns6:scale="0.6671531324967325"
       ns6:alignment="middle center"
       ns6:inkscapeversion="1.4.2"
       ns6:jacobian_sqrt="0.235357"
       style="stroke-width:0">
      <defs
         id="defs8355"
         style="stroke-width:0">
        <g
           id="g9810"
           style="stroke-width:0">
          <g
             id="g5156"
             style="stroke-width:0">
            <path
               d="m 4.40625,-6.953125 c -0.0625,-0.140625 -0.09375,-0.1875 -0.265625,-0.1875 -0.15625,0 -0.1875,0.046875 -0.25,0.1875 l -3.375,6.75 C 0.46875,-0.109375 0.46875,-0.09375 0.46875,-0.078125 0.46875,0 0.53125,0 0.6875,0 h 6.921875 c 0.15625,0 0.21875,0 0.21875,-0.078125 0,-0.015625 0,-0.03125 -0.046875,-0.125 z m -0.578125,0.8125 2.6875,5.390625 h -5.375 z m 0,0"
               id="path1383"
               style="stroke-width:0" />
          </g>
          <g
             id="g5282"
             style="stroke-width:0">
            <path
               d="M 7.0625,-2.328125 C 7.078125,-2.375 7.109375,-2.4375 7.109375,-2.46875 c 0,0 0,-0.109375 -0.125,-0.109375 -0.09375,0 -0.109375,0.0625 -0.125,0.125 C 6.203125,-0.984375 5.84375,-0.3125 4.140625,-0.3125 H 2.6875 c -0.140625,0 -0.171875,0 -0.21875,0 -0.109375,-0.015625 -0.140625,-0.03125 -0.140625,-0.109375 0,-0.03125 0,-0.046875 0.046875,-0.21875 L 3.0625,-3.375 h 0.984375 c 0.84375,0 0.84375,0.21875 0.84375,0.46875 0,0.0625 0,0.1875 -0.0625,0.484375 C 4.8125,-2.375 4.796875,-2.34375 4.796875,-2.3125 c 0,0.046875 0.03125,0.109375 0.125,0.109375 C 5,-2.203125 5.03125,-2.25 5.078125,-2.40625 l 0.5625,-2.328125 c 0,-0.0625 -0.046875,-0.109375 -0.125,-0.109375 -0.078125,0 -0.109375,0.0625 -0.125,0.171875 -0.21875,0.765625 -0.390625,1 -1.3125,1 h -0.9375 l 0.59375,-2.40625 C 3.828125,-6.4375 3.84375,-6.46875 4.28125,-6.46875 H 5.6875 c 1.203125,0 1.515625,0.28125 1.515625,1.109375 0,0.234375 0,0.25 -0.046875,0.53125 0,0.046875 -0.015625,0.125 -0.015625,0.171875 0,0.046875 0.03125,0.125 0.125,0.125 0.109375,0 0.125,-0.0625 0.140625,-0.25 L 7.609375,-6.515625 C 7.640625,-6.78125 7.59375,-6.78125 7.34375,-6.78125 H 2.296875 c -0.1875,0 -0.296875,0 -0.296875,0.203125 0,0.109375 0.09375,0.109375 0.28125,0.109375 0.375,0 0.65625,0 0.65625,0.171875 0,0.046875 0,0.0625 -0.0625,0.25 L 1.5625,-0.78125 c -0.09375,0.390625 -0.109375,0.46875 -0.90625,0.46875 -0.171875,0 -0.28125,0 -0.28125,0.1875 C 0.375,0 0.46875,0 0.65625,0 h 5.171875 c 0.234375,0 0.25,-0.015625 0.3125,-0.171875 z m 0,0"
               id="path5349"
               style="stroke-width:0" />
          </g>
          <g
             id="g712"
             style="stroke-width:0">
            <path
               d="m 3.109375,-1.875 c 0,-0.359375 0,-0.625 -0.328125,-0.890625 C 2.5,-3 2.171875,-3.109375 1.75,-3.109375 c -0.65625,0 -1.125,0.25 -1.125,0.671875 0,0.234375 0.15625,0.34375 0.34375,0.34375 0.1875,0 0.328125,-0.140625 0.328125,-0.328125 0,-0.109375 -0.0625,-0.265625 -0.25,-0.3125 0.25,-0.171875 0.65625,-0.171875 0.6875,-0.171875 0.390625,0 0.828125,0.25 0.828125,0.84375 v 0.203125 C 2.171875,-1.84375 1.71875,-1.8125 1.203125,-1.625 c -0.625,0.21875 -0.8125,0.609375 -0.8125,0.921875 0,0.59375 0.71875,0.765625 1.21875,0.765625 0.546875,0 0.875,-0.3125 1.03125,-0.578125 0.015625,0.28125 0.203125,0.546875 0.53125,0.546875 0.015625,0 0.6875,0 0.6875,-0.65625 V -1.015625 H 3.625 v 0.375 c 0,0.078125 0,0.40625 -0.265625,0.40625 -0.25,0 -0.25,-0.328125 -0.25,-0.40625 z M 2.5625,-0.984375 c 0,0.671875 -0.59375,0.859375 -0.90625,0.859375 -0.359375,0 -0.6875,-0.234375 -0.6875,-0.578125 0,-0.390625 0.328125,-0.921875 1.59375,-0.96875 z m 0,0"
               id="path3069"
               style="stroke-width:0" />
          </g>
          <g
             id="g7092"
             style="stroke-width:0">
            <path
               d="m 1.46875,-4.296875 c 0,-0.203125 -0.171875,-0.40625 -0.40625,-0.40625 -0.203125,0 -0.390625,0.171875 -0.390625,0.40625 0,0.25 0.203125,0.40625 0.390625,0.40625 0.234375,0 0.40625,-0.171875 0.40625,-0.40625 z M 0.40625,-3 v 0.25 c 0.4375,0 0.5,0.046875 0.5,0.390625 v 1.8125 C 0.90625,-0.25 0.84375,-0.25 0.390625,-0.25 V 0 c 0.015625,0 0.5,-0.03125 0.78125,-0.03125 0.25,0 0.5,0.015625 0.734375,0.03125 V -0.25 C 1.5,-0.25 1.4375,-0.25 1.4375,-0.546875 v -2.53125 z m 0,0"
               id="path7340"
               style="stroke-width:0" />
          </g>
          <g
             id="g3398"
             style="stroke-width:0">
            <path
               d="m 3.6875,-1.484375 c 0,-0.875 -0.75,-1.625 -1.703125,-1.625 -0.96875,0 -1.71875,0.75 -1.71875,1.625 0,0.859375 0.765625,1.546875 1.71875,1.546875 0.9375,0 1.703125,-0.6875 1.703125,-1.546875 z M 1.984375,-0.15625 c -0.265625,0 -0.640625,-0.078125 -0.875,-0.421875 -0.1875,-0.28125 -0.203125,-0.640625 -0.203125,-0.96875 0,-0.296875 0,-0.71875 0.25,-1.015625 0.171875,-0.203125 0.46875,-0.34375 0.828125,-0.34375 0.40625,0 0.703125,0.1875 0.859375,0.40625 0.1875,0.265625 0.203125,0.625 0.203125,0.953125 0,0.328125 -0.015625,0.703125 -0.21875,0.984375 -0.1875,0.265625 -0.5,0.40625 -0.84375,0.40625 z m 0,0"
               id="path5023"
               style="stroke-width:0" />
          </g>
          <g
             id="g5848"
             style="stroke-width:0">
            <path
               d="m 3.59375,-2.109375 c 0,-0.609375 -0.296875,-0.96875 -1.046875,-0.96875 -0.578125,0 -0.9375,0.3125 -1.140625,0.6875 v -0.6875 L 0.375,-3 v 0.25 c 0.46875,0 0.53125,0.046875 0.53125,0.390625 v 1.8125 C 0.90625,-0.25 0.828125,-0.25 0.375,-0.25 V 0 C 0.390625,0 0.875,-0.03125 1.171875,-0.03125 1.421875,-0.03125 1.90625,0 1.96875,0 v -0.25 c -0.453125,0 -0.515625,0 -0.515625,-0.296875 V -1.8125 c 0,-0.71875 0.578125,-1.0625 1.03125,-1.0625 0.484375,0 0.546875,0.375 0.546875,0.734375 v 1.59375 C 3.03125,-0.25 2.96875,-0.25 2.515625,-0.25 V 0 C 2.53125,0 3.015625,-0.03125 3.3125,-0.03125 3.5625,-0.03125 4.046875,0 4.109375,0 v -0.25 c -0.453125,0 -0.515625,0 -0.515625,-0.296875 z m 0,0"
               id="path6187"
               style="stroke-width:0" />
          </g>
        </g>
      </defs>
      <g
         fill="#000000"
         fill-opacity="1"
         id="g9252"
         transform="translate(-292.702,-139.497)"
         style="stroke-width:0">
        <g
           transform="translate(292.233,146.72)"
           id="g5552"
           style="stroke-width:0">
          <path
             d="m 4.40625,-6.953125 c -0.0625,-0.140625 -0.09375,-0.1875 -0.265625,-0.1875 -0.15625,0 -0.1875,0.046875 -0.25,0.1875 l -3.375,6.75 C 0.46875,-0.109375 0.46875,-0.09375 0.46875,-0.078125 0.46875,0 0.53125,0 0.6875,0 h 6.921875 c 0.15625,0 0.21875,0 0.21875,-0.078125 0,-0.015625 0,-0.03125 -0.046875,-0.125 z m -0.578125,0.8125 2.6875,5.390625 h -5.375 z m 0,0"
             id="path6329"
             style="stroke-width:0" />
        </g>
      </g>
      <g
         fill="#000000"
         fill-opacity="1"
         id="g1476"
         transform="translate(-292.702,-139.497)"
         style="stroke-width:0">
        <g
           transform="translate(300.535,146.72)"
           id="g5195"
           style="stroke-width:0">
          <path
             d="M 7.0625,-2.328125 C 7.078125,-2.375 7.109375,-2.4375 7.109375,-2.46875 c 0,0 0,-0.109375 -0.125,-0.109375 -0.09375,0 -0.109375,0.0625 -0.125,0.125 C 6.203125,-0.984375 5.84375,-0.3125 4.140625,-0.3125 H 2.6875 c -0.140625,0 -0.171875,0 -0.21875,0 -0.109375,-0.015625 -0.140625,-0.03125 -0.140625,-0.109375 0,-0.03125 0,-0.046875 0.046875,-0.21875 L 3.0625,-3.375 h 0.984375 c 0.84375,0 0.84375,0.21875 0.84375,0.46875 0,0.0625 0,0.1875 -0.0625,0.484375 C 4.8125,-2.375 4.796875,-2.34375 4.796875,-2.3125 c 0,0.046875 0.03125,0.109375 0.125,0.109375 C 5,-2.203125 5.03125,-2.25 5.078125,-2.40625 l 0.5625,-2.328125 c 0,-0.0625 -0.046875,-0.109375 -0.125,-0.109375 -0.078125,0 -0.109375,0.0625 -0.125,0.171875 -0.21875,0.765625 -0.390625,1 -1.3125,1 h -0.9375 l 0.59375,-2.40625 C 3.828125,-6.4375 3.84375,-6.46875 4.28125,-6.46875 H 5.6875 c 1.203125,0 1.515625,0.28125 1.515625,1.109375 0,0.234375 0,0.25 -0.046875,0.53125 0,0.046875 -0.015625,0.125 -0.015625,0.171875 0,0.046875 0.03125,0.125 0.125,0.125 0.109375,0 0.125,-0.0625 0.140625,-0.25 L 7.609375,-6.515625 C 7.640625,-6.78125 7.59375,-6.78125 7.34375,-6.78125 H 2.296875 c -0.1875,0 -0.296875,0 -0.296875,0.203125 0,0.109375 0.09375,0.109375 0.28125,0.109375 0.375,0 0.65625,0 0.65625,0.171875 0,0.046875 0,0.0625 -0.0625,0.25 L 1.5625,-0.78125 c -0.09375,0.390625 -0.109375,0.46875 -0.90625,0.46875 -0.171875,0 -0.28125,0 -0.28125,0.1875 C 0.375,0 0.46875,0 0.65625,0 h 5.171875 c 0.234375,0 0.25,-0.015625 0.3125,-0.171875 z m 0,0"
             id="path9506"
             style="stroke-width:0" />
        </g>
      </g>
      <g
         fill="#000000"
         fill-opacity="1"
         id="g7131"
         transform="translate(-292.702,-139.497)"
         style="stroke-width:0">
        <g
           transform="translate(308.464,142.606)"
           id="g5602"
           style="stroke-width:0">
          <path
             d="m 3.109375,-1.875 c 0,-0.359375 0,-0.625 -0.328125,-0.890625 C 2.5,-3 2.171875,-3.109375 1.75,-3.109375 c -0.65625,0 -1.125,0.25 -1.125,0.671875 0,0.234375 0.15625,0.34375 0.34375,0.34375 0.1875,0 0.328125,-0.140625 0.328125,-0.328125 0,-0.109375 -0.0625,-0.265625 -0.25,-0.3125 0.25,-0.171875 0.65625,-0.171875 0.6875,-0.171875 0.390625,0 0.828125,0.25 0.828125,0.84375 v 0.203125 C 2.171875,-1.84375 1.71875,-1.8125 1.203125,-1.625 c -0.625,0.21875 -0.8125,0.609375 -0.8125,0.921875 0,0.59375 0.71875,0.765625 1.21875,0.765625 0.546875,0 0.875,-0.3125 1.03125,-0.578125 0.015625,0.28125 0.203125,0.546875 0.53125,0.546875 0.015625,0 0.6875,0 0.6875,-0.65625 V -1.015625 H 3.625 v 0.375 c 0,0.078125 0,0.40625 -0.265625,0.40625 -0.25,0 -0.25,-0.328125 -0.25,-0.40625 z M 2.5625,-0.984375 c 0,0.671875 -0.59375,0.859375 -0.90625,0.859375 -0.359375,0 -0.6875,-0.234375 -0.6875,-0.578125 0,-0.390625 0.328125,-0.921875 1.59375,-0.96875 z m 0,0"
             id="path9508"
             style="stroke-width:0" />
        </g>
      </g>
      <g
         fill="#000000"
         fill-opacity="1"
         id="g3433"
         transform="translate(-292.702,-139.497)"
         style="stroke-width:0">
        <g
           transform="translate(307.89,149.183)"
           id="g491"
           style="stroke-width:0">
          <path
             d="m 1.46875,-4.296875 c 0,-0.203125 -0.171875,-0.40625 -0.40625,-0.40625 -0.203125,0 -0.390625,0.171875 -0.390625,0.40625 0,0.25 0.203125,0.40625 0.390625,0.40625 0.234375,0 0.40625,-0.171875 0.40625,-0.40625 z M 0.40625,-3 v 0.25 c 0.4375,0 0.5,0.046875 0.5,0.390625 v 1.8125 C 0.90625,-0.25 0.84375,-0.25 0.390625,-0.25 V 0 c 0.015625,0 0.5,-0.03125 0.78125,-0.03125 0.25,0 0.5,0.015625 0.734375,0.03125 V -0.25 C 1.5,-0.25 1.4375,-0.25 1.4375,-0.546875 v -2.53125 z m 0,0"
             id="path79"
             style="stroke-width:0" />
        </g>
        <g
           transform="translate(310.145,149.183)"
           id="g7580"
           style="stroke-width:0">
          <path
             d="m 3.6875,-1.484375 c 0,-0.875 -0.75,-1.625 -1.703125,-1.625 -0.96875,0 -1.71875,0.75 -1.71875,1.625 0,0.859375 0.765625,1.546875 1.71875,1.546875 0.9375,0 1.703125,-0.6875 1.703125,-1.546875 z M 1.984375,-0.15625 c -0.265625,0 -0.640625,-0.078125 -0.875,-0.421875 -0.1875,-0.28125 -0.203125,-0.640625 -0.203125,-0.96875 0,-0.296875 0,-0.71875 0.25,-1.015625 0.171875,-0.203125 0.46875,-0.34375 0.828125,-0.34375 0.40625,0 0.703125,0.1875 0.859375,0.40625 0.1875,0.265625 0.203125,0.625 0.203125,0.953125 0,0.328125 -0.015625,0.703125 -0.21875,0.984375 -0.1875,0.265625 -0.5,0.40625 -0.84375,0.40625 z m 0,0"
             id="path8707"
             style="stroke-width:0" />
        </g>
        <g
           transform="translate(314.117,149.183)"
           id="g2442"
           style="stroke-width:0">
          <path
             d="m 3.59375,-2.109375 c 0,-0.609375 -0.296875,-0.96875 -1.046875,-0.96875 -0.578125,0 -0.9375,0.3125 -1.140625,0.6875 v -0.6875 L 0.375,-3 v 0.25 c 0.46875,0 0.53125,0.046875 0.53125,0.390625 v 1.8125 C 0.90625,-0.25 0.828125,-0.25 0.375,-0.25 V 0 C 0.390625,0 0.875,-0.03125 1.171875,-0.03125 1.421875,-0.03125 1.90625,0 1.96875,0 v -0.25 c -0.453125,0 -0.515625,0 -0.515625,-0.296875 V -1.8125 c 0,-0.71875 0.578125,-1.0625 1.03125,-1.0625 0.484375,0 0.546875,0.375 0.546875,0.734375 v 1.59375 C 3.03125,-0.25 2.96875,-0.25 2.515625,-0.25 V 0 C 2.53125,0 3.015625,-0.03125 3.3125,-0.03125 3.5625,-0.03125 4.046875,0 4.109375,0 v -0.25 c -0.453125,0 -0.515625,0 -0.515625,-0.296875 z m 0,0"
             id="path1557"
             style="stroke-width:0" />
        </g>
      </g>
    </g>
    <path
       style="fill:#000000;stroke:#000000;stroke-width:0.529;marker-end:url(#marker7)"
       d="m 12.831612,23.631551 c 0,1.211875 0,2.423749 0,3.635624"
       id="path13"
       inkscape:path-effect="#path-effect6"
       inkscape:original-d="m 12.831612,23.631551 c 0,1.211875 0,2.423749 0,3.635624"
       transform="translate(2.7733224,3.6205321)"
       sodipodi:nodetypes="cc" />
    <path
       style="fill:#000000;stroke:#000000;stroke-width:0.529;marker-end:url(#marker7-6)"
       d="m 12.831612,23.631551 c 0,1.211875 0,2.423749 0,3.635624"
       id="path6-2"
       inkscape:path-effect="#path-effect6-4"
       inkscape:original-d="m 12.831612,23.631551 c 0,1.211875 0,2.423749 0,3.635624"
       transform="matrix(1,0,0,-1,2.773322,66.188873)"
       sodipodi:nodetypes="cc" />
    <text
       xml:space="preserve"
       style="font-size:4.23333px;line-height:normal;font-family:'Segoe Script';-inkscape-font-specification:'Segoe Script';text-align:center;text-decoration-color:#000000;writing-mode:lr-tb;direction:ltr;text-anchor:middle;fill:#000000;stroke-width:0.529"
       x="29.830502"
       y="3.0054989"
       id="text6"><tspan
         sodipodi:role="line"
         id="tspan6"
         style="stroke-width:0.529"
         x="29.830502"
         y="3.0054989">p-type @ T=300 K</tspan><tspan
         sodipodi:role="line"
         style="stroke-width:0.529"
         x="29.830502"
         y="8.2971611"
         id="tspan13">after ionization</tspan></text>
    <path
       style="fill:none;stroke:#000000;stroke-width:0.870219;marker-end:url(#marker9)"
       d="m 26.946383,23.203831 c 1.960386,-1.639595 3.920771,-3.27919 3.996313,-5.010401 0.07554,-1.731212 -1.733685,-3.553967 -3.542949,-5.376758"
       id="path8"
       inkscape:path-effect="#path-effect8"
       inkscape:original-d="m 26.946383,23.203831 c 1.960386,-1.639595 3.920771,-3.27919 5.881156,-4.918785 -1.8093,-1.822828 -3.618528,-3.645583 -5.427792,-5.468374"
       sodipodi:nodetypes="ccc"
       transform="matrix(0.60789009,0,0,0.60789009,16.454548,24.599703)" />
    <circle
       style="fill:#ffffff;stroke:#ffffff;stroke-width:0.529"
       id="path10-0"
       cx="30.35161"
       cy="38.289108"
       r="0.98294294" />
    <text
       xml:space="preserve"
       style="font-size:4.23333px;line-height:normal;font-family:'Segoe Script';-inkscape-font-specification:'Segoe Script';text-align:center;text-decoration-color:#000000;writing-mode:lr-tb;direction:ltr;text-anchor:middle;fill:#ff0000;stroke:#ff0000;stroke-width:0.529"
       x="30.179838"
       y="32.361397"
       id="text14"><tspan
         sodipodi:role="line"
         id="tspan14"
         style="fill:#000000;stroke:none;stroke-width:0.529"
         x="30.179838"
         y="32.361397">B<tspan
   style="font-size:65%;baseline-shift:super;fill:#ff0000;stroke:#ff0000"
   id="tspan15">-</tspan></tspan></text>
    <path
       style="fill:none;stroke:#000000;stroke-width:0.870219;marker-end:url(#marker9-1)"
       d="m 26.946383,23.203831 c 1.960386,-1.639595 3.920771,-3.27919 3.996313,-5.010401 0.07554,-1.731212 -1.733685,-3.553967 -3.542949,-5.376758"
       id="path8-3"
       inkscape:path-effect="#path-effect8-7"
       inkscape:original-d="m 26.946383,23.203831 c 1.960386,-1.639595 3.920771,-3.27919 5.881156,-4.918785 -1.8093,-1.822828 -3.618528,-3.645583 -5.427792,-5.468374"
       sodipodi:nodetypes="ccc"
       transform="matrix(0.60789009,0,0,0.60789009,27.037882,24.599703)" />
    <circle
       style="fill:#ffffff;stroke:#ffffff;stroke-width:0.529"
       id="path10-0-3"
       cx="40.934944"
       cy="38.289108"
       r="0.98294294" />
    <text
       xml:space="preserve"
       style="font-size:4.23333px;line-height:normal;font-family:'Segoe Script';-inkscape-font-specification:'Segoe Script';text-align:center;text-decoration-color:#000000;writing-mode:lr-tb;direction:ltr;text-anchor:middle;fill:#ff0000;stroke:#ff0000;stroke-width:0.529"
       x="40.763172"
       y="32.361397"
       id="text14-5"><tspan
         sodipodi:role="line"
         id="tspan14-9"
         style="fill:#000000;stroke:none;stroke-width:0.529"
         x="40.763172"
         y="32.361397">B<tspan
   style="font-size:65%;baseline-shift:super;fill:#ff0000;stroke:#ff0000"
   id="tspan15-9">-</tspan></tspan></text>
  </g>
</svg>
