<?xml version="1.0" encoding="UTF-8" standalone="no"?>
<!-- Created with Inkscape (http://www.inkscape.org/) -->

<svg
   width="55.235161mm"
   height="60.041653mm"
   viewBox="0 0 55.235161 60.041653"
   version="1.1"
   id="svg1"
   inkscape:version="1.4.2 (f4327f4, 2025-05-13)"
   sodipodi:docname="qm_photoelectric_effect_frequency.svg"
   inkscape:export-filename="qm_photoelectric_effect_frequency.pdf"
   inkscape:export-xdpi="96"
   inkscape:export-ydpi="96"
   xmlns:inkscape="http://www.inkscape.org/namespaces/inkscape"
   xmlns:sodipodi="http://sodipodi.sourceforge.net/DTD/sodipodi-0.dtd"
   xmlns="http://www.w3.org/2000/svg"
   xmlns:svg="http://www.w3.org/2000/svg"
   xmlns:ns1="http://www.iki.fi/pav/software/textext/">
  <sodipodi:namedview
     id="namedview1"
     pagecolor="#ffffff"
     bordercolor="#000000"
     borderopacity="0.25"
     inkscape:showpageshadow="2"
     inkscape:pageopacity="0.0"
     inkscape:pagecheckerboard="0"
     inkscape:deskcolor="#d1d1d1"
     inkscape:document-units="mm"
     inkscape:zoom="2.0000001"
     inkscape:cx="130.75"
     inkscape:cy="137.75"
     inkscape:window-width="1366"
     inkscape:window-height="705"
     inkscape:window-x="-8"
     inkscape:window-y="-8"
     inkscape:window-maximized="1"
     inkscape:current-layer="layer1" />
  <defs
     id="defs1">
    <marker
       style="overflow:visible"
       id="marker9"
       refX="0"
       refY="0"
       orient="auto-start-reverse"
       inkscape:stockid="Stylized triangle arrow"
       markerWidth="1"
       markerHeight="1"
       viewBox="0 0 1 1"
       inkscape:isstock="true"
       inkscape:collect="always"
       preserveAspectRatio="xMidYMid">
      <path
         transform="scale(0.5)"
         style="fill:context-stroke;fill-rule:evenodd;stroke:context-stroke;stroke-width:1pt"
         d="m 6,0 c -3,1 -7,3 -9,5 0,0 0,-4 2,-5 -2,-1 -2,-5 -2,-5 2,2 6,4 9,5 z"
         id="path9" />
    </marker>
    <inkscape:path-effect
       effect="bspline"
       id="path-effect8"
       is_visible="true"
       lpeversion="1.3"
       weight="33.333333"
       steps="2"
       helper_size="0"
       apply_no_weight="true"
       apply_with_weight="true"
       only_selected="false"
       uniform="false" />
    <inkscape:path-effect
       effect="bspline"
       id="path-effect6"
       is_visible="true"
       lpeversion="1.3"
       weight="33.333333"
       steps="2"
       helper_size="0"
       apply_no_weight="true"
       apply_with_weight="true"
       only_selected="false"
       uniform="false" />
    <inkscape:path-effect
       effect="bspline"
       id="path-effect5"
       is_visible="true"
       lpeversion="1.3"
       weight="33.333333"
       steps="2"
       helper_size="0"
       apply_no_weight="true"
       apply_with_weight="true"
       only_selected="false"
       uniform="false" />
    <marker
       style="overflow:visible"
       id="marker3"
       refX="0"
       refY="0"
       orient="auto-start-reverse"
       inkscape:stockid="Stylized triangle arrow"
       markerWidth="1"
       markerHeight="1"
       viewBox="0 0 1 1"
       inkscape:isstock="true"
       inkscape:collect="always"
       preserveAspectRatio="xMidYMid">
      <path
         transform="scale(0.5)"
         style="fill:context-stroke;fill-rule:evenodd;stroke:context-stroke;stroke-width:1pt"
         d="m 6,0 c -3,1 -7,3 -9,5 0,0 0,-4 2,-5 -2,-1 -2,-5 -2,-5 2,2 6,4 9,5 z"
         id="path3" />
    </marker>
    <marker
       style="overflow:visible"
       id="ArrowTriangleStylized"
       refX="0"
       refY="0"
       orient="auto-start-reverse"
       inkscape:stockid="Stylized triangle arrow"
       markerWidth="1"
       markerHeight="1"
       viewBox="0 0 1 1"
       inkscape:isstock="true"
       inkscape:collect="always"
       preserveAspectRatio="xMidYMid">
      <path
         transform="scale(0.5)"
         style="fill:context-stroke;fill-rule:evenodd;stroke:context-stroke;stroke-width:1pt"
         d="m 6,0 c -3,1 -7,3 -9,5 0,0 0,-4 2,-5 -2,-1 -2,-5 -2,-5 2,2 6,4 9,5 z"
         id="path4" />
    </marker>
    <inkscape:path-effect
       effect="bspline"
       id="path-effect2"
       is_visible="true"
       lpeversion="1.3"
       weight="33.333333"
       steps="2"
       helper_size="0"
       apply_no_weight="true"
       apply_with_weight="true"
       only_selected="false"
       uniform="false" />
    <inkscape:path-effect
       effect="bspline"
       id="path-effect1"
       is_visible="true"
       lpeversion="1.3"
       weight="33.333333"
       steps="2"
       helper_size="0"
       apply_no_weight="true"
       apply_with_weight="true"
       only_selected="false"
       uniform="false" />
    <inkscape:path-effect
       effect="bspline"
       id="path-effect5-4"
       is_visible="true"
       lpeversion="1.3"
       weight="33.333333"
       steps="2"
       helper_size="0"
       apply_no_weight="true"
       apply_with_weight="true"
       only_selected="false"
       uniform="false" />
  </defs>
  <g
     inkscape:label="Layer 1"
     inkscape:groupmode="layer"
     id="layer1"
     transform="translate(-1.0660582,1.6699885)">
    <path
       style="fill:#000000;stroke:#000000;stroke-width:1.05833;stroke-linejoin:round;marker-end:url(#marker3)"
       d="m 11.786586,29.747099 c 13.345658,0 26.691315,0 40.036975,0"
       id="path1"
       inkscape:path-effect="#path-effect1"
       inkscape:original-d="m 11.786586,29.747099 c 13.345658,0 26.691315,0 40.036975,0"
       transform="translate(0.18708867,7.1093694)" />
    <path
       style="fill:#000000;stroke:#000000;stroke-width:1.058;stroke-linejoin:round;stroke-dasharray:none;marker-end:url(#ArrowTriangleStylized)"
       d="m 11.412409,58.371665 c 0,-18.584142 0,-37.168282 0,-55.7524237"
       id="path2"
       inkscape:path-effect="#path-effect2"
       inkscape:original-d="m 11.412409,58.371665 c 0,-18.584142 0,-37.168282 0,-55.7524237"
       sodipodi:nodetypes="cc" />
    <g
       id="g4580"
       transform="matrix(0.904636,0,0,0.904636,30.152554,41.130928)"
       ns1:version="1.12.0"
       ns1:texconverter="pdflatex"
       ns1:pdfconverter="inkscape"
       ns1:text="$$\n\\nu\n$$"
       ns1:preamble="C:\Users\Admin\AppData\Roaming\inkscape\extensions\textext\default_packages.tex"
       ns1:scale="2.5643218519364925"
       ns1:alignment="middle center"
       ns1:jacobian_sqrt="0.904636">
      <defs
         id="defs8853">
        <g
           id="g2404">
          <g
             id="g3440">
            <path
               d="m 2.234375,-4.296875 c 0,-0.015625 0,-0.109375 -0.125,-0.109375 -0.234375,0 -0.96875,0.078125 -1.21875,0.09375 -0.078125,0.015625 -0.1875,0.03125 -0.1875,0.203125 0,0.125 0.078125,0.125 0.234375,0.125 0.484375,0 0.5,0.0625 0.5,0.171875 0,0.0625 -0.125,0.53125 -0.1875,0.796875 L 0.640625,-0.5625 C 0.59375,-0.421875 0.53125,-0.140625 0.53125,-0.125 0.53125,-0.015625 0.625,0 0.6875,0 h 0.140625 c 0.703125,-0.125 1.78125,-0.515625 2.8125,-1.46875 1.3125,-1.21875 1.578125,-2.578125 1.578125,-2.671875 0,-0.171875 -0.109375,-0.265625 -0.28125,-0.265625 -0.078125,0 -0.3125,0.046875 -0.390625,0.328125 -0.640625,2.265625 -2.15625,3.375 -3.296875,3.75 z m 0,0"
               id="path8795" />
          </g>
        </g>
      </defs>
      <g
         fill="#000000"
         fill-opacity="1"
         id="g9880"
         transform="translate(-303.377,-142.314)">
        <g
           transform="translate(302.846,146.72)"
           id="g6144">
          <path
             d="m 2.234375,-4.296875 c 0,-0.015625 0,-0.109375 -0.125,-0.109375 -0.234375,0 -0.96875,0.078125 -1.21875,0.09375 -0.078125,0.015625 -0.1875,0.03125 -0.1875,0.203125 0,0.125 0.078125,0.125 0.234375,0.125 0.484375,0 0.5,0.0625 0.5,0.171875 0,0.0625 -0.125,0.53125 -0.1875,0.796875 L 0.640625,-0.5625 C 0.59375,-0.421875 0.53125,-0.140625 0.53125,-0.125 0.53125,-0.015625 0.625,0 0.6875,0 h 0.140625 c 0.703125,-0.125 1.78125,-0.515625 2.8125,-1.46875 1.3125,-1.21875 1.578125,-2.578125 1.578125,-2.671875 0,-0.171875 -0.109375,-0.265625 -0.28125,-0.265625 -0.078125,0 -0.3125,0.046875 -0.390625,0.328125 -0.640625,2.265625 -2.15625,3.375 -3.296875,3.75 z m 0,0"
             id="path6331" />
        </g>
      </g>
    </g>
    <text
       xml:space="preserve"
       style="font-weight:bold;font-size:8.46667px;font-family:'Segoe Script';-inkscape-font-specification:'Segoe Script Bold';text-align:start;writing-mode:lr-tb;direction:ltr;text-anchor:start;fill:#000000;stroke:#000000;stroke-width:1.058;stroke-linejoin:round;stroke-dasharray:none"
       x="-31.272396"
       y="7.246562"
       id="text3"
       transform="rotate(-90)"><tspan
         sodipodi:role="line"
         id="tspan3"
         style="fill:#000000;stroke:none;stroke-width:1.058"
         x="-31.272396"
         y="7.246562">K.E.</tspan></text>
    <path
       style="fill:#ff0000;stroke:#ff0000;stroke-width:1.058;stroke-linejoin:round;stroke-dasharray:none"
       d="m 48.643053,13.096207 c -7.647715,7.55952 -15.29543,15.11904 -22.943144,22.67856"
       id="path5"
       sodipodi:nodetypes="cc"
       inkscape:original-d="m 48.643053,13.096207 c -7.647715,7.55952 -15.29543,15.11904 -22.943144,22.67856"
       inkscape:path-effect="#path-effect5" />
    <path
       style="fill:#ff0000;stroke:#ff0000;stroke-width:1.058;stroke-linejoin:round;stroke-dasharray:2.11599994,1.05799997;stroke-dashoffset:0"
       d="M 23.375345,38.76079 C 19.3877,42.616143 15.400054,46.471497 11.412409,50.32685"
       id="path5-2"
       sodipodi:nodetypes="cc"
       inkscape:original-d="M 23.375345,38.76079 C 19.3877,42.616143 15.400054,46.471497 11.412409,50.32685"
       inkscape:path-effect="#path-effect5-4"
       transform="translate(0.39687516,-1.190625)" />
    <g
       id="g5274"
       transform="matrix(0.904636,0,0,0.904636,22.667103,16.726074)"
       ns1:version="1.12.0"
       ns1:texconverter="pdflatex"
       ns1:pdfconverter="inkscape"
       ns1:text="$$\n\\nu_0\n$$"
       ns1:preamble="C:\Users\Admin\AppData\Roaming\inkscape\extensions\textext\default_packages.tex"
       ns1:scale="2.5643218802829417"
       ns1:alignment="middle center"
       ns1:jacobian_sqrt="0.904636">
      <defs
         id="defs1122">
        <g
           id="g5639">
          <g
             id="g3860">
            <path
               d="m 2.234375,-4.296875 c 0,-0.015625 0,-0.109375 -0.125,-0.109375 -0.234375,0 -0.96875,0.078125 -1.21875,0.09375 -0.078125,0.015625 -0.1875,0.03125 -0.1875,0.203125 0,0.125 0.078125,0.125 0.234375,0.125 0.484375,0 0.5,0.0625 0.5,0.171875 0,0.0625 -0.125,0.53125 -0.1875,0.796875 L 0.640625,-0.5625 C 0.59375,-0.421875 0.53125,-0.140625 0.53125,-0.125 0.53125,-0.015625 0.625,0 0.6875,0 h 0.140625 c 0.703125,-0.125 1.78125,-0.515625 2.8125,-1.46875 1.3125,-1.21875 1.578125,-2.578125 1.578125,-2.671875 0,-0.171875 -0.109375,-0.265625 -0.28125,-0.265625 -0.078125,0 -0.3125,0.046875 -0.390625,0.328125 -0.640625,2.265625 -2.15625,3.375 -3.296875,3.75 z m 0,0"
               id="path5925" />
          </g>
          <g
             id="g926">
            <path
               d="M 3.59375,-2.21875 C 3.59375,-2.984375 3.5,-3.546875 3.1875,-4.03125 2.96875,-4.34375 2.53125,-4.625 1.984375,-4.625 c -1.625,0 -1.625,1.90625 -1.625,2.40625 0,0.5 0,2.359375 1.625,2.359375 1.609375,0 1.609375,-1.859375 1.609375,-2.359375 z M 1.984375,-0.0625 c -0.328125,0 -0.75,-0.1875 -0.890625,-0.75 C 1,-1.21875 1,-1.796875 1,-2.3125 1,-2.828125 1,-3.359375 1.09375,-3.734375 1.25,-4.28125 1.6875,-4.4375 1.984375,-4.4375 c 0.375,0 0.734375,0.234375 0.859375,0.640625 0.109375,0.375 0.125,0.875 0.125,1.484375 0,0.515625 0,1.03125 -0.09375,1.46875 -0.140625,0.640625 -0.609375,0.78125 -0.890625,0.78125 z m 0,0"
               id="path8597" />
          </g>
        </g>
      </defs>
      <g
         fill="#000000"
         fill-opacity="1"
         id="g8024"
         transform="translate(-301.46,-142.314)">
        <g
           transform="translate(300.929,146.72)"
           id="g1130">
          <path
             d="m 2.234375,-4.296875 c 0,-0.015625 0,-0.109375 -0.125,-0.109375 -0.234375,0 -0.96875,0.078125 -1.21875,0.09375 -0.078125,0.015625 -0.1875,0.03125 -0.1875,0.203125 0,0.125 0.078125,0.125 0.234375,0.125 0.484375,0 0.5,0.0625 0.5,0.171875 0,0.0625 -0.125,0.53125 -0.1875,0.796875 L 0.640625,-0.5625 C 0.59375,-0.421875 0.53125,-0.140625 0.53125,-0.125 0.53125,-0.015625 0.625,0 0.6875,0 h 0.140625 c 0.703125,-0.125 1.78125,-0.515625 2.8125,-1.46875 1.3125,-1.21875 1.578125,-2.578125 1.578125,-2.671875 0,-0.171875 -0.109375,-0.265625 -0.28125,-0.265625 -0.078125,0 -0.3125,0.046875 -0.390625,0.328125 -0.640625,2.265625 -2.15625,3.375 -3.296875,3.75 z m 0,0"
             id="path2460" />
        </g>
      </g>
      <g
         fill="#000000"
         fill-opacity="1"
         id="g1289"
         transform="translate(-301.46,-142.314)">
        <g
           transform="translate(305.85,148.214)"
           id="g788">
          <path
             d="M 3.59375,-2.21875 C 3.59375,-2.984375 3.5,-3.546875 3.1875,-4.03125 2.96875,-4.34375 2.53125,-4.625 1.984375,-4.625 c -1.625,0 -1.625,1.90625 -1.625,2.40625 0,0.5 0,2.359375 1.625,2.359375 1.609375,0 1.609375,-1.859375 1.609375,-2.359375 z M 1.984375,-0.0625 c -0.328125,0 -0.75,-0.1875 -0.890625,-0.75 C 1,-1.21875 1,-1.796875 1,-2.3125 1,-2.828125 1,-3.359375 1.09375,-3.734375 1.25,-4.28125 1.6875,-4.4375 1.984375,-4.4375 c 0.375,0 0.734375,0.234375 0.859375,0.640625 0.109375,0.375 0.125,0.875 0.125,1.484375 0,0.515625 0,1.03125 -0.09375,1.46875 -0.140625,0.640625 -0.609375,0.78125 -0.890625,0.78125 z m 0,0"
             id="path7582" />
        </g>
      </g>
    </g>
    <path
       style="fill:#000000;stroke:#000000;stroke-width:1.058;stroke-linejoin:round;stroke-dasharray:2.116, 1.058;stroke-dashoffset:0;marker-end:url(#marker9)"
       d="m 25.25697,23.573172 c -0.06239,3.868509 -0.124742,7.734003 -0.187089,11.599496"
       id="path8"
       sodipodi:nodetypes="cc"
       inkscape:original-d="m 25.25697,23.573172 c -0.187089,3.866498 -0.187089,7.732997 -0.187089,11.599496"
       inkscape:path-effect="#path-effect8"
       transform="translate(-0.79374998,-3.4395832)" />
  </g>
</svg>
