<?xml version="1.0" encoding="UTF-8" standalone="no"?>
<!-- Created with Inkscape (http://www.inkscape.org/) -->

<svg
   width="64.616325mm"
   height="38.57909mm"
   viewBox="0 0 64.616325 38.57909"
   version="1.1"
   id="svg1"
   inkscape:version="1.4.2 (f4327f4, 2025-05-13)"
   sodipodi:docname="qt_dos_3d.svg"
   inkscape:export-filename="qt_dos_3d.pdf"
   inkscape:export-xdpi="96"
   inkscape:export-ydpi="96"
   xmlns:inkscape="http://www.inkscape.org/namespaces/inkscape"
   xmlns:sodipodi="http://sodipodi.sourceforge.net/DTD/sodipodi-0.dtd"
   xmlns="http://www.w3.org/2000/svg"
   xmlns:svg="http://www.w3.org/2000/svg"
   xmlns:ns7="http://www.iki.fi/pav/software/textext/">
  <sodipodi:namedview
     id="namedview1"
     pagecolor="#ffffff"
     bordercolor="#000000"
     borderopacity="0.25"
     inkscape:showpageshadow="2"
     inkscape:pageopacity="0.0"
     inkscape:pagecheckerboard="0"
     inkscape:deskcolor="#d1d1d1"
     inkscape:document-units="mm"
     inkscape:zoom="1.3111798"
     inkscape:cx="223.08154"
     inkscape:cy="73.597842"
     inkscape:window-width="1366"
     inkscape:window-height="705"
     inkscape:window-x="-8"
     inkscape:window-y="-8"
     inkscape:window-maximized="1"
     inkscape:current-layer="layer1" />
  <defs
     id="defs1">
    <inkscape:path-effect
       effect="bspline"
       id="path-effect9"
       is_visible="true"
       lpeversion="1.3"
       weight="33.333333"
       steps="2"
       helper_size="0"
       apply_no_weight="true"
       apply_with_weight="true"
       only_selected="false"
       uniform="false" />
    <inkscape:perspective
       sodipodi:type="inkscape:persp3d"
       inkscape:vp_x="-18.766497 : 30.690696 : 1"
       inkscape:vp_y="0 : 1000 : 0"
       inkscape:vp_z="45.849828 : 30.690696 : 1"
       inkscape:persp3d-origin="13.541666 : 24.260848 : 1"
       id="perspective1" />
    <inkscape:path-effect
       effect="bspline"
       id="path-effect8"
       is_visible="true"
       lpeversion="1.3"
       weight="33.333333"
       steps="2"
       helper_size="0"
       apply_no_weight="true"
       apply_with_weight="true"
       only_selected="false"
       uniform="false" />
    <inkscape:path-effect
       effect="bspline"
       id="path-effect7"
       is_visible="true"
       lpeversion="1.3"
       weight="33.333333"
       steps="2"
       helper_size="0"
       apply_no_weight="true"
       apply_with_weight="true"
       only_selected="false"
       uniform="false" />
    <inkscape:path-effect
       effect="bspline"
       id="path-effect6"
       is_visible="true"
       lpeversion="1.3"
       weight="33.333333"
       steps="2"
       helper_size="0"
       apply_no_weight="true"
       apply_with_weight="true"
       only_selected="false"
       uniform="false" />
    <inkscape:path-effect
       effect="bspline"
       id="path-effect5"
       is_visible="true"
       lpeversion="1.3"
       weight="33.333333"
       steps="2"
       helper_size="0"
       apply_no_weight="true"
       apply_with_weight="true"
       only_selected="false"
       uniform="false" />
    <inkscape:path-effect
       effect="bspline"
       id="path-effect4"
       is_visible="true"
       lpeversion="1.3"
       weight="33.333333"
       steps="2"
       helper_size="0"
       apply_no_weight="true"
       apply_with_weight="true"
       only_selected="false"
       uniform="false" />
    <marker
       style="overflow:visible"
       id="ArrowTriangleStylized-7"
       refX="0"
       refY="0"
       orient="auto-start-reverse"
       inkscape:stockid="Stylized triangle arrow"
       markerWidth="1"
       markerHeight="1"
       viewBox="0 0 1 1"
       inkscape:isstock="true"
       inkscape:collect="always"
       preserveAspectRatio="xMidYMid">
      <path
         transform="scale(0.5)"
         style="fill:context-stroke;fill-rule:evenodd;stroke:context-stroke;stroke-width:1pt"
         d="m 6,0 c -3,1 -7,3 -9,5 0,0 0,-4 2,-5 -2,-1 -2,-5 -2,-5 2,2 6,4 9,5 z"
         id="path6-6" />
    </marker>
    <inkscape:path-effect
       effect="bspline"
       id="path-effect6-1"
       is_visible="true"
       lpeversion="1.3"
       weight="33.333333"
       steps="2"
       helper_size="0"
       apply_no_weight="true"
       apply_with_weight="true"
       only_selected="false"
       uniform="false" />
    <inkscape:path-effect
       effect="bspline"
       id="path-effect6-1-3"
       is_visible="true"
       lpeversion="1.3"
       weight="33.333333"
       steps="2"
       helper_size="0"
       apply_no_weight="true"
       apply_with_weight="true"
       only_selected="false"
       uniform="false" />
  </defs>
  <g
     inkscape:label="Layer 1"
     inkscape:groupmode="layer"
     id="layer1"
     transform="translate(4.34279, -1.42091)">
    <path
       style="fill:none;stroke:#000000;stroke-width:1.058;stroke-linejoin:round"
       d="m 5.52936,35.3693 c 1.81264,-4.0829 3.62528,-5.3215 5.43794,-6.9324 1.8126,-1.6108 3.6253,-2.9117 5.4379,-4.0976 1.8126,-1.1859 3.6253,-2.2408 5.4379,-3.2229 1.8127,-0.9821 3.6253,-1.8885 5.4379,-2.7452 1.8127,-0.8567 3.6253,-1.6628 5.438,-2.4324 1.8126,-0.7697 3.6252,-1.50242 5.4379,-2.20708 1.8126,-0.70466 3.6253,-1.38094 5.4379,-2.03472 1.8126,-0.65377 3.6253,-1.28484 5.4379,-1.8973697 C 50.8454,9.1871 52.658,8.59327 54.4706,8.01505"
       title="sqrt(x)"
       id="path2" />
    <path
       style="fill:none;stroke:#000000;stroke-width:1.058;stroke-linejoin:round;stroke-dasharray:none;stroke-dashoffset:0;marker-end:url(#ArrowTriangleStylized-7)"
       d="m 4.9187846,35.286931 c 0,-9.506153 0,-19.012307 0,-28.5184608"
       id="path5-2"
       inkscape:path-effect="#path-effect6-1"
       inkscape:original-d="m 4.9187846,35.286931 c 0,-9.506153 0,-19.012307 0,-28.5184608"
       sodipodi:nodetypes="cc" />
    <path
       style="fill:#000000;stroke:#000000;stroke-width:1.058;stroke-linejoin:round;stroke-dasharray:none;stroke-dashoffset:0;marker-end:url(#ArrowTriangleStylized-7)"
       d="m 4.9187846,35.180002 c 16.9567504,0 33.9134984,0 50.8702514,0"
       id="path8"
       inkscape:path-effect="#path-effect8"
       inkscape:original-d="m 4.9187846,35.180002 c 16.9567504,0 33.9134984,0 50.8702514,0"
       sodipodi:nodetypes="cc" />
    <text
       xml:space="preserve"
       style="font-size:4.23333px;font-family:'Segoe Script';-inkscape-font-specification:'Segoe Script';text-align:start;writing-mode:lr-tb;direction:ltr;text-anchor:start;fill:#000000;stroke:none;stroke-width:1.058;stroke-linejoin:round;stroke-dasharray:none;stroke-dashoffset:0"
       x="-22.689438"
       y="0.2639347"
       id="text10"
       transform="rotate(-90)"><tspan
         sodipodi:role="line"
         id="tspan10"
         style="fill:#000000;stroke:none;stroke-width:1.058"
         x="-22.689438"
         y="0.2639347">Z(E)</tspan></text>
    <text
       xml:space="preserve"
       style="font-size:4.23333px;font-family:'Segoe Script';-inkscape-font-specification:'Segoe Script';text-align:start;writing-mode:lr-tb;direction:ltr;text-anchor:start;fill:#000000;stroke:none;stroke-width:1.058;stroke-linejoin:round;stroke-dasharray:none;stroke-dashoffset:0"
       x="29.628702"
       y="39.248211"
       id="text11"><tspan
         sodipodi:role="line"
         id="tspan11"
         style="stroke-width:1.058"
         x="29.628702"
         y="39.248211">E</tspan></text>
    <g
       sodipodi:type="inkscape:box3d"
       id="g1"
       style="fill:#000000;stroke:none;stroke-width:3;stroke-linejoin:round;stroke-dasharray:none;-inkscape-stroke:none;stop-color:#000000"
       inkscape:perspectiveID="#perspective1"
       inkscape:corner0="-0.23209773 : 0.010032113 : 0 : 1"
       inkscape:corner7="-0.32868921 : 0.0029576182 : 0.25 : 1">
      <path
         sodipodi:type="inkscape:box3dside"
         id="path7"
         style="fill:#e9e9ff;fill-rule:evenodd;stroke:none;stroke-linejoin:round"
         inkscape:box3dsidetype="11"
         d="M 24.500628,5.7703919 29.492117,5.3993677 V 13.078095 L 24.500628,12.720464 Z"
         points="29.492117,5.3993677 29.492117,13.078095 24.500628,12.720464 24.500628,5.7703919 " />
      <path
         sodipodi:type="inkscape:box3dside"
         id="path1"
         style="fill:#353564;fill-rule:evenodd;stroke:none;stroke-linejoin:round"
         inkscape:box3dsidetype="6"
         d="M 18.963984,4.6182562 V 13.83101 l 5.536644,-1.110546 V 5.7703919 Z"
         points="18.963984,13.83101 24.500628,12.720464 24.500628,5.7703919 18.963984,4.6182562 " />
      <path
         sodipodi:type="inkscape:box3dside"
         id="path6"
         style="fill:#afafde;fill-rule:evenodd;stroke:none;stroke-linejoin:round"
         inkscape:box3dsidetype="13"
         d="m 18.963984,13.83101 6.053708,0.650606 4.474425,-1.403521 -4.991489,-0.357631 z"
         points="25.017692,14.481616 29.492117,13.078095 24.500628,12.720464 18.963984,13.83101 " />
      <path
         sodipodi:type="inkscape:box3dside"
         id="path3"
         style="fill:#4d4d9f;fill-rule:evenodd;stroke:none;stroke-linejoin:round"
         inkscape:box3dsidetype="5"
         d="m 18.963984,4.6182562 6.053708,-0.6749707 4.474425,1.4560822 -4.991489,0.3710242 z"
         points="25.017692,3.9432855 29.492117,5.3993677 24.500628,5.7703919 18.963984,4.6182562 " />
      <path
         sodipodi:type="inkscape:box3dside"
         id="path5"
         style="opacity:0.652021;fill:#d7dcff"
         inkscape:box3dsidetype="14"
         d="M 25.017692,3.9432855 V 14.481616 l 4.474425,-1.403521 V 5.3993677 Z"
         points="25.017692,14.481616 29.492117,13.078095 29.492117,5.3993677 25.017692,3.9432855 " />
      <path
         sodipodi:type="inkscape:box3dside"
         id="path4"
         style="fill:#8686bf;fill-rule:evenodd;stroke:none;stroke-linejoin:round"
         inkscape:box3dsidetype="3"
         d="M 18.963984,4.6182562 25.017692,3.9432855 V 14.481616 L 18.963984,13.83101 Z"
         points="25.017692,3.9432855 25.017692,14.481616 18.963984,13.83101 18.963984,4.6182562 " />
    </g>
    <text
       xml:space="preserve"
       style="font-size:8.46667px;font-family:'Segoe Script';-inkscape-font-specification:'Segoe Script';text-align:start;writing-mode:lr-tb;direction:ltr;text-anchor:start;fill:#000000;stroke:none;stroke-width:0.79375;stroke-linejoin:round;stroke-dasharray:none;-inkscape-stroke:none"
       x="31.878563"
       y="12.100131"
       id="text9"><tspan
         sodipodi:role="line"
         id="tspan9"
         style="fill:#000000;stroke:none;stroke-width:0.79375"
         x="31.878563"
         y="12.100131">3D</tspan></text>
    <g
       id="g6085"
       transform="matrix(0.743465,0,0,0.743465,19.765548,23.55936)"
       ns7:version="1.12.0"
       ns7:texconverter="pdflatex"
       ns7:pdfconverter="inkscape"
       ns7:text="$$\nZ(E)\\propto \\sqrt{E}\n$$"
       ns7:preamble="C:\Users\Admin\AppData\Roaming\inkscape\extensions\textext\default_packages.tex"
       ns7:scale="2.107458835144564"
       ns7:alignment="middle center"
       ns7:inkscapeversion="1.4.2"
       ns7:jacobian_sqrt="0.743465">
      <defs
         id="defs8136">
        <g
           id="g746">
          <g
             id="g2675">
            <path
               d="m 7.171875,-6.5625 c 0.015625,-0.046875 0.03125,-0.09375 0.03125,-0.15625 0,-0.09375 -0.046875,-0.09375 -0.25,-0.09375 H 2.75 c -0.234375,0 -0.25,0.015625 -0.3125,0.203125 L 1.890625,-4.8125 c -0.015625,0.046875 -0.03125,0.125 -0.03125,0.140625 0,0 0,0.109375 0.125,0.109375 0.09375,0 0.109375,-0.078125 0.125,-0.109375 C 2.5,-5.84375 3.015625,-6.5 4.5625,-6.5 h 1.625 L 0.625,-0.265625 c 0,0 -0.046875,0.140625 -0.046875,0.171875 C 0.578125,0 0.640625,0 0.828125,0 H 5.15625 c 0.25,0 0.25,-0.015625 0.3125,-0.203125 L 6.1875,-2.40625 c 0,-0.03125 0.03125,-0.109375 0.03125,-0.140625 0,-0.0625 -0.03125,-0.109375 -0.125,-0.109375 -0.09375,0 -0.109375,0.03125 -0.171875,0.25 C 5.484375,-1.0625 5,-0.34375 3.3125,-0.34375 H 1.609375 Z m 0,0"
               id="path4254" />
          </g>
          <g
             id="g8387">
            <path
               d="M 7.0625,-2.328125 C 7.078125,-2.375 7.109375,-2.4375 7.109375,-2.46875 c 0,0 0,-0.109375 -0.125,-0.109375 -0.09375,0 -0.109375,0.0625 -0.125,0.125 C 6.203125,-0.984375 5.84375,-0.3125 4.140625,-0.3125 H 2.6875 c -0.140625,0 -0.171875,0 -0.21875,0 -0.109375,-0.015625 -0.140625,-0.03125 -0.140625,-0.109375 0,-0.03125 0,-0.046875 0.046875,-0.21875 L 3.0625,-3.375 h 0.984375 c 0.84375,0 0.84375,0.21875 0.84375,0.46875 0,0.0625 0,0.1875 -0.0625,0.484375 C 4.8125,-2.375 4.796875,-2.34375 4.796875,-2.3125 c 0,0.046875 0.03125,0.109375 0.125,0.109375 C 5,-2.203125 5.03125,-2.25 5.078125,-2.40625 l 0.5625,-2.328125 c 0,-0.0625 -0.046875,-0.109375 -0.125,-0.109375 -0.078125,0 -0.109375,0.0625 -0.125,0.171875 -0.21875,0.765625 -0.390625,1 -1.3125,1 h -0.9375 l 0.59375,-2.40625 C 3.828125,-6.4375 3.84375,-6.46875 4.28125,-6.46875 H 5.6875 c 1.203125,0 1.515625,0.28125 1.515625,1.109375 0,0.234375 0,0.25 -0.046875,0.53125 0,0.046875 -0.015625,0.125 -0.015625,0.171875 0,0.046875 0.03125,0.125 0.125,0.125 0.109375,0 0.125,-0.0625 0.140625,-0.25 L 7.609375,-6.515625 C 7.640625,-6.78125 7.59375,-6.78125 7.34375,-6.78125 H 2.296875 c -0.1875,0 -0.296875,0 -0.296875,0.203125 0,0.109375 0.09375,0.109375 0.28125,0.109375 0.375,0 0.65625,0 0.65625,0.171875 0,0.046875 0,0.0625 -0.0625,0.25 L 1.5625,-0.78125 c -0.09375,0.390625 -0.109375,0.46875 -0.90625,0.46875 -0.171875,0 -0.28125,0 -0.28125,0.1875 C 0.375,0 0.46875,0 0.65625,0 h 5.171875 c 0.234375,0 0.25,-0.015625 0.3125,-0.171875 z m 0,0"
               id="path3537" />
          </g>
          <g
             id="g4314">
            <path
               d="m 3.296875,2.390625 c 0,-0.03125 0,-0.046875 -0.171875,-0.21875 C 1.890625,0.921875 1.5625,-0.96875 1.5625,-2.5 c 0,-1.734375 0.375,-3.46875 1.609375,-4.703125 0.125,-0.125 0.125,-0.140625 0.125,-0.171875 0,-0.078125 -0.03125,-0.109375 -0.09375,-0.109375 -0.109375,0 -1,0.6875 -1.59375,1.953125 -0.5,1.09375 -0.625,2.203125 -0.625,3.03125 0,0.78125 0.109375,1.984375 0.65625,3.125 C 2.25,1.84375 3.09375,2.5 3.203125,2.5 c 0.0625,0 0.09375,-0.03125 0.09375,-0.109375 z m 0,0"
               id="path9871" />
          </g>
          <g
             id="g9602">
            <path
               d="m 2.875,-2.5 c 0,-0.765625 -0.109375,-1.96875 -0.65625,-3.109375 -0.59375,-1.21875 -1.453125,-1.875 -1.546875,-1.875 -0.0625,0 -0.109375,0.046875 -0.109375,0.109375 0,0.03125 0,0.046875 0.1875,0.234375 0.984375,0.984375 1.546875,2.5625 1.546875,4.640625 0,1.71875 -0.359375,3.46875 -1.59375,4.71875 C 0.5625,2.34375 0.5625,2.359375 0.5625,2.390625 0.5625,2.453125 0.609375,2.5 0.671875,2.5 0.765625,2.5 1.671875,1.8125 2.25,0.546875 2.765625,-0.546875 2.875,-1.65625 2.875,-2.5 Z m 0,0"
               id="path784" />
          </g>
          <g
             id="g1954">
            <path
               d="M 7.203125,-0.3125 C 7.15625,-0.3125 7,-0.296875 6.96875,-0.296875 c -0.78125,0 -1.3125,-0.78125 -1.65625,-1.296875 -0.09375,-0.171875 -0.375,-0.578125 -0.484375,-0.75 0.25,-0.53125 0.90625,-1.765625 2.09375,-1.765625 0.078125,0 0.171875,0 0.28125,0.015625 0,-0.25 -0.015625,-0.265625 -0.03125,-0.28125 -0.078125,-0.015625 -0.21875,-0.03125 -0.3125,-0.03125 -1.265625,0 -2,1.21875 -2.25,1.71875 C 4.21875,-3.296875 4.078125,-3.515625 3.703125,-3.828125 3.09375,-4.359375 2.546875,-4.40625 2.296875,-4.40625 c -1.09375,0 -1.734375,1.109375 -1.734375,2.265625 0,1.109375 0.609375,2.25 1.703125,2.25 1.265625,0 2.015625,-1.21875 2.25,-1.71875 0.40625,0.609375 0.53125,0.828125 0.90625,1.140625 0.609375,0.53125 1.15625,0.578125 1.40625,0.578125 0.125,0 0.28125,-0.015625 0.375,-0.046875 z m -2.90625,-1.640625 c -0.234375,0.53125 -0.90625,1.78125 -2.09375,1.78125 -0.96875,0 -1.421875,-1.0625 -1.421875,-1.96875 C 0.78125,-3.125 1.328125,-4 2.15625,-4 c 0.796875,0 1.328125,0.78125 1.65625,1.296875 0.109375,0.171875 0.375,0.578125 0.484375,0.75 z m 0,0"
               id="path9935" />
          </g>
          <g
             id="g9797">
            <path
               d="m 3.875,8.515625 -1.75,-3.875 C 2.046875,4.484375 2,4.484375 1.96875,4.484375 c 0,0 -0.0625,0 -0.171875,0.078125 l -0.9375,0.71875 c -0.125,0.109375 -0.125,0.125 -0.125,0.15625 0,0.0625 0.015625,0.109375 0.09375,0.109375 0.0625,0 0.234375,-0.140625 0.34375,-0.21875 C 1.21875,5.28125 1.375,5.171875 1.484375,5.09375 l 1.96875,4.3125 C 3.515625,9.5625 3.5625,9.5625 3.65625,9.5625 c 0.15625,0 0.1875,-0.046875 0.25,-0.1875 L 8.4375,0 C 8.5,-0.140625 8.5,-0.171875 8.5,-0.203125 8.5,-0.296875 8.421875,-0.40625 8.296875,-0.40625 c -0.078125,0 -0.140625,0.0625 -0.21875,0.21875 z m 0,0"
               id="path7192" />
          </g>
        </g>
      </defs>
      <g
         fill="#000000"
         fill-opacity="1"
         id="g4091"
         transform="translate(-279.849,-137.392)">
        <g
           transform="translate(279.271,146.72)"
           id="g5826">
          <path
             d="m 7.171875,-6.5625 c 0.015625,-0.046875 0.03125,-0.09375 0.03125,-0.15625 0,-0.09375 -0.046875,-0.09375 -0.25,-0.09375 H 2.75 c -0.234375,0 -0.25,0.015625 -0.3125,0.203125 L 1.890625,-4.8125 c -0.015625,0.046875 -0.03125,0.125 -0.03125,0.140625 0,0 0,0.109375 0.125,0.109375 0.09375,0 0.109375,-0.078125 0.125,-0.109375 C 2.5,-5.84375 3.015625,-6.5 4.5625,-6.5 h 1.625 L 0.625,-0.265625 c 0,0 -0.046875,0.140625 -0.046875,0.171875 C 0.578125,0 0.640625,0 0.828125,0 H 5.15625 c 0.25,0 0.25,-0.015625 0.3125,-0.203125 L 6.1875,-2.40625 c 0,-0.03125 0.03125,-0.109375 0.03125,-0.140625 0,-0.0625 -0.03125,-0.109375 -0.125,-0.109375 -0.09375,0 -0.109375,0.03125 -0.171875,0.25 C 5.484375,-1.0625 5,-0.34375 3.3125,-0.34375 H 1.609375 Z m 0,0"
             id="path6679" />
        </g>
      </g>
      <g
         fill="#000000"
         fill-opacity="1"
         id="g8021"
         transform="translate(-279.849,-137.392)">
        <g
           transform="translate(286.785,146.72)"
           id="g2132">
          <path
             d="m 3.296875,2.390625 c 0,-0.03125 0,-0.046875 -0.171875,-0.21875 C 1.890625,0.921875 1.5625,-0.96875 1.5625,-2.5 c 0,-1.734375 0.375,-3.46875 1.609375,-4.703125 0.125,-0.125 0.125,-0.140625 0.125,-0.171875 0,-0.078125 -0.03125,-0.109375 -0.09375,-0.109375 -0.109375,0 -1,0.6875 -1.59375,1.953125 -0.5,1.09375 -0.625,2.203125 -0.625,3.03125 0,0.78125 0.109375,1.984375 0.65625,3.125 C 2.25,1.84375 3.09375,2.5 3.203125,2.5 c 0.0625,0 0.09375,-0.03125 0.09375,-0.109375 z m 0,0"
             id="path662" />
        </g>
      </g>
      <g
         fill="#000000"
         fill-opacity="1"
         id="g1476"
         transform="translate(-279.849,-137.392)">
        <g
           transform="translate(290.659,146.72)"
           id="g5440">
          <path
             d="M 7.0625,-2.328125 C 7.078125,-2.375 7.109375,-2.4375 7.109375,-2.46875 c 0,0 0,-0.109375 -0.125,-0.109375 -0.09375,0 -0.109375,0.0625 -0.125,0.125 C 6.203125,-0.984375 5.84375,-0.3125 4.140625,-0.3125 H 2.6875 c -0.140625,0 -0.171875,0 -0.21875,0 -0.109375,-0.015625 -0.140625,-0.03125 -0.140625,-0.109375 0,-0.03125 0,-0.046875 0.046875,-0.21875 L 3.0625,-3.375 h 0.984375 c 0.84375,0 0.84375,0.21875 0.84375,0.46875 0,0.0625 0,0.1875 -0.0625,0.484375 C 4.8125,-2.375 4.796875,-2.34375 4.796875,-2.3125 c 0,0.046875 0.03125,0.109375 0.125,0.109375 C 5,-2.203125 5.03125,-2.25 5.078125,-2.40625 l 0.5625,-2.328125 c 0,-0.0625 -0.046875,-0.109375 -0.125,-0.109375 -0.078125,0 -0.109375,0.0625 -0.125,0.171875 -0.21875,0.765625 -0.390625,1 -1.3125,1 h -0.9375 l 0.59375,-2.40625 C 3.828125,-6.4375 3.84375,-6.46875 4.28125,-6.46875 H 5.6875 c 1.203125,0 1.515625,0.28125 1.515625,1.109375 0,0.234375 0,0.25 -0.046875,0.53125 0,0.046875 -0.015625,0.125 -0.015625,0.171875 0,0.046875 0.03125,0.125 0.125,0.125 0.109375,0 0.125,-0.0625 0.140625,-0.25 L 7.609375,-6.515625 C 7.640625,-6.78125 7.59375,-6.78125 7.34375,-6.78125 H 2.296875 c -0.1875,0 -0.296875,0 -0.296875,0.203125 0,0.109375 0.09375,0.109375 0.28125,0.109375 0.375,0 0.65625,0 0.65625,0.171875 0,0.046875 0,0.0625 -0.0625,0.25 L 1.5625,-0.78125 c -0.09375,0.390625 -0.109375,0.46875 -0.90625,0.46875 -0.171875,0 -0.28125,0 -0.28125,0.1875 C 0.375,0 0.46875,0 0.65625,0 h 5.171875 c 0.234375,0 0.25,-0.015625 0.3125,-0.171875 z m 0,0"
             id="path4681" />
        </g>
      </g>
      <g
         fill="#000000"
         fill-opacity="1"
         id="g9378"
         transform="translate(-279.849,-137.392)">
        <g
           transform="translate(298.588,146.72)"
           id="g2685">
          <path
             d="m 2.875,-2.5 c 0,-0.765625 -0.109375,-1.96875 -0.65625,-3.109375 -0.59375,-1.21875 -1.453125,-1.875 -1.546875,-1.875 -0.0625,0 -0.109375,0.046875 -0.109375,0.109375 0,0.03125 0,0.046875 0.1875,0.234375 0.984375,0.984375 1.546875,2.5625 1.546875,4.640625 0,1.71875 -0.359375,3.46875 -1.59375,4.71875 C 0.5625,2.34375 0.5625,2.359375 0.5625,2.390625 0.5625,2.453125 0.609375,2.5 0.671875,2.5 0.765625,2.5 1.671875,1.8125 2.25,0.546875 2.765625,-0.546875 2.875,-1.65625 2.875,-2.5 Z m 0,0"
             id="path1986" />
        </g>
      </g>
      <g
         fill="#000000"
         fill-opacity="1"
         id="g7209"
         transform="translate(-279.849,-137.392)">
        <g
           transform="translate(305.23,146.72)"
           id="g9478">
          <path
             d="M 7.203125,-0.3125 C 7.15625,-0.3125 7,-0.296875 6.96875,-0.296875 c -0.78125,0 -1.3125,-0.78125 -1.65625,-1.296875 -0.09375,-0.171875 -0.375,-0.578125 -0.484375,-0.75 0.25,-0.53125 0.90625,-1.765625 2.09375,-1.765625 0.078125,0 0.171875,0 0.28125,0.015625 0,-0.25 -0.015625,-0.265625 -0.03125,-0.28125 -0.078125,-0.015625 -0.21875,-0.03125 -0.3125,-0.03125 -1.265625,0 -2,1.21875 -2.25,1.71875 C 4.21875,-3.296875 4.078125,-3.515625 3.703125,-3.828125 3.09375,-4.359375 2.546875,-4.40625 2.296875,-4.40625 c -1.09375,0 -1.734375,1.109375 -1.734375,2.265625 0,1.109375 0.609375,2.25 1.703125,2.25 1.265625,0 2.015625,-1.21875 2.25,-1.71875 0.40625,0.609375 0.53125,0.828125 0.90625,1.140625 0.609375,0.53125 1.15625,0.578125 1.40625,0.578125 0.125,0 0.28125,-0.015625 0.375,-0.046875 z m -2.90625,-1.640625 c -0.234375,0.53125 -0.90625,1.78125 -2.09375,1.78125 -0.96875,0 -1.421875,-1.0625 -1.421875,-1.96875 C 0.78125,-3.125 1.328125,-4 2.15625,-4 c 0.796875,0 1.328125,0.78125 1.65625,1.296875 0.109375,0.171875 0.375,0.578125 0.484375,0.75 z m 0,0"
             id="path8217" />
        </g>
      </g>
      <g
         fill="#000000"
         fill-opacity="1"
         id="g2923"
         transform="translate(-279.849,-137.392)">
        <g
           transform="translate(315.746,137.798)"
           id="g4618">
          <path
             d="m 3.875,8.515625 -1.75,-3.875 C 2.046875,4.484375 2,4.484375 1.96875,4.484375 c 0,0 -0.0625,0 -0.171875,0.078125 l -0.9375,0.71875 c -0.125,0.109375 -0.125,0.125 -0.125,0.15625 0,0.0625 0.015625,0.109375 0.09375,0.109375 0.0625,0 0.234375,-0.140625 0.34375,-0.21875 C 1.21875,5.28125 1.375,5.171875 1.484375,5.09375 l 1.96875,4.3125 C 3.515625,9.5625 3.5625,9.5625 3.65625,9.5625 c 0.15625,0 0.1875,-0.046875 0.25,-0.1875 L 8.4375,0 C 8.5,-0.140625 8.5,-0.171875 8.5,-0.203125 8.5,-0.296875 8.421875,-0.40625 8.296875,-0.40625 c -0.078125,0 -0.140625,0.0625 -0.21875,0.21875 z m 0,0"
             id="path166" />
        </g>
      </g>
      <path
         fill="#000000"
         d="m 44.197754,0.0069021 h 7.929687 v 0.398 h -7.929687 z"
         id="path1044" />
      <g
         fill="#000000"
         fill-opacity="1"
         id="g3390"
         transform="translate(-279.849,-137.392)">
        <g
           transform="translate(324.048,146.72)"
           id="g1698">
          <path
             d="M 7.0625,-2.328125 C 7.078125,-2.375 7.109375,-2.4375 7.109375,-2.46875 c 0,0 0,-0.109375 -0.125,-0.109375 -0.09375,0 -0.109375,0.0625 -0.125,0.125 C 6.203125,-0.984375 5.84375,-0.3125 4.140625,-0.3125 H 2.6875 c -0.140625,0 -0.171875,0 -0.21875,0 -0.109375,-0.015625 -0.140625,-0.03125 -0.140625,-0.109375 0,-0.03125 0,-0.046875 0.046875,-0.21875 L 3.0625,-3.375 h 0.984375 c 0.84375,0 0.84375,0.21875 0.84375,0.46875 0,0.0625 0,0.1875 -0.0625,0.484375 C 4.8125,-2.375 4.796875,-2.34375 4.796875,-2.3125 c 0,0.046875 0.03125,0.109375 0.125,0.109375 C 5,-2.203125 5.03125,-2.25 5.078125,-2.40625 l 0.5625,-2.328125 c 0,-0.0625 -0.046875,-0.109375 -0.125,-0.109375 -0.078125,0 -0.109375,0.0625 -0.125,0.171875 -0.21875,0.765625 -0.390625,1 -1.3125,1 h -0.9375 l 0.59375,-2.40625 C 3.828125,-6.4375 3.84375,-6.46875 4.28125,-6.46875 H 5.6875 c 1.203125,0 1.515625,0.28125 1.515625,1.109375 0,0.234375 0,0.25 -0.046875,0.53125 0,0.046875 -0.015625,0.125 -0.015625,0.171875 0,0.046875 0.03125,0.125 0.125,0.125 0.109375,0 0.125,-0.0625 0.140625,-0.25 L 7.609375,-6.515625 C 7.640625,-6.78125 7.59375,-6.78125 7.34375,-6.78125 H 2.296875 c -0.1875,0 -0.296875,0 -0.296875,0.203125 0,0.109375 0.09375,0.109375 0.28125,0.109375 0.375,0 0.65625,0 0.65625,0.171875 0,0.046875 0,0.0625 -0.0625,0.25 L 1.5625,-0.78125 c -0.09375,0.390625 -0.109375,0.46875 -0.90625,0.46875 -0.171875,0 -0.28125,0 -0.28125,0.1875 C 0.375,0 0.46875,0 0.65625,0 h 5.171875 c 0.234375,0 0.25,-0.015625 0.3125,-0.171875 z m 0,0"
             id="path6735" />
        </g>
      </g>
    </g>
  </g>
</svg>
