<?xml version="1.0" encoding="UTF-8" standalone="no"?>
<!-- Created with Inkscape (http://www.inkscape.org/) -->

<svg
   sodipodi:docname="wavefunction_space_step_potential.svg"
   width="114.13801mm"
   height="98.51342mm"
   viewBox="0 0 114.13801 98.513423"
   version="1.1"
   id="svg5052"
   inkscape:version="1.2.2 (b0a8486541, 2022-12-01)"
   inkscape:export-filename="wavefunction_space_step_potential.pdf"
   inkscape:export-xdpi="96"
   inkscape:export-ydpi="96"
   xmlns:inkscape="http://www.inkscape.org/namespaces/inkscape"
   xmlns:sodipodi="http://sodipodi.sourceforge.net/DTD/sodipodi-0.dtd"
   xmlns="http://www.w3.org/2000/svg"
   xmlns:svg="http://www.w3.org/2000/svg">
  <sodipodi:namedview
     id="namedview5054"
     pagecolor="#505050"
     bordercolor="#eeeeee"
     borderopacity="1"
     inkscape:showpageshadow="0"
     inkscape:pageopacity="0"
     inkscape:pagecheckerboard="0"
     inkscape:deskcolor="#505050"
     inkscape:document-units="mm"
     showgrid="false"
     inkscape:zoom="1.2634372"
     inkscape:cx="199.4559"
     inkscape:cy="223.20065"
     inkscape:window-width="1470"
     inkscape:window-height="795"
     inkscape:window-x="0"
     inkscape:window-y="0"
     inkscape:window-maximized="1"
     inkscape:current-layer="layer1" />
  <defs
     id="defs5049" />
  <g
     inkscape:label="Layer 1"
     inkscape:groupmode="layer"
     id="layer1"
     transform="translate(-3.0780489,-1.6200254)">
    <g
       id="g11035">
      <path
         style="fill:none;stroke:#000000;stroke-width:0.79375;stroke-linecap:butt;stroke-linejoin:miter;stroke-dasharray:none;stroke-opacity:1"
         d="m 15.974203,18.707394 h 44.00638 V 7.866409 h 42.720247"
         id="path5175" />
      <path
         style="fill:none;stroke:#000000;stroke-width:0.529167;stroke-linecap:butt;stroke-linejoin:miter;stroke-dasharray:0.529167, 1.5875;stroke-dashoffset:0;stroke-opacity:1"
         d="M 60.100051,1.6200254 V 59.065903 h -0.116972"
         id="path5540" />
      <path
         style="fill:none;stroke:#000000;stroke-width:0.529167;stroke-linecap:butt;stroke-linejoin:miter;stroke-dasharray:0.529167, 3.175;stroke-dashoffset:0;stroke-opacity:1"
         d="M 15.726237,29.478475 H 101.97933"
         id="path5544" />
      <path
         style="fill:none;stroke:#000000;stroke-width:0.529167;stroke-linecap:butt;stroke-linejoin:miter;stroke-dasharray:0.529167, 3.175;stroke-dashoffset:0;stroke-opacity:1"
         d="M 15.726237,45.353476 H 101.97933"
         id="path5544-0" />
      <path
         style="fill:none;stroke:#000000;stroke-width:0.529167;stroke-linecap:butt;stroke-linejoin:miter;stroke-dasharray:0.529167, 3.175;stroke-dashoffset:0;stroke-opacity:1"
         d="M 15.726237,61.228477 H 101.97933"
         id="path5544-9" />
      <path
         style="fill:none;stroke:#000000;stroke-width:0.529167;stroke-linecap:butt;stroke-linejoin:miter;stroke-dasharray:0.529167, 3.175;stroke-dashoffset:0;stroke-opacity:1"
         d="M 15.726237,77.103478 H 101.97933"
         id="path5544-3" />
      <path
         style="fill:none;stroke:#000000;stroke-width:0.529167;stroke-linecap:butt;stroke-linejoin:miter;stroke-dasharray:0.529167, 3.175;stroke-dashoffset:0;stroke-opacity:1"
         d="M 15.726237,92.978479 H 101.97933"
         id="path5544-6" />
      <path
         style="fill:none;stroke:#000000;stroke-width:0.529167;stroke-dasharray:none;stroke-dashoffset:0;stop-color:#000000"
         d="m 15.7013,29.9851 c 0.9819,-1.7846 1.9637,-3.5544 2.9456,-4.7491 0.9819,-1.1947 1.9637,-1.7922 2.9456,-1.6064 0.9819,0.1857 1.9637,1.1559 2.9456,2.5992 0.9818,1.4434 1.9637,3.3393 2.9456,5.085 0.9818,1.7457 1.9637,3.3128 2.9456,4.2057 0.9818,0.893 1.9637,1.0942 2.9455,0.5434 0.9819,-0.5507 1.9638,-1.8485 2.9456,-3.4785 0.9819,-1.63 1.9637,-3.568 2.9456,-5.1986 0.9819,-1.6306 1.9637,-2.9263 2.9456,-3.4785 0.9819,-0.5522 1.9637,-0.3482 2.9456,0.5434 0.9818,0.8917 1.9637,2.4603 2.9456,4.2057 0.9818,1.7455 1.9637,3.6408 2.9456,5.085 0.9818,1.4442 1.9637,2.412 2.9455,2.5993 0.9819,0.1873 1.9638,-0.4129 2.9456,-1.6065 0.9819,-1.1935 1.9638,-2.9645 2.9456,-4.7491"
         title="sin(x)"
         id="path6742" />
      <path
         style="fill:none;stroke:#000000;stroke-width:0.529167;stroke-dasharray:none;stroke-dashoffset:0;stop-color:#000000"
         d="m 59.87032,29.9851 c 0.9819,-3.5691 2.77388,-6.7257 3.75578,-6.3555 0.9818,0.3701 1.9637,4.1924 2.9456,7.6842 0.9818,3.4918 1.9637,5.8492 2.9455,4.7491 0.9819,-1.1001 1.9638,-5.4152 2.9456,-8.6771 0.9819,-3.2618 1.9638,-4.7171 2.9456,-2.9351 0.9819,1.782 1.9637,6.4014 2.9456,9.2907 0.9819,2.8893 1.9637,3.3789 2.9456,0.9928 0.9819,-2.386 1.9637,-7.1077 2.9456,-9.4982 0.9818,-2.3905 1.9637,-1.8929 2.9456,0.9928 0.9818,2.8858 1.9637,7.5036 2.9456,9.2907 0.9818,1.7872 1.9637,0.3243 2.9455,-2.9351 0.9819,-3.2594 1.9638,-7.5713 2.9456,-8.6771 0.9819,-1.1058 1.9638,1.2586 2.9456,4.7491 0.9819,3.4906 1.9639,7.3082 2.9459,7.6843 0.982,0.376 1.963,-2.7864 2.945,-6.3556"
         title="sin(2*x)"
         id="path7490"
         sodipodi:nodetypes="ccccccsccccccccc" />
      <path
         style="fill:none;stroke:#000000;stroke-width:0.529167;stroke-dasharray:none;stroke-dashoffset:0;stop-color:#000000"
         d="m 104.88729,45.860101 c -0.9819,-1.7846 -1.9637,-3.5544 -2.9456,-4.7491 -0.9819,-1.1947 -1.963698,-1.7922 -2.945598,-1.6064 -0.9819,0.1857 -1.9637,1.1559 -2.9456,2.5992 -0.9818,1.4434 -1.9637,3.3393 -2.9456,5.085 -0.9818,1.7457 -1.9637,3.3128 -2.9456,4.2057 -0.9818,0.893 -1.9637,1.0942 -2.9455,0.5434 -0.9819,-0.5507 -1.9638,-1.8485 -2.9456,-3.4785 -0.9819,-1.63 -1.9637,-3.568 -2.9456,-5.1986 -0.9819,-1.6306 -1.9637,-2.9263 -2.9456,-3.4785 -0.9819,-0.5522 -1.9637,-0.3482 -2.9456,0.5434 -0.9818,0.8917 -1.9637,2.4603 -2.9456,4.2057 -0.9818,1.7455 -1.9637,3.6408 -2.9456,5.085 -0.9818,1.4442 -1.9637,2.412 -2.9455,2.5993 -0.9819,0.1873 -1.9638,-0.4129 -2.9456,-1.6065 -0.9819,-1.1935 -1.9638,-2.9645 -2.9456,-4.7491"
         title="sin(x)"
         id="path6742-5" />
      <path
         style="fill:none;stroke:#000000;stroke-width:0.529167;stroke-dasharray:none;stroke-dashoffset:0;stop-color:#000000"
         d="m 60.718272,45.860101 c -0.9819,-3.5691 -2.77388,-6.7257 -3.75578,-6.3555 -0.9818,0.3701 -1.9637,4.1924 -2.9456,7.6842 -0.9818,3.4918 -1.9637,5.8492 -2.9455,4.7491 -0.9819,-1.1001 -1.9638,-5.4152 -2.9456,-8.6771 -0.9819,-3.2618 -1.9638,-4.7171 -2.9456,-2.9351 -0.9819,1.782 -1.9637,6.4014 -2.9456,9.2907 -0.9819,2.8893 -1.9637,3.3789 -2.9456,0.9928 -0.9819,-2.386 -1.9637,-7.1077 -2.9456,-9.4982 -0.9818,-2.3905 -1.9637,-1.8929 -2.9456,0.9928 -0.9818,2.8858 -1.9637,7.5036 -2.9456,9.2907 -0.9818,1.7872 -1.9637,0.3243 -2.9455,-2.9351 -0.9819,-3.2594 -1.9638,-7.5713 -2.9456,-8.6771 -0.9819,-1.1058 -1.9638,1.2586 -2.9456,4.7491 -0.9819,3.4906 -1.9639,7.3082 -2.9459,7.6843 -0.982,0.376 -1.963,-2.7864 -2.945,-6.3556"
         title="sin(2*x)"
         id="path7490-3"
         sodipodi:nodetypes="ccccccsccccccccc" />
      <path
         style="fill:none;stroke:#000000;stroke-width:0.529167;stroke-dasharray:none;stroke-dashoffset:0;stop-color:#000000"
         d="m 60.871663,92.958617 c -2.291455,-2.176822 -2.927271,-6.199213 -3.909171,-5.829013 -0.9818,0.3701 -1.9637,4.1924 -2.9456,7.6842 -0.9818,3.4918 -1.9637,5.849196 -2.9455,4.7491 -0.9819,-1.1001 -1.9638,-5.4152 -2.9456,-8.6771 -0.9819,-3.2618 -1.9638,-4.7171 -2.9456,-2.9351 -0.9819,1.782 -1.9637,6.4014 -2.9456,9.2907 -0.9819,2.889296 -1.9637,3.378896 -2.9456,0.9928 -0.9819,-2.386 -1.9637,-7.1077 -2.9456,-9.4982 -0.9818,-2.3905 -1.9637,-1.8929 -2.9456,0.9928 -0.9818,2.8858 -1.9637,7.5036 -2.9456,9.2907 -0.9818,1.787196 -1.9637,0.3243 -2.9455,-2.9351 -0.9819,-3.2594 -1.9638,-7.5713 -2.9456,-8.6771 -0.9819,-1.1058 -1.9638,1.2586 -2.9456,4.7491 -0.9819,3.4906 -1.9639,7.3082 -2.9459,7.6843 -0.982,0.375996 -1.963,-2.7864 -2.945,-6.3556"
         title="sin(2*x)"
         id="path7490-3-7"
         sodipodi:nodetypes="ccccccsccccccccc" />
      <path
         style="fill:none;stroke:#000000;stroke-width:0.529167;stroke-dasharray:none;stroke-dashoffset:0;stop-color:#000000"
         d="m 60.703487,77.610103 c 0.9819,-1.7846 1.9637,-3.5544 2.9456,-4.7491 0.9819,-1.1947 1.963698,-1.7922 2.945598,-1.6064 0.9819,0.1857 1.9637,1.1559 2.9456,2.5992 0.9818,1.4434 1.9637,3.3393 2.9456,5.085 0.9818,1.7457 1.9637,3.3128 2.9456,4.2057 0.9818,0.893 1.9637,1.0942 2.9455,0.5434 0.9819,-0.5507 1.9638,-1.8485 2.9456,-3.4785 0.9819,-1.63 1.9637,-3.568 2.9456,-5.1986 0.9819,-1.6306 1.9637,-2.9263 2.9456,-3.4785 0.9819,-0.5522 1.9637,-0.3482 2.9456,0.5434 0.9818,0.8917 1.9637,2.4603 2.9456,4.2057 0.9818,1.7455 1.9637,3.6408 2.9456,5.085 0.9818,1.4442 1.9637,2.412 2.9455,2.5993 0.9819,0.1873 1.963795,-0.4129 2.945595,-1.6065 0.9819,-1.1935 1.9638,-2.9645 2.9456,-4.7491"
         title="sin(x)"
         id="path6742-5-9" />
      <path
         style="fill:none;stroke:#000000;stroke-width:0.529167;stroke-dasharray:none;stroke-dashoffset:0;stop-color:#000000"
         d="m 60.718272,77.610103 c -0.9819,-3.5691 -2.77388,-6.7257 -3.75578,-6.3555 -0.9818,0.3701 -1.9637,4.1924 -2.9456,7.6842 -0.9818,3.4918 -1.9637,5.8492 -2.9455,4.7491 -0.9819,-1.1001 -1.9638,-5.4152 -2.9456,-8.6771 -0.9819,-3.2618 -1.9638,-4.7171 -2.9456,-2.9351 -0.9819,1.782 -1.9637,6.4014 -2.9456,9.2907 -0.9819,2.8893 -1.9637,3.3789 -2.9456,0.9928 -0.9819,-2.386 -1.9637,-7.1077 -2.9456,-9.4982 -0.9818,-2.3905 -1.9637,-1.8929 -2.9456,0.9928 -0.9818,2.8858 -1.9637,7.5036 -2.9456,9.2907 -0.9818,1.7872 -1.9637,0.3243 -2.9455,-2.9351 -0.9819,-3.2594 -1.9638,-7.5713 -2.9456,-8.6771 -0.9819,-1.1058 -1.9638,1.2586 -2.9456,4.7491 -0.9819,3.4906 -1.9639,7.3082 -2.9459,7.6843 -0.982,0.376 -1.963,-2.7864 -2.945,-6.3556"
         title="sin(2*x)"
         id="path7490-3-1"
         sodipodi:nodetypes="ccccccsccccccccc" />
      <path
         style="fill:none;stroke:#000000;stroke-width:0.529167;stroke-dasharray:none;stroke-dashoffset:0;stop-color:#000000"
         d="m 15.7013,61.735102 c 0.9819,-1.7846 1.9637,-3.5544 2.9456,-4.7491 0.9819,-1.1947 1.9637,-1.7922 2.9456,-1.6064 0.9819,0.1857 1.9637,1.1559 2.9456,2.5992 0.9818,1.4434 1.9637,3.3393 2.9456,5.085 0.9818,1.7457 1.9637,3.3128 2.9456,4.2057 0.9818,0.893 1.9637,1.0942 2.9455,0.5434 0.9819,-0.5507 1.9638,-1.8485 2.9456,-3.4785 0.9819,-1.63 1.9637,-3.568 2.9456,-5.1986 0.9819,-1.6306 1.9637,-2.9263 2.9456,-3.4785 0.9819,-0.5522 1.9637,-0.3482 2.9456,0.5434 0.9818,0.8917 1.9637,2.4603 2.9456,4.2057 0.9818,1.7455 1.9637,3.6408 2.9456,5.085 0.9818,1.4442 1.9637,2.412 2.9455,2.5993 0.9819,0.1873 1.9638,-0.4129 2.9456,-1.6065 0.9819,-1.1935 1.9638,-2.9645 2.9456,-4.7491"
         title="sin(x)"
         id="path6742-56" />
      <path
         style="fill:none;stroke:#000000;stroke-width:0.529167;stroke-dasharray:none;stroke-dashoffset:0;stop-color:#000000"
         d="m 104.864,61.735102 c -0.9819,-3.5691 -2.77388,-6.7257 -3.75578,-6.3555 -0.9818,0.3701 -1.963701,4.1924 -2.945601,7.6842 -0.9818,3.4918 -1.9637,5.8492 -2.9455,4.7491 -0.9819,-1.1001 -1.9638,-5.4152 -2.9456,-8.6771 -0.9819,-3.2618 -1.9638,-4.7171 -2.9456,-2.9351 -0.9819,1.782 -1.9637,6.4014 -2.9456,9.2907 -0.9819,2.8893 -1.9637,3.3789 -2.9456,0.9928 -0.9819,-2.386 -1.9637,-7.1077 -2.9456,-9.4982 -0.9818,-2.3905 -1.9637,-1.8929 -2.9456,0.9928 -0.9818,2.8858 -1.9637,7.5036 -2.9456,9.2907 -0.9818,1.7872 -1.9637,0.3243 -2.9455,-2.9351 -0.9819,-3.2594 -1.9638,-7.5713 -2.9456,-8.6771 -0.9819,-1.1058 -1.9638,1.2586 -2.9456,4.7491 -0.9819,3.4906 -1.9639,7.3082 -2.9459,7.6843 -0.982,0.376 -1.963,-2.7864 -2.945,-6.3556"
         title="sin(2*x)"
         id="path7490-2"
         sodipodi:nodetypes="ccccccsccccccccc" />
      <path
         style="fill:none;stroke:#000000;stroke-width:0.529167;stroke-dasharray:none;stroke-dashoffset:0;stop-color:#000000"
         d="m 60.6805,92.91537 c 0.9819,0.8921 1.9637,1.5999 2.9456,2.187 0.9818,0.587 1.9637,1.0524 2.9456,1.4385 0.9818,0.3862 1.9637,0.6923 2.9456,0.9463 0.9818,0.254 1.9637,0.4553 2.9455,0.6224 0.9819,0.1671 1.9638,0.2995 2.9456,0.4094 0.9819,0.1099 1.9637,0.197 2.9456,0.2693 0.9819,0.0723 1.9637,0.1296 2.9456,0.1772 0.9819,0.0475 1.9637,0.0852 2.9456,0.1165 0.9818,0.0313 1.9637,0.0561 2.9456,0.0767 0.9818,0.0205 1.9637,0.0368 2.9456,0.0504 0.9818,0.0135 1.9637,0.0242 2.9455,0.0331 0.9819,0.0089 1.9638,0.016 2.9456,0.0219 0.9819,0.0058 1.9638,0.0105 2.9456,0.0143 0.9819,0.0039 1.9639,0.0069 2.9459,0.0094 0.982,0.0026 1.963,0.0046 2.945,0.0063"
         title="exp(-1*x)"
         id="path8521" />
      <text
         xml:space="preserve"
         style="font-size:8.46667px;line-height:1.25;font-family:sans-serif;stroke-width:0.264583"
         x="-82.38382"
         y="9.5042515"
         id="text8957"
         transform="rotate(-90)"><tspan
           sodipodi:role="line"
           id="tspan8955"
           style="stroke-width:0.264583"
           x="-82.38382"
           y="9.5042515">Re(ψ)</tspan></text>
      <text
         xml:space="preserve"
         style="font-size:8.46667px;line-height:1.25;font-family:sans-serif;stroke-width:0.264583"
         x="30.82089"
         y="10.670375"
         id="text9687"><tspan
           sodipodi:role="line"
           id="tspan9685"
           style="stroke-width:0.264583"
           x="30.82089"
           y="10.670375">V(x)</tspan></text>
      <text
         xml:space="preserve"
         style="font-size:8.46667px;line-height:1.25;font-family:sans-serif;stroke-width:0.264583"
         x="107.26773"
         y="31.908539"
         id="text10522"><tspan
           sodipodi:role="line"
           id="tspan10520"
           style="stroke-width:0.264583"
           x="107.26773"
           y="31.908539">(a)</tspan></text>
      <text
         xml:space="preserve"
         style="font-size:8.46667px;line-height:1.25;font-family:sans-serif;stroke-width:0.264583"
         x="107.26773"
         y="47.783543"
         id="text10522-0"><tspan
           sodipodi:role="line"
           id="tspan10520-6"
           style="stroke-width:0.264583"
           x="107.26773"
           y="47.783543">(b)</tspan></text>
      <text
         xml:space="preserve"
         style="font-size:8.46667px;line-height:1.25;font-family:sans-serif;stroke-width:0.264583"
         x="107.26773"
         y="63.658546"
         id="text10522-2"><tspan
           sodipodi:role="line"
           id="tspan10520-61"
           style="stroke-width:0.264583"
           x="107.26773"
           y="63.658546">(c)</tspan></text>
      <text
         xml:space="preserve"
         style="font-size:8.46667px;line-height:1.25;font-family:sans-serif;stroke-width:0.264583"
         x="107.26773"
         y="79.533539"
         id="text10522-8"><tspan
           sodipodi:role="line"
           id="tspan10520-7"
           style="stroke-width:0.264583"
           x="107.26773"
           y="79.533539">(d)</tspan></text>
      <text
         xml:space="preserve"
         style="font-size:8.46667px;line-height:1.25;font-family:sans-serif;stroke-width:0.264583"
         x="107.26773"
         y="95.408531"
         id="text10522-9"><tspan
           sodipodi:role="line"
           id="tspan10520-2"
           style="stroke-width:0.264583"
           x="107.26773"
           y="95.408531">(e)</tspan></text>
    </g>
  </g>
</svg>
