<?xml version="1.0" encoding="UTF-8" standalone="no"?>
<!-- Created with Inkscape (http://www.inkscape.org/) -->

<svg
   width="71.354248mm"
   height="44.778851mm"
   viewBox="0 0 71.354248 44.778851"
   version="1.1"
   id="svg5"
   sodipodi:docname="wavefunction_time_particle_2.svg"
   inkscape:version="1.2.2 (b0a8486541, 2022-12-01)"
   inkscape:export-filename="wavefunction_space_particle_2.pdf"
   inkscape:export-xdpi="96"
   inkscape:export-ydpi="96"
   xmlns:inkscape="http://www.inkscape.org/namespaces/inkscape"
   xmlns:sodipodi="http://sodipodi.sourceforge.net/DTD/sodipodi-0.dtd"
   xmlns="http://www.w3.org/2000/svg"
   xmlns:svg="http://www.w3.org/2000/svg">
  <sodipodi:namedview
     id="namedview7"
     pagecolor="#505050"
     bordercolor="#eeeeee"
     borderopacity="1"
     inkscape:showpageshadow="0"
     inkscape:pageopacity="0"
     inkscape:pagecheckerboard="0"
     inkscape:deskcolor="#505050"
     inkscape:document-units="mm"
     showgrid="false"
     inkscape:zoom="2.4682109"
     inkscape:cx="132.88978"
     inkscape:cy="109.79613"
     inkscape:window-width="1470"
     inkscape:window-height="795"
     inkscape:window-x="0"
     inkscape:window-y="0"
     inkscape:window-maximized="1"
     inkscape:current-layer="layer1" />
  <defs
     id="defs2">
    <marker
       style="overflow:visible"
       id="Arrow5"
       refX="0"
       refY="0"
       orient="auto-start-reverse"
       inkscape:stockid="Arrow5"
       markerWidth="5.8874264"
       markerHeight="6.6094756"
       viewBox="0 0 5.8874262 6.6094758"
       inkscape:isstock="true"
       inkscape:collect="always"
       preserveAspectRatio="xMidYMid">
      <path
         transform="scale(0.5)"
         style="fill:context-stroke;fill-rule:evenodd;stroke:context-stroke;stroke-width:1pt"
         d="m 6,0 c -3,1 -7,3 -9,5 0,0 0,-4 2,-5 -2,-1 -2,-5 -2,-5 2,2 6,4 9,5 z"
         id="path8893" />
    </marker>
  </defs>
  <g
     inkscape:label="Layer 1"
     inkscape:groupmode="layer"
     id="layer1"
     transform="translate(4.5794701,7.950123)">
    <path
       style="fill:none;stroke:#000000;stroke-width:0.529167;stroke-linecap:butt;stroke-linejoin:miter;stroke-dasharray:0.529167, 1.5875;stroke-dashoffset:0;stroke-opacity:1;marker-end:url(#Arrow5)"
       d="M 2.4481473,13.939465 H 64.629488"
       id="path1243"
       sodipodi:nodetypes="cc" />
    <text
       xml:space="preserve"
       style="font-size:8.46667px;line-height:1.25;font-family:sans-serif;stroke-width:0.264583"
       x="53.693672"
       y="11.02225"
       id="text3005"><tspan
         sodipodi:role="line"
         id="tspan3003"
         style="stroke-width:0.264583"
         x="53.693672"
         y="11.02225">t</tspan></text>
    <text
       xml:space="preserve"
       style="font-size:8.46667px;line-height:1.25;font-family:sans-serif;stroke-width:0.264583"
       x="-35.94379"
       y="1.4657323"
       id="text1501"
       transform="rotate(-90)"><tspan
         sodipodi:role="line"
         id="tspan1499"
         style="stroke-width:0.264583"
         x="-35.94379"
         y="1.4657323">Re(Ψ<tspan
   style="font-size:65%;baseline-shift:sub"
   id="tspan4532">2</tspan>(0, t))</tspan></text>
    <path
       style="fill:none;stroke:#000000;stroke-width:0.79375;stroke-dasharray:none;stop-color:#000000"
       d="M 5.6856664,14.438849 C 6.7988661,10.228879 7.9120652,6.0536095 9.0252646,3.2352595 10.138464,0.41690946 11.251664,-0.99280054 12.364864,-0.55449054 c 1.1132,0.43831 2.2265,2.72701804 3.3397,6.13195004 1.1132,3.40493 2.2264,7.8774895 3.3396,11.9958895 1.1132,4.1184 2.2264,7.8152 3.3396,9.9217 1.1132,2.1065 2.2264,2.5812 3.3396,1.2819 1.1132,-1.2992 2.2264,-4.3608 3.3396,-8.2061 1.1133,-3.8453 2.2265,-8.41716 3.3397,-12.2639095 1.1132,-3.84675 2.2264,-6.90351 3.3396,-8.20615004 1.1132,-1.30263996 2.2264,-0.82155 3.3396,1.28193004 1.1132,2.103471 2.2264,5.80406 3.3396,9.9216995 1.1132,4.11763 2.2265,8.58893 3.3397,11.99593 1.1132,3.407 2.2264,5.6901 3.3396,6.1319 1.1132,0.4418 2.2264,-0.974 3.3396,-3.7897 1.1132,-2.8158 2.2264,-6.9937 3.3396,-11.2037"
       title="sin(x)"
       id="path4098" />
  </g>
</svg>
